M48
; DRILL file {KiCad 9.0.5} date 2025-11-13T19:15:25+0000
; FORMAT={-:-/ absolute / metric / decimal}
; #@! TF.CreationDate,2025-11-13T19:15:25+00:00
; #@! TF.GenerationSoftware,Kicad,Pcbnew,9.0.5
; #@! TF.FileFunction,Plated,1,4,PTH
FMAT,2
METRIC
; #@! TA.AperFunction,Plated,PTH,ViaDrill
T1C0.250
; #@! TA.AperFunction,Plated,PTH,ViaDrill
T2C0.300
%
G90
G05
T1
X204.25Y-104.175
X204.25Y-104.775
X207.025Y-105.25
X207.025Y-105.95
T2
X194.2Y-84.56
X194.2Y-86.06
X194.2Y-87.56
X194.2Y-90.56
X194.2Y-92.06
X194.2Y-93.56
X194.2Y-95.06
X194.2Y-96.56
X194.2Y-98.06
X194.2Y-99.56
X194.2Y-102.56
X194.2Y-104.06
X194.2Y-105.56
X194.2Y-107.06
X194.2Y-108.56
X194.53Y-82.7
X194.69Y-89.08
X194.8Y-100.8
X194.88Y-109.915
X195.7Y-82.1
X195.705Y-95.795
X195.748Y-93.912
X195.755Y-99.295
X195.765Y-97.627
X195.85Y-88.325
X195.85Y-92.065
X196.18Y-110.29
X196.975Y-101.585
X197.125Y-82.625
X197.45Y-90.385
X197.5Y-98.8
X197.51Y-95.58
X197.68Y-110.29
X197.865Y-105.25
X197.875Y-106.06
X198.0Y-92.4
X198.17Y-82.1
X198.35Y-87.27
X198.79Y-99.17
X198.86Y-91.59
X198.86Y-93.64
X198.975Y-101.97
X199.18Y-110.29
X199.25Y-84.24
X199.25Y-85.82
X199.275Y-83.14
X199.3Y-82.1
X199.7Y-96.7
X200.3Y-104.35
X200.68Y-110.29
X201.05Y-107.8
X201.1Y-96.3
X201.63Y-94.56
X202.1Y-92.8
X202.14Y-102.355
X202.18Y-110.29
X202.475Y-108.9
X202.975Y-87.1
X203.02Y-96.47
X203.375Y-108.9
X203.435Y-101.565
X203.68Y-110.29
X203.7Y-98.75
X203.8Y-91.7
X203.9Y-87.1
X204.275Y-108.885
X204.58Y-96.0
X204.8Y-87.1
X204.9Y-91.7
X205.175Y-108.9
X205.18Y-110.29
X205.51Y-96.5
X205.555Y-100.785
X205.75Y-87.1
X205.9Y-99.425
X206.075Y-108.9
X206.55Y-92.8
X206.68Y-110.29
X206.7Y-99.425
X206.8Y-96.4
X207.025Y-103.15
X207.275Y-108.095
X207.5Y-99.425
X207.59Y-101.615
X208.18Y-110.29
X208.44Y-106.075
X208.67Y-96.88
X208.69Y-103.15
X209.34Y-95.54
X209.375Y-84.3
X209.4Y-82.1
X209.4Y-83.14
X209.42Y-93.37
X209.53Y-97.0
X209.68Y-110.29
X210.4Y-88.5
X210.45Y-85.025
X210.585Y-82.28
X210.74Y-97.7
X210.76Y-108.605
X210.979Y-90.437
X211.09Y-110.3
X211.25Y-101.6
X211.3Y-99.7
X211.495Y-107.145
X211.8Y-100.4
X211.91Y-82.28
X212.17Y-94.81
X212.3Y-99.7
X212.715Y-106.43
X213.045Y-82.27
X213.27Y-97.52
X213.889Y-87.835
X214.1Y-95.7
X214.16Y-82.28
X214.3Y-106.5
X214.395Y-86.105
X214.41Y-84.705
X214.605Y-90.47
X214.65Y-100.25
X214.65Y-101.775
X214.65Y-104.945
X214.655Y-97.18
X214.66Y-91.93
X214.66Y-93.48
X214.66Y-98.34
X214.66Y-103.38
X214.69Y-94.97
M30
