%TF.GenerationSoftware,KiCad,Pcbnew,9.0.5*%
%TF.CreationDate,2025-11-13T19:19:40+00:00*%
%TF.ProjectId,azss,617a7373-2e6b-4696-9361-645f70636258,rev?*%
%TF.SameCoordinates,Original*%
%TF.FileFunction,Copper,L1,Top*%
%TF.FilePolarity,Positive*%
%FSLAX46Y46*%
G04 Gerber Fmt 4.6, Leading zero omitted, Abs format (unit mm)*
G04 Created by KiCad (PCBNEW 9.0.5) date 2025-11-13 19:19:40*
%MOMM*%
%LPD*%
G01*
G04 APERTURE LIST*
G04 Aperture macros list*
%AMRoundRect*
0 Rectangle with rounded corners*
0 $1 Rounding radius*
0 $2 $3 $4 $5 $6 $7 $8 $9 X,Y pos of 4 corners*
0 Add a 4 corners polygon primitive as box body*
4,1,4,$2,$3,$4,$5,$6,$7,$8,$9,$2,$3,0*
0 Add four circle primitives for the rounded corners*
1,1,$1+$1,$2,$3*
1,1,$1+$1,$4,$5*
1,1,$1+$1,$6,$7*
1,1,$1+$1,$8,$9*
0 Add four rect primitives between the rounded corners*
20,1,$1+$1,$2,$3,$4,$5,0*
20,1,$1+$1,$4,$5,$6,$7,0*
20,1,$1+$1,$6,$7,$8,$9,0*
20,1,$1+$1,$8,$9,$2,$3,0*%
%AMFreePoly0*
4,1,6,0.500000,-0.850000,-0.500000,-0.850000,-0.500000,0.550000,-0.200000,0.850000,0.500000,0.850000,0.500000,-0.850000,0.500000,-0.850000,$1*%
G04 Aperture macros list end*
%TA.AperFunction,Conductor*%
%ADD10C,0.300000*%
%TD*%
%TA.AperFunction,SMDPad,CuDef*%
%ADD11RoundRect,0.135000X0.135000X0.185000X-0.135000X0.185000X-0.135000X-0.185000X0.135000X-0.185000X0*%
%TD*%
%TA.AperFunction,SMDPad,CuDef*%
%ADD12RoundRect,0.218750X0.218750X0.256250X-0.218750X0.256250X-0.218750X-0.256250X0.218750X-0.256250X0*%
%TD*%
%TA.AperFunction,SMDPad,CuDef*%
%ADD13RoundRect,0.135000X-0.135000X-0.185000X0.135000X-0.185000X0.135000X0.185000X-0.135000X0.185000X0*%
%TD*%
%TA.AperFunction,SMDPad,CuDef*%
%ADD14RoundRect,0.225000X0.225000X0.250000X-0.225000X0.250000X-0.225000X-0.250000X0.225000X-0.250000X0*%
%TD*%
%TA.AperFunction,SMDPad,CuDef*%
%ADD15RoundRect,0.135000X-0.185000X0.135000X-0.185000X-0.135000X0.185000X-0.135000X0.185000X0.135000X0*%
%TD*%
%TA.AperFunction,SMDPad,CuDef*%
%ADD16RoundRect,0.225000X0.250000X-0.225000X0.250000X0.225000X-0.250000X0.225000X-0.250000X-0.225000X0*%
%TD*%
%TA.AperFunction,SMDPad,CuDef*%
%ADD17RoundRect,0.062500X0.062500X-0.350000X0.062500X0.350000X-0.062500X0.350000X-0.062500X-0.350000X0*%
%TD*%
%TA.AperFunction,HeatsinkPad*%
%ADD18R,2.000000X1.200000*%
%TD*%
%TA.AperFunction,SMDPad,CuDef*%
%ADD19R,1.000000X1.800000*%
%TD*%
%TA.AperFunction,SMDPad,CuDef*%
%ADD20RoundRect,0.225000X-0.225000X-0.250000X0.225000X-0.250000X0.225000X0.250000X-0.225000X0.250000X0*%
%TD*%
%TA.AperFunction,SMDPad,CuDef*%
%ADD21RoundRect,0.140000X-0.140000X-0.170000X0.140000X-0.170000X0.140000X0.170000X-0.140000X0.170000X0*%
%TD*%
%TA.AperFunction,SMDPad,CuDef*%
%ADD22RoundRect,0.082500X0.792500X-0.192500X0.792500X0.192500X-0.792500X0.192500X-0.792500X-0.192500X0*%
%TD*%
%TA.AperFunction,SMDPad,CuDef*%
%ADD23RoundRect,0.200000X0.200000X0.275000X-0.200000X0.275000X-0.200000X-0.275000X0.200000X-0.275000X0*%
%TD*%
%TA.AperFunction,SMDPad,CuDef*%
%ADD24R,1.000000X1.000000*%
%TD*%
%TA.AperFunction,SMDPad,CuDef*%
%ADD25RoundRect,0.100000X0.250000X-0.100000X0.250000X0.100000X-0.250000X0.100000X-0.250000X-0.100000X0*%
%TD*%
%TA.AperFunction,SMDPad,CuDef*%
%ADD26RoundRect,0.150000X-0.587500X-0.150000X0.587500X-0.150000X0.587500X0.150000X-0.587500X0.150000X0*%
%TD*%
%TA.AperFunction,SMDPad,CuDef*%
%ADD27RoundRect,0.140000X-0.170000X0.140000X-0.170000X-0.140000X0.170000X-0.140000X0.170000X0.140000X0*%
%TD*%
%TA.AperFunction,ConnectorPad*%
%ADD28C,0.787400*%
%TD*%
%TA.AperFunction,SMDPad,CuDef*%
%ADD29RoundRect,0.135000X0.185000X-0.135000X0.185000X0.135000X-0.185000X0.135000X-0.185000X-0.135000X0*%
%TD*%
%TA.AperFunction,SMDPad,CuDef*%
%ADD30RoundRect,0.225000X-0.250000X0.225000X-0.250000X-0.225000X0.250000X-0.225000X0.250000X0.225000X0*%
%TD*%
%TA.AperFunction,SMDPad,CuDef*%
%ADD31RoundRect,0.090000X-0.210000X-0.210000X0.210000X-0.210000X0.210000X0.210000X-0.210000X0.210000X0*%
%TD*%
%TA.AperFunction,SMDPad,CuDef*%
%ADD32RoundRect,0.218750X0.218750X0.381250X-0.218750X0.381250X-0.218750X-0.381250X0.218750X-0.381250X0*%
%TD*%
%TA.AperFunction,SMDPad,CuDef*%
%ADD33RoundRect,0.200000X-0.275000X0.200000X-0.275000X-0.200000X0.275000X-0.200000X0.275000X0.200000X0*%
%TD*%
%TA.AperFunction,SMDPad,CuDef*%
%ADD34RoundRect,0.140000X0.170000X-0.140000X0.170000X0.140000X-0.170000X0.140000X-0.170000X-0.140000X0*%
%TD*%
%TA.AperFunction,SMDPad,CuDef*%
%ADD35RoundRect,0.200000X0.275000X-0.200000X0.275000X0.200000X-0.275000X0.200000X-0.275000X-0.200000X0*%
%TD*%
%TA.AperFunction,SMDPad,CuDef*%
%ADD36RoundRect,0.045000X0.205000X0.105000X-0.205000X0.105000X-0.205000X-0.105000X0.205000X-0.105000X0*%
%TD*%
%TA.AperFunction,SMDPad,CuDef*%
%ADD37RoundRect,0.075000X0.175000X0.175000X-0.175000X0.175000X-0.175000X-0.175000X0.175000X-0.175000X0*%
%TD*%
%TA.AperFunction,SMDPad,CuDef*%
%ADD38RoundRect,0.218750X-0.256250X0.218750X-0.256250X-0.218750X0.256250X-0.218750X0.256250X0.218750X0*%
%TD*%
%TA.AperFunction,SMDPad,CuDef*%
%ADD39R,0.550000X0.250000*%
%TD*%
%TA.AperFunction,SMDPad,CuDef*%
%ADD40FreePoly0,0.000000*%
%TD*%
%TA.AperFunction,SMDPad,CuDef*%
%ADD41RoundRect,0.200000X-0.200000X-0.275000X0.200000X-0.275000X0.200000X0.275000X-0.200000X0.275000X0*%
%TD*%
%TA.AperFunction,ViaPad*%
%ADD42C,0.600000*%
%TD*%
%TA.AperFunction,Conductor*%
%ADD43C,0.250000*%
%TD*%
%TA.AperFunction,Conductor*%
%ADD44C,0.600000*%
%TD*%
%TA.AperFunction,Conductor*%
%ADD45C,0.200000*%
%TD*%
%TA.AperFunction,Conductor*%
%ADD46C,0.127000*%
%TD*%
%TA.AperFunction,Conductor*%
%ADD47C,0.381000*%
%TD*%
%TA.AperFunction,Conductor*%
%ADD48C,0.800000*%
%TD*%
%TA.AperFunction,Conductor*%
%ADD49C,0.125000*%
%TD*%
G04 APERTURE END LIST*
%TO.N,/I2C_SDA*%
D10*
X210275000Y-95190000D02*
G75*
G02*
X209975000Y-95190000I-150000J0D01*
G01*
X209975000Y-95190000D02*
G75*
G02*
X210275000Y-95190000I150000J0D01*
G01*
%TO.N,/I2C_SCL*%
X210235000Y-96385000D02*
G75*
G02*
X209935000Y-96385000I-150000J0D01*
G01*
X209935000Y-96385000D02*
G75*
G02*
X210235000Y-96385000I150000J0D01*
G01*
%TD*%
D11*
%TO.P,R4,1*%
%TO.N,+2V8*%
X208660000Y-97400000D03*
%TO.P,R4,2*%
%TO.N,/I2C_SCL*%
X207640000Y-97400000D03*
%TD*%
D12*
%TO.P,D4,1,K*%
%TO.N,GND*%
X197800000Y-104095000D03*
%TO.P,D4,2,A*%
%TO.N,Net-(D4-A)*%
X196225000Y-104095000D03*
%TD*%
D13*
%TO.P,R5,1*%
%TO.N,+2V8*%
X205690000Y-97400000D03*
%TO.P,R5,2*%
%TO.N,/I2C_SDA*%
X206710000Y-97400000D03*
%TD*%
D14*
%TO.P,C11,1*%
%TO.N,+2V8*%
X213040000Y-98450000D03*
%TO.P,C11,2*%
%TO.N,GND*%
X211490000Y-98450000D03*
%TD*%
D15*
%TO.P,R2,1*%
%TO.N,Net-(U1-CFG1)*%
X205200000Y-106960000D03*
%TO.P,R2,2*%
%TO.N,GND*%
X205200000Y-107980000D03*
%TD*%
D16*
%TO.P,C5,1*%
%TO.N,+2V8*%
X197550000Y-94825000D03*
%TO.P,C5,2*%
%TO.N,GND*%
X197550000Y-93275000D03*
%TD*%
D17*
%TO.P,U1,1,EN*%
%TO.N,Net-(Q1-S)*%
X204550000Y-105682500D03*
%TO.P,U1,2,SEL*%
X205050000Y-105682500D03*
%TO.P,U1,3,CFG1*%
%TO.N,Net-(U1-CFG1)*%
X205550000Y-105682500D03*
%TO.P,U1,4,CFG2*%
%TO.N,Net-(U1-CFG2)*%
X206050000Y-105682500D03*
%TO.P,U1,5,CFG3*%
%TO.N,GND*%
X206550000Y-105682500D03*
%TO.P,U1,6,VOUT*%
%TO.N,+2V8*%
X206550000Y-103257500D03*
%TO.P,U1,7,LX2*%
%TO.N,Net-(U1-LX2)*%
X206050000Y-103257500D03*
%TO.P,U1,8,GND*%
%TO.N,GND*%
X205550000Y-103257500D03*
%TO.P,U1,9,LX1*%
%TO.N,Net-(U1-LX1)*%
X205050000Y-103257500D03*
%TO.P,U1,10,VIN*%
%TO.N,Net-(Q1-S)*%
X204550000Y-103257500D03*
D18*
%TO.P,U1,11,GND*%
%TO.N,GND*%
X205550000Y-104470000D03*
%TD*%
D19*
%TO.P,Y1,1,1*%
%TO.N,Net-(U2-XL1_32K)*%
X202600000Y-98100000D03*
%TO.P,Y1,2,2*%
%TO.N,Net-(U2-XL2_32K)*%
X200100000Y-98100000D03*
%TD*%
D20*
%TO.P,C9,1*%
%TO.N,+2V8*%
X208725000Y-101600000D03*
%TO.P,C9,2*%
%TO.N,GND*%
X210275000Y-101600000D03*
%TD*%
D21*
%TO.P,C7,1*%
%TO.N,Net-(U2-XL1_32K)*%
X203830000Y-97410000D03*
%TO.P,C7,2*%
%TO.N,GND*%
X204790000Y-97410000D03*
%TD*%
D22*
%TO.P,SW1,1,1*%
%TO.N,/RESET_N*%
X212240000Y-90835000D03*
%TO.P,SW1,2,2*%
%TO.N,GND*%
X212240000Y-94085000D03*
%TD*%
D23*
%TO.P,R10,1*%
%TO.N,+2V8*%
X197832934Y-102570000D03*
%TO.P,R10,2*%
%TO.N,Net-(D4-A)*%
X196182934Y-102570000D03*
%TD*%
D24*
%TO.P,TP5,1,1*%
%TO.N,+BATT*%
X209825000Y-107565000D03*
%TD*%
D25*
%TO.P,D1,1,A*%
%TO.N,GND*%
X201030000Y-109590000D03*
%TO.P,D1,2,K*%
%TO.N,+BATT*%
X201030000Y-108890000D03*
%TD*%
D26*
%TO.P,Q1,1,D*%
%TO.N,+BATT*%
X200630000Y-103415000D03*
%TO.P,Q1,2,G*%
%TO.N,GND*%
X200630000Y-105315000D03*
%TO.P,Q1,3,S*%
%TO.N,Net-(Q1-S)*%
X202505001Y-104365000D03*
%TD*%
D16*
%TO.P,C10,1*%
%TO.N,+2V8*%
X210000000Y-100000000D03*
%TO.P,C10,2*%
%TO.N,GND*%
X210000000Y-98450000D03*
%TD*%
D27*
%TO.P,C8,1*%
%TO.N,Net-(U2-XL2_32K)*%
X198800000Y-97570000D03*
%TO.P,C8,2*%
%TO.N,GND*%
X198800000Y-98530000D03*
%TD*%
D12*
%TO.P,D3,1,K*%
%TO.N,GND*%
X197797500Y-107280000D03*
%TO.P,D3,2,A*%
%TO.N,Net-(D3-A)*%
X196222500Y-107280000D03*
%TD*%
D28*
%TO.P,J1,1,VCC*%
%TO.N,+2V8*%
X213425000Y-87305000D03*
%TO.P,J1,2,SWDIO*%
%TO.N,/SWDIO*%
X212155000Y-87305000D03*
%TO.P,J1,3,~{RESET}*%
%TO.N,/RESET_N*%
X213425000Y-86035000D03*
%TO.P,J1,4,SWCLK*%
%TO.N,/SWCLK*%
X212155000Y-86035000D03*
%TO.P,J1,5,GND*%
%TO.N,GND*%
X213425000Y-84765000D03*
%TO.P,J1,6,SWO*%
%TO.N,unconnected-(J1-SWO-Pad6)*%
X212155000Y-84765000D03*
%TD*%
D29*
%TO.P,R7,1*%
%TO.N,+2V8*%
X200020000Y-101880000D03*
%TO.P,R7,2*%
%TO.N,/XSHUT*%
X200020000Y-100860000D03*
%TD*%
D30*
%TO.P,C4,1*%
%TO.N,+2V8*%
X207840000Y-103430000D03*
%TO.P,C4,2*%
%TO.N,GND*%
X207840000Y-104980000D03*
%TD*%
D31*
%TO.P,U2,*%
%TO.N,*%
X199950000Y-95000000D03*
X201050000Y-85100000D03*
X201050000Y-93900000D03*
X202150000Y-85100000D03*
X203800000Y-89500000D03*
X203800000Y-90600000D03*
X204350000Y-85100000D03*
X204900000Y-89500000D03*
X204900000Y-90600000D03*
X206550000Y-85100000D03*
X207650000Y-85100000D03*
X207650000Y-93900000D03*
%TO.P,U2,A1,VSS*%
%TO.N,GND*%
X208750000Y-95000000D03*
%TO.P,U2,A2,NC*%
%TO.N,unconnected-(U2-NC-PadA2)*%
X207650000Y-95000000D03*
%TO.P,U2,A3,I2C_SCL*%
%TO.N,/I2C_SCL*%
X206550000Y-95000000D03*
%TO.P,U2,A4,NC*%
%TO.N,unconnected-(U2-NC-PadA4)*%
X205450000Y-95000000D03*
%TO.P,U2,A5,P0.00*%
%TO.N,unconnected-(U2-P0.00-PadA5)*%
X204350000Y-95000000D03*
%TO.P,U2,A6,P0.01*%
%TO.N,unconnected-(U2-P0.01-PadA6)*%
X203250000Y-95000000D03*
%TO.P,U2,A7,VCC*%
%TO.N,+2V8*%
X202150000Y-95000000D03*
%TO.P,U2,A8,VCC*%
X201050000Y-95000000D03*
%TO.P,U2,B1,SPI_SCK*%
%TO.N,unconnected-(U2-SPI_SCK-PadB1)*%
X208750000Y-93900000D03*
%TO.P,U2,B3,SPI_CS*%
%TO.N,unconnected-(U2-SPI_CS-PadB3)*%
X206550000Y-93900000D03*
%TO.P,U2,B4,I2C_SDA*%
%TO.N,/I2C_SDA*%
X205450000Y-93900000D03*
%TO.P,U2,B5,P1.03*%
%TO.N,unconnected-(U2-NFC2-PadB5)*%
X204350000Y-93900000D03*
%TO.P,U2,B6,XL1_32K*%
%TO.N,Net-(U2-XL1_32K)*%
X203250000Y-93900000D03*
%TO.P,U2,B7,VCC*%
%TO.N,+2V8*%
X202150000Y-93900000D03*
%TO.P,U2,B9,NC*%
%TO.N,unconnected-(U2-NC-PadB9)*%
X199950000Y-93900000D03*
%TO.P,U2,C1,SPI_MISO*%
%TO.N,unconnected-(U2-SPI_MISO-PadC1)*%
X208750000Y-92800000D03*
%TO.P,U2,C2,SPI_MOSI*%
%TO.N,unconnected-(U2-SPI_MOSI-PadC2)*%
X207650000Y-92800000D03*
%TO.P,U2,C4,SPI_DCX*%
%TO.N,unconnected-(U2-SPI_DCX-PadC4)*%
X205450000Y-92800000D03*
%TO.P,U2,C5,P1.02*%
%TO.N,unconnected-(U2-NFC1-PadC5)*%
X204350000Y-92800000D03*
%TO.P,U2,C6,XL2_32K*%
%TO.N,Net-(U2-XL2_32K)*%
X203250000Y-92800000D03*
%TO.P,U2,C8,P0.02*%
%TO.N,unconnected-(U2-P0.02-PadC8)*%
X201050000Y-92800000D03*
%TO.P,U2,C9,NC*%
%TO.N,unconnected-(U2-NC-PadC9)*%
X199950000Y-92800000D03*
%TO.P,U2,D1,QSPI_D2*%
%TO.N,unconnected-(U2-QSPI_D2-PadD1)*%
X208750000Y-91700000D03*
%TO.P,U2,D2,QSPI_D0*%
%TO.N,unconnected-(U2-QSPI_D0-PadD2)*%
X207650000Y-91700000D03*
%TO.P,U2,D3,NC*%
%TO.N,unconnected-(U2-NC-PadD3)*%
X206550000Y-91700000D03*
%TO.P,U2,D7,NC*%
%TO.N,unconnected-(U2-NC-PadD7)*%
X202150000Y-91700000D03*
%TO.P,U2,D8,P1.09*%
%TO.N,unconnected-(U2-P1.09-PadD8)*%
X201050000Y-91700000D03*
%TO.P,U2,D9,NC*%
%TO.N,unconnected-(U2-NC-PadD9)*%
X199950000Y-91700000D03*
%TO.P,U2,E1,QSPI_CS*%
%TO.N,unconnected-(U2-QSPI_CS-PadE1)*%
X208750000Y-90600000D03*
%TO.P,U2,E2,QSPI_D1*%
%TO.N,unconnected-(U2-QSPI_D1-PadE2)*%
X207650000Y-90600000D03*
%TO.P,U2,E3,NC*%
%TO.N,unconnected-(U2-NC-PadE3)*%
X206550000Y-90600000D03*
%TO.P,U2,E7,NC*%
%TO.N,unconnected-(U2-NC-PadE7)*%
X202150000Y-90600000D03*
%TO.P,U2,E8,WAKE-HOST*%
%TO.N,unconnected-(U2-WAKE-HOST-PadE8)*%
X201050000Y-90600000D03*
%TO.P,U2,E9,P1.08*%
%TO.N,/GPIO1*%
X199950000Y-90600000D03*
%TO.P,U2,F1,QSPI_CLK*%
%TO.N,unconnected-(U2-QSPI_CLK-PadF1)*%
X208750000Y-89500000D03*
%TO.P,U2,F2,QSPI_D3*%
%TO.N,unconnected-(U2-QSPI_D3-PadF2)*%
X207650000Y-89500000D03*
%TO.P,U2,F3,NC*%
%TO.N,unconnected-(U2-NC-PadF3)*%
X206550000Y-89500000D03*
%TO.P,U2,F7,NC*%
%TO.N,unconnected-(U2-NC-PadF7)*%
X202150000Y-89500000D03*
%TO.P,U2,F8,UART_RTS*%
%TO.N,unconnected-(U2-UART_RTS-PadF8)*%
X201050000Y-89500000D03*
%TO.P,U2,F9,P1.07*%
%TO.N,/XSHUT*%
X199950000Y-89500000D03*
%TO.P,U2,G1,NC*%
%TO.N,unconnected-(U2-NC-PadG1)*%
X208750000Y-88400000D03*
%TO.P,U2,G2,NC*%
%TO.N,unconnected-(U2-NC-PadG2)*%
X207650000Y-88400000D03*
%TO.P,U2,G3,NC*%
%TO.N,unconnected-(U2-NC-PadG3)*%
X206550000Y-88400000D03*
%TO.P,U2,G4,NC*%
%TO.N,unconnected-(U2-NC-PadG4)*%
X204900000Y-88400000D03*
%TO.P,U2,G5,RF_CTRL1*%
%TO.N,unconnected-(U2-RF_CTRL1-PadG5)*%
X203800000Y-88400000D03*
%TO.P,U2,G7,RF_CTRL2*%
%TO.N,unconnected-(U2-RF_CTRL2-PadG7)*%
X202150000Y-88400000D03*
%TO.P,U2,G8,UART_TXD*%
%TO.N,unconnected-(U2-UART_TXD-PadG8)*%
X201050000Y-88400000D03*
%TO.P,U2,G9,P1.05*%
%TO.N,/ERROR_OUT*%
X199950000Y-88400000D03*
%TO.P,U2,H1,NC*%
%TO.N,unconnected-(U2-NC-PadH1)*%
X208750000Y-87300000D03*
%TO.P,U2,H2,SWDIO*%
%TO.N,/SWDIO*%
X207650000Y-87300000D03*
%TO.P,U2,H3,NC*%
%TO.N,unconnected-(U2-NC-PadH3)*%
X206550000Y-87300000D03*
%TO.P,U2,H7,NC*%
%TO.N,unconnected-(U2-NC-PadH7)*%
X202150000Y-87300000D03*
%TO.P,U2,H8,P0.04*%
%TO.N,unconnected-(U2-P0.04-PadH8)*%
X201050000Y-87300000D03*
%TO.P,U2,H9,P1.10*%
%TO.N,unconnected-(U2-P1.10-PadH9)*%
X199950000Y-87300000D03*
%TO.P,U2,J1,NC*%
%TO.N,unconnected-(U2-NC-PadJ1)*%
X208750000Y-86200000D03*
%TO.P,U2,J2,SWDCLK*%
%TO.N,/SWCLK*%
X207650000Y-86200000D03*
%TO.P,U2,J3,RESET_N*%
%TO.N,/RESET_N*%
X206550000Y-86200000D03*
%TO.P,U2,J4,NC*%
%TO.N,unconnected-(U2-NC-PadJ4)*%
X204900000Y-86200000D03*
%TO.P,U2,J5,NC*%
%TO.N,unconnected-(U2-NC-PadJ5)*%
X203800000Y-86200000D03*
%TO.P,U2,J7,NC*%
%TO.N,unconnected-(U2-NC-PadJ7)*%
X202150000Y-86200000D03*
%TO.P,U2,J8,P1.13*%
%TO.N,unconnected-(U2-P1.13-PadJ8)*%
X201050000Y-86200000D03*
%TO.P,U2,J9,WAKE-UP*%
%TO.N,unconnected-(U2-WAKE-UP-PadJ9)*%
X199950000Y-86200000D03*
%TO.P,U2,K1,NC*%
%TO.N,unconnected-(U2-NC-PadK1)*%
X208750000Y-85100000D03*
%TO.P,U2,K9,NC*%
%TO.N,unconnected-(U2-NC-PadK9)*%
X199950000Y-85100000D03*
%TO.P,U2,L1,EAGP*%
%TO.N,GND*%
X208750000Y-83600000D03*
%TO.P,U2,L9,EAGP*%
X199950000Y-83600000D03*
%TO.P,U2,M1,EAGP*%
X208750000Y-82100000D03*
%TO.P,U2,M2,EAGP*%
X207650000Y-82100000D03*
%TO.P,U2,M8,EAGP*%
X201050000Y-82100000D03*
%TO.P,U2,M9,EAGP*%
X199950000Y-82100000D03*
%TD*%
D32*
%TO.P,L1,1,1*%
%TO.N,Net-(U1-LX2)*%
X206612500Y-101720000D03*
%TO.P,L1,2,2*%
%TO.N,Net-(U1-LX1)*%
X204487500Y-101720000D03*
%TD*%
D33*
%TO.P,R6,1*%
%TO.N,Net-(D2-A)*%
X197117500Y-86657500D03*
%TO.P,R6,2*%
%TO.N,/ERROR_OUT*%
X197117500Y-88307500D03*
%TD*%
D23*
%TO.P,R9,1*%
%TO.N,+BATT*%
X197837209Y-108898602D03*
%TO.P,R9,2*%
%TO.N,Net-(D3-A)*%
X196187209Y-108898602D03*
%TD*%
D34*
%TO.P,C2,1*%
%TO.N,Net-(Q1-S)*%
X203200000Y-103290000D03*
%TO.P,C2,2*%
%TO.N,GND*%
X203200000Y-102330000D03*
%TD*%
D24*
%TO.P,TP1,1,1*%
%TO.N,+2V8*%
X209850000Y-103350000D03*
%TD*%
D35*
%TO.P,R8,1*%
%TO.N,+2V8*%
X201350000Y-101575000D03*
%TO.P,R8,2*%
%TO.N,/GPIO1*%
X201350000Y-99925000D03*
%TD*%
D36*
%TO.P,U3,1,AVDDVCSEL*%
%TO.N,+2V8*%
X208400000Y-100000000D03*
D37*
X208300000Y-100100000D03*
%TO.P,U3,2,AVSSVCSEL*%
%TO.N,GND*%
X207500000Y-100100000D03*
%TO.P,U3,3,GND*%
X206700000Y-100100000D03*
%TO.P,U3,4,GND*%
X205900000Y-100100000D03*
%TO.P,U3,5,XSHUT*%
%TO.N,/XSHUT*%
X205100000Y-100100000D03*
%TO.P,U3,6,GND*%
%TO.N,GND*%
X205100000Y-99300000D03*
%TO.P,U3,7,GPIO1*%
%TO.N,/GPIO1*%
X205100000Y-98500000D03*
%TO.P,U3,8,DNC*%
%TO.N,unconnected-(U3-DNC-Pad8)*%
X205900000Y-98500000D03*
%TO.P,U3,9,SDA*%
%TO.N,/I2C_SDA*%
X206700000Y-98500000D03*
%TO.P,U3,10,SCL*%
%TO.N,/I2C_SCL*%
X207500000Y-98500000D03*
%TO.P,U3,11,AVDD*%
%TO.N,+2V8*%
X208300000Y-98500000D03*
%TO.P,U3,12,GND*%
%TO.N,GND*%
X208300000Y-99300000D03*
%TD*%
D15*
%TO.P,R3,1*%
%TO.N,Net-(U1-CFG2)*%
X206200000Y-106970000D03*
%TO.P,R3,2*%
%TO.N,GND*%
X206200000Y-107990000D03*
%TD*%
D38*
%TO.P,D2,1,K*%
%TO.N,GND*%
X197137500Y-83675000D03*
%TO.P,D2,2,A*%
%TO.N,Net-(D2-A)*%
X197137500Y-85250000D03*
%TD*%
D39*
%TO.P,U4,1,SDA*%
%TO.N,/I2C_SDA*%
X210950000Y-95430000D03*
%TO.P,U4,2,ADDR*%
%TO.N,GND*%
X210950000Y-95930000D03*
%TO.P,U4,3,ALERT*%
%TO.N,unconnected-(U4-ALERT-Pad3)*%
X210950000Y-96430000D03*
%TO.P,U4,4,SCL*%
%TO.N,/I2C_SCL*%
X210950000Y-96930000D03*
%TO.P,U4,5,VDD*%
%TO.N,+2V8*%
X213300000Y-96930000D03*
%TO.P,U4,6,~{RESET}*%
%TO.N,unconnected-(U4-~{RESET}-Pad6)*%
X213300000Y-96430000D03*
%TO.P,U4,7,R*%
%TO.N,GND*%
X213300000Y-95930000D03*
%TO.P,U4,8,VSS*%
X213300000Y-95430000D03*
D40*
%TO.P,U4,9,VSS*%
X212125000Y-96180000D03*
%TD*%
D30*
%TO.P,C3,1*%
%TO.N,Net-(Q1-S)*%
X203240000Y-105690000D03*
%TO.P,C3,2*%
%TO.N,GND*%
X203240000Y-107240000D03*
%TD*%
D24*
%TO.P,TP2,1,1*%
%TO.N,GND*%
X209825000Y-105480000D03*
%TD*%
D30*
%TO.P,C6,1*%
%TO.N,+2V8*%
X197500000Y-96350000D03*
%TO.P,C6,2*%
%TO.N,GND*%
X197500000Y-97900000D03*
%TD*%
D41*
%TO.P,R1,1*%
%TO.N,GND*%
X200130000Y-106815000D03*
%TO.P,R1,2*%
%TO.N,Net-(Q1-S)*%
X201780000Y-106815000D03*
%TD*%
D42*
%TO.N,GND*%
X207025000Y-105950000D03*
X204250000Y-104775000D03*
X205180000Y-110290000D03*
X203680000Y-110290000D03*
X210740000Y-97700000D03*
X214660000Y-93480000D03*
X206550000Y-92800000D03*
X207275000Y-108095000D03*
X194200000Y-87560000D03*
X213045000Y-82270000D03*
X210760000Y-108605000D03*
X195705000Y-95795000D03*
X198350000Y-87270000D03*
X199300000Y-82100000D03*
X212170000Y-94810000D03*
X194200000Y-96560000D03*
X196180000Y-110290000D03*
X204800000Y-87100000D03*
X212715000Y-106430000D03*
X194200000Y-107060000D03*
X207500000Y-99425000D03*
X214650000Y-100250000D03*
X194200000Y-105560000D03*
X205555000Y-100785000D03*
X198860000Y-91590000D03*
X197865000Y-105250000D03*
X204900000Y-91700000D03*
X211250000Y-101600000D03*
X195765000Y-97627500D03*
X214650000Y-104944981D03*
X214650000Y-101775000D03*
X198860000Y-93640000D03*
X198170000Y-82100000D03*
X210450000Y-85025000D03*
X195850000Y-92065000D03*
X209530000Y-97000000D03*
X195747500Y-93912500D03*
X208180000Y-110290000D03*
X214160000Y-82280000D03*
X197125000Y-82625000D03*
X194200000Y-95060000D03*
X194200000Y-99560000D03*
X199275000Y-83140000D03*
X199700000Y-96700000D03*
X195755000Y-99295000D03*
X202140000Y-102355000D03*
X194200000Y-102560000D03*
X214605000Y-90470000D03*
X208440000Y-106075000D03*
X209400000Y-82100000D03*
X194200000Y-104060000D03*
X202975000Y-87100000D03*
X214410000Y-84705000D03*
X210585000Y-82280000D03*
X214660000Y-91930000D03*
X194200000Y-84560000D03*
X203900000Y-87100000D03*
X209375000Y-84300000D03*
X206700000Y-99425000D03*
X205750000Y-87100000D03*
X197500000Y-98800000D03*
X207025000Y-105250000D03*
X194690000Y-89079828D03*
X214395000Y-86105000D03*
X206680000Y-110290000D03*
X200680000Y-110290000D03*
X194200000Y-86060000D03*
X196975000Y-101585000D03*
X214660000Y-98340000D03*
X209680000Y-110290000D03*
X210979371Y-90437381D03*
X203800000Y-91700000D03*
X214655000Y-97180000D03*
X197875000Y-106060000D03*
X201100000Y-96300000D03*
X206800000Y-96400000D03*
X194530000Y-82700000D03*
X211495000Y-107145000D03*
X202180000Y-110290000D03*
X203700000Y-98750000D03*
X214100000Y-95700000D03*
X194200000Y-98060000D03*
X204580000Y-96000000D03*
X203435000Y-101565000D03*
X203020000Y-96470000D03*
X211090361Y-110300000D03*
X204250000Y-104175000D03*
X199180000Y-110290000D03*
X198000000Y-92400000D03*
X214690000Y-94970000D03*
X199250000Y-84240000D03*
X194200000Y-93560000D03*
X214660000Y-103379982D03*
X202100000Y-92800000D03*
X201050000Y-107800000D03*
X199250015Y-85820209D03*
X194200000Y-108560000D03*
X214300000Y-106500000D03*
X194200000Y-92060000D03*
X207590000Y-101615000D03*
X194880000Y-109915000D03*
X195700000Y-82100000D03*
X209420000Y-93370000D03*
X205900000Y-99425000D03*
X197680000Y-110290000D03*
X194200000Y-90560000D03*
X211910000Y-82280000D03*
X200300000Y-104350000D03*
X197450000Y-90385000D03*
X210400000Y-88500000D03*
X209400000Y-83140000D03*
X198790000Y-99170000D03*
X209340000Y-95540000D03*
X194800000Y-100800000D03*
%TO.N,+2V8*%
X208690000Y-103150000D03*
X212300000Y-99700000D03*
X211300000Y-99700000D03*
X205509500Y-96500000D03*
X201630000Y-94560000D03*
X211800000Y-100400000D03*
X197510000Y-95580000D03*
X207025000Y-103150000D03*
X208670000Y-96880000D03*
X213889500Y-87835000D03*
X198975000Y-101970000D03*
X213270000Y-97520000D03*
%TO.N,+BATT*%
X205175000Y-108900000D03*
X204275000Y-108885000D03*
X206075000Y-108900000D03*
X203375000Y-108900000D03*
X202475000Y-108900000D03*
%TO.N,/ERROR_OUT*%
X195850000Y-88325000D03*
%TD*%
D43*
%TO.N,GND*%
X206550000Y-105070000D02*
X206300000Y-104820000D01*
X205550000Y-103257500D02*
X205550000Y-104120000D01*
D44*
X210275000Y-101600000D02*
X211250000Y-101600000D01*
D43*
X206550000Y-105682500D02*
X206550000Y-105070000D01*
D45*
X210950000Y-95930000D02*
X211875000Y-95930000D01*
D44*
X209150000Y-99300000D02*
X210000000Y-98450000D01*
X208400000Y-99300000D02*
X209150000Y-99300000D01*
X197112500Y-83650000D02*
X197137500Y-83675000D01*
D45*
X211875000Y-95930000D02*
X212125000Y-96180000D01*
D46*
%TO.N,Net-(U2-XL1_32K)*%
X203300000Y-93950000D02*
X203770000Y-94420000D01*
X203770000Y-94420000D02*
X203770000Y-97350000D01*
X203770000Y-97350000D02*
X203809000Y-97389000D01*
X203830000Y-97900000D02*
X203830000Y-97410000D01*
X203630000Y-98100000D02*
X203830000Y-97900000D01*
X202600000Y-98100000D02*
X203630000Y-98100000D01*
%TO.N,Net-(U2-XL2_32K)*%
X200100000Y-97570000D02*
X200100000Y-98100000D01*
X200305000Y-96895000D02*
X200100000Y-97100000D01*
X200100000Y-97100000D02*
X200100000Y-98100000D01*
X202700000Y-93300000D02*
X203300000Y-92700000D01*
X202700000Y-95775000D02*
X202700000Y-93300000D01*
X201580000Y-96895000D02*
X200305000Y-96895000D01*
X198800000Y-97570000D02*
X200100000Y-97570000D01*
X201580000Y-96895000D02*
X202700000Y-95775000D01*
D45*
%TO.N,Net-(U1-CFG1)*%
X205550000Y-105682500D02*
X205550000Y-106610000D01*
X205550000Y-106610000D02*
X205200000Y-106960000D01*
%TO.N,Net-(U1-CFG2)*%
X206200000Y-106970000D02*
X206050000Y-106820000D01*
X206050000Y-106820000D02*
X206050000Y-105682500D01*
D10*
%TO.N,+2V8*%
X205509500Y-96500000D02*
X205509500Y-96766600D01*
X205509500Y-96766600D02*
X205690000Y-96947100D01*
X205690000Y-96947100D02*
X205690000Y-97400000D01*
D44*
X213889500Y-87835000D02*
X213425000Y-87370500D01*
D46*
%TO.N,/I2C_SDA*%
X206000000Y-94450000D02*
X209380000Y-94450000D01*
X209380000Y-94450000D02*
X210360000Y-95430000D01*
X205450000Y-93900000D02*
X206000000Y-94450000D01*
X206000000Y-94450000D02*
X206000000Y-96690000D01*
X206000000Y-96690000D02*
X206710000Y-97400000D01*
X210360000Y-95430000D02*
X210950000Y-95430000D01*
X206710000Y-97400000D02*
X206710000Y-98490000D01*
D47*
%TO.N,/XSHUT*%
X205100000Y-100100000D02*
X204410000Y-100100000D01*
X202188812Y-100300000D02*
X201632312Y-100856500D01*
X200023500Y-100856500D02*
X200020000Y-100860000D01*
X204210000Y-100300000D02*
X202188812Y-100300000D01*
X194900000Y-99700000D02*
X194900000Y-91600000D01*
X197000000Y-89500000D02*
X199950000Y-89500000D01*
X201632312Y-100856500D02*
X200023500Y-100856500D01*
X200020000Y-100860000D02*
X196060000Y-100860000D01*
X204410000Y-100100000D02*
X204210000Y-100300000D01*
X196060000Y-100860000D02*
X194900000Y-99700000D01*
X194900000Y-91600000D02*
X197000000Y-89500000D01*
D46*
%TO.N,/I2C_SCL*%
X207701500Y-96151500D02*
X207640000Y-96090000D01*
X210520000Y-96930000D02*
X210085000Y-96495000D01*
X210085000Y-96495000D02*
X210085000Y-96385000D01*
X210085000Y-96385000D02*
X209851500Y-96151500D01*
X207640000Y-96090000D02*
X206550000Y-95000000D01*
X207500000Y-98500000D02*
X207500000Y-97540000D01*
X207640000Y-97400000D02*
X207640000Y-96090000D01*
X209851500Y-96151500D02*
X207701500Y-96151500D01*
X210950000Y-96930000D02*
X210520000Y-96930000D01*
D47*
%TO.N,/GPIO1*%
X196500000Y-92650000D02*
X198550000Y-90600000D01*
X197340000Y-99790000D02*
X196500000Y-98950000D01*
D10*
X204499000Y-98951000D02*
X204499000Y-98946466D01*
D47*
X198550000Y-90600000D02*
X199950000Y-90600000D01*
X204499000Y-98946466D02*
X204746466Y-98699000D01*
X196500000Y-98950000D02*
X196500000Y-92650000D01*
X201350000Y-99925000D02*
X201485000Y-99790000D01*
X204751000Y-98699000D02*
X204950000Y-98500000D01*
X201485000Y-99790000D02*
X203660000Y-99790000D01*
X203660000Y-99790000D02*
X204499000Y-98951000D01*
X201215000Y-99790000D02*
X197340000Y-99790000D01*
D48*
%TO.N,Net-(D2-A)*%
X197137500Y-85250000D02*
X197137500Y-86637500D01*
X197137500Y-86637500D02*
X197117500Y-86657500D01*
D46*
%TO.N,/SWCLK*%
X207700000Y-86250000D02*
X208200000Y-86750000D01*
X211440000Y-86750000D02*
X212155000Y-86035000D01*
X208200000Y-86750000D02*
X211440000Y-86750000D01*
D49*
%TO.N,/SWDIO*%
X211610000Y-87850000D02*
X212155000Y-87305000D01*
X208200000Y-87850000D02*
X207700000Y-87350000D01*
X208200000Y-87850000D02*
X211610000Y-87850000D01*
D46*
%TO.N,/RESET_N*%
X208420906Y-85591500D02*
X211068500Y-85591500D01*
X213425000Y-86035000D02*
X213425000Y-86115086D01*
X207979094Y-85591500D02*
X207980594Y-85590000D01*
X208419406Y-85590000D02*
X208420906Y-85591500D01*
X206600000Y-86100000D02*
X206810000Y-86100000D01*
X212839800Y-85449800D02*
X213425000Y-86035000D01*
X211210200Y-85449800D02*
X212839800Y-85449800D01*
X207319703Y-85590297D02*
X207320906Y-85591500D01*
X213425000Y-86115086D02*
X214535000Y-87225086D01*
X213335000Y-90835000D02*
X214535000Y-89635000D01*
X212240000Y-90835000D02*
X213335000Y-90835000D01*
X206810000Y-86100000D02*
X207319703Y-85590297D01*
X207980594Y-85590000D02*
X208419406Y-85590000D01*
X214535000Y-87225086D02*
X214535000Y-89635000D01*
X211068500Y-85591500D02*
X211210200Y-85449800D01*
X207320906Y-85591500D02*
X207979094Y-85591500D01*
D44*
%TO.N,+BATT*%
X200350000Y-108900000D02*
X199200000Y-107750000D01*
X200350000Y-108900000D02*
X198720000Y-108900000D01*
X199200000Y-103900000D02*
X199685000Y-103415000D01*
X206075000Y-108900000D02*
X208490000Y-108900000D01*
X206075000Y-108900000D02*
X200350000Y-108900000D01*
X199200000Y-107750000D02*
X199200000Y-103900000D01*
X208490000Y-108900000D02*
X209825000Y-107565000D01*
D48*
X206075000Y-108900000D02*
X202475000Y-108900000D01*
D44*
X199685000Y-103415000D02*
X200630000Y-103415000D01*
X198691102Y-108898602D02*
X197837209Y-108898602D01*
D45*
%TO.N,/ERROR_OUT*%
X196935000Y-88400000D02*
X195925000Y-88400000D01*
X195925000Y-88400000D02*
X195850000Y-88325000D01*
X196935000Y-88400000D02*
X199950000Y-88400000D01*
D48*
%TO.N,Net-(D3-A)*%
X196187209Y-108898602D02*
X196187209Y-107315291D01*
%TO.N,Net-(D4-A)*%
X196182934Y-102570000D02*
X196182934Y-104052934D01*
X196182934Y-104052934D02*
X196225000Y-104095000D01*
%TD*%
%TA.AperFunction,Conductor*%
%TO.N,+2V8*%
G36*
X199698740Y-101219685D02*
G01*
X199700588Y-101220895D01*
X199732577Y-101242270D01*
X199732578Y-101242270D01*
X199732579Y-101242271D01*
X199809139Y-101257499D01*
X199809143Y-101257500D01*
X199809144Y-101257500D01*
X200230857Y-101257500D01*
X200230858Y-101257499D01*
X200256608Y-101252377D01*
X200307420Y-101242271D01*
X200307420Y-101242270D01*
X200307423Y-101242270D01*
X200339408Y-101220897D01*
X200406086Y-101200020D01*
X200408299Y-101200000D01*
X201672881Y-101200000D01*
X201739920Y-101219685D01*
X201785675Y-101272489D01*
X201796843Y-101327080D01*
X201782473Y-101905447D01*
X201761129Y-101971977D01*
X201707205Y-102016406D01*
X201682260Y-102024071D01*
X200570352Y-102241045D01*
X200570332Y-102241050D01*
X198137646Y-103041172D01*
X198067813Y-103043419D01*
X198007851Y-103007554D01*
X197997208Y-102994331D01*
X197513449Y-102300944D01*
X197491234Y-102234700D01*
X197508360Y-102166961D01*
X197533319Y-102136824D01*
X198564896Y-101230831D01*
X198628256Y-101201383D01*
X198646722Y-101200000D01*
X199631701Y-101200000D01*
X199698740Y-101219685D01*
G37*
%TD.AperFunction*%
%TD*%
%TA.AperFunction,Conductor*%
%TO.N,/I2C_SDA*%
G36*
X206229300Y-94465721D02*
G01*
X206232668Y-94473853D01*
X206229300Y-94481985D01*
X206228652Y-94482584D01*
X206029572Y-94653224D01*
X206021206Y-94655959D01*
X206013357Y-94651977D01*
X206010588Y-94644493D01*
X206010588Y-94473853D01*
X206013956Y-94465721D01*
X206022088Y-94462353D01*
X206221168Y-94462353D01*
X206229300Y-94465721D01*
G37*
%TD.AperFunction*%
%TD*%
%TA.AperFunction,Conductor*%
%TO.N,Net-(U1-LX1)*%
G36*
X204843039Y-101139685D02*
G01*
X204888794Y-101192489D01*
X204900000Y-101244000D01*
X204900000Y-102120000D01*
X205161346Y-102729806D01*
X205189974Y-102796605D01*
X205200000Y-102845451D01*
X205200000Y-103596000D01*
X205197449Y-103604685D01*
X205198738Y-103613647D01*
X205187759Y-103637687D01*
X205180315Y-103663039D01*
X205173474Y-103668966D01*
X205169713Y-103677203D01*
X205147478Y-103691492D01*
X205127511Y-103708794D01*
X205116996Y-103711081D01*
X205110935Y-103714977D01*
X205076000Y-103720000D01*
X204926500Y-103720000D01*
X204859461Y-103700315D01*
X204813706Y-103647511D01*
X204802500Y-103596000D01*
X204802500Y-102888787D01*
X204802499Y-102888783D01*
X204791477Y-102833368D01*
X204791475Y-102833364D01*
X204749482Y-102770517D01*
X204686635Y-102728524D01*
X204686631Y-102728522D01*
X204631216Y-102717500D01*
X204631212Y-102717500D01*
X204468788Y-102717500D01*
X204438237Y-102723577D01*
X204406920Y-102729806D01*
X204337329Y-102723577D01*
X204282152Y-102680714D01*
X204271821Y-102663642D01*
X204013091Y-102146182D01*
X204000000Y-102090728D01*
X204000000Y-101244000D01*
X204019685Y-101176961D01*
X204072489Y-101131206D01*
X204124000Y-101120000D01*
X204776000Y-101120000D01*
X204843039Y-101139685D01*
G37*
%TD.AperFunction*%
%TD*%
%TA.AperFunction,Conductor*%
%TO.N,+2V8*%
G36*
X208997576Y-96573368D02*
G01*
X209000944Y-96581500D01*
X209000943Y-96581609D01*
X208990022Y-97737609D01*
X208989028Y-97742180D01*
X208699737Y-98391477D01*
X208545195Y-98738342D01*
X208543039Y-98743180D01*
X208536652Y-98749237D01*
X208532534Y-98750000D01*
X208041659Y-98750000D01*
X208033527Y-98746632D01*
X208030159Y-98738500D01*
X208030160Y-98738342D01*
X208059844Y-96581342D01*
X208063324Y-96573257D01*
X208071343Y-96570000D01*
X208989444Y-96570000D01*
X208997576Y-96573368D01*
G37*
%TD.AperFunction*%
%TD*%
%TA.AperFunction,Conductor*%
%TO.N,/I2C_SCL*%
G36*
X207877045Y-96153368D02*
G01*
X207880413Y-96161500D01*
X207877045Y-96169632D01*
X207876397Y-96170231D01*
X207668984Y-96348013D01*
X207660618Y-96350748D01*
X207652769Y-96346766D01*
X207650000Y-96339282D01*
X207650000Y-96161500D01*
X207653368Y-96153368D01*
X207661500Y-96150000D01*
X207868913Y-96150000D01*
X207877045Y-96153368D01*
G37*
%TD.AperFunction*%
%TD*%
%TA.AperFunction,Conductor*%
%TO.N,+2V8*%
G36*
X202393039Y-93619685D02*
G01*
X202438794Y-93672489D01*
X202450000Y-93724000D01*
X202450000Y-95258715D01*
X202430315Y-95325754D01*
X202377511Y-95371509D01*
X202362836Y-95377117D01*
X198680671Y-96522680D01*
X198013274Y-96730315D01*
X197967994Y-96744402D01*
X197931158Y-96750000D01*
X197176666Y-96750000D01*
X197109627Y-96730315D01*
X197063872Y-96677511D01*
X197052694Y-96623362D01*
X197097418Y-94521362D01*
X197118524Y-94454757D01*
X197172290Y-94410135D01*
X197221390Y-94400000D01*
X197965250Y-94400000D01*
X198029688Y-94418057D01*
X199455000Y-95285000D01*
X199455001Y-95285000D01*
X199462249Y-95285000D01*
X199529288Y-95304685D01*
X199565351Y-95340109D01*
X199583191Y-95366809D01*
X199655136Y-95414880D01*
X199655137Y-95414880D01*
X199655139Y-95414881D01*
X199686857Y-95421190D01*
X199718579Y-95427500D01*
X200181420Y-95427499D01*
X200244864Y-95414880D01*
X200316809Y-95366809D01*
X200362492Y-95298436D01*
X200368428Y-95291971D01*
X200370000Y-95285000D01*
X200570844Y-94394412D01*
X200604792Y-94333350D01*
X200666368Y-94300333D01*
X200736020Y-94305847D01*
X200746903Y-94311469D01*
X200755135Y-94314879D01*
X200755136Y-94314880D01*
X200755137Y-94314880D01*
X200755139Y-94314881D01*
X200786857Y-94321190D01*
X200818579Y-94327500D01*
X201281420Y-94327499D01*
X201344864Y-94314880D01*
X201416809Y-94266809D01*
X201464880Y-94194864D01*
X201477500Y-94131421D01*
X201477499Y-93723999D01*
X201497183Y-93656961D01*
X201549987Y-93611206D01*
X201601499Y-93600000D01*
X202326000Y-93600000D01*
X202393039Y-93619685D01*
G37*
%TD.AperFunction*%
%TD*%
%TA.AperFunction,Conductor*%
%TO.N,+2V8*%
G36*
X213567211Y-96813368D02*
G01*
X213570564Y-96820906D01*
X213599959Y-97389225D01*
X213599933Y-97390784D01*
X213475093Y-98873889D01*
X213474697Y-98876065D01*
X212902357Y-100891698D01*
X212896895Y-100898601D01*
X212891371Y-100900057D01*
X209909999Y-100920000D01*
X209670001Y-101089998D01*
X209669999Y-101090002D01*
X209660000Y-102094999D01*
X209660000Y-102095000D01*
X209915000Y-102350000D01*
X210634427Y-102350000D01*
X210642559Y-102353368D01*
X210643453Y-102354374D01*
X210787526Y-102536866D01*
X210790000Y-102543992D01*
X210790000Y-103988467D01*
X210786632Y-103996599D01*
X210778500Y-103999967D01*
X210778468Y-103999967D01*
X207212205Y-103990006D01*
X207207954Y-103989179D01*
X206432217Y-103677895D01*
X206425925Y-103671740D01*
X206425000Y-103667222D01*
X206425000Y-102856850D01*
X206428368Y-102848718D01*
X206431020Y-102846740D01*
X207327438Y-102361386D01*
X207332913Y-102360000D01*
X207859998Y-102360000D01*
X207860000Y-102360000D01*
X208070000Y-102150000D01*
X208050065Y-99917376D01*
X208053361Y-99909217D01*
X208056678Y-99906867D01*
X208436692Y-99728589D01*
X208441576Y-99727500D01*
X209206281Y-99727500D01*
X209315009Y-99698367D01*
X209412491Y-99642085D01*
X209901207Y-99153367D01*
X209909339Y-99150000D01*
X211919998Y-99150000D01*
X211920000Y-99150000D01*
X212160000Y-98910000D01*
X212160000Y-98320107D01*
X212161124Y-98315148D01*
X212312556Y-97998294D01*
X212315704Y-97994311D01*
X212990000Y-97450000D01*
X213029326Y-96820782D01*
X213033195Y-96812877D01*
X213040804Y-96810000D01*
X213559079Y-96810000D01*
X213567211Y-96813368D01*
G37*
%TD.AperFunction*%
%TD*%
%TA.AperFunction,Conductor*%
%TO.N,+BATT*%
G36*
X198917321Y-107755305D02*
G01*
X199596404Y-108247394D01*
X199600911Y-108254346D01*
X199726923Y-108855326D01*
X199725295Y-108863976D01*
X199718028Y-108868941D01*
X199715030Y-108869168D01*
X198118171Y-108780453D01*
X198110239Y-108776639D01*
X198107751Y-108772130D01*
X198032031Y-108507109D01*
X198033036Y-108498367D01*
X198035625Y-108495205D01*
X198903117Y-107755865D01*
X198911489Y-107753154D01*
X198917321Y-107755305D01*
G37*
%TD.AperFunction*%
%TD*%
%TA.AperFunction,Conductor*%
%TO.N,Net-(U1-LX2)*%
G36*
X207043039Y-101139685D02*
G01*
X207088794Y-101192489D01*
X207100000Y-101244000D01*
X207100000Y-102090726D01*
X207086909Y-102146181D01*
X206970864Y-102378268D01*
X206923276Y-102429427D01*
X206918995Y-102431856D01*
X206367935Y-102730221D01*
X206367925Y-102730227D01*
X206351814Y-102740520D01*
X206351800Y-102740530D01*
X206349149Y-102742507D01*
X206305952Y-102798015D01*
X206305950Y-102798020D01*
X206302584Y-102806146D01*
X206302583Y-102806149D01*
X206292500Y-102856849D01*
X206292500Y-103596000D01*
X206289949Y-103604685D01*
X206291238Y-103613647D01*
X206280259Y-103637687D01*
X206272815Y-103663039D01*
X206265974Y-103668966D01*
X206262213Y-103677203D01*
X206239978Y-103691492D01*
X206220011Y-103708794D01*
X206209496Y-103711081D01*
X206203435Y-103714977D01*
X206168500Y-103720000D01*
X206024000Y-103720000D01*
X205956961Y-103700315D01*
X205911206Y-103647511D01*
X205900000Y-103596000D01*
X205900000Y-102845451D01*
X205910026Y-102796605D01*
X205934059Y-102740530D01*
X206200000Y-102120000D01*
X206200000Y-101244000D01*
X206219685Y-101176961D01*
X206272489Y-101131206D01*
X206324000Y-101120000D01*
X206976000Y-101120000D01*
X207043039Y-101139685D01*
G37*
%TD.AperFunction*%
%TD*%
%TA.AperFunction,Conductor*%
%TO.N,Net-(Q1-S)*%
G36*
X204612159Y-102886940D02*
G01*
X204658357Y-102939357D01*
X204670000Y-102991816D01*
X204670000Y-103253419D01*
X204669959Y-103256598D01*
X204662212Y-103558691D01*
X204640816Y-103625204D01*
X204586856Y-103669590D01*
X204562063Y-103677205D01*
X204437234Y-103701628D01*
X204214568Y-103745193D01*
X204201778Y-103746432D01*
X204201779Y-103746439D01*
X204193719Y-103747500D01*
X204084989Y-103776633D01*
X203987509Y-103832915D01*
X203987506Y-103832917D01*
X203907917Y-103912506D01*
X203907915Y-103912509D01*
X203851634Y-104009989D01*
X203826475Y-104103884D01*
X203820000Y-104114506D01*
X203820000Y-104760610D01*
X203822500Y-104783862D01*
X203822500Y-104831280D01*
X203851633Y-104940010D01*
X203879774Y-104988750D01*
X203907915Y-105037491D01*
X203987509Y-105117085D01*
X204084991Y-105173367D01*
X204193719Y-105202500D01*
X204193721Y-105202500D01*
X204306280Y-105202500D01*
X204306281Y-105202500D01*
X204306281Y-105202499D01*
X204314338Y-105201439D01*
X204314391Y-105201848D01*
X204334012Y-105199187D01*
X204544078Y-105197546D01*
X204549489Y-105197504D01*
X204550457Y-105197500D01*
X205173500Y-105197500D01*
X205240539Y-105217185D01*
X205286294Y-105269989D01*
X205297500Y-105321500D01*
X205297500Y-106051212D01*
X205297616Y-106051796D01*
X205300000Y-106075993D01*
X205300000Y-106438500D01*
X205280315Y-106505539D01*
X205227511Y-106551294D01*
X205176000Y-106562500D01*
X204989139Y-106562500D01*
X204912581Y-106577728D01*
X204912577Y-106577730D01*
X204825747Y-106635747D01*
X204767730Y-106722577D01*
X204767728Y-106722581D01*
X204752500Y-106799139D01*
X204752500Y-107120860D01*
X204767728Y-107197420D01*
X204768193Y-107198541D01*
X204768477Y-107201183D01*
X204770112Y-107209402D01*
X204769377Y-107209548D01*
X204775666Y-107268009D01*
X204744395Y-107330491D01*
X204684308Y-107366146D01*
X204653635Y-107370000D01*
X203966500Y-107370000D01*
X203899461Y-107350315D01*
X203853706Y-107297511D01*
X203842500Y-107246000D01*
X203842499Y-106981548D01*
X203842499Y-106981547D01*
X203832517Y-106913028D01*
X203780848Y-106807338D01*
X203780847Y-106807337D01*
X203780847Y-106807336D01*
X203697663Y-106724152D01*
X203591974Y-106672483D01*
X203574842Y-106669987D01*
X203523453Y-106662500D01*
X203523447Y-106662500D01*
X202956548Y-106662500D01*
X202912706Y-106668887D01*
X202888028Y-106672483D01*
X202888026Y-106672483D01*
X202888025Y-106672484D01*
X202782336Y-106724152D01*
X202699152Y-106807336D01*
X202647483Y-106913025D01*
X202647483Y-106913028D01*
X202637500Y-106981547D01*
X202637500Y-107209548D01*
X202637501Y-107246000D01*
X202617817Y-107313039D01*
X202565013Y-107358794D01*
X202513501Y-107370000D01*
X201453447Y-107370000D01*
X201386408Y-107350315D01*
X201340653Y-107297511D01*
X201329455Y-107244584D01*
X201330868Y-107120860D01*
X201346194Y-105778699D01*
X201366641Y-105711896D01*
X201382494Y-105692450D01*
X201450403Y-105624542D01*
X201492308Y-105529634D01*
X201495000Y-105506432D01*
X201495000Y-105123568D01*
X201492308Y-105100366D01*
X201450403Y-105005458D01*
X201393006Y-104948061D01*
X201359521Y-104886738D01*
X201356696Y-104858976D01*
X201368140Y-103856753D01*
X201388588Y-103789949D01*
X201404446Y-103770498D01*
X201450403Y-103724542D01*
X201492308Y-103629634D01*
X201495000Y-103606432D01*
X201495000Y-103223568D01*
X201492308Y-103200366D01*
X201481483Y-103175850D01*
X201450404Y-103105461D01*
X201450403Y-103105458D01*
X201449763Y-103104818D01*
X201448972Y-103103370D01*
X201443911Y-103095982D01*
X201444658Y-103095469D01*
X201416278Y-103043495D01*
X201421262Y-102973803D01*
X201463134Y-102917870D01*
X201528598Y-102893453D01*
X201536388Y-102893141D01*
X204544956Y-102867820D01*
X204612159Y-102886940D01*
G37*
%TD.AperFunction*%
%TD*%
%TA.AperFunction,Conductor*%
%TO.N,/ERROR_OUT*%
G36*
X197035621Y-88113368D02*
G01*
X197037350Y-88115583D01*
X197197550Y-88382583D01*
X197198846Y-88391289D01*
X197193606Y-88398361D01*
X197187689Y-88400000D01*
X196671191Y-88400000D01*
X196663059Y-88396632D01*
X196659691Y-88388500D01*
X196661549Y-88382233D01*
X196835099Y-88115233D01*
X196842355Y-88110250D01*
X196844741Y-88110000D01*
X197027489Y-88110000D01*
X197035621Y-88113368D01*
G37*
%TD.AperFunction*%
%TD*%
%TA.AperFunction,Conductor*%
%TO.N,GND*%
G36*
X201293039Y-81819685D02*
G01*
X201338794Y-81872489D01*
X201350000Y-81924000D01*
X201350000Y-82276000D01*
X201330315Y-82343039D01*
X201277511Y-82388794D01*
X201226000Y-82400000D01*
X200250000Y-82400000D01*
X200250000Y-84548500D01*
X200230315Y-84615539D01*
X200177511Y-84661294D01*
X200126000Y-84672500D01*
X199718582Y-84672500D01*
X199680582Y-84680058D01*
X199655136Y-84685120D01*
X199655135Y-84685120D01*
X199655133Y-84685121D01*
X199583190Y-84733190D01*
X199535121Y-84805133D01*
X199535118Y-84805139D01*
X199522500Y-84868576D01*
X199522500Y-85331417D01*
X199527562Y-85356866D01*
X199535120Y-85394864D01*
X199535120Y-85394865D01*
X199535121Y-85394866D01*
X199583190Y-85466809D01*
X199646803Y-85509312D01*
X199655136Y-85514880D01*
X199655137Y-85514880D01*
X199655139Y-85514881D01*
X199723018Y-85528383D01*
X199784929Y-85560767D01*
X199819503Y-85621483D01*
X199815764Y-85691252D01*
X199774898Y-85747925D01*
X199723018Y-85771617D01*
X199655137Y-85785119D01*
X199655134Y-85785120D01*
X199583190Y-85833190D01*
X199535121Y-85905133D01*
X199535118Y-85905139D01*
X199522500Y-85968576D01*
X199522500Y-86431417D01*
X199523213Y-86435000D01*
X199535120Y-86494864D01*
X199535120Y-86494865D01*
X199535121Y-86494866D01*
X199583190Y-86566809D01*
X199627963Y-86596724D01*
X199655136Y-86614880D01*
X199655137Y-86614880D01*
X199655139Y-86614881D01*
X199723018Y-86628383D01*
X199784929Y-86660767D01*
X199819503Y-86721483D01*
X199815764Y-86791252D01*
X199774898Y-86847925D01*
X199723018Y-86871617D01*
X199655137Y-86885119D01*
X199655134Y-86885120D01*
X199583190Y-86933190D01*
X199535121Y-87005133D01*
X199535118Y-87005139D01*
X199522500Y-87068576D01*
X199522500Y-87531417D01*
X199523412Y-87536000D01*
X199535120Y-87594864D01*
X199535120Y-87594865D01*
X199535121Y-87594866D01*
X199583190Y-87666809D01*
X199655133Y-87714878D01*
X199655136Y-87714880D01*
X199655137Y-87714880D01*
X199655139Y-87714881D01*
X199723018Y-87728383D01*
X199784929Y-87760767D01*
X199819503Y-87821483D01*
X199815764Y-87891252D01*
X199774898Y-87947925D01*
X199723018Y-87971617D01*
X199655137Y-87985119D01*
X199655134Y-87985120D01*
X199583190Y-88033190D01*
X199528335Y-88115290D01*
X199525087Y-88113119D01*
X199495101Y-88150344D01*
X199428811Y-88172420D01*
X199424363Y-88172500D01*
X197842354Y-88172500D01*
X197775315Y-88152815D01*
X197729560Y-88100011D01*
X197719414Y-88064681D01*
X197713721Y-88021428D01*
X197688593Y-87967542D01*
X197664911Y-87916756D01*
X197583244Y-87835089D01*
X197501183Y-87796823D01*
X197478572Y-87786279D01*
X197478568Y-87786278D01*
X197430876Y-87780000D01*
X196804128Y-87780000D01*
X196756429Y-87786278D01*
X196651755Y-87835089D01*
X196570090Y-87916754D01*
X196521279Y-88021427D01*
X196521278Y-88021430D01*
X196516635Y-88056701D01*
X196514819Y-88060805D01*
X196515198Y-88065277D01*
X196500812Y-88092467D01*
X196488368Y-88120597D01*
X196484622Y-88123067D01*
X196482523Y-88127036D01*
X196455713Y-88142135D01*
X196430043Y-88159068D01*
X196424458Y-88159739D01*
X196421645Y-88161324D01*
X196386477Y-88164305D01*
X196382430Y-88164069D01*
X196362444Y-88161258D01*
X196356503Y-88159922D01*
X196323136Y-88147142D01*
X196297749Y-88132930D01*
X196276134Y-88117582D01*
X196253436Y-88097491D01*
X196246466Y-88091321D01*
X196187081Y-88038288D01*
X196182728Y-88034567D01*
X196181969Y-88033946D01*
X196181957Y-88033936D01*
X196177463Y-88030418D01*
X196105934Y-87976867D01*
X196103156Y-87974843D01*
X196102693Y-87974515D01*
X196102683Y-87974509D01*
X196090369Y-87969187D01*
X196077576Y-87962757D01*
X196015009Y-87926633D01*
X196015006Y-87926632D01*
X195962935Y-87912680D01*
X195906281Y-87897500D01*
X195793719Y-87897500D01*
X195684989Y-87926633D01*
X195587509Y-87982915D01*
X195587506Y-87982917D01*
X195507917Y-88062506D01*
X195507915Y-88062509D01*
X195451633Y-88159989D01*
X195422500Y-88268719D01*
X195422500Y-88381280D01*
X195451633Y-88490010D01*
X195458293Y-88501545D01*
X195507915Y-88587491D01*
X195587509Y-88667085D01*
X195684991Y-88723367D01*
X195793719Y-88752500D01*
X195793721Y-88752500D01*
X195906280Y-88752500D01*
X195906281Y-88752500D01*
X195921842Y-88748329D01*
X195944943Y-88744430D01*
X195955823Y-88743640D01*
X196130799Y-88695414D01*
X196134323Y-88694360D01*
X196136235Y-88693789D01*
X196136244Y-88693785D01*
X196136271Y-88693778D01*
X196137232Y-88693468D01*
X196142649Y-88691590D01*
X196173375Y-88680187D01*
X196179305Y-88678158D01*
X196275101Y-88648082D01*
X196294360Y-88643687D01*
X196338907Y-88637199D01*
X196351828Y-88636005D01*
X196431440Y-88632841D01*
X196431446Y-88632839D01*
X196437177Y-88632074D01*
X196437331Y-88633227D01*
X196501056Y-88637009D01*
X196557493Y-88678200D01*
X196566860Y-88693633D01*
X196570088Y-88698243D01*
X196570089Y-88698244D01*
X196651756Y-88779911D01*
X196756429Y-88828721D01*
X196804125Y-88835000D01*
X197430874Y-88834999D01*
X197478571Y-88828721D01*
X197583244Y-88779911D01*
X197664911Y-88698244D01*
X197664912Y-88698241D01*
X197671134Y-88689357D01*
X197672342Y-88690203D01*
X197710687Y-88646655D01*
X197776896Y-88627500D01*
X199424363Y-88627500D01*
X199491402Y-88647185D01*
X199525537Y-88686579D01*
X199528335Y-88684710D01*
X199583190Y-88766809D01*
X199621692Y-88792534D01*
X199655136Y-88814880D01*
X199655137Y-88814880D01*
X199655139Y-88814881D01*
X199723018Y-88828383D01*
X199784929Y-88860767D01*
X199819503Y-88921483D01*
X199815764Y-88991252D01*
X199774898Y-89047925D01*
X199754585Y-89060757D01*
X199731257Y-89072500D01*
X199718580Y-89072501D01*
X199655136Y-89085120D01*
X199583191Y-89133191D01*
X199569245Y-89154061D01*
X199540056Y-89168757D01*
X199536535Y-89169400D01*
X199533791Y-89171694D01*
X199484298Y-89182000D01*
X196958135Y-89182000D01*
X196877258Y-89203670D01*
X196875879Y-89204466D01*
X196874720Y-89205136D01*
X196839731Y-89225336D01*
X196804744Y-89245536D01*
X196804741Y-89245538D01*
X194645539Y-91404740D01*
X194645537Y-91404743D01*
X194603671Y-91477256D01*
X194603671Y-91477257D01*
X194582000Y-91558135D01*
X194582000Y-99658135D01*
X194582000Y-99741865D01*
X194591952Y-99779006D01*
X194603672Y-99822747D01*
X194603673Y-99822749D01*
X194629650Y-99867740D01*
X194645537Y-99895257D01*
X195864743Y-101114463D01*
X195900999Y-101135396D01*
X195937250Y-101156326D01*
X195937252Y-101156327D01*
X195937253Y-101156327D01*
X195937256Y-101156329D01*
X196018135Y-101178000D01*
X196101865Y-101178000D01*
X198095161Y-101178000D01*
X198162200Y-101197685D01*
X198207955Y-101250489D01*
X198217899Y-101319647D01*
X198188874Y-101383203D01*
X198176987Y-101395169D01*
X197499033Y-101990588D01*
X197469613Y-102009800D01*
X197442192Y-102022587D01*
X197442191Y-102022587D01*
X197360524Y-102104254D01*
X197311713Y-102208927D01*
X197311712Y-102208931D01*
X197305434Y-102256623D01*
X197305434Y-102883371D01*
X197311712Y-102931070D01*
X197340303Y-102992382D01*
X197360523Y-103035744D01*
X197442190Y-103117411D01*
X197546863Y-103166221D01*
X197594559Y-103172500D01*
X198043337Y-103172499D01*
X198063240Y-103175034D01*
X198063259Y-103174871D01*
X198072069Y-103175848D01*
X198072074Y-103175850D01*
X198141907Y-103173603D01*
X198179044Y-103167039D01*
X200596489Y-102371929D01*
X200611463Y-102368021D01*
X201707637Y-102154118D01*
X201721178Y-102150727D01*
X201721202Y-102150719D01*
X201721212Y-102150717D01*
X201733514Y-102146936D01*
X201746123Y-102143062D01*
X201786805Y-102121172D01*
X201791455Y-102118670D01*
X201791456Y-102118668D01*
X201791460Y-102118667D01*
X201821013Y-102094318D01*
X201845377Y-102074244D01*
X201845378Y-102074242D01*
X201845384Y-102074238D01*
X201845386Y-102074234D01*
X201845388Y-102074233D01*
X201887291Y-102012459D01*
X201887291Y-102012458D01*
X201887295Y-102012453D01*
X201908639Y-101945923D01*
X201909994Y-101941701D01*
X201910402Y-101941831D01*
X201916001Y-101925877D01*
X201930106Y-101895626D01*
X201946221Y-101861071D01*
X201952500Y-101813375D01*
X201952499Y-101336626D01*
X201946221Y-101288929D01*
X201897411Y-101184256D01*
X201897410Y-101184255D01*
X201892826Y-101174424D01*
X201894250Y-101173759D01*
X201875814Y-101119105D01*
X201892819Y-101051336D01*
X201912031Y-101026500D01*
X202284213Y-100654319D01*
X202345536Y-100620834D01*
X202371894Y-100618000D01*
X204251863Y-100618000D01*
X204251865Y-100618000D01*
X204332744Y-100596329D01*
X204405257Y-100554463D01*
X204505401Y-100454319D01*
X204532328Y-100439615D01*
X204558147Y-100423023D01*
X204564347Y-100422131D01*
X204566724Y-100420834D01*
X204593082Y-100418000D01*
X204736910Y-100418000D01*
X204803949Y-100437685D01*
X204805802Y-100438899D01*
X204845986Y-100465750D01*
X204845987Y-100465750D01*
X204845988Y-100465751D01*
X204905056Y-100477500D01*
X204905058Y-100477500D01*
X205294942Y-100477500D01*
X205294944Y-100477500D01*
X205354012Y-100465751D01*
X205420994Y-100420994D01*
X205465751Y-100354012D01*
X205477500Y-100294944D01*
X205477500Y-99905056D01*
X205465751Y-99845988D01*
X205420994Y-99779006D01*
X205354012Y-99734249D01*
X205294944Y-99722500D01*
X204905056Y-99722500D01*
X204875522Y-99728374D01*
X204845986Y-99734249D01*
X204805802Y-99761101D01*
X204739125Y-99781980D01*
X204736910Y-99782000D01*
X204417082Y-99782000D01*
X204350043Y-99762315D01*
X204304288Y-99709511D01*
X204294344Y-99640353D01*
X204323369Y-99576797D01*
X204329401Y-99570319D01*
X204502220Y-99397500D01*
X204753463Y-99146257D01*
X204753468Y-99146246D01*
X204758410Y-99139808D01*
X204758819Y-99140121D01*
X204771197Y-99123987D01*
X204923987Y-98971197D01*
X204940121Y-98958819D01*
X204939808Y-98958410D01*
X204946246Y-98953468D01*
X204946257Y-98953463D01*
X204985901Y-98913819D01*
X205047224Y-98880334D01*
X205073582Y-98877500D01*
X205208473Y-98877500D01*
X205216987Y-98880000D01*
X208016878Y-98880000D01*
X208041069Y-98882382D01*
X208041659Y-98882500D01*
X208041660Y-98882500D01*
X208532533Y-98882500D01*
X208532534Y-98882500D01*
X208556673Y-98880283D01*
X208560791Y-98879520D01*
X208561375Y-98879410D01*
X208627827Y-98845379D01*
X208634214Y-98839322D01*
X208664070Y-98797104D01*
X208820768Y-98445402D01*
X209110059Y-97796105D01*
X209118502Y-97770335D01*
X209119496Y-97765764D01*
X209122516Y-97738861D01*
X209132074Y-96727084D01*
X209133438Y-96582756D01*
X209133437Y-96582748D01*
X209132811Y-96579519D01*
X209123360Y-96530799D01*
X209119992Y-96522667D01*
X209119985Y-96522655D01*
X209118726Y-96520022D01*
X209107547Y-96451052D01*
X209135430Y-96386987D01*
X209193523Y-96348167D01*
X209230581Y-96342500D01*
X209535884Y-96342500D01*
X209602923Y-96362185D01*
X209648678Y-96414989D01*
X209655659Y-96434407D01*
X209657500Y-96441278D01*
X209657500Y-96441281D01*
X209663424Y-96463389D01*
X209686633Y-96550010D01*
X209690254Y-96556281D01*
X209742915Y-96647491D01*
X209822509Y-96727085D01*
X209919991Y-96783367D01*
X210028719Y-96812500D01*
X210081023Y-96812500D01*
X210148062Y-96832185D01*
X210168704Y-96848819D01*
X210358078Y-97038193D01*
X210411807Y-97091922D01*
X210482008Y-97121000D01*
X210506668Y-97121000D01*
X210573707Y-97140685D01*
X210575559Y-97141898D01*
X210625250Y-97175101D01*
X210625252Y-97175102D01*
X210653205Y-97180662D01*
X210662441Y-97182500D01*
X210662442Y-97182500D01*
X211237559Y-97182500D01*
X211244957Y-97181028D01*
X211274748Y-97175102D01*
X211316922Y-97146922D01*
X211345102Y-97104748D01*
X211352500Y-97067558D01*
X211352500Y-96792442D01*
X211345102Y-96755252D01*
X211340853Y-96748894D01*
X211319973Y-96682219D01*
X211338455Y-96614838D01*
X211340845Y-96611118D01*
X211345102Y-96604748D01*
X211352500Y-96567558D01*
X211352500Y-96292442D01*
X211345102Y-96255252D01*
X211345101Y-96255250D01*
X211316922Y-96213077D01*
X211274749Y-96184898D01*
X211237559Y-96177500D01*
X211237558Y-96177500D01*
X210662442Y-96177500D01*
X210662441Y-96177500D01*
X210625248Y-96184898D01*
X210625248Y-96184899D01*
X210618320Y-96189528D01*
X210551641Y-96210403D01*
X210484262Y-96191915D01*
X210442048Y-96148424D01*
X210427089Y-96122515D01*
X210427086Y-96122512D01*
X210427085Y-96122509D01*
X210347491Y-96042915D01*
X210298750Y-96014774D01*
X210250010Y-95986633D01*
X210189560Y-95970436D01*
X210141281Y-95957500D01*
X210028719Y-95957500D01*
X210028715Y-95957500D01*
X209980437Y-95970436D01*
X209910587Y-95968772D01*
X209900895Y-95965223D01*
X209889493Y-95960500D01*
X209889492Y-95960500D01*
X207831977Y-95960500D01*
X207764938Y-95940815D01*
X207744296Y-95924181D01*
X207459295Y-95639180D01*
X207425810Y-95577857D01*
X207430794Y-95508165D01*
X207472666Y-95452232D01*
X207538130Y-95427815D01*
X207546955Y-95427499D01*
X207881420Y-95427499D01*
X207944864Y-95414880D01*
X208016809Y-95366809D01*
X208064880Y-95294864D01*
X208077500Y-95231421D01*
X208077499Y-94768580D01*
X208077499Y-94768579D01*
X208077499Y-94765000D01*
X208097183Y-94697961D01*
X208149987Y-94652206D01*
X208201499Y-94641000D01*
X209249523Y-94641000D01*
X209316562Y-94660685D01*
X209337204Y-94677319D01*
X209667186Y-95007301D01*
X209700671Y-95068624D01*
X209699280Y-95127074D01*
X209697500Y-95133714D01*
X209697500Y-95246280D01*
X209726633Y-95355010D01*
X209736458Y-95372026D01*
X209782915Y-95452491D01*
X209862509Y-95532085D01*
X209959991Y-95588367D01*
X210068719Y-95617500D01*
X210068721Y-95617500D01*
X210181280Y-95617500D01*
X210181281Y-95617500D01*
X210220940Y-95606873D01*
X210290790Y-95608534D01*
X210300489Y-95612087D01*
X210322003Y-95620998D01*
X210322008Y-95621000D01*
X210506668Y-95621000D01*
X210549647Y-95628687D01*
X210577859Y-95639111D01*
X210583078Y-95646922D01*
X210625252Y-95675102D01*
X210662442Y-95682500D01*
X210680838Y-95682500D01*
X210681503Y-95682672D01*
X210686793Y-95682500D01*
X211237558Y-95682500D01*
X211237559Y-95682500D01*
X211244957Y-95681028D01*
X211274748Y-95675102D01*
X211316922Y-95646922D01*
X211328228Y-95630001D01*
X211620000Y-95630001D01*
X211620000Y-97029999D01*
X211621464Y-97033535D01*
X211625000Y-97034999D01*
X211625001Y-97035000D01*
X212624999Y-97035000D01*
X212624999Y-97034999D01*
X212628535Y-97033535D01*
X212629999Y-97029999D01*
X212630000Y-97029998D01*
X212630000Y-95330001D01*
X212629999Y-95330000D01*
X212628535Y-95326464D01*
X212624999Y-95325000D01*
X211925001Y-95325000D01*
X211924995Y-95325001D01*
X211921466Y-95326462D01*
X211921460Y-95326466D01*
X211621466Y-95626460D01*
X211621462Y-95626466D01*
X211620001Y-95629995D01*
X211620000Y-95630001D01*
X211328228Y-95630001D01*
X211345102Y-95604748D01*
X211352500Y-95567558D01*
X211352500Y-95292442D01*
X211345102Y-95255252D01*
X211330656Y-95233632D01*
X211316922Y-95213077D01*
X211274749Y-95184898D01*
X211237559Y-95177500D01*
X211237558Y-95177500D01*
X210662442Y-95177500D01*
X210659380Y-95177500D01*
X210592341Y-95157815D01*
X210546586Y-95105011D01*
X210539605Y-95085594D01*
X210539031Y-95083452D01*
X210523367Y-95024991D01*
X210467085Y-94927509D01*
X210387491Y-94847915D01*
X210338750Y-94819774D01*
X210290010Y-94791633D01*
X210220539Y-94773019D01*
X210181281Y-94762500D01*
X210068719Y-94762500D01*
X210068716Y-94762500D01*
X210054184Y-94766394D01*
X209984334Y-94764729D01*
X209934414Y-94734299D01*
X209488193Y-94288078D01*
X209417993Y-94259000D01*
X209417992Y-94259000D01*
X209301500Y-94259000D01*
X209234461Y-94239315D01*
X209188706Y-94186511D01*
X209177500Y-94135000D01*
X209177499Y-93668582D01*
X209177499Y-93668580D01*
X209164880Y-93605136D01*
X209164878Y-93605133D01*
X209116809Y-93533190D01*
X209044866Y-93485121D01*
X209044860Y-93485118D01*
X208976980Y-93471616D01*
X208915069Y-93439231D01*
X208880495Y-93378515D01*
X208884236Y-93308745D01*
X208925102Y-93252074D01*
X208976982Y-93228381D01*
X208981416Y-93227499D01*
X208981420Y-93227499D01*
X209044864Y-93214880D01*
X209116809Y-93166809D01*
X209164880Y-93094864D01*
X209177500Y-93031421D01*
X209177499Y-92568580D01*
X209164880Y-92505136D01*
X209164878Y-92505133D01*
X209116809Y-92433190D01*
X209044866Y-92385121D01*
X209044860Y-92385118D01*
X208976980Y-92371616D01*
X208915069Y-92339231D01*
X208880495Y-92278515D01*
X208884236Y-92208745D01*
X208925102Y-92152074D01*
X208976982Y-92128381D01*
X208981416Y-92127499D01*
X208981420Y-92127499D01*
X209044864Y-92114880D01*
X209116809Y-92066809D01*
X209164880Y-91994864D01*
X209177500Y-91931421D01*
X209177499Y-91468580D01*
X209164880Y-91405136D01*
X209164615Y-91404740D01*
X209116809Y-91333190D01*
X209044866Y-91285121D01*
X209044860Y-91285118D01*
X208976980Y-91271616D01*
X208915069Y-91239231D01*
X208880495Y-91178515D01*
X208884236Y-91108745D01*
X208925102Y-91052074D01*
X208976982Y-91028381D01*
X208981416Y-91027499D01*
X208981420Y-91027499D01*
X209044864Y-91014880D01*
X209116809Y-90966809D01*
X209164880Y-90894864D01*
X209177500Y-90831421D01*
X209177499Y-90368580D01*
X209164880Y-90305136D01*
X209163901Y-90303671D01*
X209116809Y-90233190D01*
X209044866Y-90185121D01*
X209044860Y-90185118D01*
X208976980Y-90171616D01*
X208915069Y-90139231D01*
X208880495Y-90078515D01*
X208884236Y-90008745D01*
X208925102Y-89952074D01*
X208976982Y-89928381D01*
X208981416Y-89927499D01*
X208981420Y-89927499D01*
X209044864Y-89914880D01*
X209116809Y-89866809D01*
X209164880Y-89794864D01*
X209177500Y-89731421D01*
X209177499Y-89268580D01*
X209164880Y-89205136D01*
X209163900Y-89203670D01*
X209116809Y-89133190D01*
X209044866Y-89085121D01*
X209044860Y-89085118D01*
X208976980Y-89071616D01*
X208915069Y-89039231D01*
X208880495Y-88978515D01*
X208884236Y-88908745D01*
X208925102Y-88852074D01*
X208976982Y-88828381D01*
X208981416Y-88827499D01*
X208981420Y-88827499D01*
X209044864Y-88814880D01*
X209116809Y-88766809D01*
X209164880Y-88694864D01*
X209165976Y-88689357D01*
X209170406Y-88667082D01*
X209177500Y-88631421D01*
X209177499Y-88168580D01*
X209177499Y-88168579D01*
X209177499Y-88164000D01*
X209197183Y-88096961D01*
X209249987Y-88051206D01*
X209301499Y-88040000D01*
X211572207Y-88040000D01*
X211582239Y-88040000D01*
X211600202Y-88041308D01*
X211604149Y-88041885D01*
X211619954Y-88044200D01*
X211699637Y-88040137D01*
X211707883Y-88039458D01*
X211709323Y-88039294D01*
X211717387Y-88038124D01*
X211789568Y-88025369D01*
X211802919Y-88022290D01*
X211805246Y-88021625D01*
X211818250Y-88017167D01*
X211928177Y-87972986D01*
X211938292Y-87968420D01*
X211940040Y-87967541D01*
X211949722Y-87962153D01*
X212006550Y-87927342D01*
X212009827Y-87925405D01*
X212067393Y-87892584D01*
X212079855Y-87885479D01*
X212141272Y-87869200D01*
X212141716Y-87869200D01*
X212144779Y-87870099D01*
X212147843Y-87869374D01*
X212175596Y-87879148D01*
X212208755Y-87888885D01*
X212211176Y-87891679D01*
X212213745Y-87892584D01*
X212229373Y-87912680D01*
X212254510Y-87941689D01*
X212255094Y-87945753D01*
X212256638Y-87947738D01*
X212258744Y-87971137D01*
X212264454Y-88010847D01*
X212262670Y-88014752D01*
X212262902Y-88017326D01*
X212251719Y-88038732D01*
X212235429Y-88074403D01*
X212229397Y-88080881D01*
X212210701Y-88099576D01*
X212210698Y-88099580D01*
X212129083Y-88221724D01*
X212129078Y-88221733D01*
X212072861Y-88357455D01*
X212072858Y-88357465D01*
X212044200Y-88501540D01*
X212044200Y-88648459D01*
X212072858Y-88792534D01*
X212072861Y-88792544D01*
X212129078Y-88928266D01*
X212129083Y-88928275D01*
X212210698Y-89050419D01*
X212210701Y-89050423D01*
X212314576Y-89154298D01*
X212314580Y-89154301D01*
X212436724Y-89235916D01*
X212436730Y-89235919D01*
X212436731Y-89235920D01*
X212572458Y-89292140D01*
X212716540Y-89320799D01*
X212716544Y-89320800D01*
X212716545Y-89320800D01*
X212863456Y-89320800D01*
X212863457Y-89320799D01*
X213007542Y-89292140D01*
X213143269Y-89235920D01*
X213265420Y-89154301D01*
X213369301Y-89050420D01*
X213450920Y-88928269D01*
X213507140Y-88792542D01*
X213535800Y-88648455D01*
X213535800Y-88501545D01*
X213507140Y-88357458D01*
X213507136Y-88357450D01*
X213506446Y-88355172D01*
X213506434Y-88353910D01*
X213505952Y-88351484D01*
X213506411Y-88351392D01*
X213505817Y-88285306D01*
X213543062Y-88226190D01*
X213606354Y-88196595D01*
X213675599Y-88205916D01*
X213687104Y-88211782D01*
X213724487Y-88233365D01*
X213724488Y-88233365D01*
X213724491Y-88233367D01*
X213833218Y-88262500D01*
X213833219Y-88262500D01*
X213833220Y-88262500D01*
X213945779Y-88262500D01*
X213945781Y-88262500D01*
X214054509Y-88233367D01*
X214151991Y-88177085D01*
X214151991Y-88177084D01*
X214157999Y-88173616D01*
X214225898Y-88157142D01*
X214291926Y-88179994D01*
X214335117Y-88234914D01*
X214344000Y-88281002D01*
X214344000Y-89504523D01*
X214324315Y-89571562D01*
X214307681Y-89592204D01*
X213380817Y-90519067D01*
X213319494Y-90552552D01*
X213249802Y-90547568D01*
X213193869Y-90505696D01*
X213190034Y-90500277D01*
X213183901Y-90491099D01*
X213183900Y-90491098D01*
X213114438Y-90444684D01*
X213053183Y-90432500D01*
X213053180Y-90432500D01*
X211426819Y-90432500D01*
X211426818Y-90432501D01*
X211365562Y-90444684D01*
X211296099Y-90491098D01*
X211249684Y-90560562D01*
X211237500Y-90621819D01*
X211237500Y-91048180D01*
X211237501Y-91048182D01*
X211249684Y-91109438D01*
X211296099Y-91178901D01*
X211365562Y-91225316D01*
X211426817Y-91237500D01*
X213053182Y-91237499D01*
X213114438Y-91225316D01*
X213183901Y-91178901D01*
X213230316Y-91109438D01*
X213230317Y-91109431D01*
X213233169Y-91102549D01*
X213277009Y-91048145D01*
X213343303Y-91026079D01*
X213347731Y-91026000D01*
X213372990Y-91026000D01*
X213372992Y-91026000D01*
X213443193Y-90996922D01*
X214696922Y-89743193D01*
X214726000Y-89672992D01*
X214726000Y-89597008D01*
X214726000Y-87187094D01*
X214696922Y-87116893D01*
X214643193Y-87063164D01*
X214094454Y-86514425D01*
X214086924Y-86506185D01*
X214080628Y-86498639D01*
X214072275Y-86484613D01*
X214027103Y-86434489D01*
X214025598Y-86432685D01*
X214025228Y-86431835D01*
X214018221Y-86422898D01*
X213998192Y-86393399D01*
X213987944Y-86375165D01*
X213982382Y-86362960D01*
X213975251Y-86342899D01*
X213974216Y-86338937D01*
X213970368Y-86314244D01*
X213966515Y-86242522D01*
X213965000Y-86214333D01*
X213964851Y-86210333D01*
X213963517Y-86147308D01*
X213962537Y-86100970D01*
X213962196Y-86093859D01*
X213962101Y-86092593D01*
X213961357Y-86085359D01*
X213946200Y-85969238D01*
X213946200Y-85966383D01*
X213945473Y-85963670D01*
X213944135Y-85953418D01*
X213943504Y-85949126D01*
X213943382Y-85948382D01*
X213943381Y-85948380D01*
X213943381Y-85948378D01*
X213939658Y-85938914D01*
X213935275Y-85925613D01*
X213929788Y-85905136D01*
X213910681Y-85833824D01*
X213842063Y-85714976D01*
X213821231Y-85694144D01*
X213809510Y-85680593D01*
X213449598Y-85197983D01*
X213425300Y-85132474D01*
X213425000Y-85123853D01*
X213425000Y-84765000D01*
X213075923Y-84765000D01*
X213008884Y-84745315D01*
X213002115Y-84740641D01*
X212992056Y-84733190D01*
X212594266Y-84438530D01*
X212491142Y-84362142D01*
X212483763Y-84356676D01*
X212475024Y-84347937D01*
X212461154Y-84339929D01*
X212379331Y-84279319D01*
X212302505Y-84222411D01*
X212260352Y-84166690D01*
X212255015Y-84097024D01*
X212288190Y-84035533D01*
X212288484Y-84035236D01*
X212353301Y-83970420D01*
X212434920Y-83848269D01*
X212491140Y-83712542D01*
X212519800Y-83568455D01*
X212519800Y-83421545D01*
X212519799Y-83421540D01*
X213060200Y-83421540D01*
X213060200Y-83568459D01*
X213088858Y-83712534D01*
X213088861Y-83712544D01*
X213145078Y-83848266D01*
X213145083Y-83848275D01*
X213226698Y-83970419D01*
X213226701Y-83970423D01*
X213330576Y-84074298D01*
X213330580Y-84074301D01*
X213452724Y-84155916D01*
X213452730Y-84155919D01*
X213452731Y-84155920D01*
X213588458Y-84212140D01*
X213706498Y-84235619D01*
X213732540Y-84240799D01*
X213732544Y-84240800D01*
X213732545Y-84240800D01*
X213879456Y-84240800D01*
X213879457Y-84240799D01*
X214023542Y-84212140D01*
X214159269Y-84155920D01*
X214281420Y-84074301D01*
X214385301Y-83970420D01*
X214466920Y-83848269D01*
X214523140Y-83712542D01*
X214551800Y-83568455D01*
X214551800Y-83421545D01*
X214523140Y-83277458D01*
X214466920Y-83141731D01*
X214466919Y-83141730D01*
X214466916Y-83141724D01*
X214385301Y-83019580D01*
X214385298Y-83019576D01*
X214281423Y-82915701D01*
X214281419Y-82915698D01*
X214159275Y-82834083D01*
X214159266Y-82834078D01*
X214023544Y-82777861D01*
X214023545Y-82777861D01*
X214023542Y-82777860D01*
X214023538Y-82777859D01*
X214023534Y-82777858D01*
X213879459Y-82749200D01*
X213879455Y-82749200D01*
X213732545Y-82749200D01*
X213732540Y-82749200D01*
X213588465Y-82777858D01*
X213588455Y-82777861D01*
X213452733Y-82834078D01*
X213452724Y-82834083D01*
X213330580Y-82915698D01*
X213330576Y-82915701D01*
X213226701Y-83019576D01*
X213226698Y-83019580D01*
X213145083Y-83141724D01*
X213145078Y-83141733D01*
X213088861Y-83277455D01*
X213088858Y-83277465D01*
X213060200Y-83421540D01*
X212519799Y-83421540D01*
X212491140Y-83277458D01*
X212434920Y-83141731D01*
X212434919Y-83141730D01*
X212434916Y-83141724D01*
X212353301Y-83019580D01*
X212353298Y-83019576D01*
X212249423Y-82915701D01*
X212249419Y-82915698D01*
X212127275Y-82834083D01*
X212127266Y-82834078D01*
X211991544Y-82777861D01*
X211991545Y-82777861D01*
X211991542Y-82777860D01*
X211991538Y-82777859D01*
X211991534Y-82777858D01*
X211847459Y-82749200D01*
X211847455Y-82749200D01*
X211700545Y-82749200D01*
X211700540Y-82749200D01*
X211556465Y-82777858D01*
X211556455Y-82777861D01*
X211420733Y-82834078D01*
X211420724Y-82834083D01*
X211298580Y-82915698D01*
X211298576Y-82915701D01*
X211194701Y-83019576D01*
X211194698Y-83019580D01*
X211113083Y-83141724D01*
X211113078Y-83141733D01*
X211056861Y-83277455D01*
X211056858Y-83277465D01*
X211028200Y-83421540D01*
X211028200Y-83568459D01*
X211056858Y-83712534D01*
X211056861Y-83712544D01*
X211113078Y-83848266D01*
X211113083Y-83848275D01*
X211194698Y-83970419D01*
X211194701Y-83970423D01*
X211298576Y-84074298D01*
X211298580Y-84074301D01*
X211420724Y-84155916D01*
X211420730Y-84155919D01*
X211420731Y-84155920D01*
X211556458Y-84212140D01*
X211674506Y-84235620D01*
X211736414Y-84268004D01*
X211770989Y-84328719D01*
X211767250Y-84398489D01*
X211742303Y-84438084D01*
X211742884Y-84438530D01*
X211738068Y-84444805D01*
X211738002Y-84444911D01*
X211737939Y-84444973D01*
X211737937Y-84444976D01*
X211669319Y-84563823D01*
X211633800Y-84696383D01*
X211633800Y-84833616D01*
X211669319Y-84966176D01*
X211730879Y-85072799D01*
X211747352Y-85140699D01*
X211724500Y-85206726D01*
X211669579Y-85249917D01*
X211623492Y-85258800D01*
X211172206Y-85258800D01*
X211102006Y-85287878D01*
X211102005Y-85287879D01*
X211025704Y-85364181D01*
X210964381Y-85397666D01*
X210938023Y-85400500D01*
X209301500Y-85400500D01*
X209234461Y-85380815D01*
X209188706Y-85328011D01*
X209177500Y-85276500D01*
X209177499Y-84868582D01*
X209177499Y-84868580D01*
X209164880Y-84805136D01*
X209124910Y-84745315D01*
X209116809Y-84733190D01*
X209044866Y-84685121D01*
X209044860Y-84685118D01*
X208981423Y-84672500D01*
X208574000Y-84672500D01*
X208506961Y-84652815D01*
X208461206Y-84600011D01*
X208450000Y-84548500D01*
X208450000Y-82400000D01*
X207474000Y-82400000D01*
X207406961Y-82380315D01*
X207361206Y-82327511D01*
X207350000Y-82276000D01*
X207350000Y-81924000D01*
X207369685Y-81856961D01*
X207422489Y-81811206D01*
X207474000Y-81800000D01*
X214730824Y-81800000D01*
X214760264Y-81808644D01*
X214790251Y-81815168D01*
X214795266Y-81818922D01*
X214797863Y-81819685D01*
X214818505Y-81836319D01*
X214872829Y-81890643D01*
X214888263Y-81909452D01*
X214910942Y-81943407D01*
X214922405Y-81964867D01*
X214971207Y-82082804D01*
X214978259Y-82106089D01*
X214996836Y-82199742D01*
X214999206Y-82223957D01*
X214981319Y-107452911D01*
X214961587Y-107519936D01*
X214908750Y-107565654D01*
X214839585Y-107575548D01*
X214776050Y-107546478D01*
X214769638Y-107540504D01*
X214721860Y-107492726D01*
X214721851Y-107492718D01*
X214513803Y-107333075D01*
X214286700Y-107201958D01*
X214286690Y-107201953D01*
X214044428Y-107101605D01*
X214044421Y-107101603D01*
X214044419Y-107101602D01*
X213791116Y-107033730D01*
X213733339Y-107026123D01*
X213531127Y-106999500D01*
X213531120Y-106999500D01*
X213268880Y-106999500D01*
X213268872Y-106999500D01*
X213037772Y-107029926D01*
X213008884Y-107033730D01*
X212939050Y-107052442D01*
X212755581Y-107101602D01*
X212755571Y-107101605D01*
X212513309Y-107201953D01*
X212513299Y-107201958D01*
X212286196Y-107333075D01*
X212078148Y-107492718D01*
X211892718Y-107678148D01*
X211733075Y-107886196D01*
X211601958Y-108113299D01*
X211601953Y-108113309D01*
X211501605Y-108355571D01*
X211501602Y-108355581D01*
X211440070Y-108585225D01*
X211433730Y-108608885D01*
X211399500Y-108868872D01*
X211399500Y-109131127D01*
X211425193Y-109326275D01*
X211433730Y-109391116D01*
X211477765Y-109555458D01*
X211501602Y-109644418D01*
X211501605Y-109644428D01*
X211601953Y-109886690D01*
X211601958Y-109886700D01*
X211733075Y-110113803D01*
X211892718Y-110321851D01*
X211892726Y-110321860D01*
X211958685Y-110387819D01*
X211992170Y-110449142D01*
X211987186Y-110518834D01*
X211945314Y-110574767D01*
X211879850Y-110599184D01*
X211871004Y-110599500D01*
X195308517Y-110599500D01*
X195284326Y-110597117D01*
X195110099Y-110562461D01*
X195086837Y-110555405D01*
X194775663Y-110426512D01*
X194754225Y-110415053D01*
X194523189Y-110260680D01*
X194504399Y-110245259D01*
X194113308Y-109854168D01*
X194097887Y-109835378D01*
X194077231Y-109804465D01*
X194040952Y-109750170D01*
X194029494Y-109728732D01*
X193994574Y-109644428D01*
X193944594Y-109523764D01*
X193937539Y-109500505D01*
X193923017Y-109427499D01*
X193902883Y-109326275D01*
X193900500Y-109302084D01*
X193900500Y-106983180D01*
X195657500Y-106983180D01*
X195657500Y-107576817D01*
X195658648Y-107585530D01*
X195659709Y-107601715D01*
X195659709Y-109211973D01*
X195665987Y-109259672D01*
X195696964Y-109326102D01*
X195714798Y-109364346D01*
X195796465Y-109446013D01*
X195901138Y-109494823D01*
X195948834Y-109501102D01*
X196425583Y-109501101D01*
X196473280Y-109494823D01*
X196577953Y-109446013D01*
X196659620Y-109364346D01*
X196708430Y-109259673D01*
X196714709Y-109211977D01*
X196714709Y-108899866D01*
X196714709Y-108585225D01*
X197309709Y-108585225D01*
X197309709Y-109211973D01*
X197315987Y-109259672D01*
X197346964Y-109326102D01*
X197364798Y-109364346D01*
X197446465Y-109446013D01*
X197551138Y-109494823D01*
X197598834Y-109501102D01*
X198075583Y-109501101D01*
X198123280Y-109494823D01*
X198227953Y-109446013D01*
X198309620Y-109364346D01*
X198309620Y-109364345D01*
X198311545Y-109362421D01*
X198338472Y-109347717D01*
X198364291Y-109331125D01*
X198370491Y-109330233D01*
X198372868Y-109328936D01*
X198399226Y-109326102D01*
X198644972Y-109326102D01*
X198661156Y-109327163D01*
X198663716Y-109327500D01*
X198663719Y-109327500D01*
X200293719Y-109327500D01*
X202127226Y-109327500D01*
X202189225Y-109344112D01*
X202271393Y-109391552D01*
X202405553Y-109427500D01*
X202405555Y-109427500D01*
X206144445Y-109427500D01*
X206144447Y-109427500D01*
X206278607Y-109391552D01*
X206360774Y-109344112D01*
X206422774Y-109327500D01*
X208546279Y-109327500D01*
X208546281Y-109327500D01*
X208655009Y-109298367D01*
X208752491Y-109242085D01*
X209765758Y-108228819D01*
X209827081Y-108195334D01*
X209853439Y-108192500D01*
X210337559Y-108192500D01*
X210344957Y-108191028D01*
X210374748Y-108185102D01*
X210416922Y-108156922D01*
X210445102Y-108114748D01*
X210452500Y-108077558D01*
X210452500Y-107052442D01*
X210445102Y-107015252D01*
X210445101Y-107015250D01*
X210416922Y-106973077D01*
X210374749Y-106944898D01*
X210337559Y-106937500D01*
X210337558Y-106937500D01*
X209312442Y-106937500D01*
X209312441Y-106937500D01*
X209275250Y-106944898D01*
X209233077Y-106973077D01*
X209204898Y-107015250D01*
X209197500Y-107052441D01*
X209197500Y-107536561D01*
X209177815Y-107603600D01*
X209161181Y-107624242D01*
X208349243Y-108436181D01*
X208287920Y-108469666D01*
X208261562Y-108472500D01*
X206422774Y-108472500D01*
X206360774Y-108455887D01*
X206278609Y-108408449D01*
X206278608Y-108408448D01*
X206278607Y-108408448D01*
X206144447Y-108372500D01*
X202405553Y-108372500D01*
X202271393Y-108408448D01*
X202271390Y-108408449D01*
X202189226Y-108455887D01*
X202127226Y-108472500D01*
X200578438Y-108472500D01*
X200511399Y-108452815D01*
X200490757Y-108436181D01*
X199663819Y-107609243D01*
X199630334Y-107547920D01*
X199627500Y-107521562D01*
X199627500Y-104128438D01*
X199636144Y-104098997D01*
X199642668Y-104069011D01*
X199646422Y-104063995D01*
X199647185Y-104061399D01*
X199663819Y-104040757D01*
X199825757Y-103878819D01*
X199887080Y-103845334D01*
X199913438Y-103842500D01*
X200001068Y-103842500D01*
X201110371Y-103842500D01*
X201177410Y-103862185D01*
X201223165Y-103914989D01*
X201234362Y-103967913D01*
X201229522Y-104391818D01*
X201224205Y-104857453D01*
X201224877Y-104872385D01*
X201224878Y-104872398D01*
X201227702Y-104900150D01*
X201227702Y-104900151D01*
X201243228Y-104950238D01*
X201243229Y-104950240D01*
X201276713Y-105011561D01*
X201299306Y-105041743D01*
X201299309Y-105041747D01*
X201299314Y-105041753D01*
X201299319Y-105041758D01*
X201322804Y-105065243D01*
X201326567Y-105070737D01*
X201329847Y-105072903D01*
X201348555Y-105102831D01*
X201351932Y-105110478D01*
X201362500Y-105160571D01*
X201362500Y-105469427D01*
X201351934Y-105519514D01*
X201348557Y-105527162D01*
X201322804Y-105564756D01*
X201288817Y-105598742D01*
X201288797Y-105598763D01*
X201279791Y-105608732D01*
X201263947Y-105628168D01*
X201263940Y-105628178D01*
X201239943Y-105673114D01*
X201239941Y-105673119D01*
X201219499Y-105739906D01*
X201219495Y-105739923D01*
X201213704Y-105777175D01*
X201213703Y-105777182D01*
X201196963Y-107243074D01*
X201199822Y-107271991D01*
X201199825Y-107272010D01*
X201211023Y-107324937D01*
X201240516Y-107384280D01*
X201286271Y-107437084D01*
X201286273Y-107437085D01*
X201286274Y-107437086D01*
X201320264Y-107458931D01*
X201349077Y-107477448D01*
X201416116Y-107497133D01*
X201453447Y-107502500D01*
X201453449Y-107502500D01*
X202513501Y-107502500D01*
X202541667Y-107499472D01*
X202593179Y-107488266D01*
X202651782Y-107458931D01*
X202704586Y-107413176D01*
X202704587Y-107413175D01*
X202744950Y-107350368D01*
X202764634Y-107283329D01*
X202770001Y-107245996D01*
X202770000Y-107209548D01*
X202770000Y-107000135D01*
X202771294Y-106982267D01*
X202771341Y-106981942D01*
X202772820Y-106971791D01*
X202784123Y-106935208D01*
X202799390Y-106903978D01*
X202823103Y-106870767D01*
X202845764Y-106848106D01*
X202878974Y-106824393D01*
X202910213Y-106809121D01*
X202912147Y-106808524D01*
X202912955Y-106807822D01*
X202946799Y-106797818D01*
X202953099Y-106796901D01*
X202957269Y-106796294D01*
X202975135Y-106795000D01*
X203504862Y-106795000D01*
X203522733Y-106796295D01*
X203533204Y-106797820D01*
X203569788Y-106809122D01*
X203601015Y-106824388D01*
X203604010Y-106826526D01*
X203605979Y-106826955D01*
X203634233Y-106848106D01*
X203656888Y-106870761D01*
X203680606Y-106903979D01*
X203694673Y-106932753D01*
X203695874Y-106935208D01*
X203707178Y-106971789D01*
X203708703Y-106982254D01*
X203709999Y-107000135D01*
X203709999Y-107246000D01*
X203710000Y-107246001D01*
X203713028Y-107274166D01*
X203724234Y-107325678D01*
X203753569Y-107384281D01*
X203776446Y-107410682D01*
X203799324Y-107437084D01*
X203799326Y-107437085D01*
X203799327Y-107437086D01*
X203833317Y-107458931D01*
X203862130Y-107477448D01*
X203929169Y-107497133D01*
X203966500Y-107502500D01*
X203966502Y-107502500D01*
X204653624Y-107502500D01*
X204653635Y-107502500D01*
X204670153Y-107501466D01*
X204700826Y-107497612D01*
X204751924Y-107480095D01*
X204812011Y-107444440D01*
X204812013Y-107444438D01*
X204860854Y-107391972D01*
X204920940Y-107356318D01*
X204975804Y-107354847D01*
X204985095Y-107356694D01*
X204989141Y-107357499D01*
X204989143Y-107357500D01*
X204989144Y-107357500D01*
X205410857Y-107357500D01*
X205410858Y-107357499D01*
X205487423Y-107342270D01*
X205574252Y-107284252D01*
X205593557Y-107255359D01*
X205647168Y-107210555D01*
X205716493Y-107201848D01*
X205779521Y-107232002D01*
X205799761Y-107255361D01*
X205825746Y-107294251D01*
X205847601Y-107308854D01*
X205912577Y-107352270D01*
X205912580Y-107352270D01*
X205912581Y-107352271D01*
X205989139Y-107367499D01*
X205989143Y-107367500D01*
X205989144Y-107367500D01*
X206410857Y-107367500D01*
X206410858Y-107367499D01*
X206487423Y-107352270D01*
X206574252Y-107294252D01*
X206632270Y-107207423D01*
X206647500Y-107130856D01*
X206647500Y-106809144D01*
X206644687Y-106795000D01*
X206632271Y-106732581D01*
X206632270Y-106732580D01*
X206632270Y-106732577D01*
X206595468Y-106677500D01*
X206574252Y-106645747D01*
X206522201Y-106610968D01*
X206487423Y-106587730D01*
X206487421Y-106587729D01*
X206487418Y-106587728D01*
X206410860Y-106572500D01*
X206410856Y-106572500D01*
X206401500Y-106572500D01*
X206334461Y-106552815D01*
X206288706Y-106500011D01*
X206277500Y-106448500D01*
X206277500Y-106165040D01*
X206286940Y-106117585D01*
X206291477Y-106106632D01*
X206302499Y-106051216D01*
X206302500Y-106051213D01*
X206302500Y-105313787D01*
X206302499Y-105313783D01*
X206291477Y-105258368D01*
X206291475Y-105258364D01*
X206249482Y-105195517D01*
X206186635Y-105153524D01*
X206186631Y-105153522D01*
X206131216Y-105142500D01*
X206131212Y-105142500D01*
X205968788Y-105142500D01*
X205968783Y-105142500D01*
X205913368Y-105153522D01*
X205913368Y-105153523D01*
X205913366Y-105153523D01*
X205913366Y-105153524D01*
X205881407Y-105174877D01*
X205868890Y-105183242D01*
X205802212Y-105204119D01*
X205734832Y-105185634D01*
X205731110Y-105183242D01*
X205725952Y-105179796D01*
X205686634Y-105153524D01*
X205686631Y-105153523D01*
X205686631Y-105153522D01*
X205631216Y-105142500D01*
X205631212Y-105142500D01*
X205468788Y-105142500D01*
X205468787Y-105142500D01*
X205434420Y-105149335D01*
X205364829Y-105143106D01*
X205343192Y-105132032D01*
X205277873Y-105090053D01*
X205210828Y-105070366D01*
X205173503Y-105065000D01*
X205173500Y-105065000D01*
X204550457Y-105065000D01*
X204550017Y-105065000D01*
X204549577Y-105065002D01*
X204548941Y-105065005D01*
X204548903Y-105065005D01*
X204548345Y-105065008D01*
X204333000Y-105066690D01*
X204332966Y-105066691D01*
X204316212Y-105067888D01*
X204316210Y-105067888D01*
X204311780Y-105068489D01*
X204308932Y-105068875D01*
X204292269Y-105070000D01*
X204227492Y-105070000D01*
X204195397Y-105065774D01*
X204151898Y-105054118D01*
X204121993Y-105041731D01*
X204083003Y-105019220D01*
X204057322Y-104999514D01*
X204025485Y-104967677D01*
X204005779Y-104941996D01*
X203983266Y-104903002D01*
X203970878Y-104873095D01*
X203959225Y-104829604D01*
X203955000Y-104797511D01*
X203955000Y-104783860D01*
X203954931Y-104782574D01*
X203954241Y-104769698D01*
X203953211Y-104760117D01*
X203952500Y-104746860D01*
X203952500Y-104161815D01*
X203956725Y-104129723D01*
X203959313Y-104120065D01*
X203970877Y-104076902D01*
X203983263Y-104047000D01*
X204005783Y-104007994D01*
X204025479Y-103982326D01*
X204057326Y-103950478D01*
X204082992Y-103930784D01*
X204121997Y-103908263D01*
X204151898Y-103895879D01*
X204209260Y-103880509D01*
X204225858Y-103877297D01*
X204225858Y-103877293D01*
X204225959Y-103877278D01*
X204226436Y-103877186D01*
X204227323Y-103877077D01*
X204227344Y-103877076D01*
X204240009Y-103875228D01*
X204332753Y-103857081D01*
X204356088Y-103854776D01*
X204952500Y-103852500D01*
X204955000Y-103852500D01*
X205076000Y-103852500D01*
X205094857Y-103851151D01*
X205115166Y-103848231D01*
X205129786Y-103846129D01*
X205129786Y-103846128D01*
X205129792Y-103846128D01*
X205145124Y-103840408D01*
X205145156Y-103840554D01*
X205155671Y-103838267D01*
X205169729Y-103831229D01*
X205182581Y-103826436D01*
X205188511Y-103822623D01*
X205200054Y-103816051D01*
X205202758Y-103814697D01*
X205214281Y-103808930D01*
X205220384Y-103803640D01*
X205234548Y-103793037D01*
X205239786Y-103789672D01*
X205241205Y-103788791D01*
X205241351Y-103788667D01*
X205241356Y-103788664D01*
X205246650Y-103782552D01*
X205259164Y-103770037D01*
X205260236Y-103769107D01*
X205260237Y-103769108D01*
X205266269Y-103763881D01*
X205267036Y-103763230D01*
X205267079Y-103763179D01*
X205267084Y-103763176D01*
X205272764Y-103754335D01*
X205283362Y-103740178D01*
X205290243Y-103732237D01*
X205294004Y-103724000D01*
X205294003Y-103723999D01*
X205294596Y-103722703D01*
X205294601Y-103722691D01*
X205298283Y-103714627D01*
X205307448Y-103700368D01*
X205312221Y-103684112D01*
X205319264Y-103668691D01*
X205319267Y-103668683D01*
X205320418Y-103660672D01*
X205324182Y-103643372D01*
X205324577Y-103642025D01*
X205324578Y-103642026D01*
X205327129Y-103633341D01*
X205332500Y-103596000D01*
X205332500Y-102845451D01*
X205332499Y-102845442D01*
X205767500Y-102845442D01*
X205767500Y-103596002D01*
X205770527Y-103624165D01*
X205781734Y-103675678D01*
X205811069Y-103734281D01*
X205828454Y-103754343D01*
X205856824Y-103787084D01*
X205856826Y-103787085D01*
X205856827Y-103787086D01*
X205922527Y-103829311D01*
X205944687Y-103854886D01*
X205970002Y-103854789D01*
X205970000Y-103854790D01*
X206487908Y-103852812D01*
X206534558Y-103861730D01*
X207158610Y-104112148D01*
X207158627Y-104112153D01*
X207182636Y-104119237D01*
X207182642Y-104119238D01*
X207182651Y-104119241D01*
X207182667Y-104119244D01*
X207182671Y-104119245D01*
X207186884Y-104120065D01*
X207186892Y-104120066D01*
X207186902Y-104120068D01*
X207211835Y-104122505D01*
X210778130Y-104132466D01*
X210829201Y-104122383D01*
X210831739Y-104121331D01*
X210837330Y-104119017D01*
X210837333Y-104119015D01*
X210862204Y-104105434D01*
X210909048Y-104047300D01*
X210912416Y-104039168D01*
X210922500Y-103988467D01*
X210922500Y-102543992D01*
X210915171Y-102500535D01*
X210912697Y-102493409D01*
X210891523Y-102454763D01*
X210747450Y-102272271D01*
X210747446Y-102272266D01*
X210747434Y-102272251D01*
X210742515Y-102266380D01*
X210742505Y-102266368D01*
X210742496Y-102266358D01*
X210741602Y-102265352D01*
X210696051Y-102232938D01*
X210693259Y-102230951D01*
X210685126Y-102227583D01*
X210634427Y-102217500D01*
X210021246Y-102217500D01*
X209991805Y-102208855D01*
X209961819Y-102202332D01*
X209956803Y-102198577D01*
X209954207Y-102197815D01*
X209933565Y-102181181D01*
X209829877Y-102077493D01*
X209796392Y-102016170D01*
X209793564Y-101988578D01*
X209793774Y-101967500D01*
X209801187Y-101222335D01*
X209821538Y-101155498D01*
X209853503Y-101122388D01*
X209920737Y-101074765D01*
X209986819Y-101052080D01*
X209991576Y-101051957D01*
X212892257Y-101032554D01*
X212925142Y-101028181D01*
X212928257Y-101027359D01*
X212930656Y-101026728D01*
X212931422Y-101026496D01*
X212939858Y-101023942D01*
X213000802Y-100980818D01*
X213006264Y-100973915D01*
X213029818Y-100927891D01*
X213257037Y-100127685D01*
X213602150Y-98912288D01*
X213602155Y-98912269D01*
X213602158Y-98912258D01*
X213605056Y-98899788D01*
X213605452Y-98897612D01*
X213607126Y-98885003D01*
X213731966Y-97401898D01*
X213732415Y-97392993D01*
X213732441Y-97391434D01*
X213732282Y-97382381D01*
X213723058Y-97204049D01*
X213703329Y-96822593D01*
X213703328Y-96822589D01*
X213702887Y-96814062D01*
X213702500Y-96812446D01*
X213702500Y-96792442D01*
X213695102Y-96755252D01*
X213679339Y-96731662D01*
X213674055Y-96711631D01*
X213674471Y-96696582D01*
X213669973Y-96682219D01*
X213675417Y-96662368D01*
X213675987Y-96641789D01*
X213684473Y-96629353D01*
X213688455Y-96614838D01*
X213690845Y-96611118D01*
X213695102Y-96604748D01*
X213702500Y-96567558D01*
X213702500Y-96292442D01*
X213695102Y-96255252D01*
X213695101Y-96255250D01*
X213666922Y-96213077D01*
X213624749Y-96184898D01*
X213587559Y-96177500D01*
X213587558Y-96177500D01*
X213012442Y-96177500D01*
X213012441Y-96177500D01*
X212975250Y-96184898D01*
X212933077Y-96213077D01*
X212904898Y-96255250D01*
X212897500Y-96292441D01*
X212897500Y-96567558D01*
X212904898Y-96604749D01*
X212909148Y-96611109D01*
X212930026Y-96677787D01*
X212925854Y-96711968D01*
X212920558Y-96731815D01*
X212904898Y-96755252D01*
X212897500Y-96792442D01*
X212897500Y-96810945D01*
X212897084Y-96812517D01*
X212896490Y-96822013D01*
X212896489Y-96822019D01*
X212864799Y-97329059D01*
X212840970Y-97394740D01*
X212818927Y-97417810D01*
X212232478Y-97891209D01*
X212211746Y-97912157D01*
X212211745Y-97912158D01*
X212208606Y-97916129D01*
X212208602Y-97916135D01*
X212193011Y-97941153D01*
X212192998Y-97941177D01*
X212041578Y-98258006D01*
X212041575Y-98258014D01*
X212031903Y-98285852D01*
X212031902Y-98285857D01*
X212030779Y-98290810D01*
X212030779Y-98290813D01*
X212030778Y-98290818D01*
X212027500Y-98320107D01*
X212027500Y-98320112D01*
X212027500Y-98803754D01*
X212018855Y-98833194D01*
X212012332Y-98863181D01*
X212008577Y-98868196D01*
X212007815Y-98870793D01*
X211991181Y-98891435D01*
X211901435Y-98981181D01*
X211840112Y-99014666D01*
X211813754Y-99017500D01*
X209909336Y-99017500D01*
X209858651Y-99027579D01*
X209850520Y-99030945D01*
X209807516Y-99059674D01*
X209342678Y-99524512D01*
X209316999Y-99544217D01*
X209278002Y-99566733D01*
X209248095Y-99579121D01*
X209204608Y-99590774D01*
X209172513Y-99595000D01*
X208441576Y-99595000D01*
X208417546Y-99597646D01*
X208412739Y-99598176D01*
X208412728Y-99598178D01*
X208407858Y-99599264D01*
X208380419Y-99608631D01*
X208162725Y-99710760D01*
X208110060Y-99722500D01*
X208105056Y-99722500D01*
X208065677Y-99730332D01*
X208045987Y-99734249D01*
X207979004Y-99779006D01*
X207934251Y-99845984D01*
X207933215Y-99848486D01*
X207928186Y-99865329D01*
X207927212Y-99867740D01*
X207917570Y-99918557D01*
X207936543Y-102043596D01*
X207928015Y-102073626D01*
X207921381Y-102104128D01*
X207918116Y-102108489D01*
X207917458Y-102110808D01*
X207900231Y-102132383D01*
X207841436Y-102191180D01*
X207780113Y-102224666D01*
X207753753Y-102227500D01*
X207355851Y-102227500D01*
X207288812Y-102207815D01*
X207243057Y-102155011D01*
X207233500Y-102094388D01*
X207232292Y-102094318D01*
X207232500Y-102090730D01*
X207232500Y-101244000D01*
X207229472Y-101215834D01*
X207218266Y-101164323D01*
X207188931Y-101105720D01*
X207188930Y-101105718D01*
X207162109Y-101074766D01*
X207143176Y-101052916D01*
X207143173Y-101052914D01*
X207143172Y-101052913D01*
X207080374Y-101012554D01*
X207080372Y-101012553D01*
X207080371Y-101012552D01*
X207080370Y-101012552D01*
X207013331Y-100992867D01*
X207013328Y-100992866D01*
X206976003Y-100987500D01*
X206976000Y-100987500D01*
X206324000Y-100987500D01*
X206323997Y-100987500D01*
X206295834Y-100990527D01*
X206244321Y-101001734D01*
X206185718Y-101031069D01*
X206132916Y-101076824D01*
X206132913Y-101076827D01*
X206092554Y-101139625D01*
X206092551Y-101139631D01*
X206074774Y-101200171D01*
X206068181Y-101217636D01*
X206054141Y-101247745D01*
X206054138Y-101247757D01*
X206047500Y-101298180D01*
X206047500Y-102114015D01*
X206037474Y-102162861D01*
X205812273Y-102688334D01*
X205812272Y-102688335D01*
X205788239Y-102744408D01*
X205780232Y-102769961D01*
X205770206Y-102818805D01*
X205770204Y-102818819D01*
X205767500Y-102845442D01*
X205332499Y-102845442D01*
X205329794Y-102818810D01*
X205319768Y-102769964D01*
X205311761Y-102744411D01*
X205150450Y-102368019D01*
X205062525Y-102162861D01*
X205052499Y-102114015D01*
X205052499Y-101298187D01*
X205052499Y-101298182D01*
X205045861Y-101247752D01*
X205033998Y-101222314D01*
X205025215Y-101196268D01*
X205020463Y-101174424D01*
X205018266Y-101164323D01*
X204988931Y-101105720D01*
X204943176Y-101052916D01*
X204943173Y-101052914D01*
X204943172Y-101052913D01*
X204880374Y-101012554D01*
X204880372Y-101012553D01*
X204880371Y-101012552D01*
X204880370Y-101012552D01*
X204813331Y-100992867D01*
X204813328Y-100992866D01*
X204776003Y-100987500D01*
X204776000Y-100987500D01*
X204124000Y-100987500D01*
X204123997Y-100987500D01*
X204095834Y-100990527D01*
X204044321Y-101001734D01*
X203985718Y-101031069D01*
X203932916Y-101076824D01*
X203932913Y-101076827D01*
X203892554Y-101139625D01*
X203892553Y-101139627D01*
X203872866Y-101206671D01*
X203867500Y-101243996D01*
X203867500Y-101243997D01*
X203867500Y-101244000D01*
X203867500Y-102090728D01*
X203869029Y-102103860D01*
X203871044Y-102121168D01*
X203871045Y-102121172D01*
X203876900Y-102145973D01*
X203884136Y-102176624D01*
X203884137Y-102176628D01*
X203884138Y-102176630D01*
X203894575Y-102205429D01*
X203894581Y-102205444D01*
X204072243Y-102560768D01*
X204084618Y-102629533D01*
X204057850Y-102694072D01*
X204000440Y-102733894D01*
X203962378Y-102740218D01*
X203122938Y-102747283D01*
X201535273Y-102760646D01*
X201534236Y-102760670D01*
X201531100Y-102760746D01*
X201524007Y-102761030D01*
X201523295Y-102761059D01*
X201482294Y-102769307D01*
X201482292Y-102769307D01*
X201482290Y-102769308D01*
X201416830Y-102793723D01*
X201357064Y-102838463D01*
X201357063Y-102838464D01*
X201315191Y-102894397D01*
X201315190Y-102894399D01*
X201310551Y-102906834D01*
X201268682Y-102962767D01*
X201203218Y-102987184D01*
X201194371Y-102987500D01*
X199628719Y-102987500D01*
X199519989Y-103016633D01*
X199422509Y-103072915D01*
X199422506Y-103072917D01*
X198857917Y-103637506D01*
X198857915Y-103637509D01*
X198801633Y-103734989D01*
X198772500Y-103843719D01*
X198772500Y-107635848D01*
X198752815Y-107702887D01*
X198728933Y-107730223D01*
X198099728Y-108266477D01*
X198035937Y-108294980D01*
X198019295Y-108296102D01*
X197598837Y-108296102D01*
X197551138Y-108302380D01*
X197446464Y-108351191D01*
X197364799Y-108432856D01*
X197315988Y-108537529D01*
X197315987Y-108537533D01*
X197309709Y-108585225D01*
X196714709Y-108585225D01*
X196714709Y-107796599D01*
X196726327Y-107744194D01*
X196729254Y-107737915D01*
X196729256Y-107737914D01*
X196780861Y-107627248D01*
X196787500Y-107576819D01*
X196787499Y-106983182D01*
X196780861Y-106932752D01*
X196729256Y-106822086D01*
X196642914Y-106735744D01*
X196532248Y-106684139D01*
X196532246Y-106684138D01*
X196532247Y-106684138D01*
X196481819Y-106677500D01*
X195963187Y-106677500D01*
X195912750Y-106684139D01*
X195912748Y-106684140D01*
X195802085Y-106735744D01*
X195715744Y-106822085D01*
X195664138Y-106932753D01*
X195657500Y-106983180D01*
X193900500Y-106983180D01*
X193900500Y-102256623D01*
X195655434Y-102256623D01*
X195655434Y-104122383D01*
X195655774Y-104123650D01*
X195660000Y-104155745D01*
X195660000Y-104391820D01*
X195666638Y-104442244D01*
X195666639Y-104442248D01*
X195718244Y-104552914D01*
X195804586Y-104639256D01*
X195915252Y-104690861D01*
X195965681Y-104697500D01*
X196484318Y-104697499D01*
X196534748Y-104690861D01*
X196645414Y-104639256D01*
X196731756Y-104552914D01*
X196783361Y-104442248D01*
X196790000Y-104391819D01*
X196789999Y-103798182D01*
X196783361Y-103747752D01*
X196731756Y-103637086D01*
X196731755Y-103637085D01*
X196727171Y-103627254D01*
X196728761Y-103626512D01*
X196710531Y-103572453D01*
X196710434Y-103567538D01*
X196710434Y-102490564D01*
X196710433Y-102490550D01*
X196710433Y-102256628D01*
X196710432Y-102256623D01*
X196704155Y-102208929D01*
X196655345Y-102104256D01*
X196573678Y-102022589D01*
X196505052Y-101990588D01*
X196469006Y-101973779D01*
X196469002Y-101973778D01*
X196421311Y-101967500D01*
X195944562Y-101967500D01*
X195896863Y-101973778D01*
X195792189Y-102022589D01*
X195710524Y-102104254D01*
X195661713Y-102208927D01*
X195661712Y-102208931D01*
X195655434Y-102256623D01*
X193900500Y-102256623D01*
X193900500Y-86419122D01*
X196515000Y-86419122D01*
X196515000Y-86895871D01*
X196521278Y-86943570D01*
X196549986Y-87005133D01*
X196570089Y-87048244D01*
X196651756Y-87129911D01*
X196756429Y-87178721D01*
X196804125Y-87185000D01*
X197048052Y-87184999D01*
X197048054Y-87185000D01*
X197186946Y-87185000D01*
X197186948Y-87184999D01*
X197430874Y-87184999D01*
X197478571Y-87178721D01*
X197583244Y-87129911D01*
X197664911Y-87048244D01*
X197713721Y-86943571D01*
X197720000Y-86895875D01*
X197719999Y-86419126D01*
X197713721Y-86371429D01*
X197713720Y-86371427D01*
X197676618Y-86291861D01*
X197665000Y-86239456D01*
X197665000Y-85733440D01*
X197680204Y-85681660D01*
X197677171Y-85680246D01*
X197681756Y-85670414D01*
X197733361Y-85559748D01*
X197740000Y-85509319D01*
X197739999Y-84990682D01*
X197733361Y-84940252D01*
X197681756Y-84829586D01*
X197595414Y-84743244D01*
X197484748Y-84691639D01*
X197484746Y-84691638D01*
X197484747Y-84691638D01*
X197434319Y-84685000D01*
X196840687Y-84685000D01*
X196790250Y-84691639D01*
X196790248Y-84691640D01*
X196679585Y-84743244D01*
X196593244Y-84829585D01*
X196541638Y-84940253D01*
X196535000Y-84990680D01*
X196535000Y-85509312D01*
X196535001Y-85509318D01*
X196541639Y-85559748D01*
X196591806Y-85667331D01*
X196597829Y-85680246D01*
X196594187Y-85681944D01*
X196609900Y-85728466D01*
X196610000Y-85733440D01*
X196610000Y-86175483D01*
X196590315Y-86242522D01*
X196573681Y-86263164D01*
X196570090Y-86266754D01*
X196521279Y-86371427D01*
X196521278Y-86371431D01*
X196515000Y-86419122D01*
X193900500Y-86419122D01*
X193900500Y-82337594D01*
X193902881Y-82313413D01*
X193922587Y-82214343D01*
X193929635Y-82191108D01*
X194013672Y-81988226D01*
X194025119Y-81966811D01*
X194099757Y-81855107D01*
X194153367Y-81810304D01*
X194202857Y-81800000D01*
X201226000Y-81800000D01*
X201293039Y-81819685D01*
G37*
%TD.AperFunction*%
%TA.AperFunction,Conductor*%
G36*
X199551337Y-89837685D02*
G01*
X199573382Y-89859340D01*
X199574552Y-89858170D01*
X199583188Y-89866805D01*
X199583191Y-89866809D01*
X199655133Y-89914878D01*
X199655136Y-89914880D01*
X199655139Y-89914881D01*
X199723018Y-89928383D01*
X199784929Y-89960767D01*
X199819503Y-90021483D01*
X199815764Y-90091252D01*
X199774898Y-90147925D01*
X199754585Y-90160757D01*
X199731257Y-90172500D01*
X199718580Y-90172501D01*
X199655136Y-90185120D01*
X199583191Y-90233191D01*
X199569245Y-90254061D01*
X199540056Y-90268757D01*
X199536535Y-90269400D01*
X199533791Y-90271694D01*
X199484298Y-90282000D01*
X198508135Y-90282000D01*
X198427252Y-90303672D01*
X198427250Y-90303673D01*
X198354749Y-90345533D01*
X198354740Y-90345539D01*
X196245539Y-92454740D01*
X196245533Y-92454749D01*
X196203670Y-92527254D01*
X196203670Y-92527255D01*
X196192599Y-92568577D01*
X196182000Y-92608133D01*
X196182000Y-92608135D01*
X196182000Y-98908135D01*
X196182000Y-98991865D01*
X196197510Y-99049749D01*
X196203672Y-99072747D01*
X196203673Y-99072749D01*
X196233254Y-99123983D01*
X196245537Y-99145257D01*
X197085537Y-99985257D01*
X197144743Y-100044463D01*
X197217257Y-100086329D01*
X197298135Y-100108000D01*
X200631464Y-100108000D01*
X200698503Y-100127685D01*
X200741573Y-100174973D01*
X200751567Y-100194271D01*
X200753779Y-100211071D01*
X200802589Y-100315744D01*
X200827254Y-100340409D01*
X200836092Y-100357473D01*
X200839244Y-100373665D01*
X200847149Y-100388142D01*
X200845782Y-100407251D01*
X200849443Y-100426055D01*
X200843341Y-100441378D01*
X200842165Y-100457834D01*
X200830683Y-100473171D01*
X200823597Y-100490969D01*
X200810177Y-100500562D01*
X200800293Y-100513767D01*
X200782344Y-100520461D01*
X200766759Y-100531604D01*
X200750283Y-100532419D01*
X200734829Y-100538184D01*
X200725983Y-100538500D01*
X200435985Y-100538500D01*
X200368946Y-100518815D01*
X200367140Y-100517632D01*
X200307423Y-100477730D01*
X200307422Y-100477729D01*
X200307418Y-100477728D01*
X200230860Y-100462500D01*
X200230856Y-100462500D01*
X199809144Y-100462500D01*
X199809139Y-100462500D01*
X199732581Y-100477728D01*
X199732577Y-100477730D01*
X199667667Y-100521102D01*
X199600989Y-100541980D01*
X199598776Y-100542000D01*
X196243082Y-100542000D01*
X196176043Y-100522315D01*
X196155401Y-100505681D01*
X195254319Y-99604599D01*
X195220834Y-99543276D01*
X195218000Y-99516918D01*
X195218000Y-91783082D01*
X195237685Y-91716043D01*
X195254319Y-91695401D01*
X197095401Y-89854319D01*
X197156724Y-89820834D01*
X197183082Y-89818000D01*
X199484298Y-89818000D01*
X199551337Y-89837685D01*
G37*
%TD.AperFunction*%
%TA.AperFunction,Conductor*%
G36*
X204916998Y-95132935D02*
G01*
X204941252Y-95134235D01*
X204950392Y-95140826D01*
X204961360Y-95143418D01*
X204978225Y-95160896D01*
X204997924Y-95175101D01*
X205003308Y-95186890D01*
X205009876Y-95193697D01*
X205021617Y-95226981D01*
X205035119Y-95294862D01*
X205035120Y-95294865D01*
X205083190Y-95366809D01*
X205120999Y-95392071D01*
X205155136Y-95414880D01*
X205155137Y-95414880D01*
X205155139Y-95414881D01*
X205186857Y-95421190D01*
X205218579Y-95427500D01*
X205681420Y-95427499D01*
X205685000Y-95427499D01*
X205752039Y-95447183D01*
X205797794Y-95499987D01*
X205809000Y-95551499D01*
X205809000Y-95976070D01*
X205789315Y-96043109D01*
X205736511Y-96088864D01*
X205667353Y-96098808D01*
X205652907Y-96095845D01*
X205565781Y-96072500D01*
X205453219Y-96072500D01*
X205344489Y-96101633D01*
X205247009Y-96157915D01*
X205247006Y-96157917D01*
X205167417Y-96237506D01*
X205167415Y-96237509D01*
X205111133Y-96334989D01*
X205097201Y-96386987D01*
X205082000Y-96443719D01*
X205082000Y-96556281D01*
X205089092Y-96582748D01*
X205111133Y-96665010D01*
X205133645Y-96704000D01*
X205167415Y-96762491D01*
X205167417Y-96762493D01*
X205217268Y-96812344D01*
X205236054Y-96836458D01*
X205244897Y-96851269D01*
X205250911Y-96873711D01*
X205287444Y-96936989D01*
X205308868Y-96958413D01*
X205316763Y-96971636D01*
X205321802Y-96991154D01*
X205331462Y-97008845D01*
X205330357Y-97024291D01*
X205334229Y-97039288D01*
X205327915Y-97058431D01*
X205326478Y-97078537D01*
X205313401Y-97104089D01*
X205312961Y-97104749D01*
X205307729Y-97112578D01*
X205307728Y-97112581D01*
X205292500Y-97189139D01*
X205292500Y-97610860D01*
X205307728Y-97687418D01*
X205307729Y-97687421D01*
X205307730Y-97687423D01*
X205328102Y-97717911D01*
X205365747Y-97774252D01*
X205387719Y-97788933D01*
X205452577Y-97832270D01*
X205452580Y-97832270D01*
X205452581Y-97832271D01*
X205529139Y-97847499D01*
X205529143Y-97847500D01*
X205529144Y-97847500D01*
X205850857Y-97847500D01*
X205850858Y-97847499D01*
X205927423Y-97832270D01*
X206014252Y-97774252D01*
X206072270Y-97687423D01*
X206078382Y-97656692D01*
X206110767Y-97594782D01*
X206171482Y-97560208D01*
X206241252Y-97563947D01*
X206297924Y-97604813D01*
X206321617Y-97656692D01*
X206327730Y-97687423D01*
X206358102Y-97732877D01*
X206385746Y-97774250D01*
X206385748Y-97774252D01*
X206463892Y-97826467D01*
X206468981Y-97832555D01*
X206476203Y-97835854D01*
X206491064Y-97858979D01*
X206508696Y-97880076D01*
X206510648Y-97889452D01*
X206513977Y-97894632D01*
X206519000Y-97929567D01*
X206519000Y-98021152D01*
X206499315Y-98088191D01*
X206455353Y-98126283D01*
X206456142Y-98127464D01*
X206446746Y-98133742D01*
X206446511Y-98133946D01*
X206446310Y-98134033D01*
X206368891Y-98185764D01*
X206302214Y-98206642D01*
X206234834Y-98188158D01*
X206231109Y-98185764D01*
X206154012Y-98134249D01*
X206154014Y-98134249D01*
X206119900Y-98127464D01*
X206094944Y-98122500D01*
X205705056Y-98122500D01*
X205680100Y-98127464D01*
X205645986Y-98134249D01*
X205568891Y-98185764D01*
X205502214Y-98206642D01*
X205434834Y-98188158D01*
X205431109Y-98185764D01*
X205354012Y-98134249D01*
X205354014Y-98134249D01*
X205319900Y-98127464D01*
X205294944Y-98122500D01*
X204905056Y-98122500D01*
X204865677Y-98130332D01*
X204845987Y-98134249D01*
X204779006Y-98179006D01*
X204734247Y-98245991D01*
X204729576Y-98257269D01*
X204726711Y-98256082D01*
X204723825Y-98269350D01*
X204704013Y-98295814D01*
X204703508Y-98296762D01*
X204702674Y-98297604D01*
X204573479Y-98426799D01*
X204557348Y-98439180D01*
X204557660Y-98439586D01*
X204551209Y-98444536D01*
X204244536Y-98751209D01*
X204239586Y-98757660D01*
X204239180Y-98757348D01*
X204226799Y-98773479D01*
X203564599Y-99435681D01*
X203503276Y-99469166D01*
X203476918Y-99472000D01*
X201882562Y-99472000D01*
X201826357Y-99455496D01*
X201825575Y-99457174D01*
X201815745Y-99452590D01*
X201815744Y-99452589D01*
X201756361Y-99424898D01*
X201711072Y-99403779D01*
X201711068Y-99403778D01*
X201663376Y-99397500D01*
X201036628Y-99397500D01*
X200988929Y-99403778D01*
X200874424Y-99457174D01*
X200873282Y-99454726D01*
X200822362Y-99471902D01*
X200817438Y-99472000D01*
X197523082Y-99472000D01*
X197456043Y-99452315D01*
X197435401Y-99435681D01*
X196854319Y-98854599D01*
X196820834Y-98793276D01*
X196818000Y-98766918D01*
X196818000Y-96940873D01*
X196837685Y-96873834D01*
X196890489Y-96828079D01*
X196959647Y-96818135D01*
X197023203Y-96847160D01*
X197029681Y-96853192D01*
X197042336Y-96865847D01*
X197148025Y-96917516D01*
X197148026Y-96917516D01*
X197148028Y-96917517D01*
X197216547Y-96927500D01*
X197783452Y-96927499D01*
X197851972Y-96917517D01*
X197900836Y-96893628D01*
X197945960Y-96881382D01*
X197951058Y-96880997D01*
X197951061Y-96880996D01*
X197951066Y-96880996D01*
X197987902Y-96875398D01*
X198007355Y-96870921D01*
X198007363Y-96870918D01*
X198007366Y-96870918D01*
X200732724Y-96023028D01*
X202348164Y-95520445D01*
X202375540Y-95520007D01*
X202402647Y-95516110D01*
X202409973Y-95519455D01*
X202418024Y-95519327D01*
X202441291Y-95533758D01*
X202466203Y-95545135D01*
X202470556Y-95551909D01*
X202477400Y-95556154D01*
X202489172Y-95580876D01*
X202503977Y-95603913D01*
X202505635Y-95615450D01*
X202507439Y-95619237D01*
X202509000Y-95638848D01*
X202509000Y-95644523D01*
X202489315Y-95711562D01*
X202472681Y-95732204D01*
X201537204Y-96667681D01*
X201475881Y-96701166D01*
X201449523Y-96704000D01*
X200267006Y-96704000D01*
X200196806Y-96733078D01*
X199938078Y-96991806D01*
X199936361Y-96995953D01*
X199892519Y-97050357D01*
X199826225Y-97072421D01*
X199821800Y-97072500D01*
X199587441Y-97072500D01*
X199550250Y-97079898D01*
X199508077Y-97108077D01*
X199479898Y-97150250D01*
X199472500Y-97187441D01*
X199472500Y-97255000D01*
X199469949Y-97263685D01*
X199471238Y-97272647D01*
X199460259Y-97296687D01*
X199452815Y-97322039D01*
X199445974Y-97327966D01*
X199442213Y-97336203D01*
X199419978Y-97350492D01*
X199400011Y-97367794D01*
X199389496Y-97370081D01*
X199383435Y-97373977D01*
X199348500Y-97379000D01*
X199323923Y-97379000D01*
X199256884Y-97359315D01*
X199220821Y-97323892D01*
X199202643Y-97296687D01*
X199162857Y-97237143D01*
X199074373Y-97178020D01*
X199074372Y-97178019D01*
X199074371Y-97178019D01*
X199074370Y-97178018D01*
X198996352Y-97162500D01*
X198996348Y-97162500D01*
X198603652Y-97162500D01*
X198603647Y-97162500D01*
X198525629Y-97178018D01*
X198525628Y-97178019D01*
X198437143Y-97237143D01*
X198378019Y-97325628D01*
X198378018Y-97325629D01*
X198362500Y-97403647D01*
X198362500Y-97736352D01*
X198378018Y-97814370D01*
X198378019Y-97814371D01*
X198378019Y-97814372D01*
X198378020Y-97814373D01*
X198437143Y-97902857D01*
X198525627Y-97961980D01*
X198525628Y-97961980D01*
X198525629Y-97961981D01*
X198603647Y-97977499D01*
X198603651Y-97977500D01*
X198603652Y-97977500D01*
X198996349Y-97977500D01*
X198996350Y-97977499D01*
X199022591Y-97972279D01*
X199074370Y-97961981D01*
X199074370Y-97961980D01*
X199074373Y-97961980D01*
X199162857Y-97902857D01*
X199220821Y-97816108D01*
X199226912Y-97811017D01*
X199230210Y-97803797D01*
X199253338Y-97788933D01*
X199274434Y-97771304D01*
X199283807Y-97769352D01*
X199288988Y-97766023D01*
X199323923Y-97761000D01*
X199348500Y-97761000D01*
X199415539Y-97780685D01*
X199461294Y-97833489D01*
X199472500Y-97885000D01*
X199472500Y-99012558D01*
X199479898Y-99049749D01*
X199508077Y-99091922D01*
X199550250Y-99120101D01*
X199550252Y-99120102D01*
X199578205Y-99125662D01*
X199587441Y-99127500D01*
X199587442Y-99127500D01*
X200612559Y-99127500D01*
X200619957Y-99126028D01*
X200649748Y-99120102D01*
X200691922Y-99091922D01*
X200720102Y-99049748D01*
X200727500Y-99012558D01*
X200727500Y-97210000D01*
X200747185Y-97142961D01*
X200799989Y-97097206D01*
X200851500Y-97086000D01*
X201617990Y-97086000D01*
X201617992Y-97086000D01*
X201688193Y-97056922D01*
X202861922Y-95883193D01*
X202891000Y-95812992D01*
X202891000Y-95737008D01*
X202891000Y-95551499D01*
X202910685Y-95484460D01*
X202963489Y-95438705D01*
X203015000Y-95427499D01*
X203018574Y-95427499D01*
X203018579Y-95427500D01*
X203455000Y-95427499D01*
X203522039Y-95447184D01*
X203567794Y-95499988D01*
X203579000Y-95551499D01*
X203579000Y-96926168D01*
X203559315Y-96993207D01*
X203550794Y-97004906D01*
X203539145Y-97019078D01*
X203497143Y-97047143D01*
X203438020Y-97135627D01*
X203436319Y-97144178D01*
X203420897Y-97162941D01*
X203406632Y-97172641D01*
X203395808Y-97186070D01*
X203378341Y-97191880D01*
X203363121Y-97202231D01*
X203345878Y-97202679D01*
X203329510Y-97208125D01*
X203311675Y-97203570D01*
X203293275Y-97204049D01*
X203278524Y-97195103D01*
X203261814Y-97190835D01*
X203244631Y-97174546D01*
X203233534Y-97167816D01*
X203230086Y-97160758D01*
X203222001Y-97153094D01*
X203191922Y-97108077D01*
X203149749Y-97079898D01*
X203112559Y-97072500D01*
X203112558Y-97072500D01*
X202087442Y-97072500D01*
X202087441Y-97072500D01*
X202050250Y-97079898D01*
X202008077Y-97108077D01*
X201979898Y-97150250D01*
X201972500Y-97187441D01*
X201972500Y-99012558D01*
X201979898Y-99049749D01*
X202008077Y-99091922D01*
X202050250Y-99120101D01*
X202050252Y-99120102D01*
X202078205Y-99125662D01*
X202087441Y-99127500D01*
X202087442Y-99127500D01*
X203112559Y-99127500D01*
X203119957Y-99126028D01*
X203149748Y-99120102D01*
X203191922Y-99091922D01*
X203220102Y-99049748D01*
X203227500Y-99012558D01*
X203227500Y-98415000D01*
X203247185Y-98347961D01*
X203299989Y-98302206D01*
X203351500Y-98291000D01*
X203667990Y-98291000D01*
X203667992Y-98291000D01*
X203738193Y-98261922D01*
X203991922Y-98008193D01*
X204021000Y-97937992D01*
X204021000Y-97933922D01*
X204040685Y-97866883D01*
X204076109Y-97830820D01*
X204082628Y-97826464D01*
X204162857Y-97772857D01*
X204221980Y-97684373D01*
X204237500Y-97606348D01*
X204237500Y-97213652D01*
X204235228Y-97202231D01*
X204221981Y-97135629D01*
X204221980Y-97135628D01*
X204221980Y-97135627D01*
X204162857Y-97047143D01*
X204074373Y-96988020D01*
X204074372Y-96988019D01*
X204074371Y-96988019D01*
X204060807Y-96985321D01*
X203998896Y-96952935D01*
X203964323Y-96892219D01*
X203961000Y-96863704D01*
X203961000Y-95547250D01*
X203980685Y-95480211D01*
X204033489Y-95434456D01*
X204102647Y-95424512D01*
X204109188Y-95425632D01*
X204118579Y-95427500D01*
X204581420Y-95427499D01*
X204644864Y-95414880D01*
X204716809Y-95366809D01*
X204764880Y-95294864D01*
X204777500Y-95231421D01*
X204777499Y-95231415D01*
X204778382Y-95226982D01*
X204783605Y-95216995D01*
X204784610Y-95205771D01*
X204799510Y-95186590D01*
X204810767Y-95165070D01*
X204820559Y-95159493D01*
X204827473Y-95150594D01*
X204850378Y-95142513D01*
X204871483Y-95130496D01*
X204882735Y-95131099D01*
X204893363Y-95127350D01*
X204916998Y-95132935D01*
G37*
%TD.AperFunction*%
%TA.AperFunction,Conductor*%
G36*
X206318579Y-95427500D02*
G01*
X206656022Y-95427499D01*
X206723061Y-95447184D01*
X206743703Y-95463818D01*
X207412681Y-96132796D01*
X207446166Y-96194119D01*
X207449000Y-96220477D01*
X207449000Y-96870431D01*
X207429315Y-96937470D01*
X207410489Y-96960251D01*
X207402645Y-96967716D01*
X207402577Y-96967730D01*
X207315748Y-97025748D01*
X207270457Y-97093529D01*
X207260489Y-97103017D01*
X207241163Y-97112957D01*
X207224489Y-97126893D01*
X207210707Y-97128623D01*
X207198357Y-97134977D01*
X207176726Y-97132891D01*
X207155164Y-97135600D01*
X207142635Y-97129605D01*
X207128810Y-97128273D01*
X207111739Y-97114823D01*
X207092137Y-97105445D01*
X207075572Y-97086328D01*
X207073928Y-97085033D01*
X207073582Y-97084032D01*
X207071898Y-97082088D01*
X207034252Y-97025747D01*
X206971229Y-96983637D01*
X206947423Y-96967730D01*
X206947421Y-96967729D01*
X206947418Y-96967728D01*
X206870860Y-96952500D01*
X206870856Y-96952500D01*
X206583977Y-96952500D01*
X206516938Y-96932815D01*
X206496296Y-96916181D01*
X206227319Y-96647204D01*
X206193834Y-96585881D01*
X206191000Y-96559523D01*
X206191000Y-95551499D01*
X206210685Y-95484460D01*
X206263489Y-95438705D01*
X206315000Y-95427499D01*
X206318574Y-95427499D01*
X206318579Y-95427500D01*
G37*
%TD.AperFunction*%
%TA.AperFunction,Conductor*%
G36*
X199495246Y-90921214D02*
G01*
X199506594Y-90920021D01*
X199540056Y-90931243D01*
X199569245Y-90945938D01*
X199583191Y-90966809D01*
X199655136Y-91014880D01*
X199718579Y-91027500D01*
X199731258Y-91027499D01*
X199754585Y-91039243D01*
X199805613Y-91086971D01*
X199822738Y-91154709D01*
X199800521Y-91220953D01*
X199746018Y-91264669D01*
X199723018Y-91271617D01*
X199655137Y-91285119D01*
X199655134Y-91285120D01*
X199583190Y-91333190D01*
X199535121Y-91405133D01*
X199535118Y-91405139D01*
X199522500Y-91468576D01*
X199522500Y-91931417D01*
X199527562Y-91956866D01*
X199535120Y-91994864D01*
X199535120Y-91994865D01*
X199535121Y-91994866D01*
X199583190Y-92066809D01*
X199655133Y-92114878D01*
X199655136Y-92114880D01*
X199655137Y-92114880D01*
X199655139Y-92114881D01*
X199723018Y-92128383D01*
X199784929Y-92160767D01*
X199819503Y-92221483D01*
X199815764Y-92291252D01*
X199774898Y-92347925D01*
X199723018Y-92371617D01*
X199655137Y-92385119D01*
X199655134Y-92385120D01*
X199583190Y-92433190D01*
X199535121Y-92505133D01*
X199535118Y-92505139D01*
X199522500Y-92568576D01*
X199522500Y-93031417D01*
X199527562Y-93056866D01*
X199535120Y-93094864D01*
X199535120Y-93094865D01*
X199535121Y-93094866D01*
X199583190Y-93166809D01*
X199620604Y-93191807D01*
X199655136Y-93214880D01*
X199655137Y-93214880D01*
X199655139Y-93214881D01*
X199723018Y-93228383D01*
X199784929Y-93260767D01*
X199819503Y-93321483D01*
X199815764Y-93391252D01*
X199774898Y-93447925D01*
X199723018Y-93471617D01*
X199655137Y-93485119D01*
X199655134Y-93485120D01*
X199583190Y-93533190D01*
X199535121Y-93605133D01*
X199535118Y-93605139D01*
X199522500Y-93668576D01*
X199522500Y-94131417D01*
X199522501Y-94131420D01*
X199535120Y-94194864D01*
X199535120Y-94194865D01*
X199535121Y-94194866D01*
X199583190Y-94266809D01*
X199640129Y-94304853D01*
X199655136Y-94314880D01*
X199655137Y-94314880D01*
X199655139Y-94314881D01*
X199723018Y-94328383D01*
X199784929Y-94360767D01*
X199819503Y-94421483D01*
X199815764Y-94491252D01*
X199774898Y-94547925D01*
X199723018Y-94571617D01*
X199655137Y-94585119D01*
X199655134Y-94585120D01*
X199583190Y-94633190D01*
X199535121Y-94705133D01*
X199535118Y-94705139D01*
X199522500Y-94768576D01*
X199522500Y-94950411D01*
X199502815Y-95017450D01*
X199450011Y-95063205D01*
X199380853Y-95073149D01*
X199334061Y-95056353D01*
X199282500Y-95024991D01*
X198098544Y-94304853D01*
X198089977Y-94301131D01*
X198065442Y-94290472D01*
X198022117Y-94278332D01*
X198001002Y-94272415D01*
X197965250Y-94267500D01*
X197951150Y-94267500D01*
X197911772Y-94258390D01*
X197911174Y-94260326D01*
X197901977Y-94257484D01*
X197901972Y-94257483D01*
X197833453Y-94247500D01*
X197833447Y-94247500D01*
X197266546Y-94247500D01*
X197198026Y-94257482D01*
X197175548Y-94268470D01*
X197175531Y-94268480D01*
X197155379Y-94278332D01*
X197145505Y-94280371D01*
X197087671Y-94308175D01*
X197033905Y-94352797D01*
X197027647Y-94362092D01*
X197008322Y-94374326D01*
X196990341Y-94379471D01*
X196974395Y-94389247D01*
X196957445Y-94388886D01*
X196941149Y-94393550D01*
X196923241Y-94388158D01*
X196904541Y-94387760D01*
X196890477Y-94378293D01*
X196874246Y-94373406D01*
X196862095Y-94359187D01*
X196846580Y-94348743D01*
X196839867Y-94333175D01*
X196828855Y-94320289D01*
X196826320Y-94301760D01*
X196818914Y-94284584D01*
X196818000Y-94269553D01*
X196818000Y-92833082D01*
X196837685Y-92766043D01*
X196854319Y-92745401D01*
X198645401Y-90954319D01*
X198706724Y-90920834D01*
X198733082Y-90918000D01*
X199484298Y-90918000D01*
X199495246Y-90921214D01*
G37*
%TD.AperFunction*%
%TA.AperFunction,Conductor*%
G36*
X203865539Y-84819685D02*
G01*
X203911294Y-84872489D01*
X203922500Y-84924000D01*
X203922500Y-85331417D01*
X203927562Y-85356866D01*
X203935120Y-85394864D01*
X203935120Y-85394865D01*
X203935121Y-85394866D01*
X203983190Y-85466809D01*
X204046803Y-85509312D01*
X204055136Y-85514880D01*
X204055137Y-85514880D01*
X204055139Y-85514881D01*
X204086857Y-85521190D01*
X204118579Y-85527500D01*
X204581420Y-85527499D01*
X204644864Y-85514880D01*
X204716809Y-85466809D01*
X204764880Y-85394864D01*
X204777500Y-85331421D01*
X204777499Y-84923999D01*
X204797183Y-84856961D01*
X204849987Y-84811206D01*
X204901499Y-84800000D01*
X205998500Y-84800000D01*
X206065539Y-84819685D01*
X206111294Y-84872489D01*
X206122500Y-84924000D01*
X206122500Y-85331417D01*
X206127562Y-85356866D01*
X206135120Y-85394864D01*
X206135120Y-85394865D01*
X206135121Y-85394866D01*
X206183190Y-85466809D01*
X206246803Y-85509312D01*
X206255136Y-85514880D01*
X206255137Y-85514880D01*
X206255139Y-85514881D01*
X206323018Y-85528383D01*
X206384929Y-85560767D01*
X206419503Y-85621483D01*
X206415764Y-85691252D01*
X206374898Y-85747925D01*
X206323018Y-85771617D01*
X206255137Y-85785119D01*
X206255134Y-85785120D01*
X206183190Y-85833190D01*
X206135121Y-85905133D01*
X206135118Y-85905139D01*
X206122500Y-85968576D01*
X206122500Y-86431417D01*
X206123213Y-86435000D01*
X206135120Y-86494864D01*
X206135120Y-86494865D01*
X206135121Y-86494866D01*
X206183190Y-86566809D01*
X206227963Y-86596724D01*
X206255136Y-86614880D01*
X206255137Y-86614880D01*
X206255139Y-86614881D01*
X206323018Y-86628383D01*
X206384929Y-86660767D01*
X206419503Y-86721483D01*
X206415764Y-86791252D01*
X206374898Y-86847925D01*
X206323018Y-86871617D01*
X206255137Y-86885119D01*
X206255134Y-86885120D01*
X206183190Y-86933190D01*
X206135121Y-87005133D01*
X206135118Y-87005139D01*
X206122500Y-87068576D01*
X206122500Y-87531417D01*
X206123412Y-87536000D01*
X206135120Y-87594864D01*
X206135120Y-87594865D01*
X206135121Y-87594866D01*
X206183190Y-87666809D01*
X206255133Y-87714878D01*
X206255136Y-87714880D01*
X206255137Y-87714880D01*
X206255139Y-87714881D01*
X206323018Y-87728383D01*
X206384929Y-87760767D01*
X206419503Y-87821483D01*
X206415764Y-87891252D01*
X206374898Y-87947925D01*
X206323018Y-87971617D01*
X206255137Y-87985119D01*
X206255134Y-87985120D01*
X206183190Y-88033190D01*
X206135121Y-88105133D01*
X206135118Y-88105139D01*
X206122500Y-88168576D01*
X206122500Y-88631417D01*
X206125225Y-88645116D01*
X206135120Y-88694864D01*
X206135120Y-88694865D01*
X206135121Y-88694866D01*
X206183190Y-88766809D01*
X206221692Y-88792534D01*
X206255136Y-88814880D01*
X206255137Y-88814880D01*
X206255139Y-88814881D01*
X206323018Y-88828383D01*
X206384929Y-88860767D01*
X206419503Y-88921483D01*
X206415764Y-88991252D01*
X206374898Y-89047925D01*
X206323018Y-89071617D01*
X206255137Y-89085119D01*
X206255134Y-89085120D01*
X206183190Y-89133190D01*
X206135123Y-89205130D01*
X206135118Y-89205139D01*
X206122500Y-89268576D01*
X206122500Y-89731417D01*
X206127562Y-89756866D01*
X206135120Y-89794864D01*
X206135120Y-89794865D01*
X206135121Y-89794866D01*
X206183190Y-89866809D01*
X206255133Y-89914878D01*
X206255136Y-89914880D01*
X206255137Y-89914880D01*
X206255139Y-89914881D01*
X206323018Y-89928383D01*
X206384929Y-89960767D01*
X206419503Y-90021483D01*
X206415764Y-90091252D01*
X206374898Y-90147925D01*
X206323018Y-90171617D01*
X206255137Y-90185119D01*
X206255134Y-90185120D01*
X206183190Y-90233190D01*
X206135121Y-90305133D01*
X206135118Y-90305139D01*
X206122500Y-90368576D01*
X206122500Y-90831417D01*
X206127562Y-90856866D01*
X206135120Y-90894864D01*
X206135120Y-90894865D01*
X206135121Y-90894866D01*
X206183190Y-90966809D01*
X206228259Y-90996922D01*
X206255136Y-91014880D01*
X206255137Y-91014880D01*
X206255139Y-91014881D01*
X206323018Y-91028383D01*
X206384929Y-91060767D01*
X206419503Y-91121483D01*
X206415764Y-91191252D01*
X206374898Y-91247925D01*
X206323018Y-91271617D01*
X206255137Y-91285119D01*
X206255134Y-91285120D01*
X206183190Y-91333190D01*
X206135121Y-91405133D01*
X206135118Y-91405139D01*
X206122500Y-91468576D01*
X206122500Y-91931417D01*
X206127562Y-91956866D01*
X206135120Y-91994864D01*
X206135120Y-91994865D01*
X206135121Y-91994866D01*
X206183190Y-92066809D01*
X206255133Y-92114878D01*
X206255136Y-92114880D01*
X206255137Y-92114880D01*
X206255139Y-92114881D01*
X206286857Y-92121190D01*
X206318579Y-92127500D01*
X206781420Y-92127499D01*
X206844864Y-92114880D01*
X206916809Y-92066809D01*
X206964880Y-91994864D01*
X206977500Y-91931421D01*
X206977499Y-91931415D01*
X206978382Y-91926982D01*
X207010767Y-91865070D01*
X207071483Y-91830496D01*
X207141252Y-91834235D01*
X207197924Y-91875101D01*
X207221617Y-91926981D01*
X207235119Y-91994862D01*
X207235120Y-91994865D01*
X207283190Y-92066809D01*
X207355133Y-92114878D01*
X207355136Y-92114880D01*
X207355137Y-92114880D01*
X207355139Y-92114881D01*
X207423018Y-92128383D01*
X207484929Y-92160767D01*
X207519503Y-92221483D01*
X207515764Y-92291252D01*
X207474898Y-92347925D01*
X207423018Y-92371617D01*
X207355137Y-92385119D01*
X207355134Y-92385120D01*
X207283190Y-92433190D01*
X207235121Y-92505133D01*
X207235118Y-92505139D01*
X207222500Y-92568576D01*
X207222500Y-93031417D01*
X207227562Y-93056866D01*
X207235120Y-93094864D01*
X207235120Y-93094865D01*
X207235121Y-93094866D01*
X207283190Y-93166809D01*
X207320604Y-93191807D01*
X207355136Y-93214880D01*
X207355137Y-93214880D01*
X207355139Y-93214881D01*
X207423018Y-93228383D01*
X207484929Y-93260767D01*
X207519503Y-93321483D01*
X207515764Y-93391252D01*
X207474898Y-93447925D01*
X207423018Y-93471617D01*
X207355137Y-93485119D01*
X207355134Y-93485120D01*
X207283190Y-93533190D01*
X207235121Y-93605133D01*
X207235118Y-93605139D01*
X207221616Y-93673019D01*
X207189231Y-93734930D01*
X207128515Y-93769504D01*
X207058745Y-93765763D01*
X207002073Y-93724897D01*
X206978381Y-93673017D01*
X206977499Y-93668582D01*
X206977499Y-93668580D01*
X206964880Y-93605136D01*
X206964878Y-93605133D01*
X206916809Y-93533190D01*
X206844866Y-93485121D01*
X206844860Y-93485118D01*
X206781423Y-93472500D01*
X206318582Y-93472500D01*
X206280582Y-93480058D01*
X206255136Y-93485120D01*
X206255135Y-93485120D01*
X206255133Y-93485121D01*
X206183190Y-93533190D01*
X206135121Y-93605133D01*
X206135118Y-93605139D01*
X206121616Y-93673019D01*
X206089231Y-93734930D01*
X206028515Y-93769504D01*
X205958745Y-93765763D01*
X205902073Y-93724897D01*
X205878381Y-93673017D01*
X205877499Y-93668582D01*
X205877499Y-93668580D01*
X205864880Y-93605136D01*
X205864878Y-93605133D01*
X205816809Y-93533190D01*
X205744866Y-93485121D01*
X205744860Y-93485118D01*
X205676980Y-93471616D01*
X205615069Y-93439231D01*
X205580495Y-93378515D01*
X205584236Y-93308745D01*
X205625102Y-93252074D01*
X205676982Y-93228381D01*
X205681416Y-93227499D01*
X205681420Y-93227499D01*
X205744864Y-93214880D01*
X205816809Y-93166809D01*
X205864880Y-93094864D01*
X205877500Y-93031421D01*
X205877499Y-92568580D01*
X205864880Y-92505136D01*
X205864878Y-92505133D01*
X205816809Y-92433190D01*
X205744866Y-92385121D01*
X205744860Y-92385118D01*
X205681423Y-92372500D01*
X205218582Y-92372500D01*
X205180582Y-92380058D01*
X205155136Y-92385120D01*
X205155135Y-92385120D01*
X205155133Y-92385121D01*
X205083190Y-92433190D01*
X205035121Y-92505133D01*
X205035118Y-92505139D01*
X205021616Y-92573019D01*
X204989231Y-92634930D01*
X204928515Y-92669504D01*
X204858745Y-92665763D01*
X204802073Y-92624897D01*
X204778381Y-92573017D01*
X204777499Y-92568582D01*
X204777499Y-92568580D01*
X204764880Y-92505136D01*
X204764878Y-92505133D01*
X204716809Y-92433190D01*
X204644866Y-92385121D01*
X204644860Y-92385118D01*
X204581423Y-92372500D01*
X204118582Y-92372500D01*
X204080582Y-92380058D01*
X204055136Y-92385120D01*
X204055135Y-92385120D01*
X204055133Y-92385121D01*
X203983190Y-92433190D01*
X203935121Y-92505133D01*
X203935118Y-92505139D01*
X203921616Y-92573019D01*
X203889231Y-92634930D01*
X203828515Y-92669504D01*
X203758745Y-92665763D01*
X203702073Y-92624897D01*
X203678381Y-92573017D01*
X203677499Y-92568582D01*
X203677499Y-92568580D01*
X203664880Y-92505136D01*
X203664878Y-92505133D01*
X203616809Y-92433190D01*
X203544866Y-92385121D01*
X203544860Y-92385118D01*
X203481423Y-92372500D01*
X203018582Y-92372500D01*
X202980582Y-92380058D01*
X202955136Y-92385120D01*
X202955135Y-92385120D01*
X202955133Y-92385121D01*
X202883190Y-92433190D01*
X202835121Y-92505133D01*
X202835118Y-92505139D01*
X202822500Y-92568576D01*
X202822500Y-92856022D01*
X202802815Y-92923061D01*
X202786181Y-92943703D01*
X202591807Y-93138078D01*
X202538079Y-93191805D01*
X202538078Y-93191806D01*
X202509000Y-93262006D01*
X202509000Y-93348500D01*
X202506449Y-93357185D01*
X202507738Y-93366147D01*
X202496759Y-93390187D01*
X202489315Y-93415539D01*
X202482474Y-93421466D01*
X202478713Y-93429703D01*
X202456478Y-93443992D01*
X202436511Y-93461294D01*
X202425996Y-93463581D01*
X202419935Y-93467477D01*
X202385000Y-93472500D01*
X202369646Y-93472500D01*
X202352001Y-93471238D01*
X202326002Y-93467500D01*
X202326000Y-93467500D01*
X201601499Y-93467500D01*
X201573333Y-93470528D01*
X201521819Y-93481734D01*
X201482214Y-93501559D01*
X201413454Y-93513963D01*
X201388491Y-93508637D01*
X201372123Y-93503333D01*
X201344864Y-93485120D01*
X201281421Y-93472500D01*
X201276958Y-93472500D01*
X201262952Y-93467962D01*
X201239853Y-93452195D01*
X201215069Y-93439231D01*
X201211387Y-93432765D01*
X201205244Y-93428572D01*
X201194337Y-93402823D01*
X201180495Y-93378515D01*
X201180893Y-93371085D01*
X201177992Y-93364236D01*
X201182738Y-93336671D01*
X201184236Y-93308745D01*
X201188586Y-93302712D01*
X201189849Y-93295380D01*
X201208743Y-93274758D01*
X201225102Y-93252074D01*
X201232714Y-93248597D01*
X201237051Y-93243865D01*
X201251314Y-93240103D01*
X201276982Y-93228381D01*
X201281416Y-93227499D01*
X201281420Y-93227499D01*
X201344864Y-93214880D01*
X201416809Y-93166809D01*
X201464880Y-93094864D01*
X201477500Y-93031421D01*
X201477499Y-92568580D01*
X201464880Y-92505136D01*
X201464878Y-92505133D01*
X201416809Y-92433190D01*
X201344866Y-92385121D01*
X201344860Y-92385118D01*
X201276980Y-92371616D01*
X201215069Y-92339231D01*
X201180495Y-92278515D01*
X201184236Y-92208745D01*
X201225102Y-92152074D01*
X201276982Y-92128381D01*
X201281416Y-92127499D01*
X201281420Y-92127499D01*
X201344864Y-92114880D01*
X201416809Y-92066809D01*
X201464880Y-91994864D01*
X201477500Y-91931421D01*
X201477499Y-91931415D01*
X201478382Y-91926982D01*
X201510767Y-91865070D01*
X201571483Y-91830496D01*
X201641252Y-91834235D01*
X201697924Y-91875101D01*
X201721617Y-91926981D01*
X201735119Y-91994862D01*
X201735120Y-91994865D01*
X201783190Y-92066809D01*
X201855133Y-92114878D01*
X201855136Y-92114880D01*
X201855137Y-92114880D01*
X201855139Y-92114881D01*
X201886857Y-92121190D01*
X201918579Y-92127500D01*
X202381420Y-92127499D01*
X202444864Y-92114880D01*
X202516809Y-92066809D01*
X202564880Y-91994864D01*
X202577500Y-91931421D01*
X202577499Y-91468580D01*
X202564880Y-91405136D01*
X202564615Y-91404740D01*
X202516809Y-91333190D01*
X202444866Y-91285121D01*
X202444860Y-91285118D01*
X202376980Y-91271616D01*
X202315069Y-91239231D01*
X202280495Y-91178515D01*
X202284236Y-91108745D01*
X202325102Y-91052074D01*
X202376982Y-91028381D01*
X202381416Y-91027499D01*
X202381420Y-91027499D01*
X202444864Y-91014880D01*
X202516809Y-90966809D01*
X202564880Y-90894864D01*
X202577500Y-90831421D01*
X202577499Y-90368580D01*
X202564880Y-90305136D01*
X202563901Y-90303671D01*
X202516809Y-90233190D01*
X202444866Y-90185121D01*
X202444860Y-90185118D01*
X202376980Y-90171616D01*
X202315069Y-90139231D01*
X202280495Y-90078515D01*
X202284236Y-90008745D01*
X202325102Y-89952074D01*
X202376982Y-89928381D01*
X202381416Y-89927499D01*
X202381420Y-89927499D01*
X202444864Y-89914880D01*
X202516809Y-89866809D01*
X202564880Y-89794864D01*
X202577500Y-89731421D01*
X202577499Y-89268580D01*
X202564880Y-89205136D01*
X202563900Y-89203670D01*
X202516809Y-89133190D01*
X202444866Y-89085121D01*
X202444860Y-89085118D01*
X202376980Y-89071616D01*
X202315069Y-89039231D01*
X202280495Y-88978515D01*
X202284236Y-88908745D01*
X202325102Y-88852074D01*
X202376982Y-88828381D01*
X202381416Y-88827499D01*
X202381420Y-88827499D01*
X202444864Y-88814880D01*
X202516809Y-88766809D01*
X202564880Y-88694864D01*
X202565976Y-88689357D01*
X202570406Y-88667082D01*
X202577500Y-88631421D01*
X202577499Y-88168580D01*
X202577498Y-88168576D01*
X203372500Y-88168576D01*
X203372500Y-88631417D01*
X203375225Y-88645116D01*
X203385120Y-88694864D01*
X203385120Y-88694865D01*
X203385121Y-88694866D01*
X203433190Y-88766809D01*
X203471692Y-88792534D01*
X203505136Y-88814880D01*
X203505137Y-88814880D01*
X203505139Y-88814881D01*
X203573018Y-88828383D01*
X203634929Y-88860767D01*
X203669503Y-88921483D01*
X203665764Y-88991252D01*
X203624898Y-89047925D01*
X203573018Y-89071617D01*
X203505137Y-89085119D01*
X203505134Y-89085120D01*
X203433190Y-89133190D01*
X203385123Y-89205130D01*
X203385118Y-89205139D01*
X203372500Y-89268576D01*
X203372500Y-89731417D01*
X203377562Y-89756866D01*
X203385120Y-89794864D01*
X203385120Y-89794865D01*
X203385121Y-89794866D01*
X203433190Y-89866809D01*
X203505133Y-89914878D01*
X203505136Y-89914880D01*
X203505137Y-89914880D01*
X203505139Y-89914881D01*
X203573018Y-89928383D01*
X203634929Y-89960767D01*
X203669503Y-90021483D01*
X203665764Y-90091252D01*
X203624898Y-90147925D01*
X203573018Y-90171617D01*
X203505137Y-90185119D01*
X203505134Y-90185120D01*
X203433190Y-90233190D01*
X203385121Y-90305133D01*
X203385118Y-90305139D01*
X203372500Y-90368576D01*
X203372500Y-90831417D01*
X203377562Y-90856866D01*
X203385120Y-90894864D01*
X203385120Y-90894865D01*
X203385121Y-90894866D01*
X203433190Y-90966809D01*
X203478259Y-90996922D01*
X203505136Y-91014880D01*
X203505137Y-91014880D01*
X203505139Y-91014881D01*
X203536857Y-91021190D01*
X203568579Y-91027500D01*
X204031420Y-91027499D01*
X204094864Y-91014880D01*
X204166809Y-90966809D01*
X204214880Y-90894864D01*
X204227500Y-90831421D01*
X204227499Y-90831415D01*
X204228382Y-90826982D01*
X204260767Y-90765070D01*
X204321483Y-90730496D01*
X204391252Y-90734235D01*
X204447924Y-90775101D01*
X204471617Y-90826981D01*
X204485119Y-90894862D01*
X204485120Y-90894865D01*
X204533190Y-90966809D01*
X204578259Y-90996922D01*
X204605136Y-91014880D01*
X204605137Y-91014880D01*
X204605139Y-91014881D01*
X204636857Y-91021190D01*
X204668579Y-91027500D01*
X205131420Y-91027499D01*
X205194864Y-91014880D01*
X205266809Y-90966809D01*
X205314880Y-90894864D01*
X205327500Y-90831421D01*
X205327499Y-90368580D01*
X205314880Y-90305136D01*
X205313901Y-90303671D01*
X205266809Y-90233190D01*
X205194866Y-90185121D01*
X205194860Y-90185118D01*
X205126980Y-90171616D01*
X205065069Y-90139231D01*
X205030495Y-90078515D01*
X205034236Y-90008745D01*
X205075102Y-89952074D01*
X205126982Y-89928381D01*
X205131416Y-89927499D01*
X205131420Y-89927499D01*
X205194864Y-89914880D01*
X205266809Y-89866809D01*
X205314880Y-89794864D01*
X205327500Y-89731421D01*
X205327499Y-89268580D01*
X205314880Y-89205136D01*
X205313900Y-89203670D01*
X205266809Y-89133190D01*
X205194866Y-89085121D01*
X205194860Y-89085118D01*
X205126980Y-89071616D01*
X205065069Y-89039231D01*
X205030495Y-88978515D01*
X205034236Y-88908745D01*
X205075102Y-88852074D01*
X205126982Y-88828381D01*
X205131416Y-88827499D01*
X205131420Y-88827499D01*
X205194864Y-88814880D01*
X205266809Y-88766809D01*
X205314880Y-88694864D01*
X205315976Y-88689357D01*
X205320406Y-88667082D01*
X205327500Y-88631421D01*
X205327499Y-88168580D01*
X205314880Y-88105136D01*
X205298674Y-88080881D01*
X205266809Y-88033190D01*
X205194866Y-87985121D01*
X205194860Y-87985118D01*
X205131423Y-87972500D01*
X204668582Y-87972500D01*
X204630582Y-87980058D01*
X204605136Y-87985120D01*
X204605135Y-87985120D01*
X204605133Y-87985121D01*
X204533190Y-88033190D01*
X204485121Y-88105133D01*
X204485118Y-88105139D01*
X204471616Y-88173019D01*
X204439231Y-88234930D01*
X204378515Y-88269504D01*
X204308745Y-88265763D01*
X204252073Y-88224897D01*
X204228381Y-88173017D01*
X204227499Y-88168582D01*
X204227499Y-88168580D01*
X204214880Y-88105136D01*
X204198674Y-88080881D01*
X204166809Y-88033190D01*
X204094866Y-87985121D01*
X204094860Y-87985118D01*
X204031423Y-87972500D01*
X203568582Y-87972500D01*
X203530582Y-87980058D01*
X203505136Y-87985120D01*
X203505135Y-87985120D01*
X203505133Y-87985121D01*
X203433190Y-88033190D01*
X203385121Y-88105133D01*
X203385118Y-88105139D01*
X203372500Y-88168576D01*
X202577498Y-88168576D01*
X202564880Y-88105136D01*
X202548674Y-88080881D01*
X202516809Y-88033190D01*
X202444866Y-87985121D01*
X202444860Y-87985118D01*
X202376980Y-87971616D01*
X202315069Y-87939231D01*
X202280495Y-87878515D01*
X202284236Y-87808745D01*
X202325102Y-87752074D01*
X202376982Y-87728381D01*
X202381416Y-87727499D01*
X202381420Y-87727499D01*
X202444864Y-87714880D01*
X202516809Y-87666809D01*
X202564880Y-87594864D01*
X202577500Y-87531421D01*
X202577499Y-87068580D01*
X202564880Y-87005136D01*
X202551410Y-86984976D01*
X202516809Y-86933190D01*
X202444866Y-86885121D01*
X202444860Y-86885118D01*
X202376980Y-86871616D01*
X202315069Y-86839231D01*
X202280495Y-86778515D01*
X202284236Y-86708745D01*
X202325102Y-86652074D01*
X202376982Y-86628381D01*
X202381416Y-86627499D01*
X202381420Y-86627499D01*
X202444864Y-86614880D01*
X202516809Y-86566809D01*
X202564880Y-86494864D01*
X202577500Y-86431421D01*
X202577499Y-85968580D01*
X202577498Y-85968576D01*
X203372500Y-85968576D01*
X203372500Y-86431417D01*
X203373213Y-86435000D01*
X203385120Y-86494864D01*
X203385120Y-86494865D01*
X203385121Y-86494866D01*
X203433190Y-86566809D01*
X203477963Y-86596724D01*
X203505136Y-86614880D01*
X203505137Y-86614880D01*
X203505139Y-86614881D01*
X203536400Y-86621099D01*
X203568579Y-86627500D01*
X204031420Y-86627499D01*
X204094864Y-86614880D01*
X204166809Y-86566809D01*
X204214880Y-86494864D01*
X204227500Y-86431421D01*
X204227499Y-86431415D01*
X204228382Y-86426982D01*
X204260767Y-86365070D01*
X204321483Y-86330496D01*
X204391252Y-86334235D01*
X204447924Y-86375101D01*
X204471617Y-86426981D01*
X204485119Y-86494862D01*
X204485120Y-86494865D01*
X204533190Y-86566809D01*
X204577963Y-86596724D01*
X204605136Y-86614880D01*
X204605137Y-86614880D01*
X204605139Y-86614881D01*
X204636400Y-86621099D01*
X204668579Y-86627500D01*
X205131420Y-86627499D01*
X205194864Y-86614880D01*
X205266809Y-86566809D01*
X205314880Y-86494864D01*
X205327500Y-86431421D01*
X205327499Y-85968580D01*
X205314880Y-85905136D01*
X205314878Y-85905133D01*
X205266809Y-85833190D01*
X205194866Y-85785121D01*
X205194860Y-85785118D01*
X205131423Y-85772500D01*
X204668582Y-85772500D01*
X204630582Y-85780058D01*
X204605136Y-85785120D01*
X204605135Y-85785120D01*
X204605133Y-85785121D01*
X204533190Y-85833190D01*
X204485121Y-85905133D01*
X204485118Y-85905139D01*
X204471616Y-85973019D01*
X204439231Y-86034930D01*
X204378515Y-86069504D01*
X204308745Y-86065763D01*
X204252073Y-86024897D01*
X204228381Y-85973017D01*
X204227499Y-85968582D01*
X204227499Y-85968580D01*
X204214880Y-85905136D01*
X204214878Y-85905133D01*
X204166809Y-85833190D01*
X204094866Y-85785121D01*
X204094860Y-85785118D01*
X204031423Y-85772500D01*
X203568582Y-85772500D01*
X203530582Y-85780058D01*
X203505136Y-85785120D01*
X203505135Y-85785120D01*
X203505133Y-85785121D01*
X203433190Y-85833190D01*
X203385121Y-85905133D01*
X203385118Y-85905139D01*
X203372500Y-85968576D01*
X202577498Y-85968576D01*
X202564880Y-85905136D01*
X202564878Y-85905133D01*
X202516809Y-85833190D01*
X202444866Y-85785121D01*
X202444860Y-85785118D01*
X202376980Y-85771616D01*
X202315069Y-85739231D01*
X202280495Y-85678515D01*
X202284236Y-85608745D01*
X202325102Y-85552074D01*
X202376982Y-85528381D01*
X202381416Y-85527499D01*
X202381420Y-85527499D01*
X202444864Y-85514880D01*
X202516809Y-85466809D01*
X202564880Y-85394864D01*
X202577500Y-85331421D01*
X202577499Y-84923999D01*
X202597183Y-84856961D01*
X202649987Y-84811206D01*
X202701499Y-84800000D01*
X203798500Y-84800000D01*
X203865539Y-84819685D01*
G37*
%TD.AperFunction*%
%TD*%
%TA.AperFunction,Conductor*%
%TO.N,/I2C_SDA*%
G36*
X210688287Y-95311017D02*
G01*
X210723870Y-95327133D01*
X210927467Y-95419342D01*
X210933589Y-95425877D01*
X210933298Y-95434827D01*
X210927467Y-95440658D01*
X210686147Y-95549951D01*
X210677197Y-95550242D01*
X210670662Y-95544120D01*
X210670456Y-95543637D01*
X210660773Y-95519421D01*
X210658572Y-95518239D01*
X210626782Y-95501162D01*
X210560513Y-95494406D01*
X210552630Y-95490157D01*
X210550000Y-95482766D01*
X210550000Y-95377539D01*
X210553427Y-95369266D01*
X210560901Y-95365867D01*
X210611483Y-95362420D01*
X210657925Y-95343195D01*
X210670366Y-95327132D01*
X210672010Y-95319276D01*
X210677058Y-95311884D01*
X210685858Y-95310224D01*
X210688287Y-95311017D01*
G37*
%TD.AperFunction*%
%TD*%
%TA.AperFunction,Conductor*%
%TO.N,/I2C_SCL*%
G36*
X210688577Y-96811149D02*
G01*
X210908665Y-96910826D01*
X210927467Y-96919342D01*
X210933589Y-96925877D01*
X210933298Y-96934827D01*
X210927467Y-96940658D01*
X210687030Y-97049551D01*
X210678080Y-97049842D01*
X210671545Y-97043720D01*
X210671041Y-97042399D01*
X210663824Y-97019423D01*
X210663823Y-97019422D01*
X210650399Y-97010292D01*
X210636977Y-97001163D01*
X210585232Y-96994621D01*
X210577454Y-96990183D01*
X210575000Y-96983013D01*
X210575000Y-96877598D01*
X210578427Y-96869325D01*
X210585994Y-96865920D01*
X210616196Y-96864102D01*
X210658245Y-96846490D01*
X210670406Y-96829538D01*
X210672256Y-96819655D01*
X210677146Y-96812155D01*
X210685909Y-96810309D01*
X210688577Y-96811149D01*
G37*
%TD.AperFunction*%
%TD*%
%TA.AperFunction,Conductor*%
%TO.N,/SWCLK*%
G36*
X211780946Y-85960569D02*
G01*
X212074950Y-86018406D01*
X212148000Y-86032777D01*
X212155456Y-86037736D01*
X212157222Y-86041999D01*
X212229426Y-86409033D01*
X212227660Y-86417812D01*
X212220204Y-86422771D01*
X212219596Y-86422874D01*
X212026147Y-86450433D01*
X212026102Y-86450439D01*
X211907774Y-86466825D01*
X211907771Y-86466825D01*
X211907770Y-86466826D01*
X211853577Y-86482747D01*
X211853567Y-86482751D01*
X211799055Y-86508728D01*
X211729482Y-86557353D01*
X211656731Y-86623788D01*
X211648310Y-86626836D01*
X211640568Y-86623421D01*
X211566438Y-86549291D01*
X211563011Y-86541018D01*
X211565931Y-86533284D01*
X211651624Y-86436000D01*
X211702906Y-86347366D01*
X211727295Y-86261393D01*
X211739567Y-86163853D01*
X211767125Y-85970401D01*
X211771684Y-85962696D01*
X211780358Y-85960470D01*
X211780946Y-85960569D01*
G37*
%TD.AperFunction*%
%TD*%
%TA.AperFunction,Conductor*%
%TO.N,/SWDIO*%
G36*
X211781717Y-87230742D02*
G01*
X212148307Y-87303473D01*
X212155754Y-87308444D01*
X212157510Y-87312695D01*
X212229678Y-87680290D01*
X212227909Y-87689068D01*
X212221102Y-87693878D01*
X212185535Y-87702992D01*
X212133507Y-87716326D01*
X212056393Y-87746333D01*
X212056390Y-87746334D01*
X212056389Y-87746335D01*
X211940733Y-87812278D01*
X211880513Y-87849165D01*
X211878765Y-87850044D01*
X211768838Y-87894225D01*
X211766511Y-87894890D01*
X211694330Y-87907645D01*
X211692890Y-87907809D01*
X211613207Y-87911872D01*
X211604770Y-87908871D01*
X211600926Y-87900783D01*
X211600911Y-87900187D01*
X211600911Y-87798248D01*
X211604338Y-87789975D01*
X211611620Y-87786590D01*
X211663252Y-87782204D01*
X211709058Y-87766877D01*
X211740637Y-87742362D01*
X211756212Y-87716327D01*
X211760295Y-87709502D01*
X211760295Y-87709501D01*
X211760296Y-87709500D01*
X211773087Y-87622108D01*
X211765895Y-87511439D01*
X211757006Y-87372636D01*
X211757022Y-87370922D01*
X211762492Y-87305000D01*
X211767781Y-87241251D01*
X211771880Y-87233290D01*
X211780408Y-87230559D01*
X211781717Y-87230742D01*
G37*
%TD.AperFunction*%
%TD*%
%TA.AperFunction,Conductor*%
%TO.N,/RESET_N*%
G36*
X212926715Y-85445931D02*
G01*
X212927291Y-85446438D01*
X213023999Y-85531624D01*
X213112634Y-85582906D01*
X213112635Y-85582906D01*
X213112637Y-85582907D01*
X213142236Y-85591303D01*
X213198607Y-85607295D01*
X213296077Y-85619558D01*
X213296182Y-85619572D01*
X213489596Y-85647125D01*
X213497303Y-85651684D01*
X213499529Y-85660358D01*
X213499426Y-85660966D01*
X213427222Y-86028000D01*
X213422263Y-86035456D01*
X213418000Y-86037222D01*
X213050966Y-86109426D01*
X213042187Y-86107660D01*
X213037228Y-86100204D01*
X213037125Y-86099596D01*
X213028239Y-86037222D01*
X213009567Y-85906146D01*
X212993173Y-85787770D01*
X212977252Y-85733577D01*
X212951270Y-85679052D01*
X212902647Y-85609483D01*
X212836210Y-85536730D01*
X212833163Y-85528311D01*
X212836577Y-85520569D01*
X212910709Y-85446437D01*
X212918981Y-85443011D01*
X212926715Y-85445931D01*
G37*
%TD.AperFunction*%
%TD*%
%TA.AperFunction,Conductor*%
%TO.N,/RESET_N*%
G36*
X213807669Y-85962367D02*
G01*
X213812628Y-85969823D01*
X213812750Y-85970567D01*
X213829972Y-86102508D01*
X213830067Y-86103774D01*
X213832470Y-86217302D01*
X213839453Y-86347296D01*
X213852643Y-86397782D01*
X213873791Y-86444193D01*
X213876375Y-86449864D01*
X213899168Y-86483433D01*
X213918487Y-86511886D01*
X213973848Y-86573316D01*
X213976841Y-86581756D01*
X213973430Y-86589422D01*
X213899158Y-86663694D01*
X213890885Y-86667121D01*
X213883254Y-86664289D01*
X213790976Y-86584867D01*
X213790974Y-86584866D01*
X213790972Y-86584864D01*
X213702589Y-86534050D01*
X213620823Y-86506770D01*
X213540208Y-86490884D01*
X213540199Y-86490882D01*
X213540192Y-86490881D01*
X213526644Y-86488449D01*
X213499250Y-86483532D01*
X213498159Y-86483282D01*
X213361007Y-86444837D01*
X213359261Y-86444193D01*
X213288130Y-86411351D01*
X213287017Y-86410763D01*
X213216783Y-86368651D01*
X213211450Y-86361458D01*
X213212766Y-86352600D01*
X213213042Y-86352163D01*
X213421593Y-86038354D01*
X213429026Y-86033362D01*
X213429033Y-86033360D01*
X213798892Y-85960601D01*
X213807669Y-85962367D01*
G37*
%TD.AperFunction*%
%TD*%
%TA.AperFunction,Conductor*%
%TO.N,/ERROR_OUT*%
G36*
X196026040Y-88082592D02*
G01*
X196026518Y-88082931D01*
X196098065Y-88136495D01*
X196098824Y-88137116D01*
X196158330Y-88190257D01*
X196208966Y-88235079D01*
X196291006Y-88281005D01*
X196353810Y-88295126D01*
X196426395Y-88299357D01*
X196434454Y-88303259D01*
X196437413Y-88311037D01*
X196437413Y-88488755D01*
X196433986Y-88497028D01*
X196426178Y-88500446D01*
X196333127Y-88504144D01*
X196333117Y-88504145D01*
X196254977Y-88515526D01*
X196133424Y-88553687D01*
X196133399Y-88553695D01*
X196096554Y-88567367D01*
X196095593Y-88567677D01*
X195920617Y-88615903D01*
X195911730Y-88614798D01*
X195906229Y-88607733D01*
X195906040Y-88606944D01*
X195884494Y-88500446D01*
X195849969Y-88329789D01*
X195851688Y-88321001D01*
X196009804Y-88085773D01*
X196017262Y-88080821D01*
X196026040Y-88082592D01*
G37*
%TD.AperFunction*%
%TD*%
M02*
