%TF.GenerationSoftware,KiCad,Pcbnew,9.0.7*%
%TF.CreationDate,2026-02-14T08:25:31+00:00*%
%TF.ProjectId,azss,617a7373-2e6b-4696-9361-645f70636258,rev?*%
%TF.SameCoordinates,Original*%
%TF.FileFunction,Copper,L3,Inr*%
%TF.FilePolarity,Positive*%
%FSLAX46Y46*%
G04 Gerber Fmt 4.6, Leading zero omitted, Abs format (unit mm)*
G04 Created by KiCad (PCBNEW 9.0.7) date 2026-02-14 08:25:31*
%MOMM*%
%LPD*%
G01*
G04 APERTURE LIST*
%TA.AperFunction,Conductor*%
%ADD10C,0.500000*%
%TD*%
%TA.AperFunction,ViaPad*%
%ADD11C,0.600000*%
%TD*%
%TA.AperFunction,Conductor*%
%ADD12C,0.200000*%
%TD*%
%TA.AperFunction,Conductor*%
%ADD13C,0.600000*%
%TD*%
G04 APERTURE END LIST*
D10*
%TO.N,GND*%
X211090361Y-110336897D02*
G75*
G02*
X214710000Y-106675000I2309639J1336897D01*
G01*
%TD*%
D11*
%TO.N,GND*%
X207025000Y-105950000D03*
X204250000Y-104775000D03*
X205180000Y-110290000D03*
X203680000Y-110290000D03*
X210740000Y-97700000D03*
X214660000Y-93480000D03*
X206550000Y-92800000D03*
X207275000Y-108095000D03*
X194200000Y-87560000D03*
X213045000Y-82270000D03*
X210760000Y-108605000D03*
X195705000Y-95795000D03*
X198350000Y-87270000D03*
X199300000Y-82100000D03*
X212170000Y-94810000D03*
X194200000Y-96560000D03*
X200150000Y-102850000D03*
X196180000Y-110290000D03*
X204800000Y-87100000D03*
X212715000Y-106430000D03*
X194200000Y-107060000D03*
X207500000Y-99425000D03*
X214650000Y-100250000D03*
X194200000Y-105560000D03*
X205555000Y-100785000D03*
X198860000Y-91590000D03*
X198040000Y-105290000D03*
X204900000Y-91700000D03*
X211250000Y-101600000D03*
X195765000Y-97627500D03*
X214650000Y-104944981D03*
X214650000Y-101775000D03*
X198860000Y-93640000D03*
X198170000Y-82100000D03*
X210450000Y-85025000D03*
X195850000Y-92065000D03*
X209660000Y-97200000D03*
X195747500Y-93912500D03*
X208180000Y-110290000D03*
X214160000Y-82280000D03*
X197125000Y-82625000D03*
X194200000Y-95060000D03*
X194200000Y-99560000D03*
X199275000Y-83140000D03*
X199700000Y-96700000D03*
X195755000Y-99295000D03*
X202140000Y-102355000D03*
X194200000Y-102560000D03*
X214605000Y-90470000D03*
X208440000Y-106075000D03*
X209400000Y-82100000D03*
X194200000Y-104060000D03*
X202975000Y-87100000D03*
X214410000Y-84705000D03*
X210585000Y-82280000D03*
X214660000Y-91930000D03*
X194200000Y-84560000D03*
X203900000Y-87100000D03*
X209375000Y-84300000D03*
X202520000Y-101140000D03*
X206700000Y-99425000D03*
X205750000Y-87100000D03*
X197500000Y-98800000D03*
X207025000Y-105250000D03*
X194690000Y-89079828D03*
X214395000Y-86105000D03*
X206680000Y-110290000D03*
X200680000Y-110290000D03*
X194200000Y-86060000D03*
X196975000Y-101585000D03*
X214660000Y-98340000D03*
X209680000Y-110290000D03*
X210979371Y-90437381D03*
X203800000Y-91700000D03*
X214655000Y-97180000D03*
X198050000Y-106100000D03*
X201100000Y-96300000D03*
X206800000Y-96400000D03*
X194530000Y-82700000D03*
X211495000Y-107145000D03*
X202180000Y-110290000D03*
X203700000Y-98750000D03*
X214100000Y-95700000D03*
X194200000Y-98060000D03*
X204580000Y-96000000D03*
X203435000Y-101565000D03*
X203020000Y-96470000D03*
X211090361Y-110300000D03*
X204250000Y-104175000D03*
X199180000Y-110290000D03*
X198000000Y-92400000D03*
X214690000Y-94970000D03*
X199250000Y-84240000D03*
X194200000Y-93560000D03*
X214660000Y-103379982D03*
X202100000Y-92800000D03*
X201019785Y-107890963D03*
X199250015Y-85820209D03*
X194200000Y-108560000D03*
X214300000Y-106500000D03*
X194200000Y-92060000D03*
X207590000Y-101615000D03*
X194880000Y-109915000D03*
X195700000Y-82100000D03*
X209420000Y-93370000D03*
X205900000Y-99425000D03*
X197680000Y-110290000D03*
X194200000Y-90560000D03*
X211910000Y-82280000D03*
X200800000Y-105300000D03*
X197450000Y-90385000D03*
X210400000Y-88500000D03*
X209400000Y-83140000D03*
X198790000Y-99170000D03*
X209340000Y-95540000D03*
X194800000Y-100800000D03*
%TO.N,+2V8*%
X208690000Y-103150000D03*
X212300000Y-99700000D03*
X211300000Y-99700000D03*
X205509500Y-96500000D03*
X201630000Y-94560000D03*
X211800000Y-100400000D03*
X197510000Y-95580000D03*
X207025000Y-103150000D03*
X208670000Y-96880000D03*
X213889500Y-87835000D03*
X198975000Y-101970000D03*
X213270000Y-97520000D03*
%TO.N,+BATT*%
X205175000Y-108900000D03*
X204275000Y-108885000D03*
X206075000Y-108900000D03*
X203375000Y-108900000D03*
X202475000Y-108900000D03*
%TO.N,/ERROR_OUT*%
X195850000Y-88325000D03*
%TD*%
D10*
%TO.N,GND*%
X194165839Y-82275456D02*
X194240333Y-82095610D01*
X194151000Y-82350055D02*
X194165839Y-82275456D01*
X194151000Y-109289624D02*
X194151000Y-82350055D01*
X214722500Y-88099163D02*
X214722500Y-88660837D01*
X194180796Y-109439418D02*
X194151000Y-109289624D01*
X199251000Y-82051000D02*
X199300000Y-82100000D01*
X194274000Y-82051000D02*
X199251000Y-82051000D01*
X211085000Y-110340000D02*
X195275734Y-110340000D01*
D12*
X199300000Y-81901000D02*
X199300000Y-82100000D01*
D10*
X214710000Y-85396470D02*
X214710000Y-88086663D01*
X214722500Y-88660837D02*
X214710000Y-88673337D01*
X194240333Y-82095610D02*
X194262367Y-82062633D01*
D13*
X204250000Y-104175000D02*
X204250000Y-104775000D01*
D10*
X194672721Y-110059321D02*
X194299250Y-109685850D01*
D12*
X209400000Y-82100000D02*
X209400000Y-81901000D01*
D10*
X194256160Y-109621362D02*
X194180796Y-109439418D01*
X194299250Y-109685850D02*
X194256160Y-109621362D01*
X195275734Y-110340000D02*
X195171185Y-110319204D01*
X194883034Y-110199848D02*
X194672721Y-110059321D01*
X214710000Y-88673337D02*
X214710000Y-106675000D01*
X214710000Y-88086663D02*
X214722500Y-88099163D01*
X195171185Y-110319204D02*
X194883034Y-110199848D01*
X194262367Y-82062633D02*
X194274000Y-82051000D01*
%TD*%
%TA.AperFunction,Conductor*%
%TO.N,GND*%
G36*
X194826671Y-81905868D02*
G01*
X194830039Y-81914000D01*
X194830039Y-82697764D01*
X194826704Y-82705862D01*
X194538353Y-82996618D01*
X194530239Y-83000020D01*
X193979090Y-83002449D01*
X193970943Y-82999116D01*
X193967539Y-82991000D01*
X193967539Y-82306868D01*
X193968129Y-82303231D01*
X194099085Y-81910363D01*
X194104852Y-81903714D01*
X194109995Y-81902500D01*
X194818539Y-81902500D01*
X194826671Y-81905868D01*
G37*
%TD.AperFunction*%
%TD*%
%TA.AperFunction,Conductor*%
%TO.N,GND*%
G36*
X194217192Y-93023368D02*
G01*
X194220546Y-93030926D01*
X194249396Y-93607926D01*
X194246438Y-93616216D01*
X194238484Y-93619986D01*
X194237910Y-93620000D01*
X194041310Y-93620000D01*
X194033178Y-93616632D01*
X194029812Y-93608692D01*
X194020195Y-93031692D01*
X194023427Y-93023505D01*
X194031501Y-93020002D01*
X194031693Y-93020000D01*
X194209060Y-93020000D01*
X194217192Y-93023368D01*
G37*
%TD.AperFunction*%
%TD*%
%TA.AperFunction,Conductor*%
%TO.N,GND*%
G36*
X194883312Y-109618367D02*
G01*
X195176699Y-109916644D01*
X195180000Y-109924707D01*
X195180000Y-110468280D01*
X195176632Y-110476412D01*
X195168500Y-110479780D01*
X195162036Y-110477792D01*
X194348146Y-109924707D01*
X194278245Y-109877205D01*
X194273780Y-109871268D01*
X194194928Y-109630073D01*
X194195603Y-109621298D01*
X194202286Y-109615569D01*
X194205859Y-109615000D01*
X194875181Y-109615000D01*
X194883312Y-109618367D01*
G37*
%TD.AperFunction*%
%TD*%
%TA.AperFunction,Conductor*%
%TO.N,GND*%
G36*
X214896632Y-90163368D02*
G01*
X214900000Y-90171500D01*
X214900000Y-90748500D01*
X214896632Y-90756632D01*
X214888500Y-90760000D01*
X214561500Y-90760000D01*
X214553368Y-90756632D01*
X214550000Y-90748500D01*
X214550000Y-90171500D01*
X214553368Y-90163368D01*
X214561500Y-90160000D01*
X214888500Y-90160000D01*
X214896632Y-90163368D01*
G37*
%TD.AperFunction*%
%TD*%
%TA.AperFunction,Conductor*%
%TO.N,GND*%
G36*
X214896632Y-95403368D02*
G01*
X214900000Y-95411500D01*
X214900000Y-95988500D01*
X214896632Y-95996632D01*
X214888500Y-96000000D01*
X214111500Y-96000000D01*
X214103368Y-95996632D01*
X214100000Y-95988500D01*
X214100000Y-95411500D01*
X214103368Y-95403368D01*
X214111500Y-95400000D01*
X214888500Y-95400000D01*
X214896632Y-95403368D01*
G37*
%TD.AperFunction*%
%TD*%
%TA.AperFunction,Conductor*%
%TO.N,GND*%
G36*
X214926632Y-86283368D02*
G01*
X214930000Y-86291500D01*
X214930000Y-86868500D01*
X214926632Y-86876632D01*
X214918500Y-86880000D01*
X214591500Y-86880000D01*
X214583368Y-86876632D01*
X214580000Y-86868500D01*
X214580000Y-86291500D01*
X214583368Y-86283368D01*
X214591500Y-86280000D01*
X214918500Y-86280000D01*
X214926632Y-86283368D01*
G37*
%TD.AperFunction*%
%TD*%
%TA.AperFunction,Conductor*%
%TO.N,GND*%
G36*
X194686731Y-88783368D02*
G01*
X194690099Y-88791500D01*
X194690097Y-88791692D01*
X194680483Y-89368502D01*
X194676980Y-89376576D01*
X194668793Y-89379808D01*
X194091600Y-89370188D01*
X194083526Y-89366685D01*
X194080292Y-89358690D01*
X194080292Y-88791500D01*
X194083660Y-88783368D01*
X194091792Y-88780000D01*
X194678599Y-88780000D01*
X194686731Y-88783368D01*
G37*
%TD.AperFunction*%
%TD*%
%TA.AperFunction,Conductor*%
%TO.N,GND*%
G36*
X199296632Y-82003368D02*
G01*
X199300000Y-82011500D01*
X199300000Y-82383014D01*
X199296632Y-82391146D01*
X199288500Y-82394514D01*
X199284229Y-82393691D01*
X198355442Y-82022177D01*
X198349143Y-82016030D01*
X198349036Y-82007229D01*
X198355183Y-82000930D01*
X198359713Y-82000000D01*
X199288500Y-82000000D01*
X199296632Y-82003368D01*
G37*
%TD.AperFunction*%
%TD*%
%TA.AperFunction,Conductor*%
%TO.N,GND*%
G36*
X194806439Y-100503368D02*
G01*
X194809807Y-100511500D01*
X194809805Y-100511692D01*
X194800188Y-101088692D01*
X194796685Y-101096766D01*
X194788690Y-101100000D01*
X194051500Y-101100000D01*
X194043368Y-101096632D01*
X194040000Y-101088500D01*
X194040000Y-100511500D01*
X194043368Y-100503368D01*
X194051500Y-100500000D01*
X194798307Y-100500000D01*
X194806439Y-100503368D01*
G37*
%TD.AperFunction*%
%TD*%
%TA.AperFunction,Conductor*%
%TO.N,GND*%
G36*
X194187192Y-98023368D02*
G01*
X194190546Y-98030926D01*
X194219396Y-98607926D01*
X194216438Y-98616216D01*
X194208484Y-98619986D01*
X194207910Y-98620000D01*
X194011310Y-98620000D01*
X194003178Y-98616632D01*
X193999812Y-98608692D01*
X193990195Y-98031692D01*
X193993427Y-98023505D01*
X194001501Y-98020002D01*
X194001693Y-98020000D01*
X194179060Y-98020000D01*
X194187192Y-98023368D01*
G37*
%TD.AperFunction*%
%TD*%
%TA.AperFunction,Conductor*%
%TO.N,GND*%
G36*
X214773180Y-81802598D02*
G01*
X214836162Y-81854059D01*
X214837018Y-81854832D01*
X214880675Y-81898489D01*
X214882106Y-81900234D01*
X214917101Y-81952628D01*
X214918164Y-81954618D01*
X214975447Y-82093050D01*
X214976101Y-82095209D01*
X214998994Y-82210621D01*
X214999214Y-82212867D01*
X214996812Y-85599544D01*
X214993438Y-85607673D01*
X214985387Y-85611036D01*
X214875000Y-85611752D01*
X214875000Y-85015000D01*
X214375000Y-85015000D01*
X214375000Y-85615000D01*
X213665593Y-85615000D01*
X213659824Y-85613448D01*
X213309718Y-85410415D01*
X213305506Y-85406179D01*
X212996547Y-84866261D01*
X212427196Y-83871298D01*
X212426081Y-83862569D01*
X212427617Y-83859198D01*
X212434916Y-83848275D01*
X212434916Y-83848274D01*
X212434920Y-83848269D01*
X212491140Y-83712542D01*
X212519800Y-83568455D01*
X212519800Y-83421545D01*
X213060200Y-83421545D01*
X213060200Y-83568454D01*
X213088858Y-83712536D01*
X213088859Y-83712541D01*
X213145081Y-83848271D01*
X213226696Y-83970416D01*
X213226699Y-83970420D01*
X213330580Y-84074301D01*
X213452731Y-84155920D01*
X213588458Y-84212140D01*
X213732545Y-84240800D01*
X213732546Y-84240800D01*
X213879454Y-84240800D01*
X213879455Y-84240800D01*
X214023542Y-84212140D01*
X214159269Y-84155920D01*
X214281420Y-84074301D01*
X214385301Y-83970420D01*
X214466920Y-83848269D01*
X214523140Y-83712542D01*
X214551800Y-83568455D01*
X214551800Y-83421545D01*
X214523140Y-83277458D01*
X214466920Y-83141731D01*
X214385301Y-83019580D01*
X214281420Y-82915699D01*
X214281416Y-82915696D01*
X214159271Y-82834081D01*
X214023541Y-82777859D01*
X214023536Y-82777858D01*
X213907957Y-82754869D01*
X213879455Y-82749200D01*
X213732545Y-82749200D01*
X213708749Y-82753933D01*
X213588463Y-82777858D01*
X213588458Y-82777859D01*
X213452728Y-82834081D01*
X213330583Y-82915696D01*
X213226696Y-83019583D01*
X213145081Y-83141728D01*
X213088859Y-83277458D01*
X213088858Y-83277463D01*
X213060200Y-83421545D01*
X212519800Y-83421545D01*
X212491140Y-83277458D01*
X212434920Y-83141731D01*
X212353301Y-83019580D01*
X212249420Y-82915699D01*
X212249416Y-82915696D01*
X212127271Y-82834081D01*
X211991541Y-82777859D01*
X211991536Y-82777858D01*
X211875957Y-82754869D01*
X211847455Y-82749200D01*
X211700545Y-82749200D01*
X211676749Y-82753933D01*
X211556463Y-82777858D01*
X211556458Y-82777859D01*
X211420728Y-82834081D01*
X211298583Y-82915696D01*
X211194696Y-83019583D01*
X211137086Y-83105802D01*
X211129775Y-83110691D01*
X209435856Y-83448830D01*
X209427222Y-83447118D01*
X209425674Y-83445880D01*
X209118704Y-83153527D01*
X209115138Y-83145479D01*
X209115139Y-83144886D01*
X209115225Y-83141728D01*
X209135000Y-82415000D01*
X209111062Y-82360475D01*
X209110094Y-82355931D01*
X209106763Y-81816831D01*
X209110081Y-81808681D01*
X209118191Y-81805262D01*
X214765895Y-81800003D01*
X214773180Y-81802598D01*
G37*
%TD.AperFunction*%
%TD*%
%TA.AperFunction,Conductor*%
%TO.N,+2V8*%
G36*
X195396243Y-82432650D02*
G01*
X195409988Y-82431996D01*
X195442752Y-82445112D01*
X195534991Y-82498367D01*
X195643719Y-82527500D01*
X195643721Y-82527500D01*
X195756279Y-82527500D01*
X195756281Y-82527500D01*
X195865009Y-82498367D01*
X195957246Y-82445112D01*
X196019247Y-82428500D01*
X196568795Y-82428500D01*
X196574977Y-82430315D01*
X196581313Y-82429133D01*
X196608096Y-82440040D01*
X196635834Y-82448185D01*
X196640053Y-82453054D01*
X196646022Y-82455485D01*
X196662656Y-82479139D01*
X196681589Y-82500989D01*
X196683431Y-82508682D01*
X196686213Y-82512638D01*
X196690151Y-82536744D01*
X196692687Y-82547333D01*
X196692803Y-82550119D01*
X196692540Y-82628052D01*
X196696995Y-82650656D01*
X196697392Y-82660153D01*
X196697107Y-82661296D01*
X196697500Y-82665320D01*
X196697500Y-82681281D01*
X196705547Y-82711313D01*
X196726633Y-82790010D01*
X196754774Y-82838750D01*
X196782915Y-82887491D01*
X196862509Y-82967085D01*
X196959991Y-83023367D01*
X197068719Y-83052500D01*
X197068721Y-83052500D01*
X197181279Y-83052500D01*
X197181281Y-83052500D01*
X197290009Y-83023367D01*
X197387491Y-82967085D01*
X197467085Y-82887491D01*
X197523367Y-82790009D01*
X197552500Y-82681281D01*
X197552500Y-82666299D01*
X197552634Y-82660533D01*
X197553076Y-82651024D01*
X197557538Y-82628987D01*
X197557806Y-82549403D01*
X197557931Y-82546734D01*
X197568486Y-82516128D01*
X197577708Y-82485109D01*
X197579807Y-82483301D01*
X197580711Y-82480683D01*
X197606121Y-82460655D01*
X197630666Y-82439532D01*
X197633773Y-82438861D01*
X197635586Y-82437433D01*
X197644292Y-82436591D01*
X197681797Y-82428500D01*
X197850753Y-82428500D01*
X197912753Y-82445112D01*
X198004991Y-82498367D01*
X198113719Y-82527500D01*
X198113721Y-82527500D01*
X198226279Y-82527500D01*
X198226281Y-82527500D01*
X198335009Y-82498367D01*
X198427246Y-82445112D01*
X198489247Y-82428500D01*
X198980753Y-82428500D01*
X198995346Y-82432249D01*
X199007505Y-82431420D01*
X199037573Y-82443100D01*
X199040533Y-82443861D01*
X199041642Y-82444471D01*
X199134991Y-82498367D01*
X199143948Y-82500767D01*
X199157113Y-82508011D01*
X199171561Y-82522553D01*
X199189069Y-82533220D01*
X199195687Y-82546836D01*
X199206358Y-82557577D01*
X199210650Y-82577623D01*
X199219612Y-82596061D01*
X199217817Y-82611093D01*
X199220988Y-82625898D01*
X199213761Y-82645082D01*
X199211332Y-82665438D01*
X199201695Y-82677114D01*
X199196358Y-82691283D01*
X199179905Y-82703515D01*
X199166858Y-82719325D01*
X199145552Y-82729058D01*
X199140289Y-82732972D01*
X199136405Y-82733237D01*
X199129430Y-82736424D01*
X199109990Y-82741633D01*
X199012509Y-82797915D01*
X199012506Y-82797917D01*
X198932917Y-82877506D01*
X198932915Y-82877509D01*
X198876633Y-82974989D01*
X198847500Y-83083719D01*
X198847500Y-83196280D01*
X198876633Y-83305010D01*
X198899540Y-83344684D01*
X198932915Y-83402491D01*
X199012509Y-83482085D01*
X199109991Y-83538367D01*
X199218719Y-83567500D01*
X199331281Y-83567500D01*
X199331561Y-83567424D01*
X199331811Y-83567430D01*
X199339341Y-83566439D01*
X199339353Y-83566533D01*
X199360358Y-83563610D01*
X200124194Y-83552487D01*
X200191513Y-83571193D01*
X200238032Y-83623326D01*
X200250000Y-83676474D01*
X200250000Y-84800000D01*
X208450000Y-84800000D01*
X208450000Y-84243719D01*
X208947500Y-84243719D01*
X208947500Y-84356280D01*
X208976633Y-84465010D01*
X208998984Y-84503721D01*
X209032915Y-84562491D01*
X209112509Y-84642085D01*
X209209991Y-84698367D01*
X209318719Y-84727500D01*
X209318721Y-84727500D01*
X209431279Y-84727500D01*
X209431281Y-84727500D01*
X209540009Y-84698367D01*
X209637491Y-84642085D01*
X209717085Y-84562491D01*
X209773367Y-84465009D01*
X209802500Y-84356281D01*
X209802500Y-84243719D01*
X209773367Y-84134991D01*
X209717085Y-84037509D01*
X209637491Y-83957915D01*
X209588750Y-83929774D01*
X209540010Y-83901633D01*
X209485645Y-83887066D01*
X209431281Y-83872500D01*
X209318719Y-83872500D01*
X209209989Y-83901633D01*
X209112509Y-83957915D01*
X209112506Y-83957917D01*
X209032917Y-84037506D01*
X209032915Y-84037509D01*
X208976633Y-84134989D01*
X208947500Y-84243719D01*
X208450000Y-84243719D01*
X208450000Y-83666297D01*
X208469685Y-83599258D01*
X208522489Y-83553503D01*
X208572110Y-83542311D01*
X209195965Y-83532804D01*
X209229945Y-83537015D01*
X209234990Y-83538366D01*
X209234991Y-83538367D01*
X209343719Y-83567500D01*
X209353411Y-83567500D01*
X209393845Y-83576438D01*
X209394386Y-83574783D01*
X209401451Y-83577088D01*
X209410085Y-83578800D01*
X209461761Y-83578766D01*
X209461795Y-83578766D01*
X209946134Y-83482082D01*
X210879928Y-83295678D01*
X210949522Y-83301858D01*
X211004728Y-83344684D01*
X211028018Y-83410558D01*
X211028200Y-83417279D01*
X211028200Y-83568459D01*
X211056858Y-83712534D01*
X211056861Y-83712544D01*
X211113078Y-83848266D01*
X211113083Y-83848275D01*
X211194698Y-83970419D01*
X211194701Y-83970423D01*
X211298576Y-84074298D01*
X211298580Y-84074301D01*
X211420724Y-84155916D01*
X211420730Y-84155919D01*
X211420731Y-84155920D01*
X211556458Y-84212140D01*
X211700309Y-84240753D01*
X211700540Y-84240799D01*
X211700544Y-84240800D01*
X211700545Y-84240800D01*
X211847456Y-84240800D01*
X211847457Y-84240799D01*
X211991542Y-84212140D01*
X212127269Y-84155920D01*
X212241118Y-84079847D01*
X212307793Y-84058971D01*
X212375173Y-84077455D01*
X212417632Y-84121364D01*
X212614278Y-84465010D01*
X213190504Y-85471987D01*
X213190506Y-85471989D01*
X213190506Y-85471990D01*
X213211544Y-85499598D01*
X213211545Y-85499600D01*
X213211549Y-85499604D01*
X213215761Y-85503840D01*
X213243247Y-85525036D01*
X213593353Y-85728069D01*
X213609377Y-85734734D01*
X213625399Y-85741398D01*
X213625402Y-85741399D01*
X213631171Y-85742951D01*
X213648382Y-85745225D01*
X213665592Y-85747500D01*
X213665593Y-85747500D01*
X213892993Y-85747500D01*
X213960032Y-85767185D01*
X214005787Y-85819989D01*
X214015731Y-85889147D01*
X214000380Y-85933500D01*
X213996634Y-85939987D01*
X213996633Y-85939991D01*
X213967500Y-86048719D01*
X213967500Y-86161281D01*
X213982066Y-86215645D01*
X213996633Y-86270010D01*
X214023905Y-86317245D01*
X214052915Y-86367491D01*
X214132509Y-86447085D01*
X214229991Y-86503367D01*
X214240588Y-86506206D01*
X214300249Y-86542567D01*
X214330782Y-86605412D01*
X214332500Y-86625982D01*
X214332500Y-88036964D01*
X214332500Y-88136362D01*
X214340775Y-88167244D01*
X214345000Y-88199337D01*
X214345000Y-88560662D01*
X214340775Y-88592754D01*
X214332500Y-88623636D01*
X214332500Y-90086562D01*
X214312815Y-90153601D01*
X214296181Y-90174243D01*
X214262917Y-90207506D01*
X214262915Y-90207509D01*
X214206633Y-90304989D01*
X214177500Y-90413719D01*
X214177500Y-90526280D01*
X214206633Y-90635010D01*
X214234774Y-90683750D01*
X214262915Y-90732491D01*
X214262917Y-90732493D01*
X214296181Y-90765757D01*
X214329666Y-90827080D01*
X214332500Y-90853438D01*
X214332500Y-91609021D01*
X214315887Y-91671022D01*
X214261633Y-91764989D01*
X214232500Y-91873719D01*
X214232500Y-91986281D01*
X214261633Y-92095009D01*
X214261634Y-92095012D01*
X214261635Y-92095014D01*
X214315886Y-92188977D01*
X214332500Y-92250978D01*
X214332500Y-93159021D01*
X214315887Y-93221022D01*
X214261633Y-93314989D01*
X214240198Y-93394989D01*
X214232500Y-93423719D01*
X214232500Y-93536281D01*
X214261633Y-93645009D01*
X214261634Y-93645012D01*
X214261635Y-93645014D01*
X214315886Y-93738977D01*
X214332500Y-93800978D01*
X214332500Y-94700981D01*
X214315887Y-94762981D01*
X214291634Y-94804987D01*
X214291633Y-94804991D01*
X214262500Y-94913719D01*
X214262500Y-95026281D01*
X214274882Y-95072491D01*
X214285309Y-95111407D01*
X214284792Y-95133117D01*
X214289053Y-95154415D01*
X214283976Y-95167358D01*
X214283646Y-95181257D01*
X214271472Y-95199243D01*
X214263543Y-95219462D01*
X214252276Y-95227605D01*
X214244483Y-95239120D01*
X214224518Y-95247669D01*
X214206917Y-95260391D01*
X214186695Y-95263864D01*
X214180254Y-95266623D01*
X214172308Y-95267315D01*
X214168927Y-95267500D01*
X214111500Y-95267500D01*
X214089707Y-95271834D01*
X214080923Y-95272315D01*
X214079478Y-95271975D01*
X214074149Y-95272500D01*
X214043719Y-95272500D01*
X213934989Y-95301633D01*
X213837509Y-95357915D01*
X213837506Y-95357917D01*
X213757917Y-95437506D01*
X213757915Y-95437509D01*
X213701633Y-95534989D01*
X213672500Y-95643719D01*
X213672500Y-95756280D01*
X213701633Y-95865010D01*
X213711490Y-95882082D01*
X213757915Y-95962491D01*
X213837509Y-96042085D01*
X213934991Y-96098367D01*
X214043719Y-96127500D01*
X214074149Y-96127500D01*
X214078761Y-96127586D01*
X214088642Y-96127953D01*
X214111500Y-96132500D01*
X214210801Y-96132500D01*
X214213112Y-96132586D01*
X214244150Y-96142968D01*
X214275539Y-96152185D01*
X214277103Y-96153990D01*
X214279373Y-96154750D01*
X214299878Y-96180274D01*
X214321294Y-96204989D01*
X214321873Y-96207652D01*
X214323132Y-96209219D01*
X214324004Y-96217446D01*
X214332500Y-96256500D01*
X214332500Y-96850361D01*
X214315887Y-96912362D01*
X214256633Y-97014989D01*
X214249373Y-97042085D01*
X214227500Y-97123719D01*
X214227500Y-97236281D01*
X214232859Y-97256280D01*
X214256634Y-97345012D01*
X214256635Y-97345014D01*
X214315886Y-97447637D01*
X214332500Y-97509638D01*
X214332500Y-98019021D01*
X214315887Y-98081022D01*
X214261633Y-98174989D01*
X214232500Y-98283719D01*
X214232500Y-98396281D01*
X214249015Y-98457917D01*
X214261634Y-98505012D01*
X214261635Y-98505014D01*
X214315886Y-98598977D01*
X214332500Y-98660978D01*
X214332500Y-99913377D01*
X214312815Y-99980416D01*
X214308317Y-99986812D01*
X214251633Y-100084989D01*
X214222500Y-100193719D01*
X214222500Y-100306280D01*
X214251633Y-100415010D01*
X214311979Y-100519529D01*
X214310458Y-100520407D01*
X214332069Y-100576293D01*
X214332500Y-100586622D01*
X214332500Y-101438377D01*
X214312815Y-101505416D01*
X214308317Y-101511812D01*
X214251633Y-101609989D01*
X214222500Y-101718719D01*
X214222500Y-101831281D01*
X214226844Y-101847493D01*
X214251633Y-101940010D01*
X214276666Y-101983367D01*
X214285326Y-101998367D01*
X214311979Y-102044529D01*
X214310458Y-102045407D01*
X214332069Y-102101293D01*
X214332500Y-102111622D01*
X214332500Y-103059003D01*
X214315887Y-103121004D01*
X214261633Y-103214971D01*
X214232500Y-103323701D01*
X214232500Y-103436262D01*
X214261634Y-103544994D01*
X214261635Y-103544996D01*
X214315886Y-103638959D01*
X214332500Y-103700960D01*
X214332500Y-104608358D01*
X214312815Y-104675397D01*
X214308317Y-104681793D01*
X214251633Y-104779970D01*
X214222500Y-104888700D01*
X214222500Y-105001261D01*
X214251633Y-105109991D01*
X214282393Y-105163268D01*
X214305044Y-105202500D01*
X214311979Y-105214510D01*
X214310458Y-105215388D01*
X214332069Y-105271274D01*
X214332500Y-105281603D01*
X214332500Y-105932334D01*
X214312815Y-105999373D01*
X214260011Y-106045128D01*
X214190853Y-106055072D01*
X214172363Y-106050952D01*
X214129212Y-106037806D01*
X213803572Y-105976182D01*
X213576912Y-105958390D01*
X213473176Y-105950248D01*
X213473173Y-105950248D01*
X213473172Y-105950248D01*
X213141914Y-105960306D01*
X212819955Y-106005365D01*
X212779432Y-106002876D01*
X212779342Y-106003561D01*
X212771281Y-106002500D01*
X212658719Y-106002500D01*
X212549987Y-106031634D01*
X212549985Y-106031635D01*
X212452509Y-106087914D01*
X212448589Y-106091835D01*
X212404180Y-106120355D01*
X212181810Y-106203152D01*
X211885601Y-106351805D01*
X211607270Y-106531708D01*
X211607258Y-106531717D01*
X211369720Y-106724793D01*
X211336724Y-106741649D01*
X211337500Y-106743522D01*
X211329996Y-106746630D01*
X211232509Y-106802915D01*
X211232506Y-106802917D01*
X211152917Y-106882506D01*
X211152913Y-106882512D01*
X211096633Y-106979991D01*
X211096631Y-106979995D01*
X211094288Y-106988741D01*
X211071639Y-107033734D01*
X210911072Y-107236032D01*
X210911070Y-107236035D01*
X210911069Y-107236037D01*
X210734405Y-107516441D01*
X210655588Y-107678149D01*
X210632398Y-107725729D01*
X210589201Y-107814355D01*
X210506884Y-108043538D01*
X210481827Y-108113303D01*
X210477172Y-108126262D01*
X210456290Y-108213040D01*
X210434496Y-108303613D01*
X210421324Y-108336602D01*
X210361634Y-108439987D01*
X210332500Y-108548719D01*
X210332500Y-108661282D01*
X210353389Y-108739243D01*
X210356685Y-108773824D01*
X210357579Y-108773841D01*
X210355175Y-108902032D01*
X210351302Y-109108568D01*
X210363344Y-109242084D01*
X210381071Y-109438645D01*
X210446468Y-109763543D01*
X210446469Y-109763547D01*
X210458353Y-109800988D01*
X210459871Y-109870841D01*
X210423383Y-109930426D01*
X210360473Y-109960825D01*
X210340163Y-109962500D01*
X210000979Y-109962500D01*
X209938978Y-109945887D01*
X209933657Y-109942815D01*
X209899175Y-109922906D01*
X209845010Y-109891633D01*
X209790645Y-109877066D01*
X209736281Y-109862500D01*
X209623719Y-109862500D01*
X209514989Y-109891633D01*
X209442968Y-109933216D01*
X209426343Y-109942815D01*
X209421022Y-109945887D01*
X209359021Y-109962500D01*
X208500979Y-109962500D01*
X208438978Y-109945887D01*
X208433657Y-109942815D01*
X208399175Y-109922906D01*
X208345010Y-109891633D01*
X208290645Y-109877066D01*
X208236281Y-109862500D01*
X208123719Y-109862500D01*
X208014989Y-109891633D01*
X207942968Y-109933216D01*
X207926343Y-109942815D01*
X207921022Y-109945887D01*
X207859021Y-109962500D01*
X207000979Y-109962500D01*
X206938978Y-109945887D01*
X206933657Y-109942815D01*
X206899175Y-109922906D01*
X206845010Y-109891633D01*
X206790645Y-109877066D01*
X206736281Y-109862500D01*
X206623719Y-109862500D01*
X206514989Y-109891633D01*
X206442968Y-109933216D01*
X206426343Y-109942815D01*
X206421022Y-109945887D01*
X206359021Y-109962500D01*
X205500979Y-109962500D01*
X205438978Y-109945887D01*
X205433657Y-109942815D01*
X205399175Y-109922906D01*
X205345010Y-109891633D01*
X205290645Y-109877066D01*
X205236281Y-109862500D01*
X205123719Y-109862500D01*
X205014989Y-109891633D01*
X204942968Y-109933216D01*
X204926343Y-109942815D01*
X204921022Y-109945887D01*
X204859021Y-109962500D01*
X204000979Y-109962500D01*
X203938978Y-109945887D01*
X203933657Y-109942815D01*
X203899175Y-109922906D01*
X203845010Y-109891633D01*
X203790645Y-109877066D01*
X203736281Y-109862500D01*
X203623719Y-109862500D01*
X203514989Y-109891633D01*
X203442968Y-109933216D01*
X203426343Y-109942815D01*
X203421022Y-109945887D01*
X203359021Y-109962500D01*
X202500979Y-109962500D01*
X202438978Y-109945887D01*
X202433657Y-109942815D01*
X202399175Y-109922906D01*
X202345010Y-109891633D01*
X202290645Y-109877066D01*
X202236281Y-109862500D01*
X202123719Y-109862500D01*
X202014989Y-109891633D01*
X201942968Y-109933216D01*
X201926343Y-109942815D01*
X201921022Y-109945887D01*
X201859021Y-109962500D01*
X201000979Y-109962500D01*
X200938978Y-109945887D01*
X200933657Y-109942815D01*
X200899175Y-109922906D01*
X200845010Y-109891633D01*
X200790645Y-109877066D01*
X200736281Y-109862500D01*
X200623719Y-109862500D01*
X200514989Y-109891633D01*
X200442968Y-109933216D01*
X200426343Y-109942815D01*
X200421022Y-109945887D01*
X200359021Y-109962500D01*
X199500979Y-109962500D01*
X199438978Y-109945887D01*
X199433657Y-109942815D01*
X199399175Y-109922906D01*
X199345010Y-109891633D01*
X199290645Y-109877066D01*
X199236281Y-109862500D01*
X199123719Y-109862500D01*
X199014989Y-109891633D01*
X198942968Y-109933216D01*
X198926343Y-109942815D01*
X198921022Y-109945887D01*
X198859021Y-109962500D01*
X198000979Y-109962500D01*
X197938978Y-109945887D01*
X197933657Y-109942815D01*
X197899175Y-109922906D01*
X197845010Y-109891633D01*
X197790645Y-109877066D01*
X197736281Y-109862500D01*
X197623719Y-109862500D01*
X197514989Y-109891633D01*
X197442968Y-109933216D01*
X197426343Y-109942815D01*
X197421022Y-109945887D01*
X197359021Y-109962500D01*
X196500979Y-109962500D01*
X196438978Y-109945887D01*
X196433657Y-109942815D01*
X196399175Y-109922906D01*
X196345010Y-109891633D01*
X196290645Y-109877066D01*
X196236281Y-109862500D01*
X196123719Y-109862500D01*
X196014989Y-109891633D01*
X195942968Y-109933216D01*
X195926343Y-109942815D01*
X195921022Y-109945887D01*
X195859021Y-109962500D01*
X195429908Y-109962500D01*
X195362869Y-109942815D01*
X195317114Y-109890011D01*
X195310325Y-109866375D01*
X195309603Y-109866569D01*
X195303067Y-109842175D01*
X195278367Y-109749991D01*
X195222085Y-109652509D01*
X195142491Y-109572915D01*
X195083990Y-109539139D01*
X195045010Y-109516633D01*
X194990645Y-109502066D01*
X194936281Y-109487500D01*
X194936280Y-109487500D01*
X194912534Y-109487500D01*
X194909747Y-109487469D01*
X194898947Y-109487226D01*
X194875181Y-109482500D01*
X194688691Y-109482500D01*
X194687312Y-109482469D01*
X194655264Y-109472271D01*
X194623060Y-109462815D01*
X194622113Y-109461722D01*
X194620732Y-109461283D01*
X194599284Y-109435376D01*
X194577305Y-109410011D01*
X194576218Y-109407515D01*
X194576176Y-109407464D01*
X194576168Y-109407400D01*
X194575539Y-109405955D01*
X194551132Y-109347034D01*
X194548460Y-109340583D01*
X194541408Y-109317337D01*
X194530881Y-109264414D01*
X194528500Y-109240231D01*
X194528500Y-108879246D01*
X194532650Y-108863755D01*
X194531996Y-108850011D01*
X194534515Y-108843719D01*
X202047500Y-108843719D01*
X202047500Y-108956280D01*
X202076633Y-109065010D01*
X202080344Y-109071437D01*
X202132915Y-109162491D01*
X202212509Y-109242085D01*
X202309991Y-109298367D01*
X202418719Y-109327500D01*
X202418721Y-109327500D01*
X202531279Y-109327500D01*
X202531281Y-109327500D01*
X202640009Y-109298367D01*
X202737491Y-109242085D01*
X202817085Y-109162491D01*
X202817613Y-109161575D01*
X202818259Y-109160959D01*
X202822033Y-109156042D01*
X202822799Y-109156630D01*
X202868177Y-109113362D01*
X202936784Y-109100137D01*
X203001649Y-109126104D01*
X203027741Y-109156214D01*
X203027967Y-109156042D01*
X203030869Y-109159824D01*
X203032385Y-109161574D01*
X203032915Y-109162491D01*
X203112509Y-109242085D01*
X203209991Y-109298367D01*
X203318719Y-109327500D01*
X203318721Y-109327500D01*
X203431279Y-109327500D01*
X203431281Y-109327500D01*
X203540009Y-109298367D01*
X203637491Y-109242085D01*
X203717085Y-109162491D01*
X203721942Y-109154077D01*
X203772508Y-109105861D01*
X203841115Y-109092637D01*
X203905980Y-109118604D01*
X203926436Y-109142216D01*
X203927967Y-109141042D01*
X203932913Y-109147488D01*
X203932915Y-109147491D01*
X204012509Y-109227085D01*
X204109991Y-109283367D01*
X204218719Y-109312500D01*
X204218721Y-109312500D01*
X204331279Y-109312500D01*
X204331281Y-109312500D01*
X204440009Y-109283367D01*
X204537491Y-109227085D01*
X204617085Y-109147491D01*
X204617089Y-109147483D01*
X204622033Y-109141042D01*
X204624786Y-109143154D01*
X204663645Y-109105966D01*
X204732228Y-109092616D01*
X204797141Y-109118464D01*
X204828054Y-109154073D01*
X204832910Y-109162484D01*
X204832913Y-109162488D01*
X204832915Y-109162491D01*
X204912509Y-109242085D01*
X205009991Y-109298367D01*
X205118719Y-109327500D01*
X205118721Y-109327500D01*
X205231279Y-109327500D01*
X205231281Y-109327500D01*
X205340009Y-109298367D01*
X205437491Y-109242085D01*
X205517085Y-109162491D01*
X205517613Y-109161575D01*
X205518259Y-109160959D01*
X205522033Y-109156042D01*
X205522799Y-109156630D01*
X205568177Y-109113362D01*
X205636784Y-109100137D01*
X205701649Y-109126104D01*
X205727741Y-109156214D01*
X205727967Y-109156042D01*
X205730869Y-109159824D01*
X205732385Y-109161574D01*
X205732915Y-109162491D01*
X205812509Y-109242085D01*
X205909991Y-109298367D01*
X206018719Y-109327500D01*
X206018721Y-109327500D01*
X206131279Y-109327500D01*
X206131281Y-109327500D01*
X206240009Y-109298367D01*
X206337491Y-109242085D01*
X206417085Y-109162491D01*
X206473367Y-109065009D01*
X206502500Y-108956281D01*
X206502500Y-108843719D01*
X206473367Y-108734991D01*
X206472064Y-108732735D01*
X206448754Y-108692361D01*
X206417085Y-108637509D01*
X206337491Y-108557915D01*
X206276151Y-108522500D01*
X206240010Y-108501633D01*
X206184027Y-108486633D01*
X206131281Y-108472500D01*
X206018719Y-108472500D01*
X205909989Y-108501633D01*
X205812509Y-108557915D01*
X205812506Y-108557917D01*
X205732917Y-108637506D01*
X205732910Y-108637515D01*
X205732385Y-108638426D01*
X205731740Y-108639040D01*
X205727967Y-108643958D01*
X205727200Y-108643369D01*
X205681817Y-108686640D01*
X205613209Y-108699861D01*
X205548345Y-108673891D01*
X205522258Y-108643784D01*
X205522033Y-108643958D01*
X205519127Y-108640171D01*
X205517615Y-108638426D01*
X205517089Y-108637515D01*
X205517086Y-108637512D01*
X205517085Y-108637509D01*
X205437491Y-108557915D01*
X205376151Y-108522500D01*
X205340010Y-108501633D01*
X205284027Y-108486633D01*
X205231281Y-108472500D01*
X205118719Y-108472500D01*
X205009989Y-108501633D01*
X204912509Y-108557915D01*
X204912506Y-108557917D01*
X204832917Y-108637506D01*
X204827967Y-108643958D01*
X204825252Y-108641874D01*
X204786066Y-108679182D01*
X204717449Y-108692353D01*
X204652604Y-108666335D01*
X204621943Y-108630924D01*
X204618968Y-108625771D01*
X204617085Y-108622509D01*
X204537491Y-108542915D01*
X204469606Y-108503721D01*
X204440010Y-108486633D01*
X204385645Y-108472066D01*
X204331281Y-108457500D01*
X204218719Y-108457500D01*
X204109989Y-108486633D01*
X204012509Y-108542915D01*
X204012506Y-108542917D01*
X203932917Y-108622506D01*
X203932912Y-108622512D01*
X203928053Y-108630929D01*
X203877483Y-108679142D01*
X203808875Y-108692361D01*
X203744012Y-108666389D01*
X203723571Y-108642777D01*
X203722033Y-108643958D01*
X203717087Y-108637512D01*
X203717085Y-108637509D01*
X203637491Y-108557915D01*
X203576151Y-108522500D01*
X203540010Y-108501633D01*
X203484027Y-108486633D01*
X203431281Y-108472500D01*
X203318719Y-108472500D01*
X203209989Y-108501633D01*
X203112509Y-108557915D01*
X203112506Y-108557917D01*
X203032917Y-108637506D01*
X203032910Y-108637515D01*
X203032385Y-108638426D01*
X203031740Y-108639040D01*
X203027967Y-108643958D01*
X203027200Y-108643369D01*
X202981817Y-108686640D01*
X202913209Y-108699861D01*
X202848345Y-108673891D01*
X202822258Y-108643784D01*
X202822033Y-108643958D01*
X202819127Y-108640171D01*
X202817615Y-108638426D01*
X202817089Y-108637515D01*
X202817086Y-108637512D01*
X202817085Y-108637509D01*
X202737491Y-108557915D01*
X202676151Y-108522500D01*
X202640010Y-108501633D01*
X202584027Y-108486633D01*
X202531281Y-108472500D01*
X202418719Y-108472500D01*
X202309989Y-108501633D01*
X202212509Y-108557915D01*
X202212506Y-108557917D01*
X202132917Y-108637506D01*
X202132915Y-108637509D01*
X202076633Y-108734989D01*
X202047500Y-108843719D01*
X194534515Y-108843719D01*
X194545111Y-108817249D01*
X194598367Y-108725009D01*
X194627500Y-108616281D01*
X194627500Y-108503719D01*
X194598367Y-108394991D01*
X194545112Y-108302753D01*
X194528500Y-108240753D01*
X194528500Y-107834682D01*
X200592285Y-107834682D01*
X200592285Y-107947244D01*
X200606018Y-107998499D01*
X200621418Y-108055973D01*
X200649559Y-108104713D01*
X200677700Y-108153454D01*
X200757294Y-108233048D01*
X200854776Y-108289330D01*
X200963504Y-108318463D01*
X200963506Y-108318463D01*
X201076064Y-108318463D01*
X201076066Y-108318463D01*
X201184794Y-108289330D01*
X201282276Y-108233048D01*
X201361870Y-108153454D01*
X201418152Y-108055972D01*
X201422775Y-108038719D01*
X206847500Y-108038719D01*
X206847500Y-108151280D01*
X206876633Y-108260010D01*
X206898284Y-108297509D01*
X206932915Y-108357491D01*
X207012509Y-108437085D01*
X207096928Y-108485825D01*
X207098327Y-108486633D01*
X207109991Y-108493367D01*
X207218719Y-108522500D01*
X207218721Y-108522500D01*
X207331279Y-108522500D01*
X207331281Y-108522500D01*
X207440009Y-108493367D01*
X207537491Y-108437085D01*
X207617085Y-108357491D01*
X207673367Y-108260009D01*
X207702500Y-108151281D01*
X207702500Y-108038719D01*
X207673367Y-107929991D01*
X207617085Y-107832509D01*
X207537491Y-107752915D01*
X207478888Y-107719080D01*
X207440010Y-107696633D01*
X207371024Y-107678149D01*
X207331281Y-107667500D01*
X207218719Y-107667500D01*
X207109989Y-107696633D01*
X207012509Y-107752915D01*
X207012506Y-107752917D01*
X206932917Y-107832506D01*
X206932915Y-107832509D01*
X206876633Y-107929989D01*
X206847500Y-108038719D01*
X201422775Y-108038719D01*
X201447285Y-107947244D01*
X201447285Y-107834682D01*
X201418152Y-107725954D01*
X201361870Y-107628472D01*
X201282276Y-107548878D01*
X201209117Y-107506639D01*
X201184795Y-107492596D01*
X201109838Y-107472512D01*
X201076066Y-107463463D01*
X200963504Y-107463463D01*
X200854774Y-107492596D01*
X200757294Y-107548878D01*
X200757291Y-107548880D01*
X200677702Y-107628469D01*
X200677700Y-107628472D01*
X200621418Y-107725952D01*
X200597733Y-107814348D01*
X200592285Y-107834682D01*
X194528500Y-107834682D01*
X194528500Y-107379246D01*
X194545114Y-107317245D01*
X194598364Y-107225014D01*
X194598365Y-107225012D01*
X194598364Y-107225012D01*
X194598367Y-107225009D01*
X194627500Y-107116281D01*
X194627500Y-107003719D01*
X194598367Y-106894991D01*
X194591160Y-106882509D01*
X194576292Y-106856756D01*
X194545112Y-106802753D01*
X194528500Y-106740753D01*
X194528500Y-105879246D01*
X194545114Y-105817245D01*
X194598364Y-105725014D01*
X194598365Y-105725012D01*
X194598364Y-105725012D01*
X194598367Y-105725009D01*
X194627500Y-105616281D01*
X194627500Y-105503719D01*
X194598367Y-105394991D01*
X194545112Y-105302753D01*
X194540962Y-105287264D01*
X194533523Y-105275688D01*
X194528500Y-105240753D01*
X194528500Y-105233719D01*
X197612500Y-105233719D01*
X197612500Y-105346281D01*
X197625551Y-105394989D01*
X197641633Y-105455010D01*
X197647407Y-105465010D01*
X197697915Y-105552491D01*
X197697917Y-105552493D01*
X197757743Y-105612319D01*
X197791228Y-105673642D01*
X197786244Y-105743334D01*
X197757743Y-105787681D01*
X197707917Y-105837506D01*
X197707915Y-105837509D01*
X197651633Y-105934989D01*
X197622500Y-106043719D01*
X197622500Y-106156280D01*
X197651633Y-106265010D01*
X197679774Y-106313750D01*
X197707915Y-106362491D01*
X197787509Y-106442085D01*
X197884991Y-106498367D01*
X197993719Y-106527500D01*
X197993721Y-106527500D01*
X198106279Y-106527500D01*
X198106281Y-106527500D01*
X198215009Y-106498367D01*
X198312491Y-106442085D01*
X198392085Y-106362491D01*
X198448367Y-106265009D01*
X198477500Y-106156281D01*
X198477500Y-106043719D01*
X198448367Y-105934991D01*
X198392085Y-105837509D01*
X198332257Y-105777681D01*
X198298772Y-105716358D01*
X198303756Y-105646666D01*
X198332257Y-105602319D01*
X198342491Y-105592085D01*
X198382085Y-105552491D01*
X198438367Y-105455009D01*
X198467500Y-105346281D01*
X198467500Y-105243719D01*
X200372500Y-105243719D01*
X200372500Y-105356280D01*
X200401633Y-105465010D01*
X200423984Y-105503721D01*
X200457915Y-105562491D01*
X200537509Y-105642085D01*
X200634991Y-105698367D01*
X200743719Y-105727500D01*
X200743721Y-105727500D01*
X200856279Y-105727500D01*
X200856281Y-105727500D01*
X200965009Y-105698367D01*
X201062491Y-105642085D01*
X201142085Y-105562491D01*
X201198367Y-105465009D01*
X201227500Y-105356281D01*
X201227500Y-105243719D01*
X201198367Y-105134991D01*
X201142085Y-105037509D01*
X201062491Y-104957915D01*
X201013750Y-104929774D01*
X200965010Y-104901633D01*
X200910645Y-104887066D01*
X200856281Y-104872500D01*
X200743719Y-104872500D01*
X200634989Y-104901633D01*
X200537509Y-104957915D01*
X200537506Y-104957917D01*
X200457917Y-105037506D01*
X200457915Y-105037509D01*
X200401633Y-105134989D01*
X200372500Y-105243719D01*
X198467500Y-105243719D01*
X198467500Y-105233719D01*
X198438367Y-105124991D01*
X198382085Y-105027509D01*
X198302491Y-104947915D01*
X198253750Y-104919774D01*
X198205010Y-104891633D01*
X198133602Y-104872500D01*
X198096281Y-104862500D01*
X197983719Y-104862500D01*
X197874989Y-104891633D01*
X197777509Y-104947915D01*
X197777506Y-104947917D01*
X197697917Y-105027506D01*
X197697915Y-105027509D01*
X197641633Y-105124989D01*
X197628671Y-105173366D01*
X197612500Y-105233719D01*
X194528500Y-105233719D01*
X194528500Y-104379246D01*
X194545114Y-104317245D01*
X194598364Y-104225014D01*
X194598365Y-104225012D01*
X194598364Y-104225012D01*
X194598367Y-104225009D01*
X194626847Y-104118719D01*
X203822500Y-104118719D01*
X203822500Y-104831280D01*
X203851633Y-104940010D01*
X203861971Y-104957915D01*
X203907915Y-105037491D01*
X203987509Y-105117085D01*
X204084991Y-105173367D01*
X204193719Y-105202500D01*
X204193721Y-105202500D01*
X204306279Y-105202500D01*
X204306281Y-105202500D01*
X204339053Y-105193719D01*
X206597500Y-105193719D01*
X206597500Y-105306281D01*
X206608218Y-105346281D01*
X206626633Y-105415010D01*
X206649727Y-105455009D01*
X206682915Y-105512491D01*
X206682918Y-105512494D01*
X206687862Y-105518937D01*
X206686801Y-105519751D01*
X206716228Y-105573642D01*
X206711244Y-105643334D01*
X206687282Y-105680618D01*
X206687862Y-105681063D01*
X206682915Y-105687509D01*
X206626633Y-105784989D01*
X206616585Y-105822491D01*
X206597500Y-105893719D01*
X206597500Y-106006281D01*
X206605947Y-106037806D01*
X206626633Y-106115010D01*
X206650461Y-106156280D01*
X206682915Y-106212491D01*
X206762509Y-106292085D01*
X206859991Y-106348367D01*
X206968719Y-106377500D01*
X206968721Y-106377500D01*
X207081279Y-106377500D01*
X207081281Y-106377500D01*
X207190009Y-106348367D01*
X207287491Y-106292085D01*
X207367085Y-106212491D01*
X207423367Y-106115009D01*
X207449167Y-106018719D01*
X208012500Y-106018719D01*
X208012500Y-106131280D01*
X208041633Y-106240010D01*
X208069774Y-106288750D01*
X208097915Y-106337491D01*
X208177509Y-106417085D01*
X208274991Y-106473367D01*
X208383719Y-106502500D01*
X208383721Y-106502500D01*
X208496279Y-106502500D01*
X208496281Y-106502500D01*
X208605009Y-106473367D01*
X208702491Y-106417085D01*
X208782085Y-106337491D01*
X208838367Y-106240009D01*
X208867500Y-106131281D01*
X208867500Y-106018719D01*
X208838367Y-105909991D01*
X208782085Y-105812509D01*
X208702491Y-105732915D01*
X208642651Y-105698366D01*
X208605010Y-105676633D01*
X208550645Y-105662066D01*
X208496281Y-105647500D01*
X208383719Y-105647500D01*
X208274989Y-105676633D01*
X208177509Y-105732915D01*
X208177506Y-105732917D01*
X208097917Y-105812506D01*
X208097915Y-105812509D01*
X208041633Y-105909989D01*
X208012500Y-106018719D01*
X207449167Y-106018719D01*
X207452500Y-106006281D01*
X207452500Y-105893719D01*
X207423367Y-105784991D01*
X207367085Y-105687509D01*
X207367080Y-105687504D01*
X207362138Y-105681063D01*
X207363198Y-105680248D01*
X207333772Y-105626358D01*
X207338756Y-105556666D01*
X207362717Y-105519381D01*
X207362138Y-105518937D01*
X207367077Y-105512498D01*
X207367085Y-105512491D01*
X207423367Y-105415009D01*
X207452500Y-105306281D01*
X207452500Y-105193719D01*
X207423367Y-105084991D01*
X207367085Y-104987509D01*
X207287491Y-104907915D01*
X207226151Y-104872500D01*
X207190010Y-104851633D01*
X207135645Y-104837066D01*
X207081281Y-104822500D01*
X206968719Y-104822500D01*
X206859989Y-104851633D01*
X206762509Y-104907915D01*
X206762506Y-104907917D01*
X206682917Y-104987506D01*
X206682915Y-104987509D01*
X206626633Y-105084989D01*
X206615915Y-105124991D01*
X206597500Y-105193719D01*
X204339053Y-105193719D01*
X204415009Y-105173367D01*
X204512491Y-105117085D01*
X204592085Y-105037491D01*
X204648367Y-104940009D01*
X204677500Y-104831281D01*
X204677500Y-104118719D01*
X204648367Y-104009991D01*
X204592085Y-103912509D01*
X204512491Y-103832915D01*
X204451167Y-103797509D01*
X204415010Y-103776633D01*
X204360645Y-103762066D01*
X204306281Y-103747500D01*
X204193719Y-103747500D01*
X204084989Y-103776633D01*
X203987509Y-103832915D01*
X203987506Y-103832917D01*
X203907917Y-103912506D01*
X203907915Y-103912509D01*
X203851633Y-104009989D01*
X203822500Y-104118719D01*
X194626847Y-104118719D01*
X194627500Y-104116281D01*
X194627500Y-104003719D01*
X194598367Y-103894991D01*
X194545112Y-103802753D01*
X194528500Y-103740753D01*
X194528500Y-102879246D01*
X194532650Y-102863756D01*
X194531996Y-102850010D01*
X194545114Y-102817244D01*
X194558696Y-102793721D01*
X194558697Y-102793719D01*
X199722500Y-102793719D01*
X199722500Y-102906280D01*
X199751633Y-103015010D01*
X199777033Y-103059003D01*
X199807915Y-103112491D01*
X199887509Y-103192085D01*
X199984991Y-103248367D01*
X200093719Y-103277500D01*
X200093721Y-103277500D01*
X200206279Y-103277500D01*
X200206281Y-103277500D01*
X200315009Y-103248367D01*
X200412491Y-103192085D01*
X200492085Y-103112491D01*
X200548367Y-103015009D01*
X200577500Y-102906281D01*
X200577500Y-102793719D01*
X200548367Y-102684991D01*
X200492085Y-102587509D01*
X200412491Y-102507915D01*
X200363750Y-102479774D01*
X200315010Y-102451633D01*
X200260645Y-102437066D01*
X200206281Y-102422500D01*
X200093719Y-102422500D01*
X199984989Y-102451633D01*
X199887509Y-102507915D01*
X199887506Y-102507917D01*
X199807917Y-102587506D01*
X199807915Y-102587509D01*
X199751633Y-102684989D01*
X199722500Y-102793719D01*
X194558697Y-102793719D01*
X194598367Y-102725009D01*
X194627500Y-102616281D01*
X194627500Y-102503719D01*
X194598367Y-102394991D01*
X194545112Y-102302753D01*
X194544031Y-102298719D01*
X201712500Y-102298719D01*
X201712500Y-102411280D01*
X201741633Y-102520010D01*
X201769774Y-102568750D01*
X201797915Y-102617491D01*
X201877509Y-102697085D01*
X201974991Y-102753367D01*
X202083719Y-102782500D01*
X202083721Y-102782500D01*
X202196279Y-102782500D01*
X202196281Y-102782500D01*
X202305009Y-102753367D01*
X202402491Y-102697085D01*
X202482085Y-102617491D01*
X202538367Y-102520009D01*
X202567500Y-102411281D01*
X202567500Y-102298719D01*
X202538367Y-102189991D01*
X202482085Y-102092509D01*
X202402491Y-102012915D01*
X202351311Y-101983366D01*
X202305010Y-101956633D01*
X202242966Y-101940009D01*
X202196281Y-101927500D01*
X202083719Y-101927500D01*
X201974989Y-101956633D01*
X201877509Y-102012915D01*
X201877506Y-102012917D01*
X201797917Y-102092506D01*
X201797915Y-102092509D01*
X201741633Y-102189989D01*
X201712500Y-102298719D01*
X194544031Y-102298719D01*
X194528500Y-102240753D01*
X194528500Y-101528719D01*
X196547500Y-101528719D01*
X196547500Y-101641280D01*
X196576633Y-101750010D01*
X196585293Y-101765009D01*
X196632915Y-101847491D01*
X196712509Y-101927085D01*
X196809991Y-101983367D01*
X196918719Y-102012500D01*
X196918721Y-102012500D01*
X197031279Y-102012500D01*
X197031281Y-102012500D01*
X197140009Y-101983367D01*
X197237491Y-101927085D01*
X197317085Y-101847491D01*
X197373367Y-101750009D01*
X197402500Y-101641281D01*
X197402500Y-101528719D01*
X197373367Y-101419991D01*
X197317085Y-101322509D01*
X197237491Y-101242915D01*
X197140009Y-101186633D01*
X197031281Y-101157500D01*
X196918719Y-101157500D01*
X196809989Y-101186633D01*
X196712509Y-101242915D01*
X196712506Y-101242917D01*
X196632917Y-101322506D01*
X196632915Y-101322509D01*
X196576633Y-101419989D01*
X196547500Y-101528719D01*
X194528500Y-101528719D01*
X194528500Y-101356500D01*
X194548185Y-101289461D01*
X194600989Y-101243706D01*
X194652500Y-101232500D01*
X194788690Y-101232500D01*
X194802653Y-101229783D01*
X194826338Y-101227500D01*
X194856279Y-101227500D01*
X194856281Y-101227500D01*
X194965009Y-101198367D01*
X195062491Y-101142085D01*
X195120857Y-101083719D01*
X202092500Y-101083719D01*
X202092500Y-101196281D01*
X202099637Y-101222917D01*
X202121633Y-101305010D01*
X202140395Y-101337506D01*
X202177915Y-101402491D01*
X202257509Y-101482085D01*
X202354991Y-101538367D01*
X202463719Y-101567500D01*
X202463721Y-101567500D01*
X202576279Y-101567500D01*
X202576281Y-101567500D01*
X202685009Y-101538367D01*
X202782491Y-101482085D01*
X202795819Y-101468757D01*
X202857142Y-101435272D01*
X202926834Y-101440256D01*
X202982767Y-101482128D01*
X203007184Y-101547592D01*
X203007500Y-101556438D01*
X203007500Y-101621281D01*
X203016878Y-101656280D01*
X203036633Y-101730010D01*
X203056841Y-101765010D01*
X203092915Y-101827491D01*
X203172509Y-101907085D01*
X203233130Y-101942085D01*
X203258327Y-101956633D01*
X203269991Y-101963367D01*
X203378719Y-101992500D01*
X203378721Y-101992500D01*
X203491279Y-101992500D01*
X203491281Y-101992500D01*
X203600009Y-101963367D01*
X203697491Y-101907085D01*
X203777085Y-101827491D01*
X203833367Y-101730009D01*
X203862500Y-101621281D01*
X203862500Y-101558719D01*
X207162500Y-101558719D01*
X207162500Y-101671280D01*
X207191633Y-101780010D01*
X207219047Y-101827490D01*
X207247915Y-101877491D01*
X207327509Y-101957085D01*
X207388849Y-101992500D01*
X207424211Y-102012917D01*
X207424991Y-102013367D01*
X207533719Y-102042500D01*
X207533721Y-102042500D01*
X207646279Y-102042500D01*
X207646281Y-102042500D01*
X207755009Y-102013367D01*
X207852491Y-101957085D01*
X207932085Y-101877491D01*
X207988367Y-101780009D01*
X208017500Y-101671281D01*
X208017500Y-101558719D01*
X208013481Y-101543719D01*
X210822500Y-101543719D01*
X210822500Y-101656280D01*
X210851633Y-101765010D01*
X210860293Y-101780009D01*
X210907915Y-101862491D01*
X210987509Y-101942085D01*
X211084991Y-101998367D01*
X211193719Y-102027500D01*
X211193721Y-102027500D01*
X211306279Y-102027500D01*
X211306281Y-102027500D01*
X211415009Y-101998367D01*
X211512491Y-101942085D01*
X211592085Y-101862491D01*
X211648367Y-101765009D01*
X211677500Y-101656281D01*
X211677500Y-101543719D01*
X211648367Y-101434991D01*
X211592085Y-101337509D01*
X211512491Y-101257915D01*
X211459810Y-101227499D01*
X211415010Y-101201633D01*
X211346834Y-101183366D01*
X211306281Y-101172500D01*
X211193719Y-101172500D01*
X211084989Y-101201633D01*
X210987509Y-101257915D01*
X210987506Y-101257917D01*
X210907917Y-101337506D01*
X210907915Y-101337509D01*
X210851633Y-101434989D01*
X210822500Y-101543719D01*
X208013481Y-101543719D01*
X207988367Y-101449991D01*
X207932085Y-101352509D01*
X207852491Y-101272915D01*
X207788974Y-101236243D01*
X207755010Y-101216633D01*
X207686834Y-101198366D01*
X207646281Y-101187500D01*
X207533719Y-101187500D01*
X207424989Y-101216633D01*
X207327509Y-101272915D01*
X207327506Y-101272917D01*
X207247917Y-101352506D01*
X207247915Y-101352509D01*
X207191633Y-101449989D01*
X207162500Y-101558719D01*
X203862500Y-101558719D01*
X203862500Y-101508719D01*
X203833367Y-101399991D01*
X203777085Y-101302509D01*
X203697491Y-101222915D01*
X203628991Y-101183366D01*
X203600010Y-101166633D01*
X203532566Y-101148562D01*
X203491281Y-101137500D01*
X203378719Y-101137500D01*
X203269989Y-101166633D01*
X203172509Y-101222915D01*
X203172506Y-101222917D01*
X203159181Y-101236243D01*
X203097858Y-101269728D01*
X203028166Y-101264744D01*
X202972233Y-101222872D01*
X202947816Y-101157408D01*
X202947500Y-101148562D01*
X202947500Y-101083721D01*
X202947500Y-101083719D01*
X202918367Y-100974991D01*
X202862085Y-100877509D01*
X202782491Y-100797915D01*
X202733750Y-100769774D01*
X202685010Y-100741633D01*
X202636814Y-100728719D01*
X205127500Y-100728719D01*
X205127500Y-100841280D01*
X205156633Y-100950010D01*
X205184774Y-100998750D01*
X205212915Y-101047491D01*
X205292509Y-101127085D01*
X205389991Y-101183367D01*
X205498719Y-101212500D01*
X205498721Y-101212500D01*
X205611279Y-101212500D01*
X205611281Y-101212500D01*
X205720009Y-101183367D01*
X205817491Y-101127085D01*
X205897085Y-101047491D01*
X205953367Y-100950009D01*
X205982500Y-100841281D01*
X205982500Y-100728719D01*
X205953367Y-100619991D01*
X205897085Y-100522509D01*
X205817491Y-100442915D01*
X205768750Y-100414774D01*
X205720010Y-100386633D01*
X205648602Y-100367500D01*
X205611281Y-100357500D01*
X205498719Y-100357500D01*
X205389989Y-100386633D01*
X205292509Y-100442915D01*
X205292506Y-100442917D01*
X205212917Y-100522506D01*
X205212915Y-100522509D01*
X205156633Y-100619989D01*
X205127500Y-100728719D01*
X202636814Y-100728719D01*
X202630645Y-100727066D01*
X202576281Y-100712500D01*
X202463719Y-100712500D01*
X202354989Y-100741633D01*
X202257509Y-100797915D01*
X202257506Y-100797917D01*
X202177917Y-100877506D01*
X202177915Y-100877509D01*
X202121633Y-100974989D01*
X202098188Y-101062490D01*
X202092500Y-101083719D01*
X195120857Y-101083719D01*
X195142085Y-101062491D01*
X195198367Y-100965009D01*
X195227500Y-100856281D01*
X195227500Y-100743719D01*
X195198367Y-100634991D01*
X195142085Y-100537509D01*
X195062491Y-100457915D01*
X195013750Y-100429774D01*
X194965010Y-100401633D01*
X194909027Y-100386633D01*
X194856281Y-100372500D01*
X194856280Y-100372500D01*
X194835658Y-100372500D01*
X194832274Y-100372454D01*
X194821773Y-100372167D01*
X194798307Y-100367500D01*
X194650801Y-100367500D01*
X194649116Y-100367454D01*
X194617411Y-100357196D01*
X194585461Y-100347815D01*
X194584311Y-100346487D01*
X194582639Y-100345947D01*
X194561510Y-100320174D01*
X194539706Y-100295011D01*
X194539281Y-100293060D01*
X194538342Y-100291914D01*
X194537553Y-100285114D01*
X194528500Y-100243500D01*
X194528500Y-99879246D01*
X194545114Y-99817245D01*
X194598364Y-99725014D01*
X194598365Y-99725012D01*
X194598364Y-99725012D01*
X194598367Y-99725009D01*
X194627500Y-99616281D01*
X194627500Y-99503719D01*
X194598367Y-99394991D01*
X194545112Y-99302753D01*
X194540962Y-99287264D01*
X194533523Y-99275688D01*
X194528500Y-99240753D01*
X194528500Y-99238719D01*
X195327500Y-99238719D01*
X195327500Y-99351281D01*
X195332173Y-99368721D01*
X195356633Y-99460010D01*
X195381869Y-99503719D01*
X195412915Y-99557491D01*
X195492509Y-99637085D01*
X195589991Y-99693367D01*
X195698719Y-99722500D01*
X195698721Y-99722500D01*
X195811279Y-99722500D01*
X195811281Y-99722500D01*
X195920009Y-99693367D01*
X196017491Y-99637085D01*
X196097085Y-99557491D01*
X196153367Y-99460009D01*
X196182500Y-99351281D01*
X196182500Y-99238719D01*
X196153367Y-99129991D01*
X196097085Y-99032509D01*
X196017491Y-98952915D01*
X195968750Y-98924774D01*
X195920010Y-98896633D01*
X195865645Y-98882066D01*
X195811281Y-98867500D01*
X195698719Y-98867500D01*
X195589989Y-98896633D01*
X195492509Y-98952915D01*
X195492506Y-98952917D01*
X195412917Y-99032506D01*
X195412915Y-99032509D01*
X195356633Y-99129989D01*
X195343903Y-99177500D01*
X195327500Y-99238719D01*
X194528500Y-99238719D01*
X194528500Y-98743719D01*
X197072500Y-98743719D01*
X197072500Y-98856280D01*
X197101633Y-98965010D01*
X197120392Y-98997500D01*
X197157915Y-99062491D01*
X197237509Y-99142085D01*
X197334991Y-99198367D01*
X197443719Y-99227500D01*
X197443721Y-99227500D01*
X197556279Y-99227500D01*
X197556281Y-99227500D01*
X197665009Y-99198367D01*
X197762491Y-99142085D01*
X197790857Y-99113719D01*
X198362500Y-99113719D01*
X198362500Y-99226281D01*
X198362827Y-99227500D01*
X198391633Y-99335010D01*
X198411096Y-99368719D01*
X198447915Y-99432491D01*
X198527509Y-99512085D01*
X198624991Y-99568367D01*
X198733719Y-99597500D01*
X198733721Y-99597500D01*
X198846279Y-99597500D01*
X198846281Y-99597500D01*
X198955009Y-99568367D01*
X199052491Y-99512085D01*
X199132085Y-99432491D01*
X199168904Y-99368719D01*
X205472500Y-99368719D01*
X205472500Y-99481281D01*
X205480754Y-99512085D01*
X205501633Y-99590010D01*
X205516800Y-99616279D01*
X205557915Y-99687491D01*
X205637509Y-99767085D01*
X205721928Y-99815825D01*
X205724387Y-99817245D01*
X205734991Y-99823367D01*
X205843719Y-99852500D01*
X205843721Y-99852500D01*
X205956279Y-99852500D01*
X205956281Y-99852500D01*
X206065009Y-99823367D01*
X206162491Y-99767085D01*
X206212319Y-99717257D01*
X206273642Y-99683772D01*
X206343334Y-99688756D01*
X206387681Y-99717257D01*
X206437509Y-99767085D01*
X206521928Y-99815825D01*
X206524387Y-99817245D01*
X206534991Y-99823367D01*
X206643719Y-99852500D01*
X206643721Y-99852500D01*
X206756279Y-99852500D01*
X206756281Y-99852500D01*
X206865009Y-99823367D01*
X206962491Y-99767085D01*
X207012319Y-99717257D01*
X207073642Y-99683772D01*
X207143334Y-99688756D01*
X207187681Y-99717257D01*
X207237509Y-99767085D01*
X207321928Y-99815825D01*
X207324387Y-99817245D01*
X207334991Y-99823367D01*
X207443719Y-99852500D01*
X207443721Y-99852500D01*
X207556279Y-99852500D01*
X207556281Y-99852500D01*
X207665009Y-99823367D01*
X207762491Y-99767085D01*
X207842085Y-99687491D01*
X207898367Y-99590009D01*
X207927500Y-99481281D01*
X207927500Y-99368719D01*
X207898367Y-99259991D01*
X207842085Y-99162509D01*
X207762491Y-99082915D01*
X207694379Y-99043590D01*
X207665010Y-99026633D01*
X207584238Y-99004991D01*
X207556281Y-98997500D01*
X207443719Y-98997500D01*
X207334989Y-99026633D01*
X207237509Y-99082915D01*
X207237506Y-99082917D01*
X207187681Y-99132743D01*
X207126358Y-99166228D01*
X207056666Y-99161244D01*
X207012319Y-99132743D01*
X206962493Y-99082917D01*
X206962491Y-99082915D01*
X206894379Y-99043590D01*
X206865010Y-99026633D01*
X206784238Y-99004991D01*
X206756281Y-98997500D01*
X206643719Y-98997500D01*
X206534989Y-99026633D01*
X206437509Y-99082915D01*
X206437506Y-99082917D01*
X206387681Y-99132743D01*
X206326358Y-99166228D01*
X206256666Y-99161244D01*
X206212319Y-99132743D01*
X206162493Y-99082917D01*
X206162491Y-99082915D01*
X206094379Y-99043590D01*
X206065010Y-99026633D01*
X205984238Y-99004991D01*
X205956281Y-98997500D01*
X205843719Y-98997500D01*
X205734989Y-99026633D01*
X205637509Y-99082915D01*
X205637506Y-99082917D01*
X205557917Y-99162506D01*
X205557915Y-99162509D01*
X205501633Y-99259989D01*
X205500000Y-99266085D01*
X205472500Y-99368719D01*
X199168904Y-99368719D01*
X199188367Y-99335009D01*
X199217500Y-99226281D01*
X199217500Y-99113719D01*
X199188367Y-99004991D01*
X199132085Y-98907509D01*
X199052491Y-98827915D01*
X198991978Y-98792977D01*
X198991977Y-98792976D01*
X198955014Y-98771635D01*
X198955012Y-98771634D01*
X198955009Y-98771633D01*
X198846281Y-98742500D01*
X198733719Y-98742500D01*
X198624989Y-98771633D01*
X198527509Y-98827915D01*
X198527506Y-98827917D01*
X198447919Y-98907505D01*
X198447915Y-98907509D01*
X198391633Y-99004989D01*
X198368297Y-99092084D01*
X198362500Y-99113719D01*
X197790857Y-99113719D01*
X197842085Y-99062491D01*
X197859396Y-99032509D01*
X197898366Y-98965010D01*
X197898367Y-98965009D01*
X197927500Y-98856281D01*
X197927500Y-98743719D01*
X197914103Y-98693719D01*
X203272500Y-98693719D01*
X203272500Y-98806280D01*
X203301633Y-98915010D01*
X203323518Y-98952915D01*
X203357915Y-99012491D01*
X203437509Y-99092085D01*
X203534991Y-99148367D01*
X203643719Y-99177500D01*
X203643721Y-99177500D01*
X203756279Y-99177500D01*
X203756281Y-99177500D01*
X203865009Y-99148367D01*
X203962491Y-99092085D01*
X204042085Y-99012491D01*
X204098367Y-98915009D01*
X204127500Y-98806281D01*
X204127500Y-98693719D01*
X204098367Y-98584991D01*
X204042085Y-98487509D01*
X203962491Y-98407915D01*
X203913750Y-98379774D01*
X203865010Y-98351633D01*
X203806948Y-98336076D01*
X203756281Y-98322500D01*
X203643719Y-98322500D01*
X203534989Y-98351633D01*
X203437509Y-98407915D01*
X203437506Y-98407917D01*
X203357917Y-98487506D01*
X203357915Y-98487509D01*
X203301633Y-98584989D01*
X203272500Y-98693719D01*
X197914103Y-98693719D01*
X197898367Y-98634991D01*
X197842085Y-98537509D01*
X197762491Y-98457915D01*
X197713750Y-98429774D01*
X197665010Y-98401633D01*
X197610645Y-98387066D01*
X197556281Y-98372500D01*
X197443719Y-98372500D01*
X197334989Y-98401633D01*
X197237509Y-98457915D01*
X197237506Y-98457917D01*
X197157917Y-98537506D01*
X197157915Y-98537509D01*
X197101633Y-98634989D01*
X197072500Y-98743719D01*
X194528500Y-98743719D01*
X194528500Y-98379246D01*
X194545114Y-98317245D01*
X194598364Y-98225014D01*
X194598365Y-98225012D01*
X194598364Y-98225012D01*
X194598367Y-98225009D01*
X194627500Y-98116281D01*
X194627500Y-98003719D01*
X194598367Y-97894991D01*
X194545112Y-97802753D01*
X194540962Y-97787264D01*
X194533523Y-97775688D01*
X194528500Y-97740753D01*
X194528500Y-97571219D01*
X195337500Y-97571219D01*
X195337500Y-97683780D01*
X195366633Y-97792510D01*
X195372548Y-97802754D01*
X195422915Y-97889991D01*
X195502509Y-97969585D01*
X195599991Y-98025867D01*
X195708719Y-98055000D01*
X195708721Y-98055000D01*
X195821279Y-98055000D01*
X195821281Y-98055000D01*
X195930009Y-98025867D01*
X196027491Y-97969585D01*
X196107085Y-97889991D01*
X196163367Y-97792509D01*
X196192500Y-97683781D01*
X196192500Y-97643719D01*
X210312500Y-97643719D01*
X210312500Y-97756280D01*
X210341633Y-97865010D01*
X210358942Y-97894989D01*
X210397915Y-97962491D01*
X210477509Y-98042085D01*
X210574991Y-98098367D01*
X210683719Y-98127500D01*
X210683721Y-98127500D01*
X210796279Y-98127500D01*
X210796281Y-98127500D01*
X210905009Y-98098367D01*
X211002491Y-98042085D01*
X211082085Y-97962491D01*
X211138367Y-97865009D01*
X211167500Y-97756281D01*
X211167500Y-97643719D01*
X211138367Y-97534991D01*
X211082085Y-97437509D01*
X211002491Y-97357915D01*
X210953750Y-97329774D01*
X210905010Y-97301633D01*
X210844481Y-97285415D01*
X210796281Y-97272500D01*
X210683719Y-97272500D01*
X210574989Y-97301633D01*
X210477509Y-97357915D01*
X210477506Y-97357917D01*
X210397917Y-97437506D01*
X210397915Y-97437509D01*
X210341633Y-97534989D01*
X210312500Y-97643719D01*
X196192500Y-97643719D01*
X196192500Y-97571219D01*
X196163367Y-97462491D01*
X196163127Y-97462076D01*
X196148942Y-97437506D01*
X196107085Y-97365009D01*
X196027491Y-97285415D01*
X195942390Y-97236281D01*
X195930010Y-97229133D01*
X195875645Y-97214566D01*
X195821281Y-97200000D01*
X195708719Y-97200000D01*
X195599989Y-97229133D01*
X195502509Y-97285415D01*
X195502506Y-97285417D01*
X195422917Y-97365006D01*
X195422915Y-97365009D01*
X195366633Y-97462489D01*
X195337500Y-97571219D01*
X194528500Y-97571219D01*
X194528500Y-97143719D01*
X209232500Y-97143719D01*
X209232500Y-97256280D01*
X209261633Y-97365010D01*
X209289774Y-97413750D01*
X209317915Y-97462491D01*
X209397509Y-97542085D01*
X209494991Y-97598367D01*
X209603719Y-97627500D01*
X209603721Y-97627500D01*
X209716279Y-97627500D01*
X209716281Y-97627500D01*
X209825009Y-97598367D01*
X209922491Y-97542085D01*
X210002085Y-97462491D01*
X210058367Y-97365009D01*
X210087500Y-97256281D01*
X210087500Y-97143719D01*
X210058367Y-97034991D01*
X210002085Y-96937509D01*
X209922491Y-96857915D01*
X209861136Y-96822491D01*
X209825010Y-96801633D01*
X209770645Y-96787066D01*
X209716281Y-96772500D01*
X209603719Y-96772500D01*
X209494989Y-96801633D01*
X209397509Y-96857915D01*
X209397506Y-96857917D01*
X209317917Y-96937506D01*
X209317915Y-96937509D01*
X209261633Y-97034989D01*
X209232500Y-97143719D01*
X194528500Y-97143719D01*
X194528500Y-96879246D01*
X194545114Y-96817245D01*
X194598364Y-96725014D01*
X194598365Y-96725012D01*
X194598364Y-96725012D01*
X194598367Y-96725009D01*
X194620148Y-96643719D01*
X199272500Y-96643719D01*
X199272500Y-96756280D01*
X199301633Y-96865010D01*
X199320391Y-96897499D01*
X199357915Y-96962491D01*
X199437509Y-97042085D01*
X199534991Y-97098367D01*
X199643719Y-97127500D01*
X199643721Y-97127500D01*
X199756279Y-97127500D01*
X199756281Y-97127500D01*
X199865009Y-97098367D01*
X199962491Y-97042085D01*
X200042085Y-96962491D01*
X200098367Y-96865009D01*
X200127500Y-96756281D01*
X200127500Y-96643719D01*
X200098367Y-96534991D01*
X200042085Y-96437509D01*
X199962491Y-96357915D01*
X199962488Y-96357913D01*
X199962484Y-96357910D01*
X199936624Y-96342979D01*
X199936621Y-96342979D01*
X199935067Y-96342082D01*
X199915095Y-96330551D01*
X199865010Y-96301633D01*
X199798917Y-96283924D01*
X199756281Y-96272500D01*
X199643719Y-96272500D01*
X199534989Y-96301633D01*
X199437509Y-96357915D01*
X199437506Y-96357917D01*
X199357917Y-96437506D01*
X199357915Y-96437509D01*
X199301633Y-96534989D01*
X199272500Y-96643719D01*
X194620148Y-96643719D01*
X194627500Y-96616281D01*
X194627500Y-96503719D01*
X194598367Y-96394991D01*
X194545112Y-96302753D01*
X194529295Y-96243719D01*
X200672500Y-96243719D01*
X200672500Y-96356281D01*
X200682872Y-96394989D01*
X200701633Y-96465010D01*
X200723984Y-96503721D01*
X200757915Y-96562491D01*
X200837509Y-96642085D01*
X200934991Y-96698367D01*
X201043719Y-96727500D01*
X201043721Y-96727500D01*
X201156279Y-96727500D01*
X201156281Y-96727500D01*
X201265009Y-96698367D01*
X201362491Y-96642085D01*
X201442085Y-96562491D01*
X201498367Y-96465009D01*
X201512110Y-96413719D01*
X202592500Y-96413719D01*
X202592500Y-96526280D01*
X202621633Y-96635010D01*
X202637499Y-96662490D01*
X202677915Y-96732491D01*
X202757509Y-96812085D01*
X202823804Y-96850361D01*
X202849176Y-96865010D01*
X202854991Y-96868367D01*
X202963719Y-96897500D01*
X202963721Y-96897500D01*
X203076279Y-96897500D01*
X203076281Y-96897500D01*
X203185009Y-96868367D01*
X203282491Y-96812085D01*
X203362085Y-96732491D01*
X203418367Y-96635009D01*
X203447500Y-96526281D01*
X203447500Y-96413719D01*
X203418367Y-96304991D01*
X203417075Y-96302754D01*
X203393829Y-96262491D01*
X203362085Y-96207509D01*
X203282491Y-96127915D01*
X203231311Y-96098366D01*
X203185010Y-96071633D01*
X203158069Y-96064414D01*
X203076281Y-96042500D01*
X202963719Y-96042500D01*
X202854989Y-96071633D01*
X202757509Y-96127915D01*
X202757506Y-96127917D01*
X202677917Y-96207506D01*
X202677915Y-96207509D01*
X202621633Y-96304989D01*
X202592500Y-96413719D01*
X201512110Y-96413719D01*
X201527500Y-96356281D01*
X201527500Y-96243719D01*
X201498367Y-96134991D01*
X201496978Y-96132586D01*
X201477221Y-96098366D01*
X201442085Y-96037509D01*
X201362491Y-95957915D01*
X201337903Y-95943719D01*
X204152500Y-95943719D01*
X204152500Y-96056281D01*
X204163776Y-96098366D01*
X204181633Y-96165010D01*
X204204716Y-96204989D01*
X204237915Y-96262491D01*
X204317509Y-96342085D01*
X204414991Y-96398367D01*
X204523719Y-96427500D01*
X204523721Y-96427500D01*
X204636279Y-96427500D01*
X204636281Y-96427500D01*
X204745009Y-96398367D01*
X204839661Y-96343719D01*
X206372500Y-96343719D01*
X206372500Y-96456280D01*
X206401633Y-96565010D01*
X206429774Y-96613750D01*
X206457915Y-96662491D01*
X206537509Y-96742085D01*
X206634991Y-96798367D01*
X206743719Y-96827500D01*
X206743721Y-96827500D01*
X206856279Y-96827500D01*
X206856281Y-96827500D01*
X206965009Y-96798367D01*
X207062491Y-96742085D01*
X207142085Y-96662491D01*
X207198367Y-96565009D01*
X207227500Y-96456281D01*
X207227500Y-96343719D01*
X207198367Y-96234991D01*
X207142085Y-96137509D01*
X207062491Y-96057915D01*
X207013750Y-96029774D01*
X206965010Y-96001633D01*
X206910645Y-95987066D01*
X206856281Y-95972500D01*
X206743719Y-95972500D01*
X206634989Y-96001633D01*
X206537509Y-96057915D01*
X206537506Y-96057917D01*
X206457917Y-96137506D01*
X206457915Y-96137509D01*
X206401633Y-96234989D01*
X206372500Y-96343719D01*
X204839661Y-96343719D01*
X204842491Y-96342085D01*
X204922085Y-96262491D01*
X204978367Y-96165009D01*
X205007500Y-96056281D01*
X205007500Y-95943719D01*
X204978367Y-95834991D01*
X204922085Y-95737509D01*
X204842491Y-95657915D01*
X204793750Y-95629774D01*
X204745010Y-95601633D01*
X204735670Y-95599130D01*
X204636281Y-95572500D01*
X204523719Y-95572500D01*
X204414989Y-95601633D01*
X204317509Y-95657915D01*
X204317506Y-95657917D01*
X204237917Y-95737506D01*
X204237915Y-95737509D01*
X204181633Y-95834989D01*
X204153934Y-95938366D01*
X204152500Y-95943719D01*
X201337903Y-95943719D01*
X201313750Y-95929774D01*
X201265010Y-95901633D01*
X201192053Y-95882085D01*
X201156281Y-95872500D01*
X201043719Y-95872500D01*
X200934989Y-95901633D01*
X200837509Y-95957915D01*
X200837506Y-95957917D01*
X200757917Y-96037506D01*
X200757915Y-96037509D01*
X200701633Y-96134989D01*
X200674839Y-96234989D01*
X200672500Y-96243719D01*
X194529295Y-96243719D01*
X194528500Y-96240753D01*
X194528500Y-95738719D01*
X195277500Y-95738719D01*
X195277500Y-95851281D01*
X195285754Y-95882085D01*
X195306633Y-95960010D01*
X195330665Y-96001633D01*
X195362915Y-96057491D01*
X195442509Y-96137085D01*
X195539991Y-96193367D01*
X195648719Y-96222500D01*
X195648721Y-96222500D01*
X195761279Y-96222500D01*
X195761281Y-96222500D01*
X195870009Y-96193367D01*
X195967491Y-96137085D01*
X196047085Y-96057491D01*
X196103367Y-95960009D01*
X196132500Y-95851281D01*
X196132500Y-95738719D01*
X196103367Y-95629991D01*
X196047085Y-95532509D01*
X195998295Y-95483719D01*
X208912500Y-95483719D01*
X208912500Y-95596280D01*
X208941633Y-95705010D01*
X208960395Y-95737506D01*
X208997915Y-95802491D01*
X209077509Y-95882085D01*
X209174991Y-95938367D01*
X209283719Y-95967500D01*
X209283721Y-95967500D01*
X209396279Y-95967500D01*
X209396281Y-95967500D01*
X209505009Y-95938367D01*
X209602491Y-95882085D01*
X209682085Y-95802491D01*
X209738367Y-95705009D01*
X209767500Y-95596281D01*
X209767500Y-95483719D01*
X209738367Y-95374991D01*
X209682085Y-95277509D01*
X209602491Y-95197915D01*
X209553750Y-95169774D01*
X209505010Y-95141633D01*
X209450645Y-95127066D01*
X209396281Y-95112500D01*
X209283719Y-95112500D01*
X209174989Y-95141633D01*
X209077509Y-95197915D01*
X209077506Y-95197917D01*
X208997917Y-95277506D01*
X208997915Y-95277509D01*
X208941633Y-95374989D01*
X208912500Y-95483719D01*
X195998295Y-95483719D01*
X195967491Y-95452915D01*
X195918750Y-95424774D01*
X195870010Y-95396633D01*
X195815645Y-95382066D01*
X195761281Y-95367500D01*
X195648719Y-95367500D01*
X195539989Y-95396633D01*
X195442509Y-95452915D01*
X195442506Y-95452917D01*
X195362917Y-95532506D01*
X195362915Y-95532509D01*
X195306633Y-95629989D01*
X195299151Y-95657915D01*
X195277500Y-95738719D01*
X194528500Y-95738719D01*
X194528500Y-95379246D01*
X194545114Y-95317245D01*
X194598364Y-95225014D01*
X194598365Y-95225012D01*
X194598364Y-95225012D01*
X194598367Y-95225009D01*
X194627500Y-95116281D01*
X194627500Y-95003719D01*
X194598367Y-94894991D01*
X194581790Y-94866280D01*
X194547907Y-94807593D01*
X194547907Y-94807592D01*
X194545115Y-94802756D01*
X194531975Y-94753719D01*
X211742500Y-94753719D01*
X211742500Y-94866280D01*
X211771633Y-94975010D01*
X211788209Y-95003719D01*
X211827915Y-95072491D01*
X211907509Y-95152085D01*
X212004991Y-95208367D01*
X212113719Y-95237500D01*
X212113721Y-95237500D01*
X212226279Y-95237500D01*
X212226281Y-95237500D01*
X212335009Y-95208367D01*
X212432491Y-95152085D01*
X212512085Y-95072491D01*
X212568367Y-94975009D01*
X212597500Y-94866281D01*
X212597500Y-94753719D01*
X212568367Y-94644991D01*
X212512085Y-94547509D01*
X212432491Y-94467915D01*
X212383750Y-94439774D01*
X212335010Y-94411633D01*
X212280645Y-94397066D01*
X212226281Y-94382500D01*
X212113719Y-94382500D01*
X212004989Y-94411633D01*
X211907509Y-94467915D01*
X211907506Y-94467917D01*
X211827917Y-94547506D01*
X211827915Y-94547509D01*
X211771633Y-94644989D01*
X211742500Y-94753719D01*
X194531975Y-94753719D01*
X194528500Y-94740753D01*
X194528500Y-93879246D01*
X194534670Y-93856219D01*
X195320000Y-93856219D01*
X195320000Y-93968781D01*
X195323565Y-93982085D01*
X195349133Y-94077510D01*
X195377274Y-94126250D01*
X195405415Y-94174991D01*
X195485009Y-94254585D01*
X195582491Y-94310867D01*
X195691219Y-94340000D01*
X195691221Y-94340000D01*
X195803779Y-94340000D01*
X195803781Y-94340000D01*
X195912509Y-94310867D01*
X196009991Y-94254585D01*
X196089585Y-94174991D01*
X196145867Y-94077509D01*
X196175000Y-93968781D01*
X196175000Y-93856219D01*
X196145867Y-93747491D01*
X196089585Y-93650009D01*
X196023295Y-93583719D01*
X198432500Y-93583719D01*
X198432500Y-93696281D01*
X198440198Y-93725011D01*
X198461633Y-93805010D01*
X198471726Y-93822491D01*
X198517915Y-93902491D01*
X198597509Y-93982085D01*
X198694991Y-94038367D01*
X198803719Y-94067500D01*
X198803721Y-94067500D01*
X198916279Y-94067500D01*
X198916281Y-94067500D01*
X199025009Y-94038367D01*
X199122491Y-93982085D01*
X199202085Y-93902491D01*
X199258367Y-93805009D01*
X199287500Y-93696281D01*
X199287500Y-93583719D01*
X199258367Y-93474991D01*
X199202085Y-93377509D01*
X199138295Y-93313719D01*
X208992500Y-93313719D01*
X208992500Y-93426280D01*
X209021633Y-93535010D01*
X209022367Y-93536281D01*
X209077915Y-93632491D01*
X209157509Y-93712085D01*
X209254991Y-93768367D01*
X209363719Y-93797500D01*
X209363721Y-93797500D01*
X209476279Y-93797500D01*
X209476281Y-93797500D01*
X209585009Y-93768367D01*
X209682491Y-93712085D01*
X209762085Y-93632491D01*
X209818367Y-93535009D01*
X209847500Y-93426281D01*
X209847500Y-93313719D01*
X209818367Y-93204991D01*
X209762085Y-93107509D01*
X209682491Y-93027915D01*
X209633750Y-92999774D01*
X209585010Y-92971633D01*
X209530645Y-92957066D01*
X209476281Y-92942500D01*
X209363719Y-92942500D01*
X209254989Y-92971633D01*
X209157509Y-93027915D01*
X209157506Y-93027917D01*
X209077917Y-93107506D01*
X209077915Y-93107509D01*
X209021633Y-93204989D01*
X208992500Y-93313719D01*
X199138295Y-93313719D01*
X199122491Y-93297915D01*
X199073750Y-93269774D01*
X199025010Y-93241633D01*
X198934975Y-93217509D01*
X198916281Y-93212500D01*
X198803719Y-93212500D01*
X198694989Y-93241633D01*
X198597509Y-93297915D01*
X198597506Y-93297917D01*
X198517917Y-93377506D01*
X198517915Y-93377509D01*
X198461633Y-93474989D01*
X198436065Y-93570415D01*
X198432500Y-93583719D01*
X196023295Y-93583719D01*
X196009991Y-93570415D01*
X195948667Y-93535009D01*
X195912510Y-93514133D01*
X195858145Y-93499566D01*
X195803781Y-93485000D01*
X195691219Y-93485000D01*
X195582489Y-93514133D01*
X195485009Y-93570415D01*
X195485006Y-93570417D01*
X195405417Y-93650006D01*
X195405415Y-93650009D01*
X195349133Y-93747489D01*
X195335733Y-93797500D01*
X195320000Y-93856219D01*
X194534670Y-93856219D01*
X194545112Y-93817247D01*
X194598367Y-93725009D01*
X194627500Y-93616281D01*
X194627500Y-93503719D01*
X194598367Y-93394991D01*
X194545112Y-93302753D01*
X194528500Y-93240753D01*
X194528500Y-92379246D01*
X194545114Y-92317245D01*
X194598364Y-92225014D01*
X194598365Y-92225012D01*
X194598364Y-92225012D01*
X194598367Y-92225009D01*
X194627500Y-92116281D01*
X194627500Y-92008719D01*
X195422500Y-92008719D01*
X195422500Y-92121281D01*
X195426848Y-92137509D01*
X195451633Y-92230010D01*
X195476795Y-92273590D01*
X195507915Y-92327491D01*
X195587509Y-92407085D01*
X195684991Y-92463367D01*
X195793719Y-92492500D01*
X195793721Y-92492500D01*
X195906279Y-92492500D01*
X195906281Y-92492500D01*
X196015009Y-92463367D01*
X196112491Y-92407085D01*
X196175857Y-92343719D01*
X197572500Y-92343719D01*
X197572500Y-92456281D01*
X197574399Y-92463367D01*
X197601633Y-92565010D01*
X197629774Y-92613750D01*
X197657915Y-92662491D01*
X197737509Y-92742085D01*
X197834991Y-92798367D01*
X197943719Y-92827500D01*
X197943721Y-92827500D01*
X198056279Y-92827500D01*
X198056281Y-92827500D01*
X198165009Y-92798367D01*
X198259661Y-92743719D01*
X201672500Y-92743719D01*
X201672500Y-92856280D01*
X201701633Y-92965010D01*
X201705457Y-92971633D01*
X201757915Y-93062491D01*
X201837509Y-93142085D01*
X201934991Y-93198367D01*
X202043719Y-93227500D01*
X202043721Y-93227500D01*
X202156279Y-93227500D01*
X202156281Y-93227500D01*
X202265009Y-93198367D01*
X202362491Y-93142085D01*
X202442085Y-93062491D01*
X202498367Y-92965009D01*
X202527500Y-92856281D01*
X202527500Y-92743719D01*
X206122500Y-92743719D01*
X206122500Y-92856280D01*
X206151633Y-92965010D01*
X206155457Y-92971633D01*
X206207915Y-93062491D01*
X206287509Y-93142085D01*
X206384991Y-93198367D01*
X206493719Y-93227500D01*
X206493721Y-93227500D01*
X206606279Y-93227500D01*
X206606281Y-93227500D01*
X206715009Y-93198367D01*
X206812491Y-93142085D01*
X206892085Y-93062491D01*
X206948367Y-92965009D01*
X206977500Y-92856281D01*
X206977500Y-92743719D01*
X206948367Y-92634991D01*
X206892085Y-92537509D01*
X206812491Y-92457915D01*
X206763750Y-92429774D01*
X206715010Y-92401633D01*
X206660645Y-92387066D01*
X206606281Y-92372500D01*
X206493719Y-92372500D01*
X206384989Y-92401633D01*
X206287509Y-92457915D01*
X206287506Y-92457917D01*
X206207917Y-92537506D01*
X206207915Y-92537509D01*
X206151633Y-92634989D01*
X206122500Y-92743719D01*
X202527500Y-92743719D01*
X202498367Y-92634991D01*
X202442085Y-92537509D01*
X202362491Y-92457915D01*
X202313750Y-92429774D01*
X202265010Y-92401633D01*
X202210645Y-92387066D01*
X202156281Y-92372500D01*
X202043719Y-92372500D01*
X201934989Y-92401633D01*
X201837509Y-92457915D01*
X201837506Y-92457917D01*
X201757917Y-92537506D01*
X201757915Y-92537509D01*
X201701633Y-92634989D01*
X201672500Y-92743719D01*
X198259661Y-92743719D01*
X198262491Y-92742085D01*
X198342085Y-92662491D01*
X198398367Y-92565009D01*
X198427500Y-92456281D01*
X198427500Y-92343719D01*
X198398367Y-92234991D01*
X198342085Y-92137509D01*
X198262491Y-92057915D01*
X198213750Y-92029774D01*
X198165010Y-92001633D01*
X198107710Y-91986280D01*
X198056281Y-91972500D01*
X197943719Y-91972500D01*
X197834989Y-92001633D01*
X197737509Y-92057915D01*
X197737506Y-92057917D01*
X197657917Y-92137506D01*
X197657915Y-92137509D01*
X197601633Y-92234989D01*
X197578188Y-92322491D01*
X197572500Y-92343719D01*
X196175857Y-92343719D01*
X196192085Y-92327491D01*
X196248367Y-92230009D01*
X196277500Y-92121281D01*
X196277500Y-92008719D01*
X196248367Y-91899991D01*
X196192085Y-91802509D01*
X196112491Y-91722915D01*
X196063750Y-91694774D01*
X196015010Y-91666633D01*
X195963845Y-91652924D01*
X195906281Y-91637500D01*
X195793719Y-91637500D01*
X195684989Y-91666633D01*
X195587509Y-91722915D01*
X195587506Y-91722917D01*
X195507917Y-91802506D01*
X195507915Y-91802509D01*
X195451633Y-91899989D01*
X195428512Y-91986280D01*
X195422500Y-92008719D01*
X194627500Y-92008719D01*
X194627500Y-92003719D01*
X194598367Y-91894991D01*
X194586085Y-91873719D01*
X194545113Y-91802754D01*
X194528500Y-91740753D01*
X194528500Y-91533719D01*
X198432500Y-91533719D01*
X198432500Y-91646280D01*
X198461633Y-91755010D01*
X198462367Y-91756281D01*
X198517915Y-91852491D01*
X198597509Y-91932085D01*
X198694991Y-91988367D01*
X198803719Y-92017500D01*
X198803721Y-92017500D01*
X198916279Y-92017500D01*
X198916281Y-92017500D01*
X199025009Y-91988367D01*
X199122491Y-91932085D01*
X199202085Y-91852491D01*
X199258367Y-91755009D01*
X199287500Y-91646281D01*
X199287500Y-91643719D01*
X203372500Y-91643719D01*
X203372500Y-91756281D01*
X203374833Y-91764989D01*
X203401633Y-91865010D01*
X203418942Y-91894989D01*
X203457915Y-91962491D01*
X203537509Y-92042085D01*
X203621928Y-92090825D01*
X203629183Y-92095014D01*
X203634991Y-92098367D01*
X203743719Y-92127500D01*
X203743721Y-92127500D01*
X203856279Y-92127500D01*
X203856281Y-92127500D01*
X203965009Y-92098367D01*
X204062491Y-92042085D01*
X204142085Y-91962491D01*
X204198367Y-91865009D01*
X204227500Y-91756281D01*
X204227500Y-91643719D01*
X204472500Y-91643719D01*
X204472500Y-91756281D01*
X204474834Y-91764991D01*
X204501633Y-91865010D01*
X204518942Y-91894989D01*
X204557915Y-91962491D01*
X204637509Y-92042085D01*
X204721928Y-92090825D01*
X204729183Y-92095014D01*
X204734991Y-92098367D01*
X204843719Y-92127500D01*
X204843721Y-92127500D01*
X204956279Y-92127500D01*
X204956281Y-92127500D01*
X205065009Y-92098367D01*
X205162491Y-92042085D01*
X205242085Y-91962491D01*
X205298367Y-91865009D01*
X205327500Y-91756281D01*
X205327500Y-91643719D01*
X205298367Y-91534991D01*
X205242085Y-91437509D01*
X205162491Y-91357915D01*
X205109822Y-91327506D01*
X205065010Y-91301633D01*
X205010645Y-91287066D01*
X204956281Y-91272500D01*
X204843719Y-91272500D01*
X204734989Y-91301633D01*
X204637509Y-91357915D01*
X204637506Y-91357917D01*
X204557917Y-91437506D01*
X204557915Y-91437509D01*
X204501633Y-91534989D01*
X204484295Y-91599697D01*
X204472500Y-91643719D01*
X204227500Y-91643719D01*
X204198367Y-91534991D01*
X204142085Y-91437509D01*
X204062491Y-91357915D01*
X204009822Y-91327506D01*
X203965010Y-91301633D01*
X203910645Y-91287066D01*
X203856281Y-91272500D01*
X203743719Y-91272500D01*
X203634989Y-91301633D01*
X203537509Y-91357915D01*
X203537506Y-91357917D01*
X203457917Y-91437506D01*
X203457915Y-91437509D01*
X203401633Y-91534989D01*
X203381797Y-91609021D01*
X203372500Y-91643719D01*
X199287500Y-91643719D01*
X199287500Y-91533719D01*
X199258367Y-91424991D01*
X199202085Y-91327509D01*
X199122491Y-91247915D01*
X199073750Y-91219774D01*
X199025010Y-91191633D01*
X198970645Y-91177066D01*
X198916281Y-91162500D01*
X198803719Y-91162500D01*
X198694989Y-91191633D01*
X198597509Y-91247915D01*
X198597506Y-91247917D01*
X198517917Y-91327506D01*
X198517915Y-91327509D01*
X198461633Y-91424989D01*
X198432500Y-91533719D01*
X194528500Y-91533719D01*
X194528500Y-90879246D01*
X194545114Y-90817245D01*
X194598364Y-90725014D01*
X194598365Y-90725012D01*
X194598364Y-90725012D01*
X194598367Y-90725009D01*
X194627500Y-90616281D01*
X194627500Y-90503719D01*
X194598367Y-90394991D01*
X194598365Y-90394987D01*
X194591210Y-90382594D01*
X194591209Y-90382593D01*
X194560105Y-90328719D01*
X197022500Y-90328719D01*
X197022500Y-90441280D01*
X197051633Y-90550010D01*
X197079774Y-90598750D01*
X197107915Y-90647491D01*
X197187509Y-90727085D01*
X197254490Y-90765757D01*
X197278232Y-90779465D01*
X197284991Y-90783367D01*
X197393719Y-90812500D01*
X197393721Y-90812500D01*
X197506279Y-90812500D01*
X197506281Y-90812500D01*
X197615009Y-90783367D01*
X197712491Y-90727085D01*
X197792085Y-90647491D01*
X197848367Y-90550009D01*
X197877500Y-90441281D01*
X197877500Y-90381100D01*
X210551871Y-90381100D01*
X210551871Y-90493661D01*
X210581004Y-90602391D01*
X210589024Y-90616281D01*
X210637286Y-90699872D01*
X210716880Y-90779466D01*
X210814362Y-90835748D01*
X210923090Y-90864881D01*
X210923092Y-90864881D01*
X211035650Y-90864881D01*
X211035652Y-90864881D01*
X211144380Y-90835748D01*
X211241862Y-90779466D01*
X211321456Y-90699872D01*
X211377738Y-90602390D01*
X211406871Y-90493662D01*
X211406871Y-90381100D01*
X211377738Y-90272372D01*
X211321456Y-90174890D01*
X211241862Y-90095296D01*
X211193121Y-90067155D01*
X211144381Y-90039014D01*
X211090016Y-90024447D01*
X211035652Y-90009881D01*
X210923090Y-90009881D01*
X210814360Y-90039014D01*
X210716880Y-90095296D01*
X210716877Y-90095298D01*
X210637288Y-90174887D01*
X210637286Y-90174890D01*
X210581004Y-90272370D01*
X210551871Y-90381100D01*
X197877500Y-90381100D01*
X197877500Y-90328719D01*
X197848367Y-90219991D01*
X197792085Y-90122509D01*
X197712491Y-90042915D01*
X197655275Y-90009881D01*
X197615010Y-89986633D01*
X197560645Y-89972066D01*
X197506281Y-89957500D01*
X197393719Y-89957500D01*
X197284989Y-89986633D01*
X197187509Y-90042915D01*
X197187506Y-90042917D01*
X197107917Y-90122506D01*
X197107915Y-90122509D01*
X197051633Y-90219989D01*
X197022500Y-90328719D01*
X194560105Y-90328719D01*
X194546405Y-90304991D01*
X194545112Y-90302753D01*
X194528500Y-90240753D01*
X194528500Y-89636072D01*
X194548185Y-89569033D01*
X194600989Y-89523278D01*
X194654565Y-89512089D01*
X194666585Y-89512290D01*
X194682915Y-89509324D01*
X194705073Y-89507328D01*
X194746279Y-89507328D01*
X194746281Y-89507328D01*
X194855009Y-89478195D01*
X194952491Y-89421913D01*
X195032085Y-89342319D01*
X195088367Y-89244837D01*
X195117500Y-89136109D01*
X195117500Y-89023547D01*
X195088367Y-88914819D01*
X195032085Y-88817337D01*
X194952491Y-88737743D01*
X194903750Y-88709602D01*
X194855010Y-88681461D01*
X194793608Y-88665009D01*
X194746281Y-88652328D01*
X194746280Y-88652328D01*
X194715085Y-88652328D01*
X194705548Y-88651961D01*
X194698165Y-88651391D01*
X194678599Y-88647500D01*
X194647720Y-88647500D01*
X194642963Y-88647133D01*
X194614579Y-88636365D01*
X194585461Y-88627815D01*
X194582238Y-88624096D01*
X194577636Y-88622350D01*
X194559580Y-88597947D01*
X194539706Y-88575011D01*
X194538496Y-88569451D01*
X194536078Y-88566183D01*
X194535335Y-88554922D01*
X194528500Y-88523500D01*
X194528500Y-88268719D01*
X195422500Y-88268719D01*
X195422500Y-88381280D01*
X195451633Y-88490010D01*
X195458293Y-88501545D01*
X195507915Y-88587491D01*
X195587509Y-88667085D01*
X195684991Y-88723367D01*
X195793719Y-88752500D01*
X195793721Y-88752500D01*
X195906279Y-88752500D01*
X195906281Y-88752500D01*
X196015009Y-88723367D01*
X196112491Y-88667085D01*
X196192085Y-88587491D01*
X196248367Y-88490009D01*
X196260770Y-88443719D01*
X209972500Y-88443719D01*
X209972500Y-88556280D01*
X210001633Y-88665010D01*
X210029774Y-88713750D01*
X210057915Y-88762491D01*
X210137509Y-88842085D01*
X210234991Y-88898367D01*
X210343719Y-88927500D01*
X210343721Y-88927500D01*
X210456279Y-88927500D01*
X210456281Y-88927500D01*
X210565009Y-88898367D01*
X210662491Y-88842085D01*
X210742085Y-88762491D01*
X210798367Y-88665009D01*
X210827500Y-88556281D01*
X210827500Y-88501540D01*
X212044200Y-88501540D01*
X212044200Y-88648459D01*
X212072858Y-88792534D01*
X212072861Y-88792544D01*
X212129078Y-88928266D01*
X212129083Y-88928275D01*
X212210698Y-89050419D01*
X212210701Y-89050423D01*
X212314576Y-89154298D01*
X212314580Y-89154301D01*
X212436724Y-89235916D01*
X212436733Y-89235921D01*
X212458261Y-89244838D01*
X212572458Y-89292140D01*
X212716540Y-89320799D01*
X212716544Y-89320800D01*
X212716545Y-89320800D01*
X212863456Y-89320800D01*
X212863457Y-89320799D01*
X213007542Y-89292140D01*
X213143269Y-89235920D01*
X213265420Y-89154301D01*
X213369301Y-89050420D01*
X213450920Y-88928269D01*
X213507140Y-88792542D01*
X213535800Y-88648455D01*
X213535800Y-88501545D01*
X213507140Y-88357458D01*
X213461304Y-88246800D01*
X213450921Y-88221733D01*
X213450916Y-88221724D01*
X213369301Y-88099580D01*
X213369298Y-88099576D01*
X213265423Y-87995701D01*
X213265419Y-87995698D01*
X213143275Y-87914083D01*
X213143266Y-87914078D01*
X213007544Y-87857861D01*
X213007545Y-87857861D01*
X213007542Y-87857860D01*
X213007538Y-87857859D01*
X213007534Y-87857858D01*
X212863459Y-87829200D01*
X212863455Y-87829200D01*
X212716545Y-87829200D01*
X212716540Y-87829200D01*
X212572465Y-87857858D01*
X212572455Y-87857861D01*
X212436733Y-87914078D01*
X212436724Y-87914083D01*
X212314580Y-87995698D01*
X212314576Y-87995701D01*
X212210701Y-88099576D01*
X212210698Y-88099580D01*
X212129083Y-88221724D01*
X212129078Y-88221733D01*
X212072861Y-88357455D01*
X212072858Y-88357465D01*
X212044200Y-88501540D01*
X210827500Y-88501540D01*
X210827500Y-88443719D01*
X210798367Y-88334991D01*
X210742085Y-88237509D01*
X210662491Y-88157915D01*
X210613750Y-88129774D01*
X210565010Y-88101633D01*
X210510645Y-88087066D01*
X210456281Y-88072500D01*
X210343719Y-88072500D01*
X210234989Y-88101633D01*
X210137509Y-88157915D01*
X210137506Y-88157917D01*
X210057917Y-88237506D01*
X210057915Y-88237509D01*
X210001633Y-88334989D01*
X209972500Y-88443719D01*
X196260770Y-88443719D01*
X196277500Y-88381281D01*
X196277500Y-88268719D01*
X196248367Y-88159991D01*
X196247168Y-88157915D01*
X196240825Y-88146928D01*
X196192085Y-88062509D01*
X196112491Y-87982915D01*
X196063750Y-87954774D01*
X196015010Y-87926633D01*
X195960645Y-87912066D01*
X195906281Y-87897500D01*
X195793719Y-87897500D01*
X195684989Y-87926633D01*
X195587509Y-87982915D01*
X195587506Y-87982917D01*
X195507917Y-88062506D01*
X195507915Y-88062509D01*
X195451633Y-88159989D01*
X195422500Y-88268719D01*
X194528500Y-88268719D01*
X194528500Y-87879246D01*
X194545114Y-87817245D01*
X194598364Y-87725014D01*
X194598365Y-87725012D01*
X194598364Y-87725012D01*
X194598367Y-87725009D01*
X194627500Y-87616281D01*
X194627500Y-87503719D01*
X194598367Y-87394991D01*
X194545112Y-87302753D01*
X194540962Y-87287264D01*
X194533523Y-87275688D01*
X194528500Y-87240753D01*
X194528500Y-87213719D01*
X197922500Y-87213719D01*
X197922500Y-87326280D01*
X197951633Y-87435010D01*
X197955718Y-87442085D01*
X198007915Y-87532491D01*
X198087509Y-87612085D01*
X198184991Y-87668367D01*
X198293719Y-87697500D01*
X198293721Y-87697500D01*
X198406279Y-87697500D01*
X198406281Y-87697500D01*
X198515009Y-87668367D01*
X198612491Y-87612085D01*
X198692085Y-87532491D01*
X198748367Y-87435009D01*
X198777500Y-87326281D01*
X198777500Y-87213719D01*
X198748367Y-87104991D01*
X198748366Y-87104989D01*
X198748366Y-87104988D01*
X198744095Y-87097591D01*
X198744094Y-87097588D01*
X198712992Y-87043719D01*
X202547500Y-87043719D01*
X202547500Y-87156280D01*
X202576633Y-87265010D01*
X202589482Y-87287264D01*
X202632915Y-87362491D01*
X202712509Y-87442085D01*
X202809991Y-87498367D01*
X202918719Y-87527500D01*
X202918721Y-87527500D01*
X203031279Y-87527500D01*
X203031281Y-87527500D01*
X203140009Y-87498367D01*
X203237491Y-87442085D01*
X203317085Y-87362491D01*
X203330113Y-87339925D01*
X203380680Y-87291710D01*
X203449287Y-87278488D01*
X203514152Y-87304456D01*
X203544886Y-87339925D01*
X203557915Y-87362491D01*
X203637509Y-87442085D01*
X203734991Y-87498367D01*
X203843719Y-87527500D01*
X203843721Y-87527500D01*
X203956279Y-87527500D01*
X203956281Y-87527500D01*
X204065009Y-87498367D01*
X204162491Y-87442085D01*
X204242085Y-87362491D01*
X204242613Y-87361575D01*
X204243259Y-87360959D01*
X204247033Y-87356042D01*
X204247799Y-87356630D01*
X204293177Y-87313362D01*
X204361784Y-87300137D01*
X204426649Y-87326104D01*
X204452741Y-87356214D01*
X204452967Y-87356042D01*
X204455869Y-87359824D01*
X204457385Y-87361574D01*
X204457915Y-87362491D01*
X204537509Y-87442085D01*
X204634991Y-87498367D01*
X204743719Y-87527500D01*
X204743721Y-87527500D01*
X204856279Y-87527500D01*
X204856281Y-87527500D01*
X204965009Y-87498367D01*
X205062491Y-87442085D01*
X205142085Y-87362491D01*
X205167614Y-87318274D01*
X205218181Y-87270060D01*
X205286788Y-87256838D01*
X205351652Y-87282806D01*
X205382385Y-87318273D01*
X205407915Y-87362491D01*
X205487509Y-87442085D01*
X205584991Y-87498367D01*
X205693719Y-87527500D01*
X205693721Y-87527500D01*
X205806279Y-87527500D01*
X205806281Y-87527500D01*
X205915009Y-87498367D01*
X206012491Y-87442085D01*
X206092085Y-87362491D01*
X206148367Y-87265009D01*
X206177500Y-87156281D01*
X206177500Y-87043719D01*
X206148367Y-86934991D01*
X206092085Y-86837509D01*
X206012491Y-86757915D01*
X205963750Y-86729774D01*
X205915010Y-86701633D01*
X205860645Y-86687066D01*
X205806281Y-86672500D01*
X205693719Y-86672500D01*
X205584989Y-86701633D01*
X205487509Y-86757915D01*
X205487506Y-86757917D01*
X205407917Y-86837506D01*
X205407913Y-86837512D01*
X205382386Y-86881725D01*
X205331818Y-86929939D01*
X205263211Y-86943161D01*
X205198347Y-86917192D01*
X205167614Y-86881725D01*
X205145808Y-86843958D01*
X205142085Y-86837509D01*
X205062491Y-86757915D01*
X205013750Y-86729774D01*
X204965010Y-86701633D01*
X204910645Y-86687066D01*
X204856281Y-86672500D01*
X204743719Y-86672500D01*
X204634989Y-86701633D01*
X204537509Y-86757915D01*
X204537506Y-86757917D01*
X204457917Y-86837506D01*
X204457910Y-86837515D01*
X204457385Y-86838426D01*
X204456740Y-86839040D01*
X204452967Y-86843958D01*
X204452200Y-86843369D01*
X204406817Y-86886640D01*
X204338209Y-86899861D01*
X204273345Y-86873891D01*
X204247258Y-86843784D01*
X204247033Y-86843958D01*
X204244127Y-86840171D01*
X204242615Y-86838426D01*
X204242089Y-86837515D01*
X204242086Y-86837512D01*
X204242085Y-86837509D01*
X204162491Y-86757915D01*
X204113750Y-86729774D01*
X204065010Y-86701633D01*
X204010645Y-86687066D01*
X203956281Y-86672500D01*
X203843719Y-86672500D01*
X203734989Y-86701633D01*
X203637509Y-86757915D01*
X203637506Y-86757917D01*
X203557917Y-86837506D01*
X203557913Y-86837512D01*
X203544886Y-86860075D01*
X203494318Y-86908290D01*
X203425711Y-86921511D01*
X203360847Y-86895542D01*
X203330114Y-86860075D01*
X203320808Y-86843958D01*
X203317085Y-86837509D01*
X203237491Y-86757915D01*
X203188750Y-86729774D01*
X203140010Y-86701633D01*
X203085645Y-86687066D01*
X203031281Y-86672500D01*
X202918719Y-86672500D01*
X202809989Y-86701633D01*
X202712509Y-86757915D01*
X202712506Y-86757917D01*
X202632917Y-86837506D01*
X202632915Y-86837509D01*
X202576633Y-86934989D01*
X202547500Y-87043719D01*
X198712992Y-87043719D01*
X198692089Y-87007515D01*
X198692086Y-87007512D01*
X198692085Y-87007509D01*
X198612491Y-86927915D01*
X198532489Y-86881725D01*
X198515010Y-86871633D01*
X198411722Y-86843958D01*
X198406281Y-86842500D01*
X198293719Y-86842500D01*
X198184989Y-86871633D01*
X198087509Y-86927915D01*
X198087506Y-86927917D01*
X198007917Y-87007506D01*
X198007915Y-87007509D01*
X197951633Y-87104989D01*
X197922500Y-87213719D01*
X194528500Y-87213719D01*
X194528500Y-86379246D01*
X194545114Y-86317245D01*
X194598364Y-86225014D01*
X194598365Y-86225012D01*
X194598364Y-86225012D01*
X194598367Y-86225009D01*
X194627500Y-86116281D01*
X194627500Y-86003719D01*
X194598367Y-85894991D01*
X194545113Y-85802753D01*
X194534710Y-85763928D01*
X198822515Y-85763928D01*
X198822515Y-85876490D01*
X198827472Y-85894989D01*
X198851648Y-85985219D01*
X198879789Y-86033959D01*
X198907930Y-86082700D01*
X198987524Y-86162294D01*
X199085006Y-86218576D01*
X199193734Y-86247709D01*
X199193736Y-86247709D01*
X199306294Y-86247709D01*
X199306296Y-86247709D01*
X199415024Y-86218576D01*
X199512506Y-86162294D01*
X199592100Y-86082700D01*
X199648382Y-85985218D01*
X199677515Y-85876490D01*
X199677515Y-85763928D01*
X199648382Y-85655200D01*
X199592100Y-85557718D01*
X199512506Y-85478124D01*
X199463765Y-85449983D01*
X199415025Y-85421842D01*
X199360660Y-85407275D01*
X199306296Y-85392709D01*
X199193734Y-85392709D01*
X199085004Y-85421842D01*
X198987524Y-85478124D01*
X198987521Y-85478126D01*
X198907932Y-85557715D01*
X198907930Y-85557718D01*
X198851648Y-85655198D01*
X198828136Y-85742949D01*
X198822515Y-85763928D01*
X194534710Y-85763928D01*
X194528500Y-85740753D01*
X194528500Y-84968719D01*
X210022500Y-84968719D01*
X210022500Y-85081280D01*
X210051633Y-85190010D01*
X210079774Y-85238750D01*
X210107915Y-85287491D01*
X210187509Y-85367085D01*
X210271928Y-85415825D01*
X210282349Y-85421842D01*
X210284991Y-85423367D01*
X210393719Y-85452500D01*
X210393721Y-85452500D01*
X210506279Y-85452500D01*
X210506281Y-85452500D01*
X210615009Y-85423367D01*
X210712491Y-85367085D01*
X210792085Y-85287491D01*
X210848367Y-85190009D01*
X210877500Y-85081281D01*
X210877500Y-84968719D01*
X210848367Y-84859991D01*
X210792085Y-84762509D01*
X210712491Y-84682915D01*
X210663750Y-84654774D01*
X210615010Y-84626633D01*
X210560645Y-84612066D01*
X210506281Y-84597500D01*
X210393719Y-84597500D01*
X210284989Y-84626633D01*
X210187509Y-84682915D01*
X210187506Y-84682917D01*
X210107917Y-84762506D01*
X210107915Y-84762509D01*
X210051633Y-84859989D01*
X210022500Y-84968719D01*
X194528500Y-84968719D01*
X194528500Y-84879246D01*
X194545114Y-84817245D01*
X194598364Y-84725014D01*
X194598365Y-84725012D01*
X194598364Y-84725012D01*
X194598367Y-84725009D01*
X194627500Y-84616281D01*
X194627500Y-84503719D01*
X194598367Y-84394991D01*
X194545112Y-84302753D01*
X194528500Y-84240753D01*
X194528500Y-84183719D01*
X198822500Y-84183719D01*
X198822500Y-84296281D01*
X198837066Y-84350645D01*
X198851633Y-84405010D01*
X198879774Y-84453750D01*
X198907915Y-84502491D01*
X198987509Y-84582085D01*
X199084991Y-84638367D01*
X199193719Y-84667500D01*
X199193721Y-84667500D01*
X199306279Y-84667500D01*
X199306281Y-84667500D01*
X199415009Y-84638367D01*
X199512491Y-84582085D01*
X199592085Y-84502491D01*
X199648367Y-84405009D01*
X199677500Y-84296281D01*
X199677500Y-84183719D01*
X199648367Y-84074991D01*
X199592085Y-83977509D01*
X199512491Y-83897915D01*
X199463750Y-83869774D01*
X199415010Y-83841633D01*
X199316198Y-83815157D01*
X199316197Y-83815156D01*
X199306281Y-83812500D01*
X199193719Y-83812500D01*
X199183803Y-83815157D01*
X199084989Y-83841633D01*
X198987509Y-83897915D01*
X198987506Y-83897917D01*
X198907917Y-83977506D01*
X198907915Y-83977509D01*
X198851633Y-84074989D01*
X198829948Y-84155921D01*
X198822500Y-84183719D01*
X194528500Y-84183719D01*
X194528500Y-83238130D01*
X194548185Y-83171091D01*
X194600989Y-83125336D01*
X194620398Y-83118358D01*
X194695009Y-83098367D01*
X194792491Y-83042085D01*
X194872085Y-82962491D01*
X194928367Y-82865009D01*
X194957500Y-82756281D01*
X194957500Y-82735381D01*
X194959858Y-82711313D01*
X194962539Y-82697762D01*
X194962539Y-82552500D01*
X194982224Y-82485461D01*
X195035028Y-82439706D01*
X195086539Y-82428500D01*
X195380753Y-82428500D01*
X195396243Y-82432650D01*
G37*
%TD.AperFunction*%
%TD*%
%TA.AperFunction,Conductor*%
%TO.N,GND*%
G36*
X197424093Y-81903368D02*
G01*
X197427461Y-81911500D01*
X197427461Y-81911539D01*
X197425039Y-82628539D01*
X197421643Y-82636659D01*
X197413539Y-82640000D01*
X196836539Y-82640000D01*
X196828407Y-82636632D01*
X196825039Y-82628500D01*
X196825039Y-82628461D01*
X196827461Y-81911461D01*
X196830857Y-81903341D01*
X196838961Y-81900000D01*
X197415961Y-81900000D01*
X197424093Y-81903368D01*
G37*
%TD.AperFunction*%
%TD*%
%TA.AperFunction,Conductor*%
%TO.N,GND*%
G36*
X214875000Y-85611752D02*
G01*
X214874789Y-85611754D01*
X214867027Y-85615000D01*
X214375000Y-85615000D01*
X214375000Y-85015000D01*
X214875000Y-85015000D01*
X214875000Y-85611752D01*
G37*
%TD.AperFunction*%
%TD*%
M02*
