%TF.GenerationSoftware,KiCad,Pcbnew,9.0.7*%
%TF.CreationDate,2026-02-14T08:25:32+00:00*%
%TF.ProjectId,azss,617a7373-2e6b-4696-9361-645f70636258,rev?*%
%TF.SameCoordinates,Original*%
%TF.FileFunction,Paste,Top*%
%TF.FilePolarity,Positive*%
%FSLAX46Y46*%
G04 Gerber Fmt 4.6, Leading zero omitted, Abs format (unit mm)*
G04 Created by KiCad (PCBNEW 9.0.7) date 2026-02-14 08:25:32*
%MOMM*%
%LPD*%
G01*
G04 APERTURE LIST*
G04 Aperture macros list*
%AMRoundRect*
0 Rectangle with rounded corners*
0 $1 Rounding radius*
0 $2 $3 $4 $5 $6 $7 $8 $9 X,Y pos of 4 corners*
0 Add a 4 corners polygon primitive as box body*
4,1,4,$2,$3,$4,$5,$6,$7,$8,$9,$2,$3,0*
0 Add four circle primitives for the rounded corners*
1,1,$1+$1,$2,$3*
1,1,$1+$1,$4,$5*
1,1,$1+$1,$6,$7*
1,1,$1+$1,$8,$9*
0 Add four rect primitives between the rounded corners*
20,1,$1+$1,$2,$3,$4,$5,0*
20,1,$1+$1,$4,$5,$6,$7,0*
20,1,$1+$1,$6,$7,$8,$9,0*
20,1,$1+$1,$8,$9,$2,$3,0*%
%AMFreePoly0*
4,1,6,0.450000,-0.800000,-0.450000,-0.800000,-0.450000,0.530000,-0.180000,0.800000,0.450000,0.800000,0.450000,-0.800000,0.450000,-0.800000,$1*%
G04 Aperture macros list end*
%ADD10RoundRect,0.225000X0.225000X0.250000X-0.225000X0.250000X-0.225000X-0.250000X0.225000X-0.250000X0*%
%ADD11RoundRect,0.225000X0.250000X-0.225000X0.250000X0.225000X-0.250000X0.225000X-0.250000X-0.225000X0*%
%ADD12RoundRect,0.225000X-0.225000X-0.250000X0.225000X-0.250000X0.225000X0.250000X-0.225000X0.250000X0*%
%ADD13RoundRect,0.225000X-0.250000X0.225000X-0.250000X-0.225000X0.250000X-0.225000X0.250000X0.225000X0*%
%ADD14RoundRect,0.218750X0.218750X0.256250X-0.218750X0.256250X-0.218750X-0.256250X0.218750X-0.256250X0*%
%ADD15RoundRect,0.218750X-0.256250X0.218750X-0.256250X-0.218750X0.256250X-0.218750X0.256250X0.218750X0*%
%ADD16RoundRect,0.135000X-0.185000X0.135000X-0.185000X-0.135000X0.185000X-0.135000X0.185000X0.135000X0*%
%ADD17RoundRect,0.135000X0.135000X0.185000X-0.135000X0.185000X-0.135000X-0.185000X0.135000X-0.185000X0*%
%ADD18RoundRect,0.135000X-0.135000X-0.185000X0.135000X-0.185000X0.135000X0.185000X-0.135000X0.185000X0*%
%ADD19RoundRect,0.135000X0.185000X-0.135000X0.185000X0.135000X-0.185000X0.135000X-0.185000X-0.135000X0*%
%ADD20RoundRect,0.130000X0.305000X-0.130000X0.305000X0.130000X-0.305000X0.130000X-0.305000X-0.130000X0*%
%ADD21RoundRect,0.062500X0.062500X-0.350000X0.062500X0.350000X-0.062500X0.350000X-0.062500X-0.350000X0*%
%ADD22R,1.000000X1.800000*%
%ADD23RoundRect,0.140000X-0.140000X-0.170000X0.140000X-0.170000X0.140000X0.170000X-0.140000X0.170000X0*%
%ADD24RoundRect,0.082500X0.792500X-0.192500X0.792500X0.192500X-0.792500X0.192500X-0.792500X-0.192500X0*%
%ADD25RoundRect,0.200000X0.200000X0.275000X-0.200000X0.275000X-0.200000X-0.275000X0.200000X-0.275000X0*%
%ADD26RoundRect,0.100000X0.250000X-0.100000X0.250000X0.100000X-0.250000X0.100000X-0.250000X-0.100000X0*%
%ADD27RoundRect,0.150000X0.150000X-0.587500X0.150000X0.587500X-0.150000X0.587500X-0.150000X-0.587500X0*%
%ADD28RoundRect,0.140000X-0.170000X0.140000X-0.170000X-0.140000X0.170000X-0.140000X0.170000X0.140000X0*%
%ADD29RoundRect,0.090000X-0.210000X-0.210000X0.210000X-0.210000X0.210000X0.210000X-0.210000X0.210000X0*%
%ADD30RoundRect,0.218750X0.218750X0.381250X-0.218750X0.381250X-0.218750X-0.381250X0.218750X-0.381250X0*%
%ADD31RoundRect,0.200000X-0.275000X0.200000X-0.275000X-0.200000X0.275000X-0.200000X0.275000X0.200000X0*%
%ADD32RoundRect,0.140000X0.170000X-0.140000X0.170000X0.140000X-0.170000X0.140000X-0.170000X-0.140000X0*%
%ADD33RoundRect,0.200000X0.275000X-0.200000X0.275000X0.200000X-0.275000X0.200000X-0.275000X-0.200000X0*%
%ADD34RoundRect,0.045000X0.205000X0.105000X-0.205000X0.105000X-0.205000X-0.105000X0.205000X-0.105000X0*%
%ADD35RoundRect,0.075000X0.175000X0.175000X-0.175000X0.175000X-0.175000X-0.175000X0.175000X-0.175000X0*%
%ADD36RoundRect,0.200000X-0.200000X-0.275000X0.200000X-0.275000X0.200000X0.275000X-0.200000X0.275000X0*%
%ADD37FreePoly0,0.000000*%
%ADD38R,0.550000X0.250000*%
G04 APERTURE END LIST*
D10*
%TO.C,C11*%
X213040000Y-98450000D03*
X211490000Y-98450000D03*
%TD*%
D11*
%TO.C,C5*%
X197550000Y-94825000D03*
X197550000Y-93275000D03*
%TD*%
D12*
%TO.C,C9*%
X208725000Y-101600000D03*
X210275000Y-101600000D03*
%TD*%
D11*
%TO.C,C10*%
X210000000Y-100000000D03*
X210000000Y-98450000D03*
%TD*%
D13*
%TO.C,C4*%
X207840000Y-103430000D03*
X207840000Y-104980000D03*
%TD*%
%TO.C,C3*%
X203300000Y-105950000D03*
X203300000Y-107500000D03*
%TD*%
%TO.C,C6*%
X197500000Y-96350000D03*
X197500000Y-97900000D03*
%TD*%
D14*
%TO.C,D3*%
X197800000Y-104095000D03*
X196225000Y-104095000D03*
%TD*%
%TO.C,D2*%
X197797500Y-107280000D03*
X196222500Y-107280000D03*
%TD*%
D15*
%TO.C,D4*%
X197137500Y-83675000D03*
X197137500Y-85250000D03*
%TD*%
D16*
%TO.C,R5*%
X206200000Y-106970000D03*
X206200000Y-107990000D03*
%TD*%
D17*
%TO.C,R6*%
X208660000Y-97400000D03*
X207640000Y-97400000D03*
%TD*%
D18*
%TO.C,R7*%
X205690000Y-97400000D03*
X206710000Y-97400000D03*
%TD*%
D16*
%TO.C,R4*%
X205200000Y-106960000D03*
X205200000Y-107980000D03*
%TD*%
D19*
%TO.C,R9*%
X200020000Y-101880000D03*
X200020000Y-100860000D03*
%TD*%
D20*
%TO.C,U1*%
X205050000Y-104770000D03*
X206050000Y-104770000D03*
X205050000Y-104170000D03*
X206050000Y-104170000D03*
D21*
X204550000Y-105682500D03*
X205050000Y-105682500D03*
X205550000Y-105682500D03*
X206050000Y-105682500D03*
X206550000Y-105682500D03*
X206550000Y-103257500D03*
X206050000Y-103257500D03*
X205550000Y-103257500D03*
X205050000Y-103257500D03*
X204550000Y-103257500D03*
%TD*%
D22*
%TO.C,Y1*%
X202600000Y-98100000D03*
X200100000Y-98100000D03*
%TD*%
D23*
%TO.C,C7*%
X203830000Y-97410000D03*
X204790000Y-97410000D03*
%TD*%
D24*
%TO.C,SW1*%
X212240000Y-90835000D03*
X212240000Y-94085000D03*
%TD*%
D25*
%TO.C,R3*%
X197832934Y-102570000D03*
X196182934Y-102570000D03*
%TD*%
D26*
%TO.C,D1*%
X201030000Y-109590000D03*
X201030000Y-108890000D03*
%TD*%
D27*
%TO.C,Q1*%
X200050000Y-105200000D03*
X201950000Y-105200000D03*
X201000000Y-103324999D03*
%TD*%
D28*
%TO.C,C8*%
X198800000Y-97570000D03*
X198800000Y-98530000D03*
%TD*%
D29*
%TO.C,U2*%
X199950000Y-95000000D03*
X201050000Y-85100000D03*
X201050000Y-93900000D03*
X202150000Y-85100000D03*
X203800000Y-89500000D03*
X203800000Y-90600000D03*
X204350000Y-85100000D03*
X204900000Y-89500000D03*
X204900000Y-90600000D03*
X206550000Y-85100000D03*
X207650000Y-85100000D03*
X207650000Y-93900000D03*
X208750000Y-95000000D03*
X207650000Y-95000000D03*
X206550000Y-95000000D03*
X205450000Y-95000000D03*
X204350000Y-95000000D03*
X203250000Y-95000000D03*
X202150000Y-95000000D03*
X201050000Y-95000000D03*
X208750000Y-93900000D03*
X206550000Y-93900000D03*
X205450000Y-93900000D03*
X204350000Y-93900000D03*
X203250000Y-93900000D03*
X202150000Y-93900000D03*
X199950000Y-93900000D03*
X208750000Y-92800000D03*
X207650000Y-92800000D03*
X205450000Y-92800000D03*
X204350000Y-92800000D03*
X203250000Y-92800000D03*
X201050000Y-92800000D03*
X199950000Y-92800000D03*
X208750000Y-91700000D03*
X207650000Y-91700000D03*
X206550000Y-91700000D03*
X202150000Y-91700000D03*
X201050000Y-91700000D03*
X199950000Y-91700000D03*
X208750000Y-90600000D03*
X207650000Y-90600000D03*
X206550000Y-90600000D03*
X202150000Y-90600000D03*
X201050000Y-90600000D03*
X199950000Y-90600000D03*
X208750000Y-89500000D03*
X207650000Y-89500000D03*
X206550000Y-89500000D03*
X202150000Y-89500000D03*
X201050000Y-89500000D03*
X199950000Y-89500000D03*
X208750000Y-88400000D03*
X207650000Y-88400000D03*
X206550000Y-88400000D03*
X204900000Y-88400000D03*
X203800000Y-88400000D03*
X202150000Y-88400000D03*
X201050000Y-88400000D03*
X199950000Y-88400000D03*
X208750000Y-87300000D03*
X207650000Y-87300000D03*
X206550000Y-87300000D03*
X202150000Y-87300000D03*
X201050000Y-87300000D03*
X199950000Y-87300000D03*
X208750000Y-86200000D03*
X207650000Y-86200000D03*
X206550000Y-86200000D03*
X204900000Y-86200000D03*
X203800000Y-86200000D03*
X202150000Y-86200000D03*
X201050000Y-86200000D03*
X199950000Y-86200000D03*
X208750000Y-85100000D03*
X199950000Y-85100000D03*
X208750000Y-83600000D03*
X199950000Y-83600000D03*
X208750000Y-82100000D03*
X207650000Y-82100000D03*
X201050000Y-82100000D03*
X199950000Y-82100000D03*
%TD*%
D30*
%TO.C,L1*%
X206612500Y-101720000D03*
X204487500Y-101720000D03*
%TD*%
D31*
%TO.C,R8*%
X197117500Y-86657500D03*
X197117500Y-88307500D03*
%TD*%
D25*
%TO.C,R1*%
X197837209Y-108898602D03*
X196187209Y-108898602D03*
%TD*%
D32*
%TO.C,C2*%
X203250000Y-103310000D03*
X203250000Y-102350000D03*
%TD*%
D33*
%TO.C,R10*%
X201350000Y-101575000D03*
X201350000Y-99925000D03*
%TD*%
D34*
%TO.C,U3*%
X208400000Y-100000000D03*
D35*
X208300000Y-100100000D03*
X207500000Y-100100000D03*
X206700000Y-100100000D03*
X205900000Y-100100000D03*
X205100000Y-100100000D03*
X205100000Y-99300000D03*
X205100000Y-98500000D03*
X205900000Y-98500000D03*
X206700000Y-98500000D03*
X207500000Y-98500000D03*
X208300000Y-98500000D03*
X208300000Y-99300000D03*
%TD*%
D36*
%TO.C,R2*%
X200180000Y-107039999D03*
X201830000Y-107039999D03*
%TD*%
D37*
%TO.C,U4*%
X212125000Y-96180000D03*
D38*
X210950000Y-95430000D03*
X210950000Y-95930000D03*
X210950000Y-96430000D03*
X210950000Y-96930000D03*
X213300000Y-96930000D03*
X213300000Y-96430000D03*
X213300000Y-95930000D03*
X213300000Y-95430000D03*
%TD*%
M02*
