%TF.GenerationSoftware,KiCad,Pcbnew,9.0.7*%
%TF.CreationDate,2026-02-14T08:25:32+00:00*%
%TF.ProjectId,azss,617a7373-2e6b-4696-9361-645f70636258,rev?*%
%TF.SameCoordinates,Original*%
%TF.FileFunction,Soldermask,Bot*%
%TF.FilePolarity,Negative*%
%FSLAX46Y46*%
G04 Gerber Fmt 4.6, Leading zero omitted, Abs format (unit mm)*
G04 Created by KiCad (PCBNEW 9.0.7) date 2026-02-14 08:25:32*
%MOMM*%
%LPD*%
G01*
G04 APERTURE LIST*
G04 Aperture macros list*
%AMRoundRect*
0 Rectangle with rounded corners*
0 $1 Rounding radius*
0 $2 $3 $4 $5 $6 $7 $8 $9 X,Y pos of 4 corners*
0 Add a 4 corners polygon primitive as box body*
4,1,4,$2,$3,$4,$5,$6,$7,$8,$9,$2,$3,0*
0 Add four circle primitives for the rounded corners*
1,1,$1+$1,$2,$3*
1,1,$1+$1,$4,$5*
1,1,$1+$1,$6,$7*
1,1,$1+$1,$8,$9*
0 Add four rect primitives between the rounded corners*
20,1,$1+$1,$2,$3,$4,$5,0*
20,1,$1+$1,$4,$5,$6,$7,0*
20,1,$1+$1,$6,$7,$8,$9,0*
20,1,$1+$1,$8,$9,$2,$3,0*%
G04 Aperture macros list end*
%ADD10C,0.100000*%
%ADD11C,0.800000*%
%ADD12C,0.300000*%
%ADD13C,0.300799*%
%ADD14C,0.000000*%
%ADD15RoundRect,0.225000X0.225000X0.250000X-0.225000X0.250000X-0.225000X-0.250000X0.225000X-0.250000X0*%
%ADD16C,0.990600*%
%ADD17R,5.080000X1.270000*%
%ADD18R,0.000010X0.000100*%
G04 APERTURE END LIST*
D10*
X196550000Y-101380000D02*
X196600000Y-101480000D01*
X197270000Y-101530000D02*
X197720000Y-101520000D01*
X198030000Y-101460000D02*
X197250000Y-101460000D01*
X196600000Y-101480000D02*
X196740000Y-101720000D01*
X197310000Y-101600000D02*
X197380000Y-101600000D01*
X197250000Y-101460000D02*
X197240000Y-101730000D01*
X197720000Y-101520000D02*
X197310000Y-101670000D01*
D11*
X196275000Y-86550000D02*
G75*
G02*
X195475000Y-86550000I-400000J0D01*
G01*
X195475000Y-86550000D02*
G75*
G02*
X196275000Y-86550000I400000J0D01*
G01*
D10*
X197310000Y-101670000D02*
X197310000Y-101600000D01*
X197007934Y-101840000D02*
X198140000Y-101420000D01*
D12*
X204725000Y-96000000D02*
G75*
G02*
X204425000Y-96000000I-150000J0D01*
G01*
X204425000Y-96000000D02*
G75*
G02*
X204725000Y-96000000I150000J0D01*
G01*
D10*
X196740000Y-101720000D02*
X196670000Y-101500000D01*
D13*
X197120399Y-101590000D02*
G75*
G02*
X196819601Y-101590000I-150399J0D01*
G01*
X196819601Y-101590000D02*
G75*
G02*
X197120399Y-101590000I150399J0D01*
G01*
D11*
X196300000Y-83750000D02*
G75*
G02*
X195500000Y-83750000I-400000J0D01*
G01*
X195500000Y-83750000D02*
G75*
G02*
X196300000Y-83750000I400000J0D01*
G01*
D14*
%TO.C,G\u002A\u002A\u002A*%
G36*
X197683119Y-108515485D02*
G01*
X197708655Y-108589917D01*
X197733153Y-108661327D01*
X197756505Y-108729403D01*
X197778604Y-108793832D01*
X197799344Y-108854303D01*
X197818617Y-108910503D01*
X197836316Y-108962122D01*
X197852335Y-109008846D01*
X197866566Y-109050364D01*
X197878903Y-109086364D01*
X197889238Y-109116534D01*
X197897465Y-109140562D01*
X197903476Y-109158136D01*
X197907165Y-109168944D01*
X197908424Y-109172674D01*
X197907661Y-109172785D01*
X197900734Y-109173018D01*
X197887358Y-109173225D01*
X197868475Y-109173400D01*
X197845025Y-109173534D01*
X197817950Y-109173620D01*
X197788192Y-109173651D01*
X197667859Y-109173651D01*
X197658770Y-109145329D01*
X197656544Y-109138522D01*
X197651764Y-109124122D01*
X197644947Y-109103704D01*
X197636345Y-109078025D01*
X197626214Y-109047845D01*
X197614809Y-109013921D01*
X197602384Y-108977011D01*
X197589193Y-108937873D01*
X197575491Y-108897267D01*
X197501300Y-108677526D01*
X197123593Y-108677526D01*
X196745886Y-108677526D01*
X196664230Y-108925589D01*
X196582575Y-109173651D01*
X195862652Y-109173651D01*
X195142729Y-109173651D01*
X195142729Y-109064269D01*
X195142729Y-108954887D01*
X195660339Y-108954887D01*
X195684123Y-108954885D01*
X195746269Y-108954858D01*
X195806055Y-108954801D01*
X195863026Y-108954717D01*
X195916728Y-108954608D01*
X195966705Y-108954474D01*
X196012505Y-108954318D01*
X196053672Y-108954143D01*
X196089752Y-108953949D01*
X196120291Y-108953739D01*
X196144835Y-108953514D01*
X196162929Y-108953276D01*
X196174118Y-108953028D01*
X196177949Y-108952771D01*
X196176854Y-108951034D01*
X196171668Y-108943272D01*
X196162397Y-108929550D01*
X196149234Y-108910154D01*
X196132373Y-108885366D01*
X196112008Y-108855470D01*
X196088334Y-108820752D01*
X196061543Y-108781494D01*
X196031831Y-108737981D01*
X195999392Y-108690497D01*
X195964418Y-108639326D01*
X195927105Y-108584751D01*
X195887646Y-108527058D01*
X195846236Y-108466530D01*
X195803068Y-108403451D01*
X195758336Y-108338105D01*
X195712235Y-108270776D01*
X195664958Y-108201748D01*
X195634378Y-108157104D01*
X195587485Y-108088646D01*
X195541757Y-108021885D01*
X195497395Y-107957119D01*
X195454603Y-107894644D01*
X195413585Y-107834758D01*
X195374544Y-107777757D01*
X195337683Y-107723938D01*
X195303205Y-107673597D01*
X195271313Y-107627031D01*
X195242211Y-107584537D01*
X195216101Y-107546412D01*
X195205553Y-107531009D01*
X195490406Y-107531009D01*
X195492427Y-107534159D01*
X195498653Y-107543478D01*
X195508885Y-107558669D01*
X195522921Y-107579434D01*
X195540559Y-107605475D01*
X195561598Y-107636496D01*
X195585836Y-107672201D01*
X195613070Y-107712291D01*
X195643099Y-107756471D01*
X195675721Y-107804443D01*
X195710735Y-107855910D01*
X195747937Y-107910575D01*
X195787128Y-107968141D01*
X195828104Y-108028312D01*
X195870664Y-108090791D01*
X195914606Y-108155279D01*
X195959729Y-108221482D01*
X196003318Y-108285425D01*
X196047317Y-108349966D01*
X196089948Y-108412500D01*
X196131010Y-108472730D01*
X196170301Y-108530360D01*
X196207618Y-108585093D01*
X196242759Y-108636632D01*
X196275523Y-108684681D01*
X196305706Y-108728944D01*
X196333106Y-108769124D01*
X196357522Y-108804924D01*
X196378750Y-108836047D01*
X196396590Y-108862198D01*
X196410837Y-108883079D01*
X196421291Y-108898394D01*
X196427749Y-108907846D01*
X196430009Y-108911139D01*
X196430189Y-108911176D01*
X196432303Y-108907609D01*
X196435566Y-108899419D01*
X196437381Y-108894241D01*
X196441747Y-108881640D01*
X196448295Y-108862663D01*
X196456873Y-108837754D01*
X196467328Y-108807356D01*
X196479510Y-108771915D01*
X196493265Y-108731873D01*
X196508440Y-108687676D01*
X196524885Y-108639767D01*
X196542447Y-108588590D01*
X196560973Y-108534590D01*
X196580312Y-108478210D01*
X196589136Y-108452480D01*
X196822520Y-108452480D01*
X196822723Y-108452567D01*
X196828233Y-108452939D01*
X196840827Y-108453292D01*
X196859909Y-108453621D01*
X196884886Y-108453920D01*
X196915164Y-108454187D01*
X196950149Y-108454416D01*
X196989246Y-108454602D01*
X197031862Y-108454740D01*
X197077402Y-108454827D01*
X197125273Y-108454857D01*
X197136408Y-108454855D01*
X197183794Y-108454801D01*
X197228713Y-108454679D01*
X197270569Y-108454495D01*
X197308769Y-108454253D01*
X197342719Y-108453960D01*
X197371826Y-108453621D01*
X197395495Y-108453243D01*
X197413132Y-108452831D01*
X197424145Y-108452390D01*
X197427938Y-108451927D01*
X197427917Y-108451749D01*
X197426411Y-108446267D01*
X197422658Y-108434037D01*
X197416836Y-108415604D01*
X197409126Y-108391514D01*
X197399707Y-108362311D01*
X197388760Y-108328541D01*
X197376463Y-108290749D01*
X197362997Y-108249480D01*
X197348541Y-108205280D01*
X197333276Y-108158693D01*
X197317380Y-108110265D01*
X197301033Y-108060541D01*
X197284416Y-108010066D01*
X197267708Y-107959386D01*
X197251088Y-107909045D01*
X197234737Y-107859589D01*
X197218834Y-107811563D01*
X197203558Y-107765512D01*
X197189091Y-107721981D01*
X197175610Y-107681516D01*
X197163297Y-107644662D01*
X197152330Y-107611964D01*
X197142890Y-107583966D01*
X197135156Y-107561215D01*
X197129307Y-107544256D01*
X197125525Y-107533633D01*
X197123988Y-107529892D01*
X197121308Y-107530995D01*
X197120810Y-107531200D01*
X197117364Y-107537593D01*
X197116370Y-107540731D01*
X197113069Y-107551016D01*
X197107630Y-107567909D01*
X197100204Y-107590948D01*
X197090938Y-107619668D01*
X197079984Y-107653606D01*
X197067491Y-107692299D01*
X197053607Y-107735283D01*
X197038485Y-107782095D01*
X197022271Y-107832271D01*
X197005117Y-107885348D01*
X196987172Y-107940862D01*
X196968586Y-107998351D01*
X196953666Y-108044507D01*
X196935667Y-108100223D01*
X196918467Y-108153505D01*
X196902210Y-108203899D01*
X196887044Y-108250950D01*
X196873115Y-108294204D01*
X196860569Y-108333206D01*
X196849552Y-108367502D01*
X196840210Y-108396637D01*
X196832690Y-108420157D01*
X196827137Y-108437607D01*
X196823698Y-108448533D01*
X196822520Y-108452480D01*
X196589136Y-108452480D01*
X196600311Y-108419894D01*
X196620818Y-108360087D01*
X196641680Y-108299233D01*
X196662747Y-108237775D01*
X196683865Y-108176158D01*
X196704882Y-108114826D01*
X196725646Y-108054223D01*
X196746005Y-107994793D01*
X196765807Y-107936979D01*
X196784899Y-107881227D01*
X196803129Y-107827981D01*
X196820346Y-107777683D01*
X196836396Y-107730779D01*
X196851128Y-107687712D01*
X196864390Y-107648927D01*
X196876029Y-107614867D01*
X196885893Y-107585977D01*
X196893830Y-107562701D01*
X196899687Y-107545482D01*
X196903313Y-107534765D01*
X196904556Y-107530995D01*
X196903013Y-107530864D01*
X196894437Y-107530661D01*
X196878681Y-107530466D01*
X196856136Y-107530278D01*
X196827189Y-107530098D01*
X196792230Y-107529929D01*
X196751648Y-107529771D01*
X196705830Y-107529624D01*
X196655166Y-107529491D01*
X196600045Y-107529372D01*
X196540855Y-107529269D01*
X196477985Y-107529181D01*
X196411824Y-107529112D01*
X196342761Y-107529061D01*
X196271183Y-107529029D01*
X196197481Y-107529018D01*
X196150697Y-107529023D01*
X196078292Y-107529047D01*
X196008257Y-107529091D01*
X195940982Y-107529155D01*
X195876855Y-107529236D01*
X195816264Y-107529335D01*
X195759599Y-107529449D01*
X195707249Y-107529578D01*
X195659601Y-107529721D01*
X195617045Y-107529876D01*
X195579970Y-107530043D01*
X195548764Y-107530220D01*
X195523816Y-107530406D01*
X195505514Y-107530600D01*
X195494248Y-107530802D01*
X195490406Y-107531009D01*
X195205553Y-107531009D01*
X195193188Y-107512952D01*
X195173674Y-107484455D01*
X195157763Y-107461216D01*
X195145657Y-107443532D01*
X195137560Y-107431701D01*
X195133675Y-107426019D01*
X195115383Y-107399196D01*
X195115383Y-107352765D01*
X195115383Y-107306334D01*
X196192120Y-107307318D01*
X197268856Y-107308302D01*
X197588590Y-108240000D01*
X197601347Y-108277173D01*
X197629358Y-108358801D01*
X197656651Y-108438342D01*
X197661312Y-108451927D01*
X197683119Y-108515485D01*
G37*
%TD*%
D15*
%TO.C,C1*%
X200550000Y-108750000D03*
X199000000Y-108750000D03*
%TD*%
D16*
%TO.C,J1*%
X212790000Y-88575000D03*
X211774000Y-83495000D03*
X213806000Y-83495000D03*
%TD*%
D17*
%TO.C,BT1*%
X204275000Y-107985000D03*
X204275000Y-86015000D03*
D18*
X204275000Y-97000000D03*
%TD*%
G36*
X213670866Y-100178845D02*
G01*
X213675819Y-100186121D01*
X213676060Y-100188462D01*
X213676060Y-100354344D01*
X213672692Y-100362476D01*
X213666902Y-100365603D01*
X213315948Y-100438601D01*
X213315918Y-100438609D01*
X213275808Y-100450600D01*
X213275805Y-100450601D01*
X213243132Y-100467771D01*
X213243129Y-100467773D01*
X213216693Y-100489930D01*
X213196208Y-100517178D01*
X213184205Y-100546658D01*
X213184205Y-100546660D01*
X213180149Y-100579287D01*
X213185537Y-100615560D01*
X213185538Y-100615564D01*
X213199893Y-100639462D01*
X213199895Y-100639464D01*
X213223267Y-100654507D01*
X213223270Y-100654508D01*
X213259150Y-100660815D01*
X213313523Y-100655014D01*
X213662218Y-100582494D01*
X213670866Y-100584136D01*
X213675819Y-100591411D01*
X213676060Y-100593753D01*
X213676060Y-100759690D01*
X213672692Y-100767822D01*
X213666902Y-100770949D01*
X213297282Y-100847819D01*
X213296472Y-100847957D01*
X213217303Y-100858599D01*
X213215198Y-100858688D01*
X213157328Y-100855801D01*
X213154592Y-100855329D01*
X213112722Y-100842751D01*
X213109631Y-100841291D01*
X213079398Y-100821038D01*
X213076679Y-100818491D01*
X213054832Y-100790060D01*
X213053151Y-100787004D01*
X213038698Y-100747493D01*
X213038056Y-100744693D01*
X213032556Y-100690001D01*
X213032575Y-100687518D01*
X213038779Y-100634296D01*
X213039414Y-100631645D01*
X213058059Y-100581137D01*
X213059229Y-100578816D01*
X213091636Y-100529375D01*
X213093087Y-100527583D01*
X213142614Y-100477620D01*
X213142615Y-100477619D01*
X213142615Y-100474598D01*
X213142614Y-100474598D01*
X213060343Y-100491720D01*
X213051696Y-100490079D01*
X213046741Y-100482804D01*
X213046500Y-100480461D01*
X213046500Y-100314582D01*
X213049868Y-100306450D01*
X213055659Y-100303323D01*
X213662219Y-100177203D01*
X213670866Y-100178845D01*
G37*
G36*
X213670865Y-99226648D02*
G01*
X213675819Y-99233923D01*
X213676060Y-99236266D01*
X213676060Y-99360445D01*
X213847595Y-99324809D01*
X213856242Y-99326453D01*
X213861194Y-99333730D01*
X213861026Y-99339104D01*
X213812886Y-99515055D01*
X213807491Y-99522009D01*
X213804132Y-99523280D01*
X213676060Y-99549875D01*
X213676060Y-99640320D01*
X213672692Y-99648452D01*
X213666903Y-99651579D01*
X213545702Y-99676798D01*
X213537054Y-99675157D01*
X213532100Y-99667882D01*
X213531859Y-99665539D01*
X213531859Y-99579880D01*
X213531858Y-99579880D01*
X213245289Y-99639466D01*
X213244379Y-99639618D01*
X213183426Y-99647264D01*
X213181084Y-99647317D01*
X213136305Y-99643757D01*
X213133357Y-99643126D01*
X213100439Y-99631400D01*
X213097318Y-99629706D01*
X213072788Y-99610971D01*
X213070273Y-99608320D01*
X213051840Y-99581345D01*
X213050404Y-99578429D01*
X213037873Y-99540083D01*
X213037350Y-99537540D01*
X213032503Y-99483583D01*
X213032472Y-99481965D01*
X213035294Y-99426964D01*
X213035461Y-99425514D01*
X213042891Y-99384272D01*
X213043372Y-99382462D01*
X213052247Y-99357475D01*
X213058143Y-99350940D01*
X213060745Y-99350064D01*
X213177647Y-99325784D01*
X213186294Y-99327429D01*
X213191246Y-99334705D01*
X213190664Y-99341312D01*
X213184428Y-99356912D01*
X213180149Y-99387154D01*
X213184120Y-99413980D01*
X213194694Y-99431642D01*
X213211887Y-99442750D01*
X213238254Y-99447412D01*
X213238256Y-99447412D01*
X213278177Y-99443155D01*
X213278186Y-99443153D01*
X213531858Y-99390452D01*
X213531859Y-99390451D01*
X213531859Y-99261485D01*
X213535227Y-99253353D01*
X213541016Y-99250226D01*
X213662217Y-99225007D01*
X213670865Y-99226648D01*
G37*
G36*
X213662399Y-102902013D02*
G01*
X213667280Y-102908957D01*
X213683382Y-102976312D01*
X213683660Y-102978068D01*
X213690065Y-103058065D01*
X213690085Y-103059609D01*
X213687329Y-103110125D01*
X213687191Y-103111383D01*
X213678926Y-103161164D01*
X213678599Y-103162575D01*
X213664377Y-103210134D01*
X213663763Y-103211738D01*
X213643668Y-103254418D01*
X213642691Y-103256105D01*
X213616230Y-103293981D01*
X213614808Y-103295651D01*
X213582001Y-103327460D01*
X213580028Y-103328995D01*
X213541186Y-103352927D01*
X213538702Y-103354075D01*
X213491455Y-103369400D01*
X213489455Y-103369856D01*
X213454073Y-103374663D01*
X213452086Y-103374760D01*
X213424914Y-103373721D01*
X213422531Y-103373377D01*
X213398235Y-103367226D01*
X213395793Y-103366303D01*
X213375285Y-103355745D01*
X213373148Y-103354322D01*
X213355181Y-103339215D01*
X213353592Y-103337584D01*
X213337141Y-103316961D01*
X213335923Y-103315086D01*
X213306478Y-103258334D01*
X213305919Y-103257079D01*
X213289616Y-103213641D01*
X213273076Y-103171716D01*
X213262778Y-103154418D01*
X213251645Y-103142150D01*
X213238156Y-103135143D01*
X213238154Y-103135142D01*
X213221032Y-103135282D01*
X213204534Y-103141778D01*
X213204533Y-103141779D01*
X213190875Y-103153942D01*
X213190873Y-103153944D01*
X213179657Y-103173086D01*
X213179653Y-103173094D01*
X213169816Y-103207687D01*
X213169816Y-103207688D01*
X213166081Y-103255574D01*
X213169524Y-103297090D01*
X213180206Y-103340763D01*
X213197791Y-103383247D01*
X213214816Y-103411370D01*
X213216146Y-103420071D01*
X213210934Y-103427164D01*
X213207319Y-103428585D01*
X213074741Y-103456148D01*
X213066094Y-103454506D01*
X213061458Y-103448427D01*
X213047357Y-103404816D01*
X213046983Y-103403327D01*
X213036345Y-103344576D01*
X213036179Y-103343175D01*
X213032465Y-103277354D01*
X213032462Y-103276114D01*
X213035235Y-103222340D01*
X213035359Y-103221150D01*
X213043642Y-103168349D01*
X213043947Y-103166967D01*
X213058362Y-103116591D01*
X213058962Y-103114967D01*
X213079442Y-103070240D01*
X213080424Y-103068510D01*
X213107738Y-103028809D01*
X213109158Y-103027118D01*
X213143242Y-102993678D01*
X213145239Y-102992111D01*
X213185872Y-102966935D01*
X213188377Y-102965773D01*
X213238348Y-102949543D01*
X213240481Y-102949069D01*
X213276730Y-102944561D01*
X213279030Y-102944507D01*
X213306616Y-102946627D01*
X213309265Y-102947148D01*
X213333741Y-102955043D01*
X213336324Y-102956247D01*
X213357124Y-102969301D01*
X213359107Y-102970875D01*
X213377205Y-102988817D01*
X213378541Y-102990405D01*
X213395012Y-103014020D01*
X213395984Y-103015699D01*
X213424754Y-103076787D01*
X213425151Y-103077740D01*
X213439364Y-103116636D01*
X213439378Y-103116672D01*
X213455249Y-103152148D01*
X213465254Y-103166225D01*
X213465255Y-103166227D01*
X213476408Y-103176056D01*
X213476412Y-103176059D01*
X213489561Y-103181294D01*
X213505807Y-103180729D01*
X213505815Y-103180727D01*
X213517424Y-103176572D01*
X213517431Y-103176568D01*
X213527902Y-103168968D01*
X213527903Y-103168967D01*
X213543782Y-103145779D01*
X213543784Y-103145775D01*
X213553235Y-103114678D01*
X213553236Y-103114674D01*
X213556478Y-103078788D01*
X213556479Y-103078785D01*
X213553798Y-103039382D01*
X213553798Y-103039377D01*
X213545708Y-103000154D01*
X213545707Y-103000151D01*
X213532134Y-102962790D01*
X213532132Y-102962785D01*
X213521129Y-102943291D01*
X213520065Y-102934553D01*
X213525491Y-102927623D01*
X213528801Y-102926379D01*
X213653752Y-102900372D01*
X213662399Y-102902013D01*
G37*
G36*
X213908748Y-100891338D02*
G01*
X213913310Y-100897195D01*
X213924315Y-100928991D01*
X213924684Y-100930301D01*
X213935046Y-100977797D01*
X213935236Y-100978942D01*
X213941107Y-101030305D01*
X213941174Y-101031223D01*
X213943341Y-101095449D01*
X213943330Y-101096480D01*
X213939599Y-101163147D01*
X213939449Y-101164461D01*
X213928431Y-101228264D01*
X213928073Y-101229744D01*
X213909114Y-101290281D01*
X213908447Y-101291944D01*
X213881764Y-101345875D01*
X213880714Y-101347598D01*
X213845658Y-101395160D01*
X213844169Y-101396817D01*
X213800666Y-101436671D01*
X213799080Y-101437888D01*
X213766255Y-101458815D01*
X213764705Y-101459644D01*
X213727078Y-101476201D01*
X213725527Y-101476755D01*
X213682592Y-101488693D01*
X213680705Y-101489051D01*
X213625078Y-101494859D01*
X213622372Y-101494821D01*
X213576025Y-101488675D01*
X213573084Y-101487878D01*
X213533179Y-101471118D01*
X213530619Y-101469629D01*
X213495651Y-101442722D01*
X213493837Y-101440979D01*
X213460316Y-101400838D01*
X213459122Y-101399109D01*
X213426957Y-101341976D01*
X213426632Y-101341355D01*
X213394196Y-101274515D01*
X213394193Y-101274510D01*
X213361059Y-101222201D01*
X213361056Y-101222197D01*
X213342639Y-101203192D01*
X213323583Y-101190547D01*
X213323580Y-101190546D01*
X213302362Y-101184274D01*
X213277527Y-101185710D01*
X213259041Y-101191786D01*
X213241699Y-101202195D01*
X213241695Y-101202198D01*
X213226568Y-101216444D01*
X213226560Y-101216453D01*
X213213011Y-101235555D01*
X213202436Y-101257725D01*
X213202434Y-101257730D01*
X213193998Y-101285174D01*
X213188983Y-101315036D01*
X213188982Y-101315049D01*
X213187183Y-101350678D01*
X213192932Y-101411869D01*
X213192932Y-101411872D01*
X213210043Y-101469768D01*
X213238511Y-101522766D01*
X213238512Y-101522767D01*
X213265838Y-101554385D01*
X213268607Y-101562740D01*
X213264657Y-101570606D01*
X213259478Y-101573164D01*
X213090597Y-101608270D01*
X213081949Y-101606628D01*
X213077827Y-101601857D01*
X213061150Y-101565970D01*
X213060489Y-101564169D01*
X213044927Y-101507491D01*
X213044637Y-101506101D01*
X213035687Y-101444551D01*
X213035579Y-101443420D01*
X213032456Y-101374921D01*
X213032458Y-101373825D01*
X213035814Y-101306480D01*
X213035934Y-101305304D01*
X213045837Y-101240904D01*
X213046154Y-101239463D01*
X213063780Y-101178392D01*
X213064437Y-101176656D01*
X213090007Y-101122704D01*
X213091082Y-101120887D01*
X213125510Y-101073308D01*
X213127042Y-101071585D01*
X213170820Y-101031324D01*
X213172448Y-101030076D01*
X213205721Y-101008983D01*
X213207297Y-101008148D01*
X213246670Y-100991048D01*
X213248201Y-100990508D01*
X213294540Y-100977761D01*
X213296143Y-100977440D01*
X213346105Y-100971103D01*
X213348302Y-100971036D01*
X213387703Y-100973612D01*
X213390204Y-100974057D01*
X213425973Y-100984600D01*
X213428404Y-100985633D01*
X213459551Y-101003334D01*
X213461472Y-101004704D01*
X213489142Y-101029085D01*
X213490479Y-101030479D01*
X213516307Y-101062400D01*
X213517117Y-101063536D01*
X213540155Y-101100371D01*
X213540627Y-101101201D01*
X213563687Y-101145945D01*
X213563711Y-101146044D01*
X213563732Y-101146034D01*
X213594780Y-101207579D01*
X213594783Y-101207584D01*
X213625501Y-101252315D01*
X213642067Y-101267924D01*
X213658632Y-101277866D01*
X213658641Y-101277870D01*
X213676901Y-101282532D01*
X213698263Y-101281056D01*
X213698265Y-101281056D01*
X213717751Y-101274498D01*
X213735300Y-101263197D01*
X213750454Y-101247911D01*
X213763653Y-101228418D01*
X213763658Y-101228410D01*
X213773978Y-101206019D01*
X213782063Y-101178854D01*
X213782066Y-101178842D01*
X213786920Y-101149760D01*
X213788607Y-101117402D01*
X213784980Y-101067287D01*
X213784978Y-101067277D01*
X213773933Y-101015789D01*
X213773933Y-101015788D01*
X213755085Y-100967047D01*
X213737642Y-100939349D01*
X213736159Y-100930674D01*
X213741245Y-100923490D01*
X213745030Y-100921962D01*
X213900100Y-100889697D01*
X213908748Y-100891338D01*
G37*
G36*
X213515516Y-98607384D02*
G01*
X213517867Y-98607728D01*
X213565001Y-98619696D01*
X213567503Y-98620653D01*
X213606706Y-98641170D01*
X213609121Y-98642860D01*
X213641364Y-98672253D01*
X213643383Y-98674680D01*
X213667113Y-98712847D01*
X213668325Y-98715493D01*
X213683819Y-98765132D01*
X213684296Y-98767539D01*
X213690037Y-98832084D01*
X213690037Y-98834122D01*
X213684612Y-98895118D01*
X213684236Y-98897182D01*
X213668076Y-98955249D01*
X213667340Y-98957192D01*
X213640023Y-99013405D01*
X213639019Y-99015089D01*
X213599404Y-99070228D01*
X213598175Y-99071671D01*
X213550750Y-99118848D01*
X213549205Y-99120137D01*
X213494088Y-99158460D01*
X213492390Y-99159437D01*
X213428408Y-99189322D01*
X213426695Y-99189962D01*
X213352329Y-99211172D01*
X213350646Y-99211519D01*
X213275619Y-99221195D01*
X213273503Y-99221271D01*
X213212914Y-99217870D01*
X213210407Y-99217448D01*
X213161163Y-99203413D01*
X213158528Y-99202291D01*
X213117931Y-99178650D01*
X213115552Y-99176809D01*
X213082590Y-99143568D01*
X213080766Y-99141168D01*
X213056130Y-99097964D01*
X213055071Y-99095455D01*
X213038906Y-99039421D01*
X213038494Y-99037180D01*
X213032499Y-98964618D01*
X213032483Y-98962947D01*
X213038059Y-98874565D01*
X213038279Y-98872936D01*
X213053908Y-98798169D01*
X213054439Y-98796375D01*
X213076993Y-98738045D01*
X213083067Y-98731675D01*
X213085380Y-98730932D01*
X213197282Y-98707685D01*
X213205929Y-98709329D01*
X213210881Y-98716606D01*
X213210047Y-98723798D01*
X213191853Y-98762887D01*
X213175212Y-98825569D01*
X213175210Y-98825578D01*
X213169597Y-98892009D01*
X213174311Y-98945609D01*
X213174311Y-98945610D01*
X213186649Y-98983215D01*
X213204966Y-99009007D01*
X213229236Y-99025724D01*
X213229241Y-99025726D01*
X213261039Y-99034213D01*
X213261045Y-99034214D01*
X213303248Y-99033247D01*
X213303248Y-98782818D01*
X213422829Y-98782818D01*
X213422829Y-99009561D01*
X213459249Y-98994141D01*
X213490837Y-98974049D01*
X213490837Y-98974048D01*
X213518171Y-98949169D01*
X213540151Y-98919946D01*
X213540152Y-98919944D01*
X213552477Y-98891210D01*
X213552478Y-98891207D01*
X213556478Y-98862118D01*
X213550984Y-98824251D01*
X213536409Y-98799394D01*
X213512857Y-98783799D01*
X213476965Y-98777175D01*
X213422829Y-98782818D01*
X213303248Y-98782818D01*
X213303248Y-98640934D01*
X213306616Y-98632802D01*
X213312403Y-98629676D01*
X213384877Y-98614580D01*
X213385709Y-98614438D01*
X213456197Y-98605085D01*
X213458189Y-98604995D01*
X213515516Y-98607384D01*
G37*
G36*
X213909425Y-99752376D02*
G01*
X213929134Y-99756874D01*
X213932708Y-99758358D01*
X213949198Y-99768753D01*
X213951961Y-99771194D01*
X213964543Y-99786554D01*
X213966344Y-99789618D01*
X213974534Y-99810363D01*
X213975268Y-99813332D01*
X213978397Y-99841851D01*
X213978407Y-99844266D01*
X213975499Y-99872924D01*
X213974977Y-99875371D01*
X213966548Y-99900882D01*
X213965476Y-99903214D01*
X213951436Y-99926487D01*
X213949901Y-99928495D01*
X213931267Y-99947982D01*
X213929122Y-99949741D01*
X213907854Y-99963253D01*
X213905317Y-99964458D01*
X213880566Y-99972691D01*
X213877820Y-99973245D01*
X213853265Y-99975139D01*
X213849842Y-99974889D01*
X213829836Y-99970360D01*
X213826414Y-99968979D01*
X213808896Y-99958361D01*
X213806160Y-99956050D01*
X213792713Y-99940505D01*
X213790797Y-99937410D01*
X213782250Y-99916929D01*
X213781440Y-99913828D01*
X213778201Y-99885967D01*
X213778184Y-99883463D01*
X213781161Y-99854510D01*
X213781700Y-99852022D01*
X213790305Y-99826421D01*
X213791420Y-99824045D01*
X213805738Y-99800845D01*
X213807311Y-99798836D01*
X213826330Y-99779429D01*
X213828455Y-99777722D01*
X213850176Y-99764168D01*
X213852666Y-99763001D01*
X213877917Y-99754683D01*
X213880602Y-99754142D01*
X213905953Y-99752124D01*
X213909425Y-99752376D01*
G37*
G36*
X213503223Y-102166339D02*
G01*
X213505772Y-102166816D01*
X213555616Y-102182122D01*
X213558178Y-102183267D01*
X213601134Y-102209169D01*
X213603192Y-102210751D01*
X213631607Y-102238238D01*
X213633143Y-102240071D01*
X213655848Y-102273716D01*
X213656926Y-102275713D01*
X213674071Y-102316722D01*
X213674687Y-102318663D01*
X213685803Y-102368680D01*
X213686052Y-102370417D01*
X213690074Y-102431268D01*
X213690067Y-102432889D01*
X213684411Y-102508049D01*
X213684119Y-102509898D01*
X213667820Y-102577064D01*
X213667183Y-102578954D01*
X213640702Y-102639599D01*
X213639727Y-102641382D01*
X213602818Y-102696668D01*
X213601548Y-102698249D01*
X213555645Y-102746046D01*
X213554063Y-102747418D01*
X213500184Y-102786148D01*
X213498428Y-102787187D01*
X213435352Y-102817313D01*
X213433578Y-102817987D01*
X213359674Y-102839266D01*
X213357914Y-102839627D01*
X213283453Y-102848908D01*
X213281244Y-102848969D01*
X213220166Y-102844778D01*
X213217602Y-102844306D01*
X213166951Y-102828878D01*
X213164337Y-102827709D01*
X213121437Y-102801680D01*
X213119358Y-102800067D01*
X213090938Y-102772252D01*
X213089423Y-102770426D01*
X213066693Y-102736436D01*
X213065630Y-102734451D01*
X213048471Y-102693105D01*
X213047864Y-102691177D01*
X213036749Y-102640859D01*
X213036503Y-102639134D01*
X213032485Y-102578042D01*
X213032494Y-102576399D01*
X213035277Y-102540458D01*
X213180149Y-102540458D01*
X213180149Y-102540459D01*
X213185381Y-102583891D01*
X213199389Y-102614562D01*
X213221394Y-102635908D01*
X213253047Y-102649324D01*
X213297985Y-102653763D01*
X213361283Y-102645965D01*
X213417114Y-102629794D01*
X213417119Y-102629792D01*
X213461017Y-102607935D01*
X213461020Y-102607933D01*
X213495095Y-102580897D01*
X213521472Y-102547066D01*
X213521475Y-102547062D01*
X213537078Y-102509353D01*
X213542409Y-102466430D01*
X213542410Y-102466428D01*
X213537349Y-102424765D01*
X213537348Y-102424760D01*
X213523793Y-102395328D01*
X213523791Y-102395326D01*
X213502448Y-102374812D01*
X213502446Y-102374811D01*
X213471678Y-102361921D01*
X213471672Y-102361919D01*
X213427901Y-102357707D01*
X213427892Y-102357708D01*
X213366181Y-102365365D01*
X213366167Y-102365368D01*
X213302772Y-102383361D01*
X213302767Y-102383363D01*
X213255868Y-102406156D01*
X213255865Y-102406158D01*
X213222082Y-102432931D01*
X213198919Y-102463635D01*
X213184985Y-102498991D01*
X213180149Y-102540458D01*
X213035277Y-102540458D01*
X213035277Y-102540453D01*
X213038322Y-102501109D01*
X213038632Y-102499204D01*
X213055411Y-102432155D01*
X213056086Y-102430214D01*
X213083357Y-102369825D01*
X213084386Y-102368007D01*
X213122472Y-102313060D01*
X213123764Y-102311507D01*
X213170910Y-102264036D01*
X213172464Y-102262727D01*
X213227380Y-102224186D01*
X213229092Y-102223192D01*
X213292954Y-102193160D01*
X213294683Y-102192511D01*
X213368987Y-102171240D01*
X213370748Y-102170882D01*
X213441858Y-102162133D01*
X213444089Y-102162077D01*
X213503223Y-102166339D01*
G37*
G36*
X213568422Y-103500307D02*
G01*
X213571124Y-103500755D01*
X213612080Y-103512705D01*
X213615164Y-103514127D01*
X213644555Y-103533394D01*
X213647304Y-103535921D01*
X213668403Y-103562860D01*
X213670126Y-103565937D01*
X213684042Y-103603295D01*
X213684705Y-103606138D01*
X213690015Y-103658010D01*
X213690029Y-103660207D01*
X213685746Y-103708030D01*
X213685353Y-103710151D01*
X213672741Y-103754480D01*
X213671945Y-103756517D01*
X213650855Y-103798283D01*
X213649742Y-103800063D01*
X213619325Y-103840038D01*
X213618039Y-103841464D01*
X213576262Y-103880631D01*
X213576262Y-103883047D01*
X213662217Y-103865158D01*
X213670864Y-103866799D01*
X213675819Y-103874074D01*
X213676060Y-103876417D01*
X213676060Y-104042955D01*
X213672692Y-104051087D01*
X213666901Y-104054214D01*
X213060341Y-104180334D01*
X213051694Y-104178692D01*
X213046741Y-104171416D01*
X213046500Y-104169075D01*
X213046500Y-104002533D01*
X213049868Y-103994401D01*
X213055658Y-103991274D01*
X213405353Y-103918549D01*
X213405359Y-103918547D01*
X213443422Y-103906983D01*
X213443427Y-103906981D01*
X213475911Y-103889582D01*
X213475912Y-103889581D01*
X213503664Y-103866289D01*
X213525643Y-103837854D01*
X213525644Y-103837853D01*
X213538233Y-103808403D01*
X213538236Y-103808391D01*
X213542410Y-103777044D01*
X213542410Y-103777043D01*
X213536827Y-103742140D01*
X213521730Y-103718884D01*
X213496546Y-103704099D01*
X213496544Y-103704098D01*
X213456992Y-103698205D01*
X213396164Y-103705162D01*
X213060341Y-103774988D01*
X213051694Y-103773346D01*
X213046741Y-103766070D01*
X213046500Y-103763729D01*
X213046500Y-103597793D01*
X213049868Y-103589661D01*
X213055660Y-103586534D01*
X213430786Y-103508561D01*
X213431577Y-103508425D01*
X213509515Y-103497830D01*
X213511583Y-103497737D01*
X213568422Y-103500307D01*
G37*
G36*
X213181197Y-99789179D02*
G01*
X213186150Y-99796455D01*
X213186191Y-99800930D01*
X213183226Y-99816627D01*
X213180149Y-99848501D01*
X213185586Y-99876230D01*
X213200649Y-99894168D01*
X213224068Y-99902627D01*
X213261044Y-99900211D01*
X213261051Y-99900210D01*
X213662219Y-99816810D01*
X213670866Y-99818452D01*
X213675819Y-99825728D01*
X213676060Y-99828069D01*
X213676060Y-99993457D01*
X213672692Y-100001589D01*
X213666902Y-100004716D01*
X213218596Y-100097961D01*
X213217753Y-100098104D01*
X213177236Y-100103429D01*
X213175249Y-100103517D01*
X213142086Y-100102109D01*
X213139767Y-100101771D01*
X213109868Y-100094245D01*
X213107350Y-100093286D01*
X213083736Y-100080948D01*
X213081263Y-100079208D01*
X213062267Y-100061684D01*
X213060282Y-100059277D01*
X213046037Y-100036226D01*
X213044858Y-100033656D01*
X213036179Y-100006284D01*
X213035690Y-100003874D01*
X213032518Y-99969790D01*
X213032499Y-99967898D01*
X213038204Y-99888670D01*
X213038394Y-99887258D01*
X213051776Y-99819809D01*
X213056662Y-99812488D01*
X213060715Y-99810788D01*
X213172550Y-99787537D01*
X213181197Y-99789179D01*
G37*
G36*
X213515516Y-104233860D02*
G01*
X213517867Y-104234204D01*
X213565001Y-104246172D01*
X213567503Y-104247129D01*
X213606708Y-104267646D01*
X213609124Y-104269337D01*
X213641363Y-104298728D01*
X213643381Y-104301154D01*
X213667113Y-104339323D01*
X213668325Y-104341969D01*
X213683819Y-104391608D01*
X213684296Y-104394015D01*
X213690037Y-104458560D01*
X213690037Y-104460598D01*
X213684612Y-104521594D01*
X213684236Y-104523658D01*
X213668076Y-104581725D01*
X213667340Y-104583668D01*
X213640025Y-104639876D01*
X213639021Y-104641560D01*
X213599400Y-104696707D01*
X213598171Y-104698150D01*
X213550750Y-104745324D01*
X213549205Y-104746613D01*
X213494088Y-104784935D01*
X213492390Y-104785912D01*
X213428408Y-104815798D01*
X213426695Y-104816438D01*
X213352329Y-104837648D01*
X213350646Y-104837995D01*
X213275619Y-104847671D01*
X213273503Y-104847747D01*
X213212914Y-104844346D01*
X213210407Y-104843924D01*
X213161163Y-104829889D01*
X213158528Y-104828767D01*
X213117931Y-104805126D01*
X213115552Y-104803285D01*
X213082590Y-104770044D01*
X213080766Y-104767644D01*
X213056130Y-104724440D01*
X213055071Y-104721931D01*
X213038906Y-104665897D01*
X213038494Y-104663656D01*
X213032499Y-104591094D01*
X213032483Y-104589423D01*
X213038059Y-104501041D01*
X213038279Y-104499412D01*
X213053908Y-104424645D01*
X213054439Y-104422851D01*
X213076993Y-104364521D01*
X213083067Y-104358151D01*
X213085380Y-104357408D01*
X213197282Y-104334161D01*
X213205929Y-104335805D01*
X213210881Y-104343082D01*
X213210047Y-104350274D01*
X213191853Y-104389362D01*
X213175212Y-104452045D01*
X213175210Y-104452054D01*
X213169597Y-104518485D01*
X213174311Y-104572085D01*
X213174311Y-104572086D01*
X213186649Y-104609691D01*
X213204966Y-104635483D01*
X213229236Y-104652200D01*
X213229241Y-104652202D01*
X213261039Y-104660689D01*
X213261045Y-104660690D01*
X213303248Y-104659723D01*
X213303248Y-104409294D01*
X213422829Y-104409294D01*
X213422829Y-104636037D01*
X213459249Y-104620617D01*
X213490837Y-104600525D01*
X213490837Y-104600524D01*
X213518171Y-104575645D01*
X213540151Y-104546422D01*
X213540152Y-104546420D01*
X213552477Y-104517686D01*
X213552478Y-104517683D01*
X213556478Y-104488594D01*
X213550984Y-104450727D01*
X213536409Y-104425870D01*
X213512857Y-104410275D01*
X213476965Y-104403651D01*
X213422829Y-104409294D01*
X213303248Y-104409294D01*
X213303248Y-104267410D01*
X213306616Y-104259278D01*
X213312403Y-104256152D01*
X213384877Y-104241056D01*
X213385709Y-104240914D01*
X213456197Y-104231561D01*
X213458189Y-104231471D01*
X213515516Y-104233860D01*
G37*
G36*
X213908748Y-104865657D02*
G01*
X213913311Y-104871514D01*
X213924316Y-104903311D01*
X213924684Y-104904621D01*
X213935046Y-104952117D01*
X213935236Y-104953262D01*
X213941107Y-105004625D01*
X213941174Y-105005543D01*
X213943341Y-105069769D01*
X213943330Y-105070800D01*
X213939599Y-105137466D01*
X213939449Y-105138780D01*
X213928431Y-105202584D01*
X213928073Y-105204064D01*
X213909114Y-105264601D01*
X213908447Y-105266264D01*
X213881764Y-105320195D01*
X213880714Y-105321918D01*
X213845656Y-105369482D01*
X213844167Y-105371139D01*
X213800670Y-105410988D01*
X213799084Y-105412205D01*
X213766255Y-105433135D01*
X213764705Y-105433964D01*
X213727077Y-105450522D01*
X213725525Y-105451076D01*
X213682593Y-105463011D01*
X213680708Y-105463369D01*
X213625079Y-105469179D01*
X213622372Y-105469141D01*
X213576025Y-105462994D01*
X213573084Y-105462197D01*
X213533179Y-105445437D01*
X213530619Y-105443948D01*
X213495651Y-105417041D01*
X213493837Y-105415298D01*
X213460315Y-105375157D01*
X213459121Y-105373428D01*
X213426957Y-105316296D01*
X213426632Y-105315675D01*
X213394201Y-105248842D01*
X213361059Y-105196520D01*
X213361056Y-105196516D01*
X213342642Y-105177515D01*
X213342631Y-105177506D01*
X213323582Y-105164866D01*
X213323580Y-105164865D01*
X213302362Y-105158594D01*
X213277526Y-105160029D01*
X213259040Y-105166105D01*
X213241700Y-105176515D01*
X213241695Y-105176518D01*
X213226568Y-105190763D01*
X213226560Y-105190772D01*
X213213013Y-105209872D01*
X213202436Y-105232045D01*
X213202434Y-105232050D01*
X213194000Y-105259489D01*
X213188983Y-105289355D01*
X213188982Y-105289368D01*
X213187183Y-105324997D01*
X213192932Y-105386189D01*
X213192932Y-105386192D01*
X213210043Y-105444087D01*
X213238511Y-105497085D01*
X213238512Y-105497086D01*
X213265838Y-105528705D01*
X213268607Y-105537060D01*
X213264657Y-105544926D01*
X213259477Y-105547484D01*
X213090596Y-105582589D01*
X213081949Y-105580946D01*
X213077827Y-105576177D01*
X213061150Y-105540291D01*
X213060489Y-105538489D01*
X213044927Y-105481810D01*
X213044637Y-105480420D01*
X213035687Y-105418870D01*
X213035579Y-105417739D01*
X213032456Y-105349241D01*
X213032458Y-105348145D01*
X213035814Y-105280799D01*
X213035934Y-105279623D01*
X213045837Y-105215224D01*
X213046154Y-105213783D01*
X213063780Y-105152711D01*
X213064437Y-105150975D01*
X213090007Y-105097023D01*
X213091082Y-105095206D01*
X213125512Y-105047625D01*
X213127044Y-105045903D01*
X213170816Y-105005646D01*
X213172444Y-105004397D01*
X213205721Y-104983303D01*
X213207297Y-104982468D01*
X213246670Y-104965368D01*
X213248201Y-104964828D01*
X213294540Y-104952080D01*
X213296143Y-104951759D01*
X213346105Y-104945423D01*
X213348302Y-104945356D01*
X213387703Y-104947931D01*
X213390205Y-104948376D01*
X213425974Y-104958920D01*
X213428404Y-104959953D01*
X213459551Y-104977654D01*
X213461472Y-104979024D01*
X213489142Y-105003405D01*
X213490479Y-105004799D01*
X213516307Y-105036720D01*
X213517117Y-105037856D01*
X213540155Y-105074690D01*
X213540627Y-105075520D01*
X213563687Y-105120264D01*
X213563711Y-105120363D01*
X213563732Y-105120353D01*
X213594780Y-105181898D01*
X213594783Y-105181903D01*
X213625501Y-105226634D01*
X213642064Y-105242241D01*
X213658641Y-105252189D01*
X213676901Y-105256852D01*
X213698263Y-105255376D01*
X213698265Y-105255376D01*
X213717751Y-105248818D01*
X213735300Y-105237517D01*
X213735305Y-105237512D01*
X213750454Y-105222230D01*
X213763653Y-105202737D01*
X213763658Y-105202729D01*
X213773978Y-105180338D01*
X213782063Y-105153173D01*
X213782066Y-105153161D01*
X213786920Y-105124080D01*
X213788607Y-105091723D01*
X213784980Y-105041606D01*
X213784978Y-105041596D01*
X213773934Y-104990112D01*
X213773933Y-104990107D01*
X213755085Y-104941367D01*
X213737641Y-104913668D01*
X213736158Y-104904993D01*
X213741244Y-104897809D01*
X213745029Y-104896281D01*
X213900100Y-104864016D01*
X213908748Y-104865657D01*
G37*
G36*
X213681080Y-101567357D02*
G01*
X213685773Y-101573618D01*
X213687610Y-101579639D01*
X213688077Y-101582118D01*
X213690045Y-101607837D01*
X213690008Y-101609989D01*
X213685377Y-101651487D01*
X213684763Y-101654121D01*
X213671214Y-101691605D01*
X213670007Y-101694016D01*
X213646954Y-101729065D01*
X213645378Y-101730976D01*
X213611103Y-101764422D01*
X213609443Y-101765765D01*
X213560655Y-101798235D01*
X213560655Y-101800651D01*
X213662217Y-101779518D01*
X213670865Y-101781159D01*
X213675819Y-101788434D01*
X213676060Y-101790777D01*
X213676060Y-101957316D01*
X213672692Y-101965448D01*
X213666901Y-101968575D01*
X213060341Y-102094695D01*
X213051694Y-102093053D01*
X213046741Y-102085777D01*
X213046500Y-102083436D01*
X213046500Y-101916894D01*
X213049868Y-101908762D01*
X213055659Y-101905635D01*
X213348025Y-101844839D01*
X213348047Y-101844833D01*
X213399751Y-101829872D01*
X213399754Y-101829871D01*
X213441437Y-101809337D01*
X213441440Y-101809335D01*
X213474763Y-101783614D01*
X213500886Y-101751541D01*
X213516144Y-101716445D01*
X213521307Y-101677119D01*
X213521307Y-101677117D01*
X213516223Y-101634069D01*
X213507682Y-101614023D01*
X213507594Y-101605221D01*
X213513754Y-101598935D01*
X213515921Y-101598256D01*
X213672433Y-101565715D01*
X213681080Y-101567357D01*
G37*
G36*
X204576762Y-88058637D02*
G01*
X205152861Y-88096396D01*
X205160936Y-88097192D01*
X205733309Y-88172546D01*
X205741315Y-88173868D01*
X206307526Y-88286494D01*
X206315429Y-88288336D01*
X206873098Y-88437764D01*
X206880862Y-88440120D01*
X207427524Y-88625686D01*
X207435119Y-88628544D01*
X207968501Y-88849478D01*
X207975892Y-88852827D01*
X208493671Y-89108168D01*
X208500827Y-89111993D01*
X209000799Y-89400651D01*
X209007690Y-89404936D01*
X209487715Y-89725679D01*
X209494310Y-89730405D01*
X209952325Y-90081852D01*
X209958598Y-90087000D01*
X210392653Y-90467657D01*
X210398575Y-90473204D01*
X210806795Y-90881424D01*
X210812342Y-90887346D01*
X211192999Y-91321401D01*
X211198147Y-91327674D01*
X211549594Y-91785689D01*
X211554320Y-91792284D01*
X211875063Y-92272309D01*
X211879348Y-92279200D01*
X212168006Y-92779172D01*
X212171831Y-92786328D01*
X212427172Y-93304107D01*
X212430521Y-93311498D01*
X212651455Y-93844880D01*
X212654313Y-93852475D01*
X212839879Y-94399137D01*
X212842235Y-94406901D01*
X212991663Y-94964570D01*
X212993505Y-94972473D01*
X213106131Y-95538684D01*
X213107453Y-95546690D01*
X213182807Y-96119063D01*
X213183603Y-96127138D01*
X213205476Y-96460856D01*
X213190218Y-96529039D01*
X213140519Y-96578150D01*
X213135045Y-96580924D01*
X212682503Y-96796383D01*
X212682502Y-96796383D01*
X212377149Y-97015809D01*
X212377139Y-97015817D01*
X210413848Y-99044751D01*
X210413846Y-99044754D01*
X210240000Y-99474410D01*
X210240000Y-100657073D01*
X210404403Y-100890828D01*
X211883169Y-101422099D01*
X211939605Y-101463291D01*
X211964812Y-101528455D01*
X211950787Y-101596902D01*
X211948631Y-101600795D01*
X211879348Y-101720798D01*
X211875063Y-101727690D01*
X211554320Y-102207715D01*
X211549594Y-102214310D01*
X211198147Y-102672325D01*
X211192999Y-102678598D01*
X210812342Y-103112653D01*
X210806795Y-103118575D01*
X210398575Y-103526795D01*
X210392653Y-103532342D01*
X209958598Y-103912999D01*
X209952325Y-103918147D01*
X209494310Y-104269594D01*
X209487715Y-104274320D01*
X209007690Y-104595063D01*
X209000799Y-104599348D01*
X208500827Y-104888006D01*
X208493671Y-104891831D01*
X207975892Y-105147172D01*
X207968501Y-105150521D01*
X207435119Y-105371455D01*
X207427524Y-105374313D01*
X206880862Y-105559879D01*
X206873098Y-105562235D01*
X206315429Y-105711663D01*
X206307526Y-105713505D01*
X205741315Y-105826131D01*
X205733309Y-105827453D01*
X205160936Y-105902807D01*
X205152861Y-105903602D01*
X204576762Y-105941362D01*
X204568652Y-105941628D01*
X203991348Y-105941628D01*
X203983238Y-105941363D01*
X203407138Y-105903603D01*
X203399063Y-105902807D01*
X202826690Y-105827453D01*
X202818684Y-105826131D01*
X202252473Y-105713505D01*
X202244570Y-105711663D01*
X201686901Y-105562235D01*
X201679137Y-105559879D01*
X201132475Y-105374313D01*
X201124880Y-105371455D01*
X200591498Y-105150521D01*
X200584107Y-105147172D01*
X200066328Y-104891831D01*
X200059172Y-104888006D01*
X199559200Y-104599348D01*
X199552309Y-104595063D01*
X199072284Y-104274320D01*
X199065689Y-104269594D01*
X198607674Y-103918147D01*
X198601401Y-103912999D01*
X198167346Y-103532342D01*
X198161424Y-103526795D01*
X197753204Y-103118575D01*
X197747657Y-103112653D01*
X197495266Y-102824857D01*
X205651735Y-102824857D01*
X205651735Y-103505961D01*
X205812935Y-103664808D01*
X205812938Y-103664810D01*
X208620000Y-103660000D01*
X208780000Y-103660000D01*
X208899999Y-103630000D01*
X208900003Y-103629998D01*
X209019996Y-103560002D01*
X209020000Y-103559999D01*
X209099998Y-103470001D01*
X209100003Y-103469995D01*
X209169999Y-103360001D01*
X209200000Y-103249999D01*
X209200000Y-103080001D01*
X209169998Y-102959997D01*
X209110000Y-102860000D01*
X209009998Y-102759999D01*
X208900001Y-102690001D01*
X208779999Y-102660000D01*
X208620107Y-102660000D01*
X207125815Y-102662584D01*
X207107614Y-102660361D01*
X207107545Y-102660928D01*
X207100005Y-102660000D01*
X206940000Y-102660000D01*
X206932454Y-102660929D01*
X206932409Y-102660564D01*
X206913137Y-102662953D01*
X205809394Y-102664863D01*
X205651735Y-102824857D01*
X197495266Y-102824857D01*
X197375882Y-102688726D01*
X197346479Y-102625344D01*
X197356011Y-102556128D01*
X197401451Y-102503052D01*
X197467287Y-102482980D01*
X198890470Y-102462052D01*
X198892293Y-102462039D01*
X199051354Y-102462039D01*
X199171353Y-102432039D01*
X199171357Y-102432037D01*
X199291350Y-102362041D01*
X199291354Y-102362038D01*
X199371352Y-102272040D01*
X199371357Y-102272034D01*
X199441353Y-102162040D01*
X199471354Y-102052038D01*
X199471354Y-101882040D01*
X199441352Y-101762036D01*
X199381354Y-101662039D01*
X199281352Y-101562038D01*
X199171355Y-101492040D01*
X199051353Y-101462039D01*
X198891381Y-101462039D01*
X196623929Y-101495382D01*
X196556608Y-101476685D01*
X196514719Y-101433395D01*
X196391993Y-101220827D01*
X196388168Y-101213671D01*
X196132827Y-100695892D01*
X196129478Y-100688501D01*
X195908544Y-100155119D01*
X195905686Y-100147524D01*
X195720120Y-99600862D01*
X195717764Y-99593098D01*
X195568336Y-99035429D01*
X195566494Y-99027526D01*
X195453868Y-98461315D01*
X195452546Y-98453309D01*
X195377192Y-97880936D01*
X195376396Y-97872861D01*
X195338637Y-97296762D01*
X195338372Y-97288652D01*
X195338372Y-96711347D01*
X195338637Y-96703237D01*
X195356135Y-96436273D01*
X204000000Y-96436273D01*
X204000000Y-96894734D01*
X204126280Y-97019171D01*
X205429116Y-97000013D01*
X205430939Y-97000000D01*
X205590000Y-97000000D01*
X205709999Y-96970000D01*
X205710003Y-96969998D01*
X205829996Y-96900002D01*
X205830000Y-96899999D01*
X205909998Y-96810001D01*
X205910003Y-96809995D01*
X205979999Y-96700001D01*
X206010000Y-96589999D01*
X206010000Y-96556541D01*
X207392636Y-96556541D01*
X207392636Y-97237645D01*
X207553836Y-97396492D01*
X208674485Y-97380013D01*
X208676308Y-97380000D01*
X208755000Y-97380000D01*
X208874999Y-97350000D01*
X208875003Y-97349998D01*
X208994996Y-97280002D01*
X208995000Y-97279999D01*
X209074998Y-97190001D01*
X209075003Y-97189995D01*
X209144999Y-97080001D01*
X209175000Y-96969999D01*
X209175000Y-96800001D01*
X209144998Y-96679997D01*
X209085000Y-96580000D01*
X208984998Y-96479999D01*
X208875001Y-96410001D01*
X208754999Y-96380000D01*
X208753872Y-96380000D01*
X208753056Y-96379760D01*
X208747455Y-96379071D01*
X208747471Y-96378939D01*
X208676254Y-96379987D01*
X208674431Y-96380000D01*
X208594998Y-96380000D01*
X208590719Y-96380526D01*
X208577414Y-96381439D01*
X207550294Y-96396547D01*
X207392636Y-96556541D01*
X206010000Y-96556541D01*
X206010000Y-96420001D01*
X205979998Y-96299997D01*
X205920000Y-96200000D01*
X205819998Y-96099999D01*
X205710001Y-96030001D01*
X205589999Y-96000000D01*
X204975000Y-96000000D01*
X204582153Y-96277304D01*
X204516032Y-96299883D01*
X204510644Y-96300000D01*
X204136273Y-96300000D01*
X204000000Y-96436273D01*
X195356135Y-96436273D01*
X195371367Y-96203867D01*
X195395394Y-96138259D01*
X195451078Y-96096055D01*
X195494919Y-96087977D01*
X197541107Y-96084961D01*
X197545103Y-96082789D01*
X197571252Y-96080000D01*
X197585000Y-96080000D01*
X197704999Y-96050000D01*
X197705003Y-96049998D01*
X197824996Y-95980002D01*
X197825000Y-95979999D01*
X197904998Y-95890001D01*
X197905003Y-95889995D01*
X197974999Y-95780001D01*
X198005000Y-95669999D01*
X198005000Y-95500001D01*
X197974998Y-95379997D01*
X197915000Y-95280000D01*
X197814998Y-95179999D01*
X197705001Y-95110001D01*
X197584999Y-95080000D01*
X197420892Y-95080000D01*
X197414652Y-95080394D01*
X195697643Y-95086821D01*
X195630530Y-95067388D01*
X195584578Y-95014755D01*
X195574376Y-94945635D01*
X195577404Y-94930728D01*
X195717764Y-94406901D01*
X195720120Y-94399137D01*
X195775178Y-94236942D01*
X200320000Y-94236942D01*
X200320000Y-94918046D01*
X200481200Y-95076893D01*
X201629116Y-95060013D01*
X201630939Y-95060000D01*
X201710000Y-95060000D01*
X201829999Y-95030000D01*
X201830003Y-95029998D01*
X201949996Y-94960002D01*
X201950000Y-94959999D01*
X202029998Y-94870001D01*
X202030003Y-94869995D01*
X202099999Y-94760001D01*
X202130000Y-94649999D01*
X202130000Y-94480001D01*
X202099998Y-94359997D01*
X202040000Y-94260000D01*
X201939998Y-94159999D01*
X201830001Y-94090001D01*
X201709999Y-94060000D01*
X201549993Y-94060000D01*
X201545774Y-94060519D01*
X201532459Y-94061434D01*
X200477658Y-94076948D01*
X200320000Y-94236942D01*
X195775178Y-94236942D01*
X195905686Y-93852475D01*
X195908544Y-93844880D01*
X196129478Y-93311498D01*
X196132827Y-93304107D01*
X196388168Y-92786328D01*
X196391993Y-92779172D01*
X196680651Y-92279200D01*
X196684936Y-92272309D01*
X197005679Y-91792284D01*
X197010405Y-91785689D01*
X197361852Y-91327674D01*
X197367000Y-91321401D01*
X197747657Y-90887346D01*
X197753204Y-90881424D01*
X198161424Y-90473204D01*
X198167346Y-90467657D01*
X198601401Y-90087000D01*
X198607674Y-90081852D01*
X199065689Y-89730405D01*
X199072284Y-89725679D01*
X199552309Y-89404936D01*
X199559200Y-89400651D01*
X200059172Y-89111993D01*
X200066328Y-89108168D01*
X200584107Y-88852827D01*
X200591498Y-88849478D01*
X201124880Y-88628544D01*
X201132475Y-88625686D01*
X201679137Y-88440120D01*
X201686901Y-88437764D01*
X202244570Y-88288336D01*
X202252473Y-88286494D01*
X202818684Y-88173868D01*
X202826690Y-88172546D01*
X203399063Y-88097192D01*
X203407138Y-88096396D01*
X203983238Y-88058637D01*
X203991348Y-88058372D01*
X204568652Y-88058372D01*
X204576762Y-88058637D01*
G37*
M02*
