%TF.GenerationSoftware,KiCad,Pcbnew,9.0.8*%
%TF.CreationDate,2026-03-26T18:30:07+00:00*%
%TF.ProjectId,azss,617a7373-2e6b-4696-9361-645f70636258,rev?*%
%TF.SameCoordinates,Original*%
%TF.FileFunction,Soldermask,Top*%
%TF.FilePolarity,Negative*%
%FSLAX46Y46*%
G04 Gerber Fmt 4.6, Leading zero omitted, Abs format (unit mm)*
G04 Created by KiCad (PCBNEW 9.0.8) date 2026-03-26 18:30:07*
%MOMM*%
%LPD*%
G01*
G04 APERTURE LIST*
G04 Aperture macros list*
%AMRoundRect*
0 Rectangle with rounded corners*
0 $1 Rounding radius*
0 $2 $3 $4 $5 $6 $7 $8 $9 X,Y pos of 4 corners*
0 Add a 4 corners polygon primitive as box body*
4,1,4,$2,$3,$4,$5,$6,$7,$8,$9,$2,$3,0*
0 Add four circle primitives for the rounded corners*
1,1,$1+$1,$2,$3*
1,1,$1+$1,$4,$5*
1,1,$1+$1,$6,$7*
1,1,$1+$1,$8,$9*
0 Add four rect primitives between the rounded corners*
20,1,$1+$1,$2,$3,$4,$5,0*
20,1,$1+$1,$4,$5,$6,$7,0*
20,1,$1+$1,$6,$7,$8,$9,0*
20,1,$1+$1,$8,$9,$2,$3,0*%
%AMFreePoly0*
4,1,6,0.500000,-0.850000,-0.500000,-0.850000,-0.500000,0.550000,-0.200000,0.850000,0.500000,0.850000,0.500000,-0.850000,0.500000,-0.850000,$1*%
G04 Aperture macros list end*
%ADD10C,0.200000*%
%ADD11C,0.400000*%
%ADD12C,0.250000*%
%ADD13C,0.100000*%
%ADD14C,0.330000*%
%ADD15C,0.350000*%
%ADD16C,0.787400*%
%ADD17C,0.990600*%
%ADD18R,2.000000X1.200000*%
%ADD19RoundRect,0.062500X0.062500X-0.350000X0.062500X0.350000X-0.062500X0.350000X-0.062500X-0.350000X0*%
%ADD20RoundRect,0.090000X-0.210000X-0.210000X0.210000X-0.210000X0.210000X0.210000X-0.210000X0.210000X0*%
%ADD21FreePoly0,0.000000*%
%ADD22R,0.550000X0.250000*%
%ADD23RoundRect,0.135000X0.135000X0.185000X-0.135000X0.185000X-0.135000X-0.185000X0.135000X-0.185000X0*%
%ADD24RoundRect,0.135000X-0.135000X-0.185000X0.135000X-0.185000X0.135000X0.185000X-0.135000X0.185000X0*%
%ADD25RoundRect,0.225000X0.225000X0.250000X-0.225000X0.250000X-0.225000X-0.250000X0.225000X-0.250000X0*%
%ADD26RoundRect,0.135000X-0.185000X0.135000X-0.185000X-0.135000X0.185000X-0.135000X0.185000X0.135000X0*%
%ADD27RoundRect,0.225000X0.250000X-0.225000X0.250000X0.225000X-0.250000X0.225000X-0.250000X-0.225000X0*%
%ADD28R,1.000000X1.800000*%
%ADD29RoundRect,0.225000X-0.225000X-0.250000X0.225000X-0.250000X0.225000X0.250000X-0.225000X0.250000X0*%
%ADD30RoundRect,0.140000X-0.140000X-0.170000X0.140000X-0.170000X0.140000X0.170000X-0.140000X0.170000X0*%
%ADD31RoundRect,0.082500X0.792500X-0.192500X0.792500X0.192500X-0.792500X0.192500X-0.792500X-0.192500X0*%
%ADD32RoundRect,0.150000X0.150000X-0.587500X0.150000X0.587500X-0.150000X0.587500X-0.150000X-0.587500X0*%
%ADD33RoundRect,0.140000X-0.170000X0.140000X-0.170000X-0.140000X0.170000X-0.140000X0.170000X0.140000X0*%
%ADD34RoundRect,0.135000X0.185000X-0.135000X0.185000X0.135000X-0.185000X0.135000X-0.185000X-0.135000X0*%
%ADD35RoundRect,0.225000X-0.250000X0.225000X-0.250000X-0.225000X0.250000X-0.225000X0.250000X0.225000X0*%
%ADD36RoundRect,0.218750X0.218750X0.381250X-0.218750X0.381250X-0.218750X-0.381250X0.218750X-0.381250X0*%
%ADD37RoundRect,0.200000X-0.275000X0.200000X-0.275000X-0.200000X0.275000X-0.200000X0.275000X0.200000X0*%
%ADD38RoundRect,0.140000X0.170000X-0.140000X0.170000X0.140000X-0.170000X0.140000X-0.170000X-0.140000X0*%
%ADD39RoundRect,0.200000X0.275000X-0.200000X0.275000X0.200000X-0.275000X0.200000X-0.275000X-0.200000X0*%
%ADD40RoundRect,0.045000X0.205000X0.105000X-0.205000X0.105000X-0.205000X-0.105000X0.205000X-0.105000X0*%
%ADD41RoundRect,0.075000X0.175000X0.175000X-0.175000X0.175000X-0.175000X-0.175000X0.175000X-0.175000X0*%
%ADD42RoundRect,0.218750X-0.256250X0.218750X-0.256250X-0.218750X0.256250X-0.218750X0.256250X0.218750X0*%
%ADD43RoundRect,0.200000X-0.200000X-0.275000X0.200000X-0.275000X0.200000X0.275000X-0.200000X0.275000X0*%
%ADD44RoundRect,0.250000X0.625000X-0.312500X0.625000X0.312500X-0.625000X0.312500X-0.625000X-0.312500X0*%
G04 APERTURE END LIST*
D10*
X209280000Y-106260000D02*
X210520000Y-106260000D01*
X210520000Y-107740000D01*
X209280000Y-107740000D01*
X209280000Y-106260000D01*
G36*
X209280000Y-106260000D02*
G01*
X210520000Y-106260000D01*
X210520000Y-107740000D01*
X209280000Y-107740000D01*
X209280000Y-106260000D01*
G37*
X209330000Y-102660000D02*
X210520000Y-102660000D01*
X210520000Y-105220000D01*
X209330000Y-105220000D01*
X209330000Y-102660000D01*
G36*
X209330000Y-102660000D02*
G01*
X210520000Y-102660000D01*
X210520000Y-105220000D01*
X209330000Y-105220000D01*
X209330000Y-102660000D01*
G37*
D11*
X210360000Y-92210000D02*
G75*
G02*
X209960000Y-92210000I-200000J0D01*
G01*
X209960000Y-92210000D02*
G75*
G02*
X210360000Y-92210000I200000J0D01*
G01*
D12*
X211500000Y-102300000D02*
X214040000Y-102300000D01*
X214040000Y-105710000D01*
X211500000Y-105710000D01*
X211500000Y-102300000D01*
G36*
X211500000Y-102300000D02*
G01*
X214040000Y-102300000D01*
X214040000Y-105710000D01*
X211500000Y-105710000D01*
X211500000Y-102300000D01*
G37*
D13*
X194990000Y-102460000D02*
X196180000Y-102460000D01*
X196180000Y-105370000D01*
X194990000Y-105370000D01*
X194990000Y-102460000D01*
G36*
X194990000Y-102460000D02*
G01*
X196180000Y-102460000D01*
X196180000Y-105370000D01*
X194990000Y-105370000D01*
X194990000Y-102460000D01*
G37*
D14*
X210250000Y-96385000D02*
G75*
G02*
X209920000Y-96385000I-165000J0D01*
G01*
X209920000Y-96385000D02*
G75*
G02*
X210250000Y-96385000I165000J0D01*
G01*
X210290000Y-95190000D02*
G75*
G02*
X209960000Y-95190000I-165000J0D01*
G01*
X209960000Y-95190000D02*
G75*
G02*
X210290000Y-95190000I165000J0D01*
G01*
D15*
X211595000Y-89680000D02*
G75*
G02*
X211245000Y-89680000I-175000J0D01*
G01*
X211245000Y-89680000D02*
G75*
G02*
X211595000Y-89680000I175000J0D01*
G01*
D11*
X203430000Y-104440000D02*
G75*
G02*
X203030000Y-104440000I-200000J0D01*
G01*
X203030000Y-104440000D02*
G75*
G02*
X203430000Y-104440000I200000J0D01*
G01*
D16*
%TO.C,J1*%
X212155000Y-84765000D03*
X213425000Y-84765000D03*
X212155000Y-86035000D03*
X213425000Y-86035000D03*
X212155000Y-87305000D03*
X213425000Y-87305000D03*
D17*
X213806000Y-83495000D03*
X211774000Y-83495000D03*
X212790000Y-88575000D03*
%TD*%
D18*
%TO.C,U1*%
X205550000Y-104470000D03*
D19*
X204550000Y-103257500D03*
X205050000Y-103257500D03*
X205550000Y-103257500D03*
X206050000Y-103257500D03*
X206550000Y-103257500D03*
X206550000Y-105682500D03*
X206050000Y-105682500D03*
X205550000Y-105682500D03*
X205050000Y-105682500D03*
X204550000Y-105682500D03*
%TD*%
D20*
%TO.C,U2*%
X199950000Y-82100000D03*
X201050000Y-82100000D03*
X207650000Y-82100000D03*
X208750000Y-82100000D03*
X199950000Y-83600000D03*
X208750000Y-83600000D03*
X199950000Y-85100000D03*
X208750000Y-85100000D03*
X199950000Y-86200000D03*
X201050000Y-86200000D03*
X202150000Y-86200000D03*
X203800000Y-86200000D03*
X204900000Y-86200000D03*
X206550000Y-86200000D03*
X207650000Y-86200000D03*
X208750000Y-86200000D03*
X199950000Y-87300000D03*
X201050000Y-87300000D03*
X202150000Y-87300000D03*
X206550000Y-87300000D03*
X207650000Y-87300000D03*
X208750000Y-87300000D03*
X199950000Y-88400000D03*
X201050000Y-88400000D03*
X202150000Y-88400000D03*
X203800000Y-88400000D03*
X204900000Y-88400000D03*
X206550000Y-88400000D03*
X207650000Y-88400000D03*
X208750000Y-88400000D03*
X199950000Y-89500000D03*
X201050000Y-89500000D03*
X202150000Y-89500000D03*
X206550000Y-89500000D03*
X207650000Y-89500000D03*
X208750000Y-89500000D03*
X199950000Y-90600000D03*
X201050000Y-90600000D03*
X202150000Y-90600000D03*
X206550000Y-90600000D03*
X207650000Y-90600000D03*
X208750000Y-90600000D03*
X199950000Y-91700000D03*
X201050000Y-91700000D03*
X202150000Y-91700000D03*
X206550000Y-91700000D03*
X207650000Y-91700000D03*
X208750000Y-91700000D03*
X199950000Y-92800000D03*
X201050000Y-92800000D03*
X203250000Y-92800000D03*
X204350000Y-92800000D03*
X205450000Y-92800000D03*
X207650000Y-92800000D03*
X208750000Y-92800000D03*
X199950000Y-93900000D03*
X202150000Y-93900000D03*
X203250000Y-93900000D03*
X204350000Y-93900000D03*
X205450000Y-93900000D03*
X206550000Y-93900000D03*
X208750000Y-93900000D03*
X201050000Y-95000000D03*
X202150000Y-95000000D03*
X203250000Y-95000000D03*
X204350000Y-95000000D03*
X205450000Y-95000000D03*
X206550000Y-95000000D03*
X207650000Y-95000000D03*
X208750000Y-95000000D03*
X207650000Y-93900000D03*
X207650000Y-85100000D03*
X206550000Y-85100000D03*
X204900000Y-90600000D03*
X204900000Y-89500000D03*
X204350000Y-85100000D03*
X203800000Y-90600000D03*
X203800000Y-89500000D03*
X202150000Y-85100000D03*
X201050000Y-93900000D03*
X201050000Y-85100000D03*
X199950000Y-95000000D03*
%TD*%
D21*
%TO.C,U4*%
X212125000Y-96180000D03*
D22*
X213300000Y-95430000D03*
X213300000Y-95930000D03*
X213300000Y-96430000D03*
X213300000Y-96930000D03*
X210950000Y-96930000D03*
X210950000Y-96430000D03*
X210950000Y-95930000D03*
X210950000Y-95430000D03*
%TD*%
D23*
%TO.C,R6*%
X208660000Y-97400000D03*
X207640000Y-97400000D03*
%TD*%
D24*
%TO.C,R7*%
X205690000Y-97400000D03*
X206710000Y-97400000D03*
%TD*%
D25*
%TO.C,C11*%
X213040000Y-98450000D03*
X211490000Y-98450000D03*
%TD*%
D26*
%TO.C,R4*%
X205200000Y-106960000D03*
X205200000Y-107980000D03*
%TD*%
D27*
%TO.C,C5*%
X197550000Y-94825000D03*
X197550000Y-93275000D03*
%TD*%
D28*
%TO.C,Y1*%
X202600000Y-98100000D03*
X200100000Y-98100000D03*
%TD*%
D29*
%TO.C,C9*%
X208725000Y-101600000D03*
X210275000Y-101600000D03*
%TD*%
D30*
%TO.C,C7*%
X203830000Y-97410000D03*
X204790000Y-97410000D03*
%TD*%
D31*
%TO.C,SW1*%
X212240000Y-90835000D03*
X212240000Y-94085000D03*
%TD*%
D32*
%TO.C,Q1*%
X200050000Y-105200000D03*
X201950000Y-105200000D03*
X201000000Y-103324999D03*
%TD*%
D27*
%TO.C,C10*%
X210000000Y-100000000D03*
X210000000Y-98450000D03*
%TD*%
D33*
%TO.C,C8*%
X198800000Y-97570000D03*
X198800000Y-98530000D03*
%TD*%
D34*
%TO.C,R9*%
X200020000Y-101880000D03*
X200020000Y-100860000D03*
%TD*%
D35*
%TO.C,C4*%
X207840000Y-103430000D03*
X207840000Y-104980000D03*
%TD*%
D36*
%TO.C,L1*%
X206612500Y-101720000D03*
X204487500Y-101720000D03*
%TD*%
D37*
%TO.C,R8*%
X197117500Y-86657500D03*
X197117500Y-88307500D03*
%TD*%
D38*
%TO.C,C2*%
X203250000Y-103310000D03*
X203250000Y-102350000D03*
%TD*%
D39*
%TO.C,R10*%
X201350000Y-101575000D03*
X201350000Y-99925000D03*
%TD*%
D40*
%TO.C,U3*%
X208400000Y-100000000D03*
D41*
X208300000Y-100100000D03*
X207500000Y-100100000D03*
X206700000Y-100100000D03*
X205900000Y-100100000D03*
X205100000Y-100100000D03*
X205100000Y-99300000D03*
X205100000Y-98500000D03*
X205900000Y-98500000D03*
X206700000Y-98500000D03*
X207500000Y-98500000D03*
X208300000Y-98500000D03*
X208300000Y-99300000D03*
%TD*%
D26*
%TO.C,R5*%
X206200000Y-106970000D03*
X206200000Y-107990000D03*
%TD*%
D42*
%TO.C,D4*%
X197137500Y-83675000D03*
X197137500Y-85250000D03*
%TD*%
D35*
%TO.C,C3*%
X203300000Y-105950000D03*
X203300000Y-107500000D03*
%TD*%
%TO.C,C6*%
X197500000Y-96350000D03*
X197500000Y-97900000D03*
%TD*%
D43*
%TO.C,R2*%
X200180000Y-107039999D03*
X201830000Y-107039999D03*
%TD*%
D25*
%TO.C,C1*%
X197850000Y-108690000D03*
X199400000Y-108690000D03*
%TD*%
D44*
%TO.C,R11*%
X197830000Y-107000000D03*
X197830000Y-104075000D03*
%TD*%
G36*
X196098693Y-106610617D02*
G01*
X196145281Y-106662688D01*
X196157318Y-106715983D01*
X196157318Y-109377952D01*
X196137633Y-109444991D01*
X196084829Y-109490746D01*
X196035286Y-109501936D01*
X195624304Y-109508459D01*
X195556960Y-109489841D01*
X195520258Y-109454874D01*
X194919240Y-108583397D01*
X194897384Y-108517034D01*
X194897318Y-108512998D01*
X194897318Y-106732046D01*
X194917003Y-106665007D01*
X194969807Y-106619252D01*
X195019350Y-106608062D01*
X196031350Y-106591999D01*
X196098693Y-106610617D01*
G37*
M02*
