%TF.GenerationSoftware,KiCad,Pcbnew,9.0.8*%
%TF.CreationDate,2026-03-26T18:30:06+00:00*%
%TF.ProjectId,azss,617a7373-2e6b-4696-9361-645f70636258,rev?*%
%TF.SameCoordinates,Original*%
%TF.FileFunction,Copper,L1,Top*%
%TF.FilePolarity,Positive*%
%FSLAX46Y46*%
G04 Gerber Fmt 4.6, Leading zero omitted, Abs format (unit mm)*
G04 Created by KiCad (PCBNEW 9.0.8) date 2026-03-26 18:30:06*
%MOMM*%
%LPD*%
G01*
G04 APERTURE LIST*
G04 Aperture macros list*
%AMRoundRect*
0 Rectangle with rounded corners*
0 $1 Rounding radius*
0 $2 $3 $4 $5 $6 $7 $8 $9 X,Y pos of 4 corners*
0 Add a 4 corners polygon primitive as box body*
4,1,4,$2,$3,$4,$5,$6,$7,$8,$9,$2,$3,0*
0 Add four circle primitives for the rounded corners*
1,1,$1+$1,$2,$3*
1,1,$1+$1,$4,$5*
1,1,$1+$1,$6,$7*
1,1,$1+$1,$8,$9*
0 Add four rect primitives between the rounded corners*
20,1,$1+$1,$2,$3,$4,$5,0*
20,1,$1+$1,$4,$5,$6,$7,0*
20,1,$1+$1,$6,$7,$8,$9,0*
20,1,$1+$1,$8,$9,$2,$3,0*%
%AMFreePoly0*
4,1,6,0.500000,-0.850000,-0.500000,-0.850000,-0.500000,0.550000,-0.200000,0.850000,0.500000,0.850000,0.500000,-0.850000,0.500000,-0.850000,$1*%
G04 Aperture macros list end*
%TA.AperFunction,Conductor*%
%ADD10C,0.000000*%
%TD*%
%TA.AperFunction,Conductor*%
%ADD11C,0.375000*%
%TD*%
%TA.AperFunction,Conductor*%
%ADD12C,0.361347*%
%TD*%
%TA.AperFunction,ConnectorPad*%
%ADD13C,0.787400*%
%TD*%
%TA.AperFunction,HeatsinkPad*%
%ADD14R,2.000000X1.200000*%
%TD*%
%TA.AperFunction,SMDPad,CuDef*%
%ADD15RoundRect,0.062500X0.062500X-0.350000X0.062500X0.350000X-0.062500X0.350000X-0.062500X-0.350000X0*%
%TD*%
%TA.AperFunction,SMDPad,CuDef*%
%ADD16RoundRect,0.090000X-0.210000X-0.210000X0.210000X-0.210000X0.210000X0.210000X-0.210000X0.210000X0*%
%TD*%
%TA.AperFunction,SMDPad,CuDef*%
%ADD17FreePoly0,0.000000*%
%TD*%
%TA.AperFunction,SMDPad,CuDef*%
%ADD18R,0.550000X0.250000*%
%TD*%
%TA.AperFunction,SMDPad,CuDef*%
%ADD19RoundRect,0.135000X0.135000X0.185000X-0.135000X0.185000X-0.135000X-0.185000X0.135000X-0.185000X0*%
%TD*%
%TA.AperFunction,SMDPad,CuDef*%
%ADD20RoundRect,0.135000X-0.135000X-0.185000X0.135000X-0.185000X0.135000X0.185000X-0.135000X0.185000X0*%
%TD*%
%TA.AperFunction,SMDPad,CuDef*%
%ADD21RoundRect,0.225000X0.225000X0.250000X-0.225000X0.250000X-0.225000X-0.250000X0.225000X-0.250000X0*%
%TD*%
%TA.AperFunction,SMDPad,CuDef*%
%ADD22RoundRect,0.135000X-0.185000X0.135000X-0.185000X-0.135000X0.185000X-0.135000X0.185000X0.135000X0*%
%TD*%
%TA.AperFunction,SMDPad,CuDef*%
%ADD23RoundRect,0.225000X0.250000X-0.225000X0.250000X0.225000X-0.250000X0.225000X-0.250000X-0.225000X0*%
%TD*%
%TA.AperFunction,SMDPad,CuDef*%
%ADD24R,1.000000X1.800000*%
%TD*%
%TA.AperFunction,SMDPad,CuDef*%
%ADD25RoundRect,0.225000X-0.225000X-0.250000X0.225000X-0.250000X0.225000X0.250000X-0.225000X0.250000X0*%
%TD*%
%TA.AperFunction,SMDPad,CuDef*%
%ADD26RoundRect,0.140000X-0.140000X-0.170000X0.140000X-0.170000X0.140000X0.170000X-0.140000X0.170000X0*%
%TD*%
%TA.AperFunction,SMDPad,CuDef*%
%ADD27RoundRect,0.082500X0.792500X-0.192500X0.792500X0.192500X-0.792500X0.192500X-0.792500X-0.192500X0*%
%TD*%
%TA.AperFunction,SMDPad,CuDef*%
%ADD28RoundRect,0.150000X0.150000X-0.587500X0.150000X0.587500X-0.150000X0.587500X-0.150000X-0.587500X0*%
%TD*%
%TA.AperFunction,SMDPad,CuDef*%
%ADD29RoundRect,0.140000X-0.170000X0.140000X-0.170000X-0.140000X0.170000X-0.140000X0.170000X0.140000X0*%
%TD*%
%TA.AperFunction,SMDPad,CuDef*%
%ADD30RoundRect,0.135000X0.185000X-0.135000X0.185000X0.135000X-0.185000X0.135000X-0.185000X-0.135000X0*%
%TD*%
%TA.AperFunction,SMDPad,CuDef*%
%ADD31RoundRect,0.225000X-0.250000X0.225000X-0.250000X-0.225000X0.250000X-0.225000X0.250000X0.225000X0*%
%TD*%
%TA.AperFunction,SMDPad,CuDef*%
%ADD32RoundRect,0.218750X0.218750X0.381250X-0.218750X0.381250X-0.218750X-0.381250X0.218750X-0.381250X0*%
%TD*%
%TA.AperFunction,SMDPad,CuDef*%
%ADD33RoundRect,0.200000X-0.275000X0.200000X-0.275000X-0.200000X0.275000X-0.200000X0.275000X0.200000X0*%
%TD*%
%TA.AperFunction,SMDPad,CuDef*%
%ADD34RoundRect,0.140000X0.170000X-0.140000X0.170000X0.140000X-0.170000X0.140000X-0.170000X-0.140000X0*%
%TD*%
%TA.AperFunction,SMDPad,CuDef*%
%ADD35RoundRect,0.200000X0.275000X-0.200000X0.275000X0.200000X-0.275000X0.200000X-0.275000X-0.200000X0*%
%TD*%
%TA.AperFunction,SMDPad,CuDef*%
%ADD36RoundRect,0.045000X0.205000X0.105000X-0.205000X0.105000X-0.205000X-0.105000X0.205000X-0.105000X0*%
%TD*%
%TA.AperFunction,SMDPad,CuDef*%
%ADD37RoundRect,0.075000X0.175000X0.175000X-0.175000X0.175000X-0.175000X-0.175000X0.175000X-0.175000X0*%
%TD*%
%TA.AperFunction,SMDPad,CuDef*%
%ADD38RoundRect,0.218750X-0.256250X0.218750X-0.256250X-0.218750X0.256250X-0.218750X0.256250X0.218750X0*%
%TD*%
%TA.AperFunction,SMDPad,CuDef*%
%ADD39RoundRect,0.200000X-0.200000X-0.275000X0.200000X-0.275000X0.200000X0.275000X-0.200000X0.275000X0*%
%TD*%
%TA.AperFunction,SMDPad,CuDef*%
%ADD40RoundRect,0.250000X0.625000X-0.312500X0.625000X0.312500X-0.625000X0.312500X-0.625000X-0.312500X0*%
%TD*%
%TA.AperFunction,ViaPad*%
%ADD41C,0.600000*%
%TD*%
%TA.AperFunction,Conductor*%
%ADD42C,0.600000*%
%TD*%
%TA.AperFunction,Conductor*%
%ADD43C,0.250000*%
%TD*%
%TA.AperFunction,Conductor*%
%ADD44C,0.200000*%
%TD*%
%TA.AperFunction,Conductor*%
%ADD45C,0.127000*%
%TD*%
%TA.AperFunction,Conductor*%
%ADD46C,0.300000*%
%TD*%
%TA.AperFunction,Conductor*%
%ADD47C,0.381000*%
%TD*%
%TA.AperFunction,Conductor*%
%ADD48C,0.125000*%
%TD*%
%TA.AperFunction,Conductor*%
%ADD49C,0.800000*%
%TD*%
G04 APERTURE END LIST*
D10*
%TA.AperFunction,Conductor*%
%TO.N,/SHUNT LO*%
G36*
X200950000Y-103150000D02*
G01*
X200800000Y-104050000D01*
X200350000Y-103950000D01*
X200350000Y-103350000D01*
X200700000Y-103100000D01*
X200950000Y-103150000D01*
G37*
%TD.AperFunction*%
%TO.N,/I2C_SCL*%
D11*
X210272500Y-96385000D02*
G75*
G02*
X209897500Y-96385000I-187500J0D01*
G01*
X209897500Y-96385000D02*
G75*
G02*
X210272500Y-96385000I187500J0D01*
G01*
%TO.N,/I2C_SDA*%
X210312500Y-95190000D02*
G75*
G02*
X209937500Y-95190000I-187500J0D01*
G01*
X209937500Y-95190000D02*
G75*
G02*
X210312500Y-95190000I187500J0D01*
G01*
%TO.N,Net-(U2-QSPI_CLK)*%
D12*
X211599331Y-89681940D02*
G75*
G02*
X211237985Y-89681940I-180673J0D01*
G01*
X211237985Y-89681940D02*
G75*
G02*
X211599331Y-89681940I180673J0D01*
G01*
%TD*%
D13*
%TO.P,J1,6,SWO*%
%TO.N,unconnected-(J1-SWO-Pad6)*%
X212155000Y-84765000D03*
%TO.P,J1,5,GND*%
%TO.N,GND*%
X213425000Y-84765000D03*
%TO.P,J1,4,SWCLK*%
%TO.N,/SWCLK*%
X212155000Y-86035000D03*
%TO.P,J1,3,~{RESET}*%
%TO.N,/RESET_N*%
X213425000Y-86035000D03*
%TO.P,J1,2,SWDIO*%
%TO.N,/SWDIO*%
X212155000Y-87305000D03*
%TO.P,J1,1,VCC*%
%TO.N,+2V8*%
X213425000Y-87305000D03*
%TD*%
D14*
%TO.P,U1,11,GND*%
%TO.N,GND*%
X205550000Y-104470000D03*
D15*
%TO.P,U1,10,VIN*%
%TO.N,Net-(Q1-S)*%
X204550000Y-103257500D03*
%TO.P,U1,9,LX1*%
%TO.N,Net-(U1-LX1)*%
X205050000Y-103257500D03*
%TO.P,U1,8,GND*%
%TO.N,GND*%
X205550000Y-103257500D03*
%TO.P,U1,7,LX2*%
%TO.N,Net-(U1-LX2)*%
X206050000Y-103257500D03*
%TO.P,U1,6,VOUT*%
%TO.N,+2V8*%
X206550000Y-103257500D03*
%TO.P,U1,5,CFG3*%
%TO.N,GND*%
X206550000Y-105682500D03*
%TO.P,U1,4,CFG2*%
%TO.N,Net-(U1-CFG2)*%
X206050000Y-105682500D03*
%TO.P,U1,3,CFG1*%
%TO.N,Net-(U1-CFG1)*%
X205550000Y-105682500D03*
%TO.P,U1,2,SEL*%
%TO.N,Net-(Q1-S)*%
X205050000Y-105682500D03*
%TO.P,U1,1,EN*%
X204550000Y-105682500D03*
%TD*%
D16*
%TO.P,U2,M9,EAGP*%
%TO.N,GND*%
X199950000Y-82100000D03*
%TO.P,U2,M8,EAGP*%
X201050000Y-82100000D03*
%TO.P,U2,M2,EAGP*%
X207650000Y-82100000D03*
%TO.P,U2,M1,EAGP*%
X208750000Y-82100000D03*
%TO.P,U2,L9,EAGP*%
X199950000Y-83600000D03*
%TO.P,U2,L1,EAGP*%
X208750000Y-83600000D03*
%TO.P,U2,K9,NC*%
%TO.N,unconnected-(U2-NC-PadK9)*%
X199950000Y-85100000D03*
%TO.P,U2,K1,NC*%
%TO.N,unconnected-(U2-NC-PadK1)*%
X208750000Y-85100000D03*
%TO.P,U2,J9,WAKE-UP*%
%TO.N,unconnected-(U2-WAKE-UP-PadJ9)*%
X199950000Y-86200000D03*
%TO.P,U2,J8,P1.13*%
%TO.N,unconnected-(U2-P1.13-PadJ8)*%
X201050000Y-86200000D03*
%TO.P,U2,J7,NC*%
%TO.N,unconnected-(U2-NC-PadJ7)*%
X202150000Y-86200000D03*
%TO.P,U2,J5,NC*%
%TO.N,unconnected-(U2-NC-PadJ5)*%
X203800000Y-86200000D03*
%TO.P,U2,J4,NC*%
%TO.N,unconnected-(U2-NC-PadJ4)*%
X204900000Y-86200000D03*
%TO.P,U2,J3,RESET_N*%
%TO.N,/RESET_N*%
X206550000Y-86200000D03*
%TO.P,U2,J2,SWDCLK*%
%TO.N,/SWCLK*%
X207650000Y-86200000D03*
%TO.P,U2,J1,NC*%
%TO.N,unconnected-(U2-NC-PadJ1)*%
X208750000Y-86200000D03*
%TO.P,U2,H9,P1.10*%
%TO.N,unconnected-(U2-P1.10-PadH9)*%
X199950000Y-87300000D03*
%TO.P,U2,H8,P0.04*%
%TO.N,unconnected-(U2-P0.04-PadH8)*%
X201050000Y-87300000D03*
%TO.P,U2,H7,NC*%
%TO.N,unconnected-(U2-NC-PadH7)*%
X202150000Y-87300000D03*
%TO.P,U2,H3,NC*%
%TO.N,unconnected-(U2-NC-PadH3)*%
X206550000Y-87300000D03*
%TO.P,U2,H2,SWDIO*%
%TO.N,/SWDIO*%
X207650000Y-87300000D03*
%TO.P,U2,H1,NC*%
%TO.N,unconnected-(U2-NC-PadH1)*%
X208750000Y-87300000D03*
%TO.P,U2,G9,P1.05*%
%TO.N,/ERROR_OUT*%
X199950000Y-88400000D03*
%TO.P,U2,G8,UART_TXD*%
%TO.N,unconnected-(U2-UART_TXD-PadG8)*%
X201050000Y-88400000D03*
%TO.P,U2,G7,RF_CTRL2*%
%TO.N,unconnected-(U2-RF_CTRL2-PadG7)*%
X202150000Y-88400000D03*
%TO.P,U2,G5,RF_CTRL1*%
%TO.N,unconnected-(U2-RF_CTRL1-PadG5)*%
X203800000Y-88400000D03*
%TO.P,U2,G4,NC*%
%TO.N,unconnected-(U2-NC-PadG4)*%
X204900000Y-88400000D03*
%TO.P,U2,G3,NC*%
%TO.N,unconnected-(U2-NC-PadG3)*%
X206550000Y-88400000D03*
%TO.P,U2,G2,NC*%
%TO.N,unconnected-(U2-NC-PadG2)*%
X207650000Y-88400000D03*
%TO.P,U2,G1,NC*%
%TO.N,unconnected-(U2-NC-PadG1)*%
X208750000Y-88400000D03*
%TO.P,U2,F9,P1.07*%
%TO.N,/XSHUT*%
X199950000Y-89500000D03*
%TO.P,U2,F8,UART_RTS*%
%TO.N,unconnected-(U2-UART_RTS-PadF8)*%
X201050000Y-89500000D03*
%TO.P,U2,F7,NC*%
%TO.N,unconnected-(U2-NC-PadF7)*%
X202150000Y-89500000D03*
%TO.P,U2,F3,NC*%
%TO.N,unconnected-(U2-NC-PadF3)*%
X206550000Y-89500000D03*
%TO.P,U2,F2,QSPI_D3*%
%TO.N,unconnected-(U2-QSPI_D3-PadF2)*%
X207650000Y-89500000D03*
%TO.P,U2,F1,P2.01*%
%TO.N,Net-(U2-QSPI_CLK)*%
X208750000Y-89500000D03*
%TO.P,U2,E9,P1.08*%
%TO.N,/GPIO1*%
X199950000Y-90600000D03*
%TO.P,U2,E8,WAKE-HOST*%
%TO.N,unconnected-(U2-WAKE-HOST-PadE8)*%
X201050000Y-90600000D03*
%TO.P,U2,E7,NC*%
%TO.N,unconnected-(U2-NC-PadE7)*%
X202150000Y-90600000D03*
%TO.P,U2,E3,NC*%
%TO.N,unconnected-(U2-NC-PadE3)*%
X206550000Y-90600000D03*
%TO.P,U2,E2,QSPI_D1*%
%TO.N,unconnected-(U2-QSPI_D1-PadE2)*%
X207650000Y-90600000D03*
%TO.P,U2,E1,QSPI_CS*%
%TO.N,unconnected-(U2-QSPI_CS-PadE1)*%
X208750000Y-90600000D03*
%TO.P,U2,D9,NC*%
%TO.N,unconnected-(U2-NC-PadD9)*%
X199950000Y-91700000D03*
%TO.P,U2,D8,P1.09*%
%TO.N,unconnected-(U2-P1.09-PadD8)*%
X201050000Y-91700000D03*
%TO.P,U2,D7,NC*%
%TO.N,unconnected-(U2-NC-PadD7)*%
X202150000Y-91700000D03*
%TO.P,U2,D3,NC*%
%TO.N,unconnected-(U2-NC-PadD3)*%
X206550000Y-91700000D03*
%TO.P,U2,D2,QSPI_D0*%
%TO.N,unconnected-(U2-QSPI_D0-PadD2)*%
X207650000Y-91700000D03*
%TO.P,U2,D1,QSPI_D2*%
%TO.N,unconnected-(U2-QSPI_D2-PadD1)*%
X208750000Y-91700000D03*
%TO.P,U2,C9,NC*%
%TO.N,unconnected-(U2-NC-PadC9)*%
X199950000Y-92800000D03*
%TO.P,U2,C8,P0.02*%
%TO.N,unconnected-(U2-P0.02-PadC8)*%
X201050000Y-92800000D03*
%TO.P,U2,C6,XL2_32K*%
%TO.N,Net-(U2-XL2_32K)*%
X203250000Y-92800000D03*
%TO.P,U2,C5,P1.02*%
%TO.N,unconnected-(U2-NFC1-PadC5)*%
X204350000Y-92800000D03*
%TO.P,U2,C4,SPI_DCX*%
%TO.N,unconnected-(U2-SPI_DCX-PadC4)*%
X205450000Y-92800000D03*
%TO.P,U2,C2,SPI_MOSI*%
%TO.N,unconnected-(U2-SPI_MOSI-PadC2)*%
X207650000Y-92800000D03*
%TO.P,U2,C1,SPI_MISO*%
%TO.N,unconnected-(U2-SPI_MISO-PadC1)*%
X208750000Y-92800000D03*
%TO.P,U2,B9,NC*%
%TO.N,unconnected-(U2-NC-PadB9)*%
X199950000Y-93900000D03*
%TO.P,U2,B7,VCC*%
%TO.N,+2V8*%
X202150000Y-93900000D03*
%TO.P,U2,B6,XL1_32K*%
%TO.N,Net-(U2-XL1_32K)*%
X203250000Y-93900000D03*
%TO.P,U2,B5,P1.03*%
%TO.N,unconnected-(U2-NFC2-PadB5)*%
X204350000Y-93900000D03*
%TO.P,U2,B4,I2C_SDA*%
%TO.N,/I2C_SDA*%
X205450000Y-93900000D03*
%TO.P,U2,B3,SPI_CS*%
%TO.N,unconnected-(U2-SPI_CS-PadB3)*%
X206550000Y-93900000D03*
%TO.P,U2,B1,SPI_SCK*%
%TO.N,unconnected-(U2-SPI_SCK-PadB1)*%
X208750000Y-93900000D03*
%TO.P,U2,A8,VCC*%
%TO.N,+2V8*%
X201050000Y-95000000D03*
%TO.P,U2,A7,VCC*%
X202150000Y-95000000D03*
%TO.P,U2,A6,P0.01*%
%TO.N,unconnected-(U2-P0.01-PadA6)*%
X203250000Y-95000000D03*
%TO.P,U2,A5,P0.00*%
%TO.N,unconnected-(U2-P0.00-PadA5)*%
X204350000Y-95000000D03*
%TO.P,U2,A4,NC*%
%TO.N,unconnected-(U2-NC-PadA4)*%
X205450000Y-95000000D03*
%TO.P,U2,A3,I2C_SCL*%
%TO.N,/I2C_SCL*%
X206550000Y-95000000D03*
%TO.P,U2,A2,NC*%
%TO.N,unconnected-(U2-NC-PadA2)*%
X207650000Y-95000000D03*
%TO.P,U2,A1,VSS*%
%TO.N,GND*%
X208750000Y-95000000D03*
%TO.P,U2,*%
%TO.N,*%
X207650000Y-93900000D03*
X207650000Y-85100000D03*
X206550000Y-85100000D03*
X204900000Y-90600000D03*
X204900000Y-89500000D03*
X204350000Y-85100000D03*
X203800000Y-90600000D03*
X203800000Y-89500000D03*
X202150000Y-85100000D03*
X201050000Y-93900000D03*
X201050000Y-85100000D03*
X199950000Y-95000000D03*
%TD*%
D17*
%TO.P,U4,9,VSS*%
%TO.N,GND*%
X212125000Y-96180000D03*
D18*
%TO.P,U4,8,VSS*%
X213300000Y-95430000D03*
%TO.P,U4,7,R*%
X213300000Y-95930000D03*
%TO.P,U4,6,~{RESET}*%
%TO.N,unconnected-(U4-~{RESET}-Pad6)*%
X213300000Y-96430000D03*
%TO.P,U4,5,VDD*%
%TO.N,+2V8*%
X213300000Y-96930000D03*
%TO.P,U4,4,SCL*%
%TO.N,/I2C_SCL*%
X210950000Y-96930000D03*
%TO.P,U4,3,ALERT*%
%TO.N,unconnected-(U4-ALERT-Pad3)*%
X210950000Y-96430000D03*
%TO.P,U4,2,ADDR*%
%TO.N,GND*%
X210950000Y-95930000D03*
%TO.P,U4,1,SDA*%
%TO.N,/I2C_SDA*%
X210950000Y-95430000D03*
%TD*%
D19*
%TO.P,R6,1*%
%TO.N,+2V8*%
X208660000Y-97400000D03*
%TO.P,R6,2*%
%TO.N,/I2C_SCL*%
X207640000Y-97400000D03*
%TD*%
D20*
%TO.P,R7,1*%
%TO.N,+2V8*%
X205690000Y-97400000D03*
%TO.P,R7,2*%
%TO.N,/I2C_SDA*%
X206710000Y-97400000D03*
%TD*%
D21*
%TO.P,C11,1*%
%TO.N,+2V8*%
X213040000Y-98450000D03*
%TO.P,C11,2*%
%TO.N,GND*%
X211490000Y-98450000D03*
%TD*%
D22*
%TO.P,R4,1*%
%TO.N,Net-(U1-CFG1)*%
X205200000Y-106960000D03*
%TO.P,R4,2*%
%TO.N,GND*%
X205200000Y-107980000D03*
%TD*%
D23*
%TO.P,C5,1*%
%TO.N,+2V8*%
X197550000Y-94825000D03*
%TO.P,C5,2*%
%TO.N,GND*%
X197550000Y-93275000D03*
%TD*%
D24*
%TO.P,Y1,1,1*%
%TO.N,Net-(U2-XL1_32K)*%
X202600000Y-98100000D03*
%TO.P,Y1,2,2*%
%TO.N,Net-(U2-XL2_32K)*%
X200100000Y-98100000D03*
%TD*%
D25*
%TO.P,C9,1*%
%TO.N,+2V8*%
X208725000Y-101600000D03*
%TO.P,C9,2*%
%TO.N,GND*%
X210275000Y-101600000D03*
%TD*%
D26*
%TO.P,C7,1*%
%TO.N,Net-(U2-XL1_32K)*%
X203830000Y-97410000D03*
%TO.P,C7,2*%
%TO.N,GND*%
X204790000Y-97410000D03*
%TD*%
D27*
%TO.P,SW1,1,1*%
%TO.N,/RESET_N*%
X212240000Y-90835000D03*
%TO.P,SW1,2,2*%
%TO.N,GND*%
X212240000Y-94085000D03*
%TD*%
D28*
%TO.P,Q1,1,G*%
%TO.N,GND*%
X200050000Y-105200000D03*
%TO.P,Q1,2,S*%
%TO.N,Net-(Q1-S)*%
X201950000Y-105200000D03*
%TO.P,Q1,3,D*%
%TO.N,/SHUNT LO*%
X201000000Y-103324999D03*
%TD*%
D23*
%TO.P,C10,1*%
%TO.N,+2V8*%
X210000000Y-100000000D03*
%TO.P,C10,2*%
%TO.N,GND*%
X210000000Y-98450000D03*
%TD*%
D29*
%TO.P,C8,1*%
%TO.N,Net-(U2-XL2_32K)*%
X198800000Y-97570000D03*
%TO.P,C8,2*%
%TO.N,GND*%
X198800000Y-98530000D03*
%TD*%
D30*
%TO.P,R9,1*%
%TO.N,+2V8*%
X200020000Y-101880000D03*
%TO.P,R9,2*%
%TO.N,/XSHUT*%
X200020000Y-100860000D03*
%TD*%
D31*
%TO.P,C4,1*%
%TO.N,+2V8*%
X207840000Y-103430000D03*
%TO.P,C4,2*%
%TO.N,GND*%
X207840000Y-104980000D03*
%TD*%
D32*
%TO.P,L1,1,1*%
%TO.N,Net-(U1-LX2)*%
X206612500Y-101720000D03*
%TO.P,L1,2,2*%
%TO.N,Net-(U1-LX1)*%
X204487500Y-101720000D03*
%TD*%
D33*
%TO.P,R8,1*%
%TO.N,Net-(D4-A)*%
X197117500Y-86657500D03*
%TO.P,R8,2*%
%TO.N,/ERROR_OUT*%
X197117500Y-88307500D03*
%TD*%
D34*
%TO.P,C2,1*%
%TO.N,Net-(Q1-S)*%
X203250000Y-103310000D03*
%TO.P,C2,2*%
%TO.N,GND*%
X203250000Y-102350000D03*
%TD*%
D35*
%TO.P,R10,1*%
%TO.N,+2V8*%
X201350000Y-101575000D03*
%TO.P,R10,2*%
%TO.N,/GPIO1*%
X201350000Y-99925000D03*
%TD*%
D36*
%TO.P,U3,1,AVDDVCSEL*%
%TO.N,+2V8*%
X208400000Y-100000000D03*
D37*
X208300000Y-100100000D03*
%TO.P,U3,2,AVSSVCSEL*%
%TO.N,GND*%
X207500000Y-100100000D03*
%TO.P,U3,3,GND*%
X206700000Y-100100000D03*
%TO.P,U3,4,GND*%
X205900000Y-100100000D03*
%TO.P,U3,5,XSHUT*%
%TO.N,/XSHUT*%
X205100000Y-100100000D03*
%TO.P,U3,6,GND*%
%TO.N,GND*%
X205100000Y-99300000D03*
%TO.P,U3,7,GPIO1*%
%TO.N,/GPIO1*%
X205100000Y-98500000D03*
%TO.P,U3,8,DNC*%
%TO.N,unconnected-(U3-DNC-Pad8)*%
X205900000Y-98500000D03*
%TO.P,U3,9,SDA*%
%TO.N,/I2C_SDA*%
X206700000Y-98500000D03*
%TO.P,U3,10,SCL*%
%TO.N,/I2C_SCL*%
X207500000Y-98500000D03*
%TO.P,U3,11,AVDD*%
%TO.N,+2V8*%
X208300000Y-98500000D03*
%TO.P,U3,12,GND*%
%TO.N,GND*%
X208300000Y-99300000D03*
%TD*%
D22*
%TO.P,R5,1*%
%TO.N,Net-(U1-CFG2)*%
X206200000Y-106970000D03*
%TO.P,R5,2*%
%TO.N,GND*%
X206200000Y-107990000D03*
%TD*%
D38*
%TO.P,D4,1,K*%
%TO.N,GND*%
X197137500Y-83675000D03*
%TO.P,D4,2,A*%
%TO.N,Net-(D4-A)*%
X197137500Y-85250000D03*
%TD*%
D31*
%TO.P,C3,1*%
%TO.N,Net-(Q1-S)*%
X203300000Y-105950000D03*
%TO.P,C3,2*%
%TO.N,GND*%
X203300000Y-107500000D03*
%TD*%
%TO.P,C6,1*%
%TO.N,+2V8*%
X197500000Y-96350000D03*
%TO.P,C6,2*%
%TO.N,GND*%
X197500000Y-97900000D03*
%TD*%
D39*
%TO.P,R2,1*%
%TO.N,GND*%
X200180000Y-107039999D03*
%TO.P,R2,2*%
%TO.N,Net-(Q1-S)*%
X201830000Y-107039999D03*
%TD*%
D21*
%TO.P,C1,2*%
%TO.N,GND*%
X197850000Y-108690000D03*
%TO.P,C1,1*%
%TO.N,+BATT*%
X199400000Y-108690000D03*
%TD*%
D40*
%TO.P,R11,1*%
%TO.N,+BATT*%
X197830000Y-107000000D03*
%TO.P,R11,2*%
%TO.N,/SHUNT LO*%
X197830000Y-104075000D03*
%TD*%
D41*
%TO.N,GND*%
X212520000Y-104980000D03*
X212520000Y-103980000D03*
X212520000Y-102980000D03*
X204250000Y-104775000D03*
X204250000Y-104175000D03*
X197750000Y-105720000D03*
X214605000Y-90470000D03*
X214690000Y-94970000D03*
X214300000Y-106500000D03*
X214660000Y-103379982D03*
X214650000Y-100250000D03*
X214650000Y-104944981D03*
X214660000Y-91930000D03*
X214660000Y-93480000D03*
X214660000Y-98340000D03*
X214650000Y-101775000D03*
X214655000Y-97180000D03*
X212715000Y-106430000D03*
X211090361Y-110300000D03*
X210760000Y-108605000D03*
X211495000Y-107145000D03*
X205180000Y-110290000D03*
X197680000Y-110290000D03*
X202180000Y-110290000D03*
X209680000Y-110290000D03*
X200680000Y-110290000D03*
X196180000Y-110290000D03*
X206680000Y-110290000D03*
X208180000Y-110290000D03*
X199180000Y-110290000D03*
X203680000Y-110290000D03*
X214395000Y-86105000D03*
X194880000Y-109915000D03*
X194200000Y-102560000D03*
X194200000Y-99560000D03*
X194200000Y-105560000D03*
X194690000Y-89079828D03*
X194200000Y-93560000D03*
X194530000Y-82700000D03*
X194200000Y-96560000D03*
X194200000Y-87560000D03*
X194200000Y-98060000D03*
X194200000Y-108560000D03*
X194200000Y-84560000D03*
X194200000Y-107060000D03*
X194200000Y-92060000D03*
X194200000Y-95060000D03*
X194200000Y-104060000D03*
X194200000Y-90560000D03*
X194200000Y-86060000D03*
X198170000Y-82100000D03*
X199300000Y-82100000D03*
X195700000Y-82100000D03*
X194800000Y-100800000D03*
%TO.N,+2V8*%
X201630000Y-94560000D03*
%TO.N,GND*%
X195660000Y-101580000D03*
X197600000Y-102880000D03*
X207025000Y-105950000D03*
X210740000Y-97700000D03*
X206550000Y-92800000D03*
X207275000Y-108095000D03*
X213045000Y-82270000D03*
X195705000Y-95795000D03*
X198350000Y-87270000D03*
X212170000Y-94810000D03*
X199830000Y-102850000D03*
X204800000Y-87100000D03*
X207500000Y-99425000D03*
X205555000Y-100785000D03*
X198860000Y-91590000D03*
X204900000Y-91700000D03*
X211250000Y-101600000D03*
X195765000Y-97627500D03*
X198860000Y-93640000D03*
X210450000Y-85025000D03*
X195850000Y-92065000D03*
X209660000Y-97200000D03*
X195747500Y-93912500D03*
X214160000Y-82280000D03*
X197125000Y-82625000D03*
X199275000Y-83140000D03*
X199700000Y-96700000D03*
X195755000Y-99295000D03*
X202140000Y-102355000D03*
X208440000Y-106075000D03*
X209400000Y-82100000D03*
X202975000Y-87100000D03*
X214410000Y-84705000D03*
X210585000Y-82280000D03*
X203900000Y-87100000D03*
X209375000Y-84300000D03*
X202520000Y-101140000D03*
X206700000Y-99425000D03*
X205750000Y-87100000D03*
X197500000Y-98800000D03*
X207025000Y-105250000D03*
X196975000Y-101585000D03*
X210979371Y-90437381D03*
X203800000Y-91700000D03*
X201100000Y-96300000D03*
X206800000Y-96400000D03*
X203700000Y-98750000D03*
X214100000Y-95700000D03*
X204580000Y-96000000D03*
X203435000Y-101565000D03*
X203020000Y-96470000D03*
X198000000Y-92400000D03*
X199250000Y-84240000D03*
X202100000Y-92800000D03*
X200990000Y-108040000D03*
X199250015Y-85820209D03*
X207590000Y-101615000D03*
X209420000Y-93370000D03*
X205900000Y-99425000D03*
X211910000Y-82280000D03*
X200800000Y-105300000D03*
X197450000Y-90385000D03*
X210400000Y-88500000D03*
X209400000Y-83140000D03*
X198790000Y-99170000D03*
X209340000Y-95540000D03*
%TO.N,+2V8*%
X208690000Y-103150000D03*
X212300000Y-99700000D03*
X211300000Y-99700000D03*
X205509500Y-96500000D03*
X211800000Y-100400000D03*
X197510000Y-95580000D03*
X207025000Y-103150000D03*
X208670000Y-96880000D03*
X213889500Y-87835000D03*
X198930000Y-101930000D03*
X213270000Y-97520000D03*
%TO.N,+BATT*%
X205175000Y-108900000D03*
X204275000Y-108885000D03*
X206075000Y-108900000D03*
X203375000Y-108900000D03*
X202475000Y-108900000D03*
%TO.N,/ERROR_OUT*%
X195850000Y-88325000D03*
%TD*%
D42*
%TO.N,+BATT*%
X206075000Y-108900000D02*
X208640000Y-108900000D01*
X208640000Y-108900000D02*
X209060000Y-108480000D01*
%TO.N,/SHUNT LO*%
X201000000Y-103324999D02*
X200674999Y-103650000D01*
X200674999Y-103650000D02*
X199450000Y-103650000D01*
X199450000Y-103650000D02*
X199025000Y-104075000D01*
X199025000Y-104075000D02*
X198082500Y-104075000D01*
X198082500Y-104075000D02*
X198080000Y-104077500D01*
%TO.N,+BATT*%
X199400000Y-108690000D02*
X199400000Y-108322500D01*
X199400000Y-108322500D02*
X198077500Y-107000000D01*
X198077500Y-107000000D02*
X197830000Y-107000000D01*
X206075000Y-108900000D02*
X200350000Y-108900000D01*
D43*
%TO.N,GND*%
X206550000Y-105070000D02*
X206300000Y-104820000D01*
X205550000Y-103257500D02*
X205550000Y-104120000D01*
D42*
X210275000Y-101600000D02*
X211250000Y-101600000D01*
D43*
X206550000Y-105682500D02*
X206550000Y-105070000D01*
D44*
X210950000Y-95930000D02*
X211875000Y-95930000D01*
D42*
X209150000Y-99300000D02*
X210000000Y-98450000D01*
X208400000Y-99300000D02*
X209150000Y-99300000D01*
X197112500Y-83650000D02*
X197137500Y-83675000D01*
D44*
X211875000Y-95930000D02*
X212125000Y-96180000D01*
D45*
%TO.N,Net-(U2-XL1_32K)*%
X203300000Y-93950000D02*
X203770000Y-94420000D01*
X203770000Y-94420000D02*
X203770000Y-97350000D01*
X203770000Y-97350000D02*
X203809000Y-97389000D01*
X203830000Y-97900000D02*
X203830000Y-97410000D01*
X203630000Y-98100000D02*
X203830000Y-97900000D01*
X202600000Y-98100000D02*
X203630000Y-98100000D01*
%TO.N,Net-(U2-XL2_32K)*%
X200100000Y-97570000D02*
X200100000Y-98100000D01*
X200305000Y-96895000D02*
X200100000Y-97100000D01*
X200100000Y-97100000D02*
X200100000Y-98100000D01*
X202700000Y-93300000D02*
X203300000Y-92700000D01*
X202700000Y-95775000D02*
X202700000Y-93300000D01*
X201580000Y-96895000D02*
X200305000Y-96895000D01*
X198800000Y-97570000D02*
X200100000Y-97570000D01*
X201580000Y-96895000D02*
X202700000Y-95775000D01*
D44*
%TO.N,Net-(U1-CFG1)*%
X205550000Y-105682500D02*
X205550000Y-106610000D01*
X205550000Y-106610000D02*
X205200000Y-106960000D01*
%TO.N,Net-(U1-CFG2)*%
X206200000Y-106970000D02*
X206050000Y-106820000D01*
X206050000Y-106820000D02*
X206050000Y-105682500D01*
%TO.N,Net-(U2-QSPI_CLK)*%
X211354778Y-89681940D02*
X211182838Y-89510000D01*
X208760000Y-89510000D02*
X208750000Y-89500000D01*
X211182838Y-89510000D02*
X208760000Y-89510000D01*
D46*
%TO.N,+2V8*%
X205509500Y-96500000D02*
X205509500Y-96766600D01*
X205509500Y-96766600D02*
X205690000Y-96947100D01*
X205690000Y-96947100D02*
X205690000Y-97400000D01*
D42*
X213889500Y-87835000D02*
X213425000Y-87370500D01*
D45*
%TO.N,/I2C_SDA*%
X206000000Y-94450000D02*
X209380000Y-94450000D01*
X209380000Y-94450000D02*
X210360000Y-95430000D01*
X205450000Y-93900000D02*
X206000000Y-94450000D01*
X206000000Y-94450000D02*
X206000000Y-96690000D01*
X206000000Y-96690000D02*
X206710000Y-97400000D01*
X210360000Y-95430000D02*
X210950000Y-95430000D01*
X206710000Y-97400000D02*
X206710000Y-98490000D01*
D47*
%TO.N,/XSHUT*%
X205100000Y-100100000D02*
X204410000Y-100100000D01*
X202188812Y-100300000D02*
X201632312Y-100856500D01*
X200023500Y-100856500D02*
X200020000Y-100860000D01*
X204210000Y-100300000D02*
X202188812Y-100300000D01*
X194900000Y-99700000D02*
X194900000Y-91600000D01*
X197000000Y-89500000D02*
X199950000Y-89500000D01*
X201632312Y-100856500D02*
X200023500Y-100856500D01*
X200020000Y-100860000D02*
X196060000Y-100860000D01*
X204410000Y-100100000D02*
X204210000Y-100300000D01*
X196060000Y-100860000D02*
X194900000Y-99700000D01*
X194900000Y-91600000D02*
X197000000Y-89500000D01*
D45*
%TO.N,/I2C_SCL*%
X207701500Y-96151500D02*
X207640000Y-96090000D01*
X210520000Y-96930000D02*
X210085000Y-96495000D01*
X210085000Y-96495000D02*
X210085000Y-96385000D01*
X210085000Y-96385000D02*
X209851500Y-96151500D01*
X207640000Y-96090000D02*
X206550000Y-95000000D01*
X207500000Y-98500000D02*
X207500000Y-97540000D01*
X207640000Y-97400000D02*
X207640000Y-96090000D01*
X209851500Y-96151500D02*
X207701500Y-96151500D01*
X210950000Y-96930000D02*
X210520000Y-96930000D01*
D47*
%TO.N,/GPIO1*%
X196500000Y-92650000D02*
X198550000Y-90600000D01*
X197340000Y-99790000D02*
X196500000Y-98950000D01*
D46*
X204499000Y-98951000D02*
X204499000Y-98946466D01*
D47*
X198550000Y-90600000D02*
X199950000Y-90600000D01*
X204499000Y-98946466D02*
X204746466Y-98699000D01*
X196500000Y-98950000D02*
X196500000Y-92650000D01*
X201350000Y-99925000D02*
X201485000Y-99790000D01*
X204751000Y-98699000D02*
X204950000Y-98500000D01*
X201485000Y-99790000D02*
X203660000Y-99790000D01*
X203660000Y-99790000D02*
X204499000Y-98951000D01*
X201215000Y-99790000D02*
X197340000Y-99790000D01*
D45*
%TO.N,/SWCLK*%
X207700000Y-86250000D02*
X208200000Y-86750000D01*
X211440000Y-86750000D02*
X212155000Y-86035000D01*
X208200000Y-86750000D02*
X211440000Y-86750000D01*
D48*
%TO.N,/SWDIO*%
X211610000Y-87850000D02*
X212155000Y-87305000D01*
X208200000Y-87850000D02*
X207700000Y-87350000D01*
X208200000Y-87850000D02*
X211610000Y-87850000D01*
D45*
%TO.N,/RESET_N*%
X208420906Y-85591500D02*
X211068500Y-85591500D01*
X213425000Y-86035000D02*
X213425000Y-86115086D01*
X207979094Y-85591500D02*
X207980594Y-85590000D01*
X208419406Y-85590000D02*
X208420906Y-85591500D01*
X206600000Y-86100000D02*
X206810000Y-86100000D01*
X212839800Y-85449800D02*
X213425000Y-86035000D01*
X211210200Y-85449800D02*
X212839800Y-85449800D01*
X207319703Y-85590297D02*
X207320906Y-85591500D01*
X213425000Y-86115086D02*
X214535000Y-87225086D01*
X213335000Y-90835000D02*
X214535000Y-89635000D01*
X212240000Y-90835000D02*
X213335000Y-90835000D01*
X206810000Y-86100000D02*
X207319703Y-85590297D01*
X207980594Y-85590000D02*
X208419406Y-85590000D01*
X214535000Y-87225086D02*
X214535000Y-89635000D01*
X211068500Y-85591500D02*
X211210200Y-85449800D01*
X207320906Y-85591500D02*
X207979094Y-85591500D01*
D49*
%TO.N,+BATT*%
X206075000Y-108900000D02*
X202475000Y-108900000D01*
D44*
%TO.N,/ERROR_OUT*%
X196935000Y-88400000D02*
X195925000Y-88400000D01*
X195925000Y-88400000D02*
X195850000Y-88325000D01*
X196935000Y-88400000D02*
X199950000Y-88400000D01*
D49*
%TO.N,Net-(D4-A)*%
X197137500Y-85250000D02*
X197137500Y-86637500D01*
X197137500Y-86637500D02*
X197117500Y-86657500D01*
D42*
%TO.N,+BATT*%
X200350000Y-108900000D02*
X200140000Y-108690000D01*
X200140000Y-108690000D02*
X199400000Y-108690000D01*
%TD*%
%TA.AperFunction,Conductor*%
%TO.N,/SHUNT LO*%
G36*
X196357392Y-102269685D02*
G01*
X196396241Y-102309473D01*
X197140000Y-103530000D01*
X197670181Y-103530000D01*
X197737220Y-103549685D01*
X197782975Y-103602489D01*
X197794051Y-103659682D01*
X197755321Y-104503982D01*
X197732585Y-104570049D01*
X197677740Y-104613336D01*
X197633882Y-104622276D01*
X197240000Y-104629999D01*
X196536409Y-105533258D01*
X196479683Y-105574049D01*
X196440760Y-105581039D01*
X194915426Y-105607799D01*
X194848052Y-105589293D01*
X194801378Y-105537300D01*
X194789253Y-105484556D01*
X194770742Y-102374736D01*
X194790027Y-102307583D01*
X194842558Y-102261514D01*
X194894740Y-102250000D01*
X196290353Y-102250000D01*
X196357392Y-102269685D01*
G37*
%TD.AperFunction*%
%TD*%
%TA.AperFunction,Conductor*%
%TO.N,+BATT*%
G36*
X197678792Y-106480080D02*
G01*
X197724719Y-106532734D01*
X197734889Y-106601860D01*
X197716305Y-106651816D01*
X197154101Y-107523639D01*
X197145150Y-107535820D01*
X196800000Y-107950000D01*
X196800000Y-107950001D01*
X196799999Y-107950002D01*
X196772158Y-109509112D01*
X196751280Y-109575789D01*
X196697667Y-109620594D01*
X196649097Y-109630895D01*
X195484928Y-109639519D01*
X195417744Y-109620331D01*
X195382620Y-109586910D01*
X194752788Y-108692366D01*
X194730290Y-108626220D01*
X194730180Y-108620447D01*
X194739438Y-106593029D01*
X194759429Y-106526081D01*
X194812441Y-106480568D01*
X194863027Y-106469597D01*
X197611690Y-106460615D01*
X197678792Y-106480080D01*
G37*
%TD.AperFunction*%
%TD*%
%TA.AperFunction,Conductor*%
%TO.N,GND*%
G36*
X206301746Y-95398140D02*
G01*
X206305647Y-95397580D01*
X206312192Y-95398701D01*
X206321236Y-95400500D01*
X206321238Y-95400500D01*
X206667207Y-95400500D01*
X206734246Y-95420185D01*
X206754888Y-95436819D01*
X207439681Y-96121612D01*
X207473166Y-96182935D01*
X207476000Y-96209293D01*
X207476000Y-96884863D01*
X207456315Y-96951902D01*
X207420892Y-96987964D01*
X207335214Y-97045213D01*
X207278102Y-97130688D01*
X207224490Y-97175493D01*
X207155165Y-97184200D01*
X207092137Y-97154045D01*
X207071898Y-97130688D01*
X207066836Y-97123112D01*
X207014786Y-97045214D01*
X206936888Y-96993164D01*
X206936886Y-96993163D01*
X206936884Y-96993162D01*
X206868198Y-96979500D01*
X206868196Y-96979500D01*
X206572793Y-96979500D01*
X206505754Y-96959815D01*
X206485112Y-96943181D01*
X206200319Y-96658388D01*
X206166834Y-96597065D01*
X206164000Y-96570707D01*
X206164000Y-95520318D01*
X206169935Y-95500102D01*
X206171064Y-95479064D01*
X206179582Y-95467250D01*
X206183685Y-95453279D01*
X206199604Y-95439484D01*
X206211930Y-95422392D01*
X206225485Y-95417058D01*
X206236489Y-95407524D01*
X206257340Y-95404525D01*
X206276949Y-95396811D01*
X206301746Y-95398140D01*
G37*
%TD.AperFunction*%
%TA.AperFunction,Conductor*%
G36*
X201293039Y-81819685D02*
G01*
X201338794Y-81872489D01*
X201350000Y-81924000D01*
X201350000Y-82276000D01*
X201330315Y-82343039D01*
X201277511Y-82388794D01*
X201226000Y-82400000D01*
X200250000Y-82400000D01*
X200250000Y-84575500D01*
X200230315Y-84642539D01*
X200177511Y-84688294D01*
X200126000Y-84699500D01*
X199721235Y-84699500D01*
X199665671Y-84710552D01*
X199665670Y-84710552D01*
X199602657Y-84752656D01*
X199602656Y-84752657D01*
X199560552Y-84815670D01*
X199560552Y-84815671D01*
X199549500Y-84871233D01*
X199549500Y-85328766D01*
X199560552Y-85384328D01*
X199560552Y-85384329D01*
X199602656Y-85447342D01*
X199602657Y-85447343D01*
X199665670Y-85489447D01*
X199721233Y-85500499D01*
X199721236Y-85500500D01*
X199721238Y-85500500D01*
X200178764Y-85500500D01*
X200178765Y-85500499D01*
X200234329Y-85489447D01*
X200297343Y-85447343D01*
X200339447Y-85384329D01*
X200350500Y-85328762D01*
X200350500Y-84924000D01*
X200353050Y-84915314D01*
X200351762Y-84906353D01*
X200362740Y-84882312D01*
X200370185Y-84856961D01*
X200377025Y-84851033D01*
X200380787Y-84842797D01*
X200403021Y-84828507D01*
X200422989Y-84811206D01*
X200433503Y-84808918D01*
X200439565Y-84805023D01*
X200474500Y-84800000D01*
X200525500Y-84800000D01*
X200592539Y-84819685D01*
X200638294Y-84872489D01*
X200649500Y-84924000D01*
X200649500Y-85328766D01*
X200660552Y-85384328D01*
X200660552Y-85384329D01*
X200702656Y-85447342D01*
X200702657Y-85447343D01*
X200765670Y-85489447D01*
X200821233Y-85500499D01*
X200821236Y-85500500D01*
X200821238Y-85500500D01*
X201278764Y-85500500D01*
X201278765Y-85500499D01*
X201334329Y-85489447D01*
X201397343Y-85447343D01*
X201439447Y-85384329D01*
X201450500Y-85328762D01*
X201450500Y-84924000D01*
X201453050Y-84915314D01*
X201451762Y-84906353D01*
X201462740Y-84882312D01*
X201470185Y-84856961D01*
X201477025Y-84851033D01*
X201480787Y-84842797D01*
X201503021Y-84828507D01*
X201522989Y-84811206D01*
X201533503Y-84808918D01*
X201539565Y-84805023D01*
X201574500Y-84800000D01*
X201625500Y-84800000D01*
X201692539Y-84819685D01*
X201738294Y-84872489D01*
X201749500Y-84924000D01*
X201749500Y-85328766D01*
X201760552Y-85384328D01*
X201760552Y-85384329D01*
X201802656Y-85447342D01*
X201802657Y-85447343D01*
X201865670Y-85489447D01*
X201921233Y-85500499D01*
X201921236Y-85500500D01*
X201921238Y-85500500D01*
X202378764Y-85500500D01*
X202378765Y-85500499D01*
X202434329Y-85489447D01*
X202497343Y-85447343D01*
X202539447Y-85384329D01*
X202550500Y-85328762D01*
X202550500Y-84924000D01*
X202570185Y-84856961D01*
X202622989Y-84811206D01*
X202674500Y-84800000D01*
X203825500Y-84800000D01*
X203892539Y-84819685D01*
X203938294Y-84872489D01*
X203949500Y-84924000D01*
X203949500Y-85328766D01*
X203960552Y-85384328D01*
X203960552Y-85384329D01*
X204002656Y-85447342D01*
X204002657Y-85447343D01*
X204065670Y-85489447D01*
X204121233Y-85500499D01*
X204121236Y-85500500D01*
X204121238Y-85500500D01*
X204578764Y-85500500D01*
X204578765Y-85500499D01*
X204634329Y-85489447D01*
X204697343Y-85447343D01*
X204739447Y-85384329D01*
X204750500Y-85328762D01*
X204750500Y-84924000D01*
X204770185Y-84856961D01*
X204822989Y-84811206D01*
X204874500Y-84800000D01*
X206025500Y-84800000D01*
X206092539Y-84819685D01*
X206138294Y-84872489D01*
X206149500Y-84924000D01*
X206149500Y-85328766D01*
X206160552Y-85384328D01*
X206160552Y-85384329D01*
X206202656Y-85447342D01*
X206202657Y-85447343D01*
X206265670Y-85489447D01*
X206321233Y-85500499D01*
X206321236Y-85500500D01*
X206321238Y-85500500D01*
X206778764Y-85500500D01*
X206778765Y-85500499D01*
X206834329Y-85489447D01*
X206855234Y-85475478D01*
X206877389Y-85468540D01*
X206897767Y-85457414D01*
X206910105Y-85458296D01*
X206910275Y-85458243D01*
X206919748Y-85414698D01*
X206925473Y-85405242D01*
X206939447Y-85384329D01*
X206950500Y-85328762D01*
X206950500Y-84924000D01*
X206953050Y-84915314D01*
X206951762Y-84906353D01*
X206962740Y-84882312D01*
X206970185Y-84856961D01*
X206977025Y-84851033D01*
X206980787Y-84842797D01*
X207003021Y-84828507D01*
X207022989Y-84811206D01*
X207033503Y-84808918D01*
X207039565Y-84805023D01*
X207074500Y-84800000D01*
X207125500Y-84800000D01*
X207192539Y-84819685D01*
X207238294Y-84872489D01*
X207249500Y-84924000D01*
X207249500Y-85328766D01*
X207253128Y-85347008D01*
X207252420Y-85354912D01*
X207255194Y-85362349D01*
X207249349Y-85389215D01*
X207246898Y-85416599D01*
X207241650Y-85424605D01*
X207240342Y-85430622D01*
X207219191Y-85458876D01*
X207116261Y-85561806D01*
X207054938Y-85595291D01*
X207046862Y-85594713D01*
X207037891Y-85615323D01*
X207032957Y-85638007D01*
X207021157Y-85653769D01*
X207019274Y-85658096D01*
X207011806Y-85666261D01*
X206908876Y-85769191D01*
X206847553Y-85802676D01*
X206797008Y-85803128D01*
X206778766Y-85799500D01*
X206778762Y-85799500D01*
X206321238Y-85799500D01*
X206321235Y-85799500D01*
X206265671Y-85810552D01*
X206265670Y-85810552D01*
X206202657Y-85852656D01*
X206202656Y-85852657D01*
X206160552Y-85915670D01*
X206160552Y-85915671D01*
X206149500Y-85971233D01*
X206149500Y-86428766D01*
X206160552Y-86484328D01*
X206160552Y-86484329D01*
X206202656Y-86547342D01*
X206202657Y-86547343D01*
X206265670Y-86589447D01*
X206321233Y-86600499D01*
X206321236Y-86600500D01*
X206321238Y-86600500D01*
X206778764Y-86600500D01*
X206778765Y-86600499D01*
X206834329Y-86589447D01*
X206897343Y-86547343D01*
X206939447Y-86484329D01*
X206950500Y-86428762D01*
X206950500Y-86242793D01*
X206959144Y-86213352D01*
X206965668Y-86183366D01*
X206969422Y-86178350D01*
X206970185Y-86175754D01*
X206986819Y-86155112D01*
X207037819Y-86104112D01*
X207099142Y-86070627D01*
X207168834Y-86075611D01*
X207224767Y-86117483D01*
X207249184Y-86182947D01*
X207249500Y-86191793D01*
X207249500Y-86428766D01*
X207260552Y-86484328D01*
X207260552Y-86484329D01*
X207302656Y-86547342D01*
X207302657Y-86547343D01*
X207365670Y-86589447D01*
X207421233Y-86600499D01*
X207421236Y-86600500D01*
X207421238Y-86600500D01*
X207767207Y-86600500D01*
X207796647Y-86609144D01*
X207826634Y-86615668D01*
X207831649Y-86619422D01*
X207834246Y-86620185D01*
X207854888Y-86636819D01*
X207905888Y-86687819D01*
X207939373Y-86749142D01*
X207934389Y-86818834D01*
X207892517Y-86874767D01*
X207827053Y-86899184D01*
X207818207Y-86899500D01*
X207421235Y-86899500D01*
X207365671Y-86910552D01*
X207365670Y-86910552D01*
X207302657Y-86952656D01*
X207302656Y-86952657D01*
X207260552Y-87015670D01*
X207260552Y-87015671D01*
X207249500Y-87071233D01*
X207249500Y-87528766D01*
X207260552Y-87584328D01*
X207260552Y-87584329D01*
X207302656Y-87647342D01*
X207302657Y-87647343D01*
X207365670Y-87689447D01*
X207421233Y-87700499D01*
X207421236Y-87700500D01*
X207421238Y-87700500D01*
X207768621Y-87700500D01*
X207798061Y-87709144D01*
X207828048Y-87715668D01*
X207833063Y-87719422D01*
X207835660Y-87720185D01*
X207856302Y-87736819D01*
X207907302Y-87787819D01*
X207940787Y-87849142D01*
X207935803Y-87918834D01*
X207893931Y-87974767D01*
X207828467Y-87999184D01*
X207819621Y-87999500D01*
X207421235Y-87999500D01*
X207365671Y-88010552D01*
X207365670Y-88010552D01*
X207302657Y-88052656D01*
X207302656Y-88052657D01*
X207260552Y-88115670D01*
X207260552Y-88115671D01*
X207249500Y-88171233D01*
X207249500Y-88628766D01*
X207260552Y-88684328D01*
X207260552Y-88684329D01*
X207302656Y-88747342D01*
X207302657Y-88747343D01*
X207365670Y-88789447D01*
X207421233Y-88800499D01*
X207421236Y-88800500D01*
X207421238Y-88800500D01*
X207878764Y-88800500D01*
X207878765Y-88800499D01*
X207934329Y-88789447D01*
X207997343Y-88747343D01*
X208039447Y-88684329D01*
X208050500Y-88628762D01*
X208050500Y-88171238D01*
X208050499Y-88171235D01*
X208048502Y-88161193D01*
X208050379Y-88140208D01*
X208047381Y-88119353D01*
X208053431Y-88106104D01*
X208054729Y-88091601D01*
X208067653Y-88074963D01*
X208076406Y-88055797D01*
X208088657Y-88047923D01*
X208097591Y-88036423D01*
X208117460Y-88029413D01*
X208135184Y-88018023D01*
X208159764Y-88014488D01*
X208163480Y-88013178D01*
X208170119Y-88013000D01*
X208229881Y-88013000D01*
X208296920Y-88032685D01*
X208342675Y-88085489D01*
X208352619Y-88154647D01*
X208351498Y-88161193D01*
X208349500Y-88171236D01*
X208349500Y-88628766D01*
X208360552Y-88684328D01*
X208360552Y-88684329D01*
X208402656Y-88747342D01*
X208402657Y-88747343D01*
X208465670Y-88789447D01*
X208521233Y-88800499D01*
X208521236Y-88800500D01*
X208521238Y-88800500D01*
X208978764Y-88800500D01*
X208978765Y-88800499D01*
X209034329Y-88789447D01*
X209097343Y-88747343D01*
X209139447Y-88684329D01*
X209150500Y-88628762D01*
X209150500Y-88171238D01*
X209150499Y-88171235D01*
X209148502Y-88161193D01*
X209154729Y-88091601D01*
X209197591Y-88036423D01*
X209263480Y-88013178D01*
X209270119Y-88013000D01*
X211580625Y-88013000D01*
X211598589Y-88014308D01*
X211602435Y-88014871D01*
X211618579Y-88017235D01*
X211698262Y-88013172D01*
X211704828Y-88012631D01*
X211706268Y-88012467D01*
X211706270Y-88012466D01*
X211706276Y-88012466D01*
X211712676Y-88011537D01*
X211712684Y-88011535D01*
X211712688Y-88011535D01*
X211784869Y-87998780D01*
X211795500Y-87996329D01*
X211797827Y-87995664D01*
X211808181Y-87992115D01*
X211918108Y-87947934D01*
X211926162Y-87944298D01*
X211927910Y-87943419D01*
X211935619Y-87939129D01*
X211992822Y-87904088D01*
X211996075Y-87902165D01*
X212025343Y-87885478D01*
X212086759Y-87869200D01*
X212141716Y-87869200D01*
X212208755Y-87888885D01*
X212254510Y-87941689D01*
X212264454Y-88010847D01*
X212235429Y-88074403D01*
X212229397Y-88080881D01*
X212210701Y-88099576D01*
X212210698Y-88099580D01*
X212129083Y-88221724D01*
X212129078Y-88221733D01*
X212072861Y-88357455D01*
X212072858Y-88357465D01*
X212044200Y-88501540D01*
X212044200Y-88648459D01*
X212072244Y-88789447D01*
X212072860Y-88792542D01*
X212078056Y-88805086D01*
X212129078Y-88928266D01*
X212129083Y-88928275D01*
X212210698Y-89050419D01*
X212210701Y-89050423D01*
X212314576Y-89154298D01*
X212314580Y-89154301D01*
X212436724Y-89235916D01*
X212436730Y-89235919D01*
X212436731Y-89235920D01*
X212572458Y-89292140D01*
X212659735Y-89309500D01*
X212716540Y-89320799D01*
X212716544Y-89320800D01*
X212716545Y-89320800D01*
X212863456Y-89320800D01*
X212863457Y-89320799D01*
X213007542Y-89292140D01*
X213143269Y-89235920D01*
X213265420Y-89154301D01*
X213369301Y-89050420D01*
X213450920Y-88928269D01*
X213507140Y-88792542D01*
X213535800Y-88648455D01*
X213535800Y-88501545D01*
X213507140Y-88357458D01*
X213494086Y-88325942D01*
X213486617Y-88256473D01*
X213517892Y-88193994D01*
X213577981Y-88158342D01*
X213647807Y-88160836D01*
X213670648Y-88171104D01*
X213734906Y-88208204D01*
X213734908Y-88208205D01*
X213734909Y-88208205D01*
X213734912Y-88208207D01*
X213836773Y-88235500D01*
X213836775Y-88235500D01*
X213942225Y-88235500D01*
X213942227Y-88235500D01*
X214044088Y-88208207D01*
X214135413Y-88155480D01*
X214159319Y-88131574D01*
X214220642Y-88098089D01*
X214290334Y-88103073D01*
X214346267Y-88144945D01*
X214370684Y-88210409D01*
X214371000Y-88219255D01*
X214371000Y-89515707D01*
X214351315Y-89582746D01*
X214334681Y-89603388D01*
X213376646Y-90561422D01*
X213315323Y-90594907D01*
X213245631Y-90589923D01*
X213189698Y-90548051D01*
X213185862Y-90542630D01*
X213164436Y-90510563D01*
X213103903Y-90470117D01*
X213050525Y-90459500D01*
X211429480Y-90459500D01*
X211376096Y-90470118D01*
X211376092Y-90470120D01*
X211315563Y-90510563D01*
X211275117Y-90571096D01*
X211264500Y-90624474D01*
X211264500Y-91045519D01*
X211275118Y-91098903D01*
X211275120Y-91098907D01*
X211315563Y-91159436D01*
X211376096Y-91199882D01*
X211393728Y-91203389D01*
X211429477Y-91210500D01*
X213050522Y-91210499D01*
X213103903Y-91199882D01*
X213164436Y-91159436D01*
X213204881Y-91098905D01*
X213204881Y-91098904D01*
X213204882Y-91098903D01*
X213204900Y-91098808D01*
X213205000Y-91098616D01*
X213209556Y-91087620D01*
X213210540Y-91088027D01*
X213237285Y-91036899D01*
X213298001Y-91002325D01*
X213301436Y-91001564D01*
X213313845Y-90999001D01*
X213367622Y-90999001D01*
X213410243Y-90981345D01*
X213427899Y-90974033D01*
X213474033Y-90927899D01*
X213474033Y-90927898D01*
X213491473Y-90910458D01*
X213491474Y-90910456D01*
X214610457Y-89791473D01*
X214610460Y-89791471D01*
X214627898Y-89774033D01*
X214627899Y-89774033D01*
X214674033Y-89727899D01*
X214699000Y-89667622D01*
X214699000Y-87257710D01*
X214699001Y-87257708D01*
X214699001Y-87192464D01*
X214678098Y-87142001D01*
X214674033Y-87132187D01*
X214627899Y-87086053D01*
X214620834Y-87078988D01*
X214620827Y-87078982D01*
X214074476Y-86532631D01*
X214066984Y-86524436D01*
X214060663Y-86516868D01*
X214052219Y-86502688D01*
X214005836Y-86451221D01*
X214004335Y-86449423D01*
X214003968Y-86448580D01*
X213996925Y-86439598D01*
X213974566Y-86406669D01*
X213964325Y-86388446D01*
X213956845Y-86372032D01*
X213949714Y-86351967D01*
X213947399Y-86343104D01*
X213943553Y-86318419D01*
X213943488Y-86317207D01*
X213938015Y-86215333D01*
X213937867Y-86211370D01*
X213935543Y-86101541D01*
X213935271Y-86095880D01*
X213935176Y-86094614D01*
X213934585Y-86088853D01*
X213919200Y-85970985D01*
X213919200Y-85969937D01*
X213918933Y-85968941D01*
X213917363Y-85956912D01*
X213916860Y-85953495D01*
X213916738Y-85952751D01*
X213912579Y-85942178D01*
X213908201Y-85928891D01*
X213885521Y-85844246D01*
X213885519Y-85844242D01*
X213882652Y-85837319D01*
X213875286Y-85768793D01*
X213863554Y-85753062D01*
X213679423Y-85506158D01*
X213449598Y-85197983D01*
X213425300Y-85132474D01*
X213425000Y-85123853D01*
X213425000Y-84765000D01*
X213075923Y-84765000D01*
X213008884Y-84745315D01*
X213002115Y-84740641D01*
X212971714Y-84718122D01*
X212302505Y-84222411D01*
X212260352Y-84166690D01*
X212255015Y-84097024D01*
X212288190Y-84035533D01*
X212288484Y-84035236D01*
X212353301Y-83970420D01*
X212434920Y-83848269D01*
X212491140Y-83712542D01*
X212519800Y-83568455D01*
X212519800Y-83421545D01*
X212519799Y-83421540D01*
X213060200Y-83421540D01*
X213060200Y-83568459D01*
X213088858Y-83712534D01*
X213088861Y-83712544D01*
X213145078Y-83848266D01*
X213145083Y-83848275D01*
X213226698Y-83970419D01*
X213226701Y-83970423D01*
X213330576Y-84074298D01*
X213330580Y-84074301D01*
X213452724Y-84155916D01*
X213452730Y-84155919D01*
X213452731Y-84155920D01*
X213588458Y-84212140D01*
X213732540Y-84240799D01*
X213732544Y-84240800D01*
X213732545Y-84240800D01*
X213879456Y-84240800D01*
X213879457Y-84240799D01*
X214023542Y-84212140D01*
X214159269Y-84155920D01*
X214281420Y-84074301D01*
X214385301Y-83970420D01*
X214466920Y-83848269D01*
X214523140Y-83712542D01*
X214551800Y-83568455D01*
X214551800Y-83421545D01*
X214523140Y-83277458D01*
X214466920Y-83141731D01*
X214466919Y-83141730D01*
X214466916Y-83141724D01*
X214385301Y-83019580D01*
X214385298Y-83019576D01*
X214281423Y-82915701D01*
X214281419Y-82915698D01*
X214159275Y-82834083D01*
X214159266Y-82834078D01*
X214023544Y-82777861D01*
X214023545Y-82777861D01*
X214023542Y-82777860D01*
X214023538Y-82777859D01*
X214023534Y-82777858D01*
X213879459Y-82749200D01*
X213879455Y-82749200D01*
X213732545Y-82749200D01*
X213732540Y-82749200D01*
X213588465Y-82777858D01*
X213588455Y-82777861D01*
X213452733Y-82834078D01*
X213452724Y-82834083D01*
X213330580Y-82915698D01*
X213330576Y-82915701D01*
X213226701Y-83019576D01*
X213226698Y-83019580D01*
X213145083Y-83141724D01*
X213145078Y-83141733D01*
X213088861Y-83277455D01*
X213088858Y-83277465D01*
X213060200Y-83421540D01*
X212519799Y-83421540D01*
X212491140Y-83277458D01*
X212434920Y-83141731D01*
X212434919Y-83141730D01*
X212434916Y-83141724D01*
X212353301Y-83019580D01*
X212353298Y-83019576D01*
X212249423Y-82915701D01*
X212249419Y-82915698D01*
X212127275Y-82834083D01*
X212127266Y-82834078D01*
X211991544Y-82777861D01*
X211991545Y-82777861D01*
X211991542Y-82777860D01*
X211991538Y-82777859D01*
X211991534Y-82777858D01*
X211847459Y-82749200D01*
X211847455Y-82749200D01*
X211700545Y-82749200D01*
X211700540Y-82749200D01*
X211556465Y-82777858D01*
X211556455Y-82777861D01*
X211420733Y-82834078D01*
X211420724Y-82834083D01*
X211298580Y-82915698D01*
X211298576Y-82915701D01*
X211194701Y-83019576D01*
X211194698Y-83019580D01*
X211113083Y-83141724D01*
X211113078Y-83141733D01*
X211056861Y-83277455D01*
X211056858Y-83277465D01*
X211028200Y-83421540D01*
X211028200Y-83568459D01*
X211056858Y-83712534D01*
X211056861Y-83712544D01*
X211113078Y-83848266D01*
X211113083Y-83848275D01*
X211194698Y-83970419D01*
X211194701Y-83970423D01*
X211298576Y-84074298D01*
X211298580Y-84074301D01*
X211420724Y-84155916D01*
X211420730Y-84155919D01*
X211420731Y-84155920D01*
X211556458Y-84212140D01*
X211700545Y-84240800D01*
X211700549Y-84240800D01*
X211706351Y-84241954D01*
X211768263Y-84274339D01*
X211802837Y-84335055D01*
X211799098Y-84404824D01*
X211769845Y-84451251D01*
X211759542Y-84461553D01*
X211759542Y-84461554D01*
X211694479Y-84574246D01*
X211660800Y-84699937D01*
X211660800Y-84830063D01*
X211694479Y-84955754D01*
X211759542Y-85068446D01*
X211759544Y-85068448D01*
X211765215Y-85074119D01*
X211798700Y-85135442D01*
X211793716Y-85205134D01*
X211751844Y-85261067D01*
X211686380Y-85285484D01*
X211677534Y-85285800D01*
X211257264Y-85285800D01*
X211257256Y-85285799D01*
X211242822Y-85285799D01*
X211177578Y-85285799D01*
X211177575Y-85285799D01*
X211134957Y-85303452D01*
X211134958Y-85303453D01*
X211117301Y-85310767D01*
X211117299Y-85310768D01*
X211081060Y-85347008D01*
X211071167Y-85356901D01*
X211071166Y-85356902D01*
X211048090Y-85379978D01*
X211036885Y-85391183D01*
X210975561Y-85424667D01*
X210975556Y-85424666D01*
X210949205Y-85427500D01*
X209274500Y-85427500D01*
X209207461Y-85407815D01*
X209161706Y-85355011D01*
X209150500Y-85303500D01*
X209150500Y-84871235D01*
X209150499Y-84871233D01*
X209139447Y-84815671D01*
X209139447Y-84815670D01*
X209097343Y-84752657D01*
X209097342Y-84752656D01*
X209034329Y-84710552D01*
X208978765Y-84699500D01*
X208978762Y-84699500D01*
X208574000Y-84699500D01*
X208506961Y-84679815D01*
X208461206Y-84627011D01*
X208450000Y-84575500D01*
X208450000Y-82400000D01*
X207474000Y-82400000D01*
X207406961Y-82380315D01*
X207361206Y-82327511D01*
X207350000Y-82276000D01*
X207350000Y-81924000D01*
X207369685Y-81856961D01*
X207422489Y-81811206D01*
X207474000Y-81800000D01*
X214730824Y-81800000D01*
X214760264Y-81808644D01*
X214790251Y-81815168D01*
X214795266Y-81818922D01*
X214797863Y-81819685D01*
X214818505Y-81836319D01*
X214872829Y-81890643D01*
X214888263Y-81909452D01*
X214910942Y-81943407D01*
X214922405Y-81964867D01*
X214971207Y-82082804D01*
X214978259Y-82106089D01*
X214996836Y-82199742D01*
X214999206Y-82223957D01*
X214981319Y-107452911D01*
X214961587Y-107519936D01*
X214908750Y-107565654D01*
X214839585Y-107575548D01*
X214776050Y-107546478D01*
X214769638Y-107540504D01*
X214721860Y-107492726D01*
X214721851Y-107492718D01*
X214513803Y-107333075D01*
X214286700Y-107201958D01*
X214286690Y-107201953D01*
X214044428Y-107101605D01*
X214044421Y-107101603D01*
X214044419Y-107101602D01*
X213791116Y-107033730D01*
X213733339Y-107026123D01*
X213531127Y-106999500D01*
X213531120Y-106999500D01*
X213268880Y-106999500D01*
X213268872Y-106999500D01*
X213037772Y-107029926D01*
X213008884Y-107033730D01*
X212825886Y-107082764D01*
X212755581Y-107101602D01*
X212755571Y-107101605D01*
X212513309Y-107201953D01*
X212513299Y-107201958D01*
X212286196Y-107333075D01*
X212078148Y-107492718D01*
X211892718Y-107678148D01*
X211733075Y-107886196D01*
X211601958Y-108113299D01*
X211601953Y-108113309D01*
X211501605Y-108355571D01*
X211501602Y-108355581D01*
X211433730Y-108608884D01*
X211432271Y-108619965D01*
X211399500Y-108868872D01*
X211399500Y-109131127D01*
X211420436Y-109290140D01*
X211433730Y-109391116D01*
X211473793Y-109540634D01*
X211501602Y-109644418D01*
X211501605Y-109644428D01*
X211601953Y-109886690D01*
X211601958Y-109886700D01*
X211733075Y-110113803D01*
X211892718Y-110321851D01*
X211892726Y-110321860D01*
X211958685Y-110387819D01*
X211992170Y-110449142D01*
X211987186Y-110518834D01*
X211945314Y-110574767D01*
X211879850Y-110599184D01*
X211871004Y-110599500D01*
X195308517Y-110599500D01*
X195284326Y-110597117D01*
X195110099Y-110562461D01*
X195086837Y-110555405D01*
X194775663Y-110426512D01*
X194754225Y-110415053D01*
X194523189Y-110260680D01*
X194504399Y-110245259D01*
X194113308Y-109854168D01*
X194097887Y-109835378D01*
X194077231Y-109804465D01*
X194040952Y-109750170D01*
X194029494Y-109728732D01*
X194027450Y-109723798D01*
X193944594Y-109523764D01*
X193937539Y-109500505D01*
X193915780Y-109391116D01*
X193902883Y-109326275D01*
X193900500Y-109302084D01*
X193900500Y-108619955D01*
X194624681Y-108619955D01*
X194624699Y-108622440D01*
X194624809Y-108628233D01*
X194624810Y-108628243D01*
X194630406Y-108660179D01*
X194630408Y-108660189D01*
X194652906Y-108726337D01*
X194652907Y-108726338D01*
X194666525Y-108753102D01*
X195296357Y-109647646D01*
X195309896Y-109663340D01*
X195345020Y-109696761D01*
X195388771Y-109721775D01*
X195455955Y-109740963D01*
X195485710Y-109745016D01*
X196649879Y-109736392D01*
X196670985Y-109734099D01*
X196719555Y-109723798D01*
X196765320Y-109701547D01*
X196818933Y-109656742D01*
X196851960Y-109607314D01*
X196872838Y-109540637D01*
X196877641Y-109510996D01*
X196904039Y-108032650D01*
X196924917Y-107965976D01*
X196932760Y-107955484D01*
X197139316Y-107707617D01*
X197197355Y-107668718D01*
X197234575Y-107663000D01*
X198122745Y-107663000D01*
X198189784Y-107682685D01*
X198210426Y-107699319D01*
X198813676Y-108302569D01*
X198847161Y-108363892D01*
X198849729Y-108398360D01*
X198849500Y-108401853D01*
X198849500Y-108978132D01*
X198849501Y-108978138D01*
X198855741Y-109025545D01*
X198855742Y-109025547D01*
X198855742Y-109025548D01*
X198902143Y-109125055D01*
X198904253Y-109129579D01*
X198985421Y-109210747D01*
X199089455Y-109259259D01*
X199136861Y-109265500D01*
X199663138Y-109265499D01*
X199710545Y-109259259D01*
X199814579Y-109210747D01*
X199866788Y-109158537D01*
X199928107Y-109125055D01*
X199997799Y-109130039D01*
X200042147Y-109158540D01*
X200104087Y-109220480D01*
X200195412Y-109273207D01*
X200297273Y-109300500D01*
X200402727Y-109300500D01*
X202134460Y-109300500D01*
X202196460Y-109317113D01*
X202281814Y-109366392D01*
X202409108Y-109400500D01*
X202409110Y-109400500D01*
X206140890Y-109400500D01*
X206140892Y-109400500D01*
X206268186Y-109366392D01*
X206353540Y-109317113D01*
X206415540Y-109300500D01*
X208692725Y-109300500D01*
X208692727Y-109300500D01*
X208794588Y-109273207D01*
X208885913Y-109220480D01*
X208942219Y-109164172D01*
X208966897Y-109145052D01*
X210861092Y-108027739D01*
X210881451Y-108012105D01*
X210924162Y-107970118D01*
X210952036Y-107922456D01*
X210970297Y-107855015D01*
X210973940Y-107825210D01*
X210938045Y-106129144D01*
X210935415Y-106107860D01*
X210935413Y-106107851D01*
X210924238Y-106058977D01*
X210924237Y-106058976D01*
X210924237Y-106058973D01*
X210901123Y-106013401D01*
X210901121Y-106013399D01*
X210901121Y-106013398D01*
X210901120Y-106013397D01*
X210855370Y-105960599D01*
X210855369Y-105960598D01*
X210855368Y-105960597D01*
X210805360Y-105928459D01*
X210738326Y-105908775D01*
X210738322Y-105908774D01*
X210738321Y-105908774D01*
X210708597Y-105904500D01*
X209083888Y-105904500D01*
X209065878Y-105906049D01*
X209065850Y-105906053D01*
X209024113Y-105913291D01*
X209024109Y-105913292D01*
X208980068Y-105931931D01*
X208980060Y-105931936D01*
X208923569Y-105973040D01*
X208923563Y-105973046D01*
X208887300Y-106020141D01*
X208887298Y-106020144D01*
X208861995Y-106085271D01*
X208855216Y-106114521D01*
X208672491Y-108259829D01*
X208663214Y-108283704D01*
X208657771Y-108308731D01*
X208648874Y-108320616D01*
X208647188Y-108324956D01*
X208636620Y-108336986D01*
X208510424Y-108463182D01*
X208449104Y-108496666D01*
X208422745Y-108499500D01*
X206415540Y-108499500D01*
X206353540Y-108482887D01*
X206268188Y-108433609D01*
X206268187Y-108433608D01*
X206268186Y-108433608D01*
X206140892Y-108399500D01*
X202409108Y-108399500D01*
X202281814Y-108433608D01*
X202281813Y-108433608D01*
X202281811Y-108433609D01*
X202281810Y-108433609D01*
X202196460Y-108482887D01*
X202134460Y-108499500D01*
X200567255Y-108499500D01*
X200500216Y-108479815D01*
X200479574Y-108463181D01*
X200385915Y-108369522D01*
X200385913Y-108369520D01*
X200301210Y-108320616D01*
X200294589Y-108316793D01*
X200241502Y-108302569D01*
X200192727Y-108289500D01*
X200192726Y-108289500D01*
X199986188Y-108289500D01*
X199961479Y-108282244D01*
X199935947Y-108278866D01*
X199925451Y-108271665D01*
X199919149Y-108269815D01*
X199906043Y-108260119D01*
X199896500Y-108252035D01*
X199895747Y-108250421D01*
X199814579Y-108169253D01*
X199779397Y-108152847D01*
X199766717Y-108142107D01*
X199756270Y-108126246D01*
X199742018Y-108113697D01*
X199739474Y-108109486D01*
X199720482Y-108076590D01*
X199720478Y-108076585D01*
X198841819Y-107197926D01*
X198808334Y-107136603D01*
X198805500Y-107110245D01*
X198805500Y-106654239D01*
X198795573Y-106586108D01*
X198792497Y-106579815D01*
X198744198Y-106481017D01*
X198744196Y-106481015D01*
X198744196Y-106481014D01*
X198661485Y-106398303D01*
X198556391Y-106346926D01*
X198488261Y-106337000D01*
X198488260Y-106337000D01*
X197171740Y-106337000D01*
X197171739Y-106337000D01*
X197103609Y-106346926D01*
X197094406Y-106349770D01*
X197093814Y-106347854D01*
X197054853Y-106356934D01*
X194862697Y-106364097D01*
X194862678Y-106364098D01*
X194840661Y-106366494D01*
X194790084Y-106377463D01*
X194790081Y-106377464D01*
X194743718Y-106400521D01*
X194690707Y-106446033D01*
X194690703Y-106446038D01*
X194658340Y-106495892D01*
X194658338Y-106495896D01*
X194638349Y-106562839D01*
X194638348Y-106562843D01*
X194633940Y-106592533D01*
X194633939Y-106592544D01*
X194624681Y-108619955D01*
X193900500Y-108619955D01*
X193900500Y-91561689D01*
X194609000Y-91561689D01*
X194609000Y-99661689D01*
X194609000Y-99738311D01*
X194628831Y-99812322D01*
X194667142Y-99878678D01*
X195881322Y-101092858D01*
X195947678Y-101131169D01*
X196021689Y-101151000D01*
X196098311Y-101151000D01*
X198290850Y-101151000D01*
X198357889Y-101170685D01*
X198403644Y-101223489D01*
X198413588Y-101292647D01*
X198409828Y-101309933D01*
X198408775Y-101313516D01*
X198408774Y-101313524D01*
X198406385Y-101330143D01*
X198404500Y-101343251D01*
X198404500Y-102027212D01*
X198405220Y-102039521D01*
X198405221Y-102039529D01*
X198408592Y-102068233D01*
X198408595Y-102068248D01*
X198421787Y-102108304D01*
X198456465Y-102168954D01*
X198474932Y-102192640D01*
X198474937Y-102192645D01*
X198649455Y-102360450D01*
X198658290Y-102368945D01*
X198658297Y-102368951D01*
X198658309Y-102368962D01*
X198665520Y-102375094D01*
X198668086Y-102377276D01*
X198692215Y-102395385D01*
X198692218Y-102395386D01*
X198692222Y-102395389D01*
X198721480Y-102409164D01*
X198730851Y-102413576D01*
X198776137Y-102424477D01*
X198798779Y-102429928D01*
X198802674Y-102430292D01*
X198828677Y-102432729D01*
X200566652Y-102346858D01*
X200570276Y-102346548D01*
X200638746Y-102360450D01*
X200688833Y-102409164D01*
X200704632Y-102477224D01*
X200681127Y-102543021D01*
X200669859Y-102556209D01*
X200614033Y-102639759D01*
X200614032Y-102639763D01*
X200599500Y-102712820D01*
X200599500Y-102978323D01*
X200579815Y-103045362D01*
X200547574Y-103079225D01*
X200341524Y-103226403D01*
X200275533Y-103249351D01*
X200269453Y-103249500D01*
X199397273Y-103249500D01*
X199295412Y-103276793D01*
X199295409Y-103276794D01*
X199249750Y-103303155D01*
X199249750Y-103303156D01*
X199204087Y-103329520D01*
X199204084Y-103329522D01*
X199129518Y-103404089D01*
X198943637Y-103589969D01*
X198882314Y-103623454D01*
X198812622Y-103618470D01*
X198756689Y-103576598D01*
X198744555Y-103556747D01*
X198744197Y-103556015D01*
X198661485Y-103473303D01*
X198556391Y-103421926D01*
X198488261Y-103412000D01*
X198488260Y-103412000D01*
X197261286Y-103412000D01*
X197194247Y-103392315D01*
X197155397Y-103352526D01*
X196486330Y-102254570D01*
X196471726Y-102235769D01*
X196471724Y-102235767D01*
X196461774Y-102225577D01*
X196432877Y-102195981D01*
X196432874Y-102195978D01*
X196387123Y-102168462D01*
X196387117Y-102168459D01*
X196320082Y-102148775D01*
X196320078Y-102148774D01*
X196320077Y-102148774D01*
X196290353Y-102144500D01*
X194894740Y-102144500D01*
X194894738Y-102144500D01*
X194872005Y-102146978D01*
X194871997Y-102146979D01*
X194819831Y-102158490D01*
X194819823Y-102158493D01*
X194772995Y-102182196D01*
X194720465Y-102228264D01*
X194688626Y-102278462D01*
X194669342Y-102345613D01*
X194669340Y-102345621D01*
X194665244Y-102375357D01*
X194665244Y-102375360D01*
X194683755Y-105485194D01*
X194686433Y-105508181D01*
X194686434Y-105508187D01*
X194686435Y-105508192D01*
X194690723Y-105526846D01*
X194698560Y-105560936D01*
X194722871Y-105607777D01*
X194769541Y-105659766D01*
X194769546Y-105659770D01*
X194820105Y-105691023D01*
X194820106Y-105691023D01*
X194820109Y-105691025D01*
X194887483Y-105709531D01*
X194917277Y-105713283D01*
X196442611Y-105686523D01*
X196459408Y-105684878D01*
X196498331Y-105677888D01*
X196541276Y-105659703D01*
X196598002Y-105618912D01*
X196619638Y-105598089D01*
X197252367Y-104785799D01*
X197309093Y-104745009D01*
X197350191Y-104738000D01*
X198488261Y-104738000D01*
X198516105Y-104733943D01*
X198556393Y-104728073D01*
X198661483Y-104676698D01*
X198744198Y-104593983D01*
X198768125Y-104545038D01*
X198815252Y-104493458D01*
X198879525Y-104475500D01*
X199077725Y-104475500D01*
X199077727Y-104475500D01*
X199179588Y-104448207D01*
X199270913Y-104395480D01*
X199579574Y-104086817D01*
X199640896Y-104053334D01*
X199667254Y-104050500D01*
X200302307Y-104050500D01*
X200329206Y-104053453D01*
X200363753Y-104061130D01*
X200736487Y-104143959D01*
X200748216Y-104147660D01*
X200752258Y-104148464D01*
X200752260Y-104148465D01*
X200789004Y-104155774D01*
X200825324Y-104162999D01*
X201133711Y-104162999D01*
X201200750Y-104182684D01*
X201246505Y-104235488D01*
X201257703Y-104288415D01*
X201223961Y-107243382D01*
X201226238Y-107266412D01*
X201226239Y-107266419D01*
X201237437Y-107319347D01*
X201241159Y-107326836D01*
X201260921Y-107366599D01*
X201306676Y-107419403D01*
X201306678Y-107419404D01*
X201332482Y-107435988D01*
X201369938Y-107479215D01*
X201371300Y-107478283D01*
X201377792Y-107487761D01*
X201377794Y-107487764D01*
X201457235Y-107567205D01*
X201560009Y-107612584D01*
X201585135Y-107615499D01*
X202074864Y-107615498D01*
X202074879Y-107615496D01*
X202074882Y-107615496D01*
X202099987Y-107612585D01*
X202099988Y-107612584D01*
X202099991Y-107612584D01*
X202202765Y-107567205D01*
X202258151Y-107511819D01*
X202319474Y-107478334D01*
X202345832Y-107475500D01*
X202600500Y-107475500D01*
X202622927Y-107473089D01*
X202674438Y-107461883D01*
X202721099Y-107438526D01*
X202773903Y-107392771D01*
X202806041Y-107342763D01*
X202825726Y-107275724D01*
X202830000Y-107246000D01*
X202830000Y-107245987D01*
X202830037Y-107245473D01*
X202830122Y-107245142D01*
X202830630Y-107241615D01*
X202831023Y-107241671D01*
X202831625Y-107239351D01*
X202831128Y-107235688D01*
X202841338Y-107201908D01*
X202857766Y-107166678D01*
X202882463Y-107131408D01*
X202906408Y-107107463D01*
X202941677Y-107082767D01*
X202976313Y-107066616D01*
X203028714Y-107055000D01*
X203571283Y-107055000D01*
X203582286Y-107057439D01*
X203589902Y-107056406D01*
X203623687Y-107066617D01*
X203658316Y-107082765D01*
X203693592Y-107107466D01*
X203717532Y-107131406D01*
X203742233Y-107166683D01*
X203758646Y-107201881D01*
X203768877Y-107242781D01*
X203769644Y-107242699D01*
X203772409Y-107268426D01*
X203783616Y-107319938D01*
X203806973Y-107366600D01*
X203827014Y-107389728D01*
X203852728Y-107419403D01*
X203902736Y-107451541D01*
X203969775Y-107471226D01*
X203999499Y-107475500D01*
X203999503Y-107475500D01*
X204683523Y-107475500D01*
X204683528Y-107475500D01*
X204706851Y-107472890D01*
X204760319Y-107460770D01*
X204807462Y-107436396D01*
X204859461Y-107389728D01*
X204861307Y-107386741D01*
X204863922Y-107384394D01*
X204865151Y-107382926D01*
X204865362Y-107383102D01*
X204913302Y-107340074D01*
X204982276Y-107328924D01*
X204990962Y-107330332D01*
X204991804Y-107330500D01*
X204991805Y-107330500D01*
X205408198Y-107330500D01*
X205476884Y-107316837D01*
X205476884Y-107316836D01*
X205476888Y-107316836D01*
X205554786Y-107264786D01*
X205593558Y-107206758D01*
X205647169Y-107161955D01*
X205716493Y-107153248D01*
X205779521Y-107183402D01*
X205799757Y-107206756D01*
X205845214Y-107274786D01*
X205923112Y-107326836D01*
X205923114Y-107326836D01*
X205923115Y-107326837D01*
X205991801Y-107340500D01*
X205991804Y-107340500D01*
X206408198Y-107340500D01*
X206476884Y-107326837D01*
X206476884Y-107326836D01*
X206476888Y-107326836D01*
X206554786Y-107274786D01*
X206606836Y-107196888D01*
X206609519Y-107183402D01*
X206620500Y-107128198D01*
X206620500Y-106811801D01*
X206606837Y-106743115D01*
X206606836Y-106743114D01*
X206606836Y-106743112D01*
X206554786Y-106665214D01*
X206476888Y-106613164D01*
X206476886Y-106613163D01*
X206476884Y-106613162D01*
X206408198Y-106599500D01*
X206408196Y-106599500D01*
X206374500Y-106599500D01*
X206307461Y-106579815D01*
X206261706Y-106527011D01*
X206250500Y-106475500D01*
X206250500Y-106156974D01*
X206264661Y-106108744D01*
X206261369Y-106107381D01*
X206266039Y-106096102D01*
X206266042Y-106096099D01*
X206275500Y-106048552D01*
X206275500Y-105316448D01*
X206275500Y-105316445D01*
X206266043Y-105268904D01*
X206266042Y-105268902D01*
X206266042Y-105268901D01*
X206230016Y-105214984D01*
X206230015Y-105214983D01*
X206176101Y-105178959D01*
X206176095Y-105178956D01*
X206128554Y-105169500D01*
X206128552Y-105169500D01*
X205971448Y-105169500D01*
X205971446Y-105169500D01*
X205923904Y-105178956D01*
X205923902Y-105178957D01*
X205871477Y-105213986D01*
X205869986Y-105214983D01*
X205868890Y-105215715D01*
X205802212Y-105236592D01*
X205734832Y-105218107D01*
X205731110Y-105215715D01*
X205730016Y-105214984D01*
X205676099Y-105178958D01*
X205676098Y-105178957D01*
X205676097Y-105178957D01*
X205676095Y-105178956D01*
X205628554Y-105169500D01*
X205628552Y-105169500D01*
X205471448Y-105169500D01*
X205471445Y-105169500D01*
X205451104Y-105173546D01*
X205381513Y-105167319D01*
X205333201Y-105133133D01*
X205322770Y-105121095D01*
X205280809Y-105094129D01*
X205272763Y-105088958D01*
X205205725Y-105069273D01*
X205176001Y-105064999D01*
X204644639Y-105064999D01*
X204642837Y-105065020D01*
X204642147Y-105065028D01*
X204636409Y-105065163D01*
X204636406Y-105065163D01*
X204604474Y-105070904D01*
X204562382Y-105085429D01*
X204559242Y-105085968D01*
X204557800Y-105086911D01*
X204522906Y-105092207D01*
X204470588Y-105092616D01*
X204469855Y-105092622D01*
X204469790Y-105092622D01*
X204276799Y-105094129D01*
X204211302Y-105076020D01*
X204206737Y-105073238D01*
X204179128Y-105061416D01*
X204151900Y-105054120D01*
X204121999Y-105041734D01*
X204083004Y-105019221D01*
X204057321Y-104999514D01*
X204025484Y-104967677D01*
X204005778Y-104941996D01*
X203983262Y-104902997D01*
X203970877Y-104873097D01*
X203958551Y-104827091D01*
X203954505Y-104801635D01*
X203954395Y-104799584D01*
X203951561Y-104773226D01*
X203939261Y-104733943D01*
X203939257Y-104733936D01*
X203936881Y-104728340D01*
X203938409Y-104727690D01*
X203936974Y-104722065D01*
X203930523Y-104712027D01*
X203925500Y-104677092D01*
X203925500Y-104583623D01*
X203931863Y-104544411D01*
X203950000Y-104489999D01*
X203930024Y-104418086D01*
X203925500Y-104384898D01*
X203925500Y-104220318D01*
X203943623Y-104155774D01*
X203946648Y-104150811D01*
X203946649Y-104150808D01*
X203946653Y-104150802D01*
X203958475Y-104123196D01*
X203970879Y-104076897D01*
X203983264Y-104046995D01*
X204005781Y-104007995D01*
X204025481Y-103982323D01*
X204057326Y-103950478D01*
X204082997Y-103930779D01*
X204126442Y-103905697D01*
X204143740Y-103897922D01*
X204143680Y-103897783D01*
X204148593Y-103895661D01*
X204180494Y-103878481D01*
X204180506Y-103878471D01*
X204184965Y-103875549D01*
X204186521Y-103877922D01*
X204239926Y-103855867D01*
X204252579Y-103855171D01*
X204297501Y-103854999D01*
X204297500Y-103855000D01*
X204952500Y-103852500D01*
X204955000Y-103852500D01*
X204949835Y-103849010D01*
X205023332Y-103829608D01*
X205031384Y-103829829D01*
X205038752Y-103826567D01*
X205054984Y-103825500D01*
X205076000Y-103825500D01*
X205091015Y-103824426D01*
X205125950Y-103819403D01*
X205130711Y-103817626D01*
X205132435Y-103816984D01*
X205132438Y-103816983D01*
X205140757Y-103813879D01*
X205149933Y-103811884D01*
X205161121Y-103806282D01*
X205167348Y-103803960D01*
X205167347Y-103803960D01*
X205167981Y-103803724D01*
X205168536Y-103803366D01*
X205180068Y-103796799D01*
X205196600Y-103788525D01*
X205210866Y-103776162D01*
X205226749Y-103765956D01*
X205239110Y-103751688D01*
X205242556Y-103748701D01*
X205242557Y-103748702D01*
X205249398Y-103742775D01*
X205256763Y-103731315D01*
X205265682Y-103721022D01*
X205269443Y-103712785D01*
X205268847Y-103712513D01*
X205281542Y-103692762D01*
X205284363Y-103683153D01*
X205286862Y-103674642D01*
X205294704Y-103657474D01*
X205297387Y-103638797D01*
X205299889Y-103630280D01*
X205299889Y-103630278D01*
X205299892Y-103630269D01*
X205301221Y-103625741D01*
X205301224Y-103625732D01*
X205302269Y-103618470D01*
X205305499Y-103596004D01*
X205305500Y-103596002D01*
X205305500Y-102845456D01*
X205305499Y-102845445D01*
X205303693Y-102827666D01*
X205303345Y-102824239D01*
X205293319Y-102775393D01*
X205286944Y-102755046D01*
X205035524Y-102168401D01*
X205025499Y-102119563D01*
X205025499Y-101301342D01*
X205019379Y-101254847D01*
X205008255Y-101230992D01*
X204999472Y-101204948D01*
X204996768Y-101192520D01*
X204991883Y-101170062D01*
X204968526Y-101123401D01*
X204968525Y-101123399D01*
X204922770Y-101070596D01*
X204887335Y-101047824D01*
X204872763Y-101038459D01*
X204805729Y-101018775D01*
X204805725Y-101018774D01*
X204805724Y-101018774D01*
X204776000Y-101014500D01*
X204124000Y-101014500D01*
X204123997Y-101014500D01*
X204101573Y-101016910D01*
X204050061Y-101028117D01*
X204003399Y-101051474D01*
X203950596Y-101097229D01*
X203918460Y-101147235D01*
X203918459Y-101147236D01*
X203898775Y-101214270D01*
X203898774Y-101214275D01*
X203898774Y-101214276D01*
X203894501Y-101243997D01*
X203894500Y-101244003D01*
X203894500Y-102090727D01*
X203897322Y-102114969D01*
X203897323Y-102114974D01*
X203904062Y-102143518D01*
X203907596Y-102158490D01*
X203910415Y-102170428D01*
X203918725Y-102193354D01*
X203918729Y-102193364D01*
X204115748Y-102587402D01*
X204128123Y-102656167D01*
X204101355Y-102720706D01*
X204043945Y-102760528D01*
X204005883Y-102766852D01*
X202669144Y-102778103D01*
X201522566Y-102787754D01*
X201522560Y-102787754D01*
X201519311Y-102787782D01*
X201519299Y-102786401D01*
X201456543Y-102772009D01*
X201407695Y-102722052D01*
X201395571Y-102688042D01*
X201385967Y-102639763D01*
X201385966Y-102639759D01*
X201330601Y-102556898D01*
X201247740Y-102501533D01*
X201247739Y-102501532D01*
X201247735Y-102501531D01*
X201174677Y-102486999D01*
X201174674Y-102486999D01*
X201143669Y-102486999D01*
X201076630Y-102467314D01*
X201030875Y-102414510D01*
X201020931Y-102345352D01*
X201049956Y-102281796D01*
X201108734Y-102244022D01*
X201119904Y-102241297D01*
X201702466Y-102127619D01*
X201713251Y-102124917D01*
X201713258Y-102124914D01*
X201713269Y-102124912D01*
X201726999Y-102120692D01*
X201738196Y-102117251D01*
X201774291Y-102097829D01*
X201826662Y-102054680D01*
X201828209Y-102053405D01*
X201828209Y-102053404D01*
X201828215Y-102053400D01*
X201861586Y-102004205D01*
X201882930Y-101937675D01*
X201884285Y-101933453D01*
X201884851Y-101933634D01*
X201888931Y-101921208D01*
X201922585Y-101844991D01*
X201925500Y-101819865D01*
X201925499Y-101330136D01*
X201925497Y-101330117D01*
X201922586Y-101305012D01*
X201922585Y-101305010D01*
X201922585Y-101305009D01*
X201877206Y-101202235D01*
X201875340Y-101200369D01*
X201873030Y-101196140D01*
X201870712Y-101192755D01*
X201871054Y-101192520D01*
X201841855Y-101139046D01*
X201846839Y-101069354D01*
X201875338Y-101025009D01*
X202273029Y-100627319D01*
X202334352Y-100593834D01*
X202360710Y-100591000D01*
X204248309Y-100591000D01*
X204248311Y-100591000D01*
X204322322Y-100571169D01*
X204388678Y-100532858D01*
X204494217Y-100427319D01*
X204521144Y-100412615D01*
X204546963Y-100396023D01*
X204553163Y-100395131D01*
X204555540Y-100393834D01*
X204581898Y-100391000D01*
X204745101Y-100391000D01*
X204812140Y-100410685D01*
X204813993Y-100411899D01*
X204856522Y-100440317D01*
X204856524Y-100440318D01*
X204907711Y-100450499D01*
X204907714Y-100450500D01*
X204907716Y-100450500D01*
X205292286Y-100450500D01*
X205292287Y-100450499D01*
X205305257Y-100447919D01*
X205343475Y-100440318D01*
X205343475Y-100440317D01*
X205343477Y-100440317D01*
X205401528Y-100401528D01*
X205440317Y-100343477D01*
X205440317Y-100343475D01*
X205440318Y-100343475D01*
X205450499Y-100292288D01*
X205450500Y-100292286D01*
X205450500Y-99907713D01*
X205450499Y-99907711D01*
X205440318Y-99856524D01*
X205440317Y-99856523D01*
X205401528Y-99798471D01*
X205343476Y-99759682D01*
X205343475Y-99759681D01*
X205292288Y-99749500D01*
X205292284Y-99749500D01*
X204907716Y-99749500D01*
X204907711Y-99749500D01*
X204856524Y-99759681D01*
X204856522Y-99759682D01*
X204813993Y-99788101D01*
X204747316Y-99808980D01*
X204745101Y-99809000D01*
X204371689Y-99809000D01*
X204366310Y-99809708D01*
X204297275Y-99798940D01*
X204245021Y-99752558D01*
X204226138Y-99685288D01*
X204246621Y-99618488D01*
X204262443Y-99599092D01*
X204731858Y-99129678D01*
X204731863Y-99129667D01*
X204736805Y-99123229D01*
X204737214Y-99123542D01*
X204749592Y-99107408D01*
X204907408Y-98949592D01*
X204923542Y-98937214D01*
X204923229Y-98936805D01*
X204929667Y-98931863D01*
X204929678Y-98931858D01*
X204974717Y-98886819D01*
X205036040Y-98853334D01*
X205062398Y-98850500D01*
X205199897Y-98850500D01*
X205266936Y-98870185D01*
X205275441Y-98880000D01*
X205300000Y-98880000D01*
X208034523Y-98880000D01*
X208057824Y-98862906D01*
X208100035Y-98855500D01*
X208532533Y-98855500D01*
X208532534Y-98855500D01*
X208551754Y-98853734D01*
X208555872Y-98852971D01*
X208609248Y-98825788D01*
X208615635Y-98819731D01*
X208639407Y-98786116D01*
X208796105Y-98434413D01*
X209085396Y-97785116D01*
X209092119Y-97764598D01*
X209093113Y-97760027D01*
X209095517Y-97738606D01*
X209104267Y-96812429D01*
X209106439Y-96582502D01*
X209106438Y-96582501D01*
X209106439Y-96582497D01*
X209098415Y-96541131D01*
X209095047Y-96532999D01*
X209087527Y-96518241D01*
X209087526Y-96518240D01*
X209087525Y-96518238D01*
X209085973Y-96516269D01*
X209083926Y-96511175D01*
X209081982Y-96507359D01*
X209082323Y-96507184D01*
X209059927Y-96451436D01*
X209073067Y-96382813D01*
X209121222Y-96332188D01*
X209183351Y-96315500D01*
X209485500Y-96315500D01*
X209552539Y-96335185D01*
X209598294Y-96387989D01*
X209609500Y-96439500D01*
X209609500Y-96447601D01*
X209641905Y-96568536D01*
X209704505Y-96676964D01*
X209793036Y-96765495D01*
X209901464Y-96828095D01*
X210022399Y-96860500D01*
X210022401Y-96860500D01*
X210147596Y-96860500D01*
X210147601Y-96860500D01*
X210147605Y-96860498D01*
X210149676Y-96860226D01*
X210151434Y-96860500D01*
X210154290Y-96860500D01*
X210157025Y-96859480D01*
X210187698Y-96866152D01*
X210218713Y-96870987D01*
X210222651Y-96873756D01*
X210225298Y-96874332D01*
X210253552Y-96895483D01*
X210373896Y-97015827D01*
X210373899Y-97015831D01*
X210427100Y-97069032D01*
X210427101Y-97069033D01*
X210444756Y-97076345D01*
X210487378Y-97094001D01*
X210531502Y-97094001D01*
X210544945Y-97097026D01*
X210563929Y-97107568D01*
X210584763Y-97113686D01*
X210598501Y-97124757D01*
X210613831Y-97134999D01*
X210635787Y-97149669D01*
X210635790Y-97149669D01*
X210635791Y-97149670D01*
X210645647Y-97151630D01*
X210665101Y-97155500D01*
X211234898Y-97155499D01*
X211264213Y-97149669D01*
X211297457Y-97127457D01*
X211319669Y-97094213D01*
X211319669Y-97094212D01*
X211326453Y-97084059D01*
X211328435Y-97085383D01*
X211361756Y-97044028D01*
X211428048Y-97021958D01*
X211495749Y-97039232D01*
X211532802Y-97072994D01*
X211563281Y-97114945D01*
X211563282Y-97114946D01*
X211624998Y-97134999D01*
X211625001Y-97135000D01*
X212625005Y-97135000D01*
X212657442Y-97129862D01*
X212657444Y-97129861D01*
X212702970Y-97096785D01*
X212718428Y-97091269D01*
X212731480Y-97081315D01*
X212750655Y-97079770D01*
X212768776Y-97073305D01*
X212784764Y-97077022D01*
X212801125Y-97075705D01*
X212818091Y-97084772D01*
X212836830Y-97089130D01*
X212848270Y-97100901D01*
X212862746Y-97108638D01*
X212872117Y-97125438D01*
X212885525Y-97139235D01*
X212889102Y-97155890D01*
X212896781Y-97169657D01*
X212899615Y-97204838D01*
X212891005Y-97342604D01*
X212867177Y-97408285D01*
X212845133Y-97431355D01*
X212249432Y-97912223D01*
X212232939Y-97928887D01*
X212232933Y-97928895D01*
X212229789Y-97932872D01*
X212229782Y-97932881D01*
X212217369Y-97952800D01*
X212217364Y-97952809D01*
X212065939Y-98269647D01*
X212065937Y-98269653D01*
X212058234Y-98291825D01*
X212058234Y-98291827D01*
X212057110Y-98296786D01*
X212054500Y-98320107D01*
X212054500Y-98320112D01*
X212054500Y-98814938D01*
X212045855Y-98844378D01*
X212039332Y-98874365D01*
X212035577Y-98879380D01*
X212034815Y-98881977D01*
X212018181Y-98902619D01*
X211912619Y-99008181D01*
X211851296Y-99041666D01*
X211824938Y-99044500D01*
X209871154Y-99044500D01*
X209861137Y-99046491D01*
X209830796Y-99052525D01*
X209830794Y-99052526D01*
X209822664Y-99055892D01*
X209788423Y-99078766D01*
X209342674Y-99524517D01*
X209316993Y-99544223D01*
X209278006Y-99566732D01*
X209248102Y-99579119D01*
X209204609Y-99590774D01*
X209172513Y-99595000D01*
X208499125Y-99595000D01*
X208476183Y-99597527D01*
X208476170Y-99597528D01*
X208476169Y-99597529D01*
X208476168Y-99597529D01*
X208476156Y-99597531D01*
X208471283Y-99598618D01*
X208471281Y-99598618D01*
X208449445Y-99606074D01*
X208449429Y-99606080D01*
X208168744Y-99737760D01*
X208116079Y-99749500D01*
X208107711Y-99749500D01*
X208056524Y-99759681D01*
X208056523Y-99759682D01*
X207998471Y-99798471D01*
X207959681Y-99856525D01*
X207957661Y-99861401D01*
X207954172Y-99873088D01*
X207952245Y-99877858D01*
X207944569Y-99918315D01*
X207963643Y-102054680D01*
X207955115Y-102084710D01*
X207948481Y-102115212D01*
X207945216Y-102119572D01*
X207944558Y-102121892D01*
X207927334Y-102143462D01*
X207927330Y-102143467D01*
X207852619Y-102218180D01*
X207791297Y-102251666D01*
X207764937Y-102254500D01*
X207329069Y-102254500D01*
X207329069Y-102253497D01*
X207265226Y-102238974D01*
X207216291Y-102189103D01*
X207202087Y-102120692D01*
X207202514Y-102116367D01*
X207202677Y-102114969D01*
X207202678Y-102114965D01*
X207205500Y-102090726D01*
X207205500Y-101244000D01*
X207203089Y-101221573D01*
X207191883Y-101170062D01*
X207168526Y-101123401D01*
X207168525Y-101123399D01*
X207122770Y-101070596D01*
X207087335Y-101047824D01*
X207072763Y-101038459D01*
X207005729Y-101018775D01*
X207005725Y-101018774D01*
X207005724Y-101018774D01*
X206976000Y-101014500D01*
X206324000Y-101014500D01*
X206323997Y-101014500D01*
X206301573Y-101016910D01*
X206250061Y-101028117D01*
X206203399Y-101051474D01*
X206150596Y-101097229D01*
X206118460Y-101147235D01*
X206118456Y-101147242D01*
X206100109Y-101209725D01*
X206093517Y-101227189D01*
X206080622Y-101254843D01*
X206080620Y-101254852D01*
X206074500Y-101301340D01*
X206074500Y-102119555D01*
X206064474Y-102168401D01*
X205813058Y-102755039D01*
X205806681Y-102775392D01*
X205796654Y-102824243D01*
X205796654Y-102824244D01*
X205794500Y-102845445D01*
X205794500Y-103596002D01*
X205796910Y-103618426D01*
X205808117Y-103669938D01*
X205831474Y-103716600D01*
X205852715Y-103741113D01*
X205877229Y-103769403D01*
X205877231Y-103769404D01*
X205877233Y-103769406D01*
X205917991Y-103795600D01*
X205963746Y-103848403D01*
X205965594Y-103854807D01*
X206152734Y-103854092D01*
X206559725Y-103852538D01*
X206606376Y-103861456D01*
X207168665Y-104087090D01*
X207187807Y-104092738D01*
X207187812Y-104092739D01*
X207187820Y-104092741D01*
X207192046Y-104093563D01*
X207192049Y-104093563D01*
X207192058Y-104093565D01*
X207211910Y-104095506D01*
X208772373Y-104099863D01*
X208839355Y-104119735D01*
X208884962Y-104172667D01*
X208896021Y-104223033D01*
X208902338Y-105167319D01*
X208904426Y-105479407D01*
X208912372Y-105518873D01*
X208915652Y-105526838D01*
X208922652Y-105540801D01*
X208971766Y-105583687D01*
X208979860Y-105587144D01*
X209020145Y-105595617D01*
X210827347Y-105615368D01*
X210827352Y-105615367D01*
X210827353Y-105615367D01*
X210868207Y-105607615D01*
X210868207Y-105607614D01*
X210868212Y-105607614D01*
X210876366Y-105604301D01*
X210891161Y-105596889D01*
X210933845Y-105547600D01*
X210937269Y-105539491D01*
X210945576Y-105499167D01*
X210948479Y-105070905D01*
X210965464Y-102565735D01*
X210965464Y-102565681D01*
X210965462Y-102564049D01*
X210965459Y-102563704D01*
X210956466Y-102521990D01*
X210956465Y-102521986D01*
X210952911Y-102513942D01*
X210952904Y-102513930D01*
X210929252Y-102480257D01*
X210929250Y-102480254D01*
X210716180Y-102276870D01*
X210716178Y-102276868D01*
X210716177Y-102276867D01*
X210682567Y-102255248D01*
X210682564Y-102255246D01*
X210674633Y-102252069D01*
X210674630Y-102252068D01*
X210674627Y-102252067D01*
X210672548Y-102251666D01*
X210635395Y-102244500D01*
X210635392Y-102244500D01*
X210010062Y-102244500D01*
X209980621Y-102235855D01*
X209950635Y-102229332D01*
X209945619Y-102225577D01*
X209943023Y-102224815D01*
X209922381Y-102208181D01*
X209802766Y-102088566D01*
X209769281Y-102027243D01*
X209766453Y-101999651D01*
X209767116Y-101933015D01*
X209774326Y-101208275D01*
X209794677Y-101141438D01*
X209826642Y-101108328D01*
X209912061Y-101047823D01*
X209978144Y-101025137D01*
X209982901Y-101025014D01*
X212892077Y-101005555D01*
X212918260Y-101002073D01*
X212923784Y-101000617D01*
X212925350Y-101000191D01*
X212979629Y-100964064D01*
X212985091Y-100957161D01*
X213003845Y-100920516D01*
X213576185Y-98904883D01*
X213578492Y-98894954D01*
X213578888Y-98892778D01*
X213580221Y-98882738D01*
X213705061Y-97399633D01*
X213705418Y-97392543D01*
X213705444Y-97390984D01*
X213705318Y-97383776D01*
X213675923Y-96815457D01*
X213675499Y-96813687D01*
X213675499Y-96795102D01*
X213669669Y-96765787D01*
X213648261Y-96733747D01*
X213642925Y-96716334D01*
X213642719Y-96698871D01*
X213637502Y-96682207D01*
X213642315Y-96664663D01*
X213642101Y-96646469D01*
X213651368Y-96631667D01*
X213655989Y-96614828D01*
X213658379Y-96611110D01*
X213669669Y-96594213D01*
X213675500Y-96564899D01*
X213675499Y-96295102D01*
X213669669Y-96265787D01*
X213661852Y-96254087D01*
X213647457Y-96232542D01*
X213614214Y-96210332D01*
X213614215Y-96210332D01*
X213614213Y-96210331D01*
X213614211Y-96210330D01*
X213614208Y-96210329D01*
X213584901Y-96204500D01*
X213015105Y-96204500D01*
X213015097Y-96204501D01*
X212985787Y-96210330D01*
X212952540Y-96232544D01*
X212943906Y-96241179D01*
X212941491Y-96238764D01*
X212903491Y-96270523D01*
X212834166Y-96279231D01*
X212771138Y-96249077D01*
X212734419Y-96189635D01*
X212730000Y-96156828D01*
X212730000Y-95329994D01*
X212724862Y-95297557D01*
X212724860Y-95297552D01*
X212686718Y-95245054D01*
X212686717Y-95245053D01*
X212625001Y-95225000D01*
X211925005Y-95225000D01*
X211924977Y-95225001D01*
X211908574Y-95226292D01*
X211850755Y-95255753D01*
X211850748Y-95255758D01*
X211562316Y-95544190D01*
X211520000Y-95718043D01*
X211520000Y-96156828D01*
X211500315Y-96223867D01*
X211447511Y-96269622D01*
X211378353Y-96279566D01*
X211314797Y-96250541D01*
X211306329Y-96240943D01*
X211306094Y-96241179D01*
X211297459Y-96232544D01*
X211264214Y-96210332D01*
X211264215Y-96210332D01*
X211264213Y-96210331D01*
X211264211Y-96210330D01*
X211264208Y-96210329D01*
X211234901Y-96204500D01*
X210665105Y-96204500D01*
X210665102Y-96204501D01*
X210630923Y-96211298D01*
X210561332Y-96205066D01*
X210506157Y-96162200D01*
X210499351Y-96151678D01*
X210465495Y-96093036D01*
X210376965Y-96004506D01*
X210376964Y-96004505D01*
X210268536Y-95941905D01*
X210268537Y-95941905D01*
X210218171Y-95928409D01*
X210147601Y-95909500D01*
X210022399Y-95909500D01*
X209961931Y-95925702D01*
X209901462Y-95941905D01*
X209901461Y-95941906D01*
X209871453Y-95959231D01*
X209851264Y-95970887D01*
X209789266Y-95987500D01*
X207820794Y-95987500D01*
X207791352Y-95978855D01*
X207761375Y-95972336D01*
X207756355Y-95968578D01*
X207753755Y-95967815D01*
X207733119Y-95951187D01*
X207725833Y-95943902D01*
X207725832Y-95943900D01*
X207725827Y-95943896D01*
X207394112Y-95612181D01*
X207360627Y-95550858D01*
X207365611Y-95481166D01*
X207407483Y-95425233D01*
X207472947Y-95400816D01*
X207481793Y-95400500D01*
X207878764Y-95400500D01*
X207878765Y-95400499D01*
X207934329Y-95389447D01*
X207997343Y-95347343D01*
X208039447Y-95284329D01*
X208050500Y-95228762D01*
X208050500Y-94771238D01*
X208050500Y-94771235D01*
X208048701Y-94762192D01*
X208054928Y-94692601D01*
X208097790Y-94637423D01*
X208163680Y-94614178D01*
X208170318Y-94614000D01*
X209260707Y-94614000D01*
X209327746Y-94633685D01*
X209348388Y-94650319D01*
X209636064Y-94937995D01*
X209669549Y-94999318D01*
X209668158Y-95057767D01*
X209649500Y-95127399D01*
X209649500Y-95252601D01*
X209681905Y-95373536D01*
X209744505Y-95481964D01*
X209833036Y-95570495D01*
X209941464Y-95633095D01*
X210062399Y-95665500D01*
X210180549Y-95665500D01*
X210187599Y-95665500D01*
X210187601Y-95665500D01*
X210308536Y-95633095D01*
X210347479Y-95610611D01*
X210362966Y-95606461D01*
X210374542Y-95599023D01*
X210409477Y-95594000D01*
X210513740Y-95594000D01*
X210543371Y-95598447D01*
X210543446Y-95598074D01*
X210543667Y-95598118D01*
X210544668Y-95598642D01*
X210550144Y-95599464D01*
X210555637Y-95601151D01*
X210554782Y-95603934D01*
X210563997Y-95608757D01*
X210580779Y-95613685D01*
X210586889Y-95620737D01*
X210590929Y-95622851D01*
X210592386Y-95620671D01*
X210602543Y-95627457D01*
X210635787Y-95649669D01*
X210635790Y-95649669D01*
X210635791Y-95649670D01*
X210665090Y-95655498D01*
X210665091Y-95655498D01*
X210665101Y-95655500D01*
X210679982Y-95655499D01*
X210680625Y-95655686D01*
X210686346Y-95655499D01*
X211234898Y-95655499D01*
X211264213Y-95649669D01*
X211297457Y-95627457D01*
X211319669Y-95594213D01*
X211325500Y-95564899D01*
X211325499Y-95295102D01*
X211319669Y-95265787D01*
X211310859Y-95252601D01*
X211297457Y-95232542D01*
X211264214Y-95210332D01*
X211264215Y-95210332D01*
X211264213Y-95210331D01*
X211264211Y-95210330D01*
X211264208Y-95210329D01*
X211234901Y-95204500D01*
X210716307Y-95204500D01*
X210649268Y-95184815D01*
X210603513Y-95132011D01*
X210596535Y-95112604D01*
X210568095Y-95006464D01*
X210505495Y-94898036D01*
X210416964Y-94809505D01*
X210308536Y-94746905D01*
X210308537Y-94746905D01*
X210258912Y-94733608D01*
X210187601Y-94714500D01*
X210062399Y-94714500D01*
X209984882Y-94735270D01*
X209915033Y-94733608D01*
X209865108Y-94703177D01*
X209541820Y-94379889D01*
X209519033Y-94357102D01*
X209519033Y-94357101D01*
X209472899Y-94310967D01*
X209447629Y-94300500D01*
X209412622Y-94285999D01*
X209347378Y-94285999D01*
X209332944Y-94285999D01*
X209332936Y-94286000D01*
X209270318Y-94286000D01*
X209203279Y-94266315D01*
X209157524Y-94213511D01*
X209147580Y-94144353D01*
X209148701Y-94137808D01*
X209150500Y-94128764D01*
X209150500Y-93671235D01*
X209150499Y-93671233D01*
X209139447Y-93615671D01*
X209139447Y-93615670D01*
X209097343Y-93552657D01*
X209097342Y-93552656D01*
X209034329Y-93510552D01*
X208978765Y-93499500D01*
X208978762Y-93499500D01*
X208521238Y-93499500D01*
X208521235Y-93499500D01*
X208465671Y-93510552D01*
X208465670Y-93510552D01*
X208402657Y-93552656D01*
X208402656Y-93552657D01*
X208360552Y-93615670D01*
X208360552Y-93615671D01*
X208349500Y-93671233D01*
X208349500Y-94128764D01*
X208351299Y-94137808D01*
X208349421Y-94158792D01*
X208352420Y-94179647D01*
X208346369Y-94192895D01*
X208345072Y-94207399D01*
X208332147Y-94224036D01*
X208323395Y-94243203D01*
X208311143Y-94251076D01*
X208302210Y-94262577D01*
X208282341Y-94269586D01*
X208264617Y-94280977D01*
X208240034Y-94284511D01*
X208236320Y-94285822D01*
X208229682Y-94286000D01*
X208170318Y-94286000D01*
X208103279Y-94266315D01*
X208057524Y-94213511D01*
X208047580Y-94144353D01*
X208048701Y-94137808D01*
X208050500Y-94128764D01*
X208050500Y-93671235D01*
X208050499Y-93671233D01*
X208039447Y-93615671D01*
X208039447Y-93615670D01*
X207997343Y-93552657D01*
X207997342Y-93552656D01*
X207934329Y-93510552D01*
X207878765Y-93499500D01*
X207878762Y-93499500D01*
X207421238Y-93499500D01*
X207421235Y-93499500D01*
X207365671Y-93510552D01*
X207365670Y-93510552D01*
X207302657Y-93552656D01*
X207302656Y-93552657D01*
X207260552Y-93615670D01*
X207260552Y-93615671D01*
X207249500Y-93671233D01*
X207249500Y-94128764D01*
X207251299Y-94137808D01*
X207249421Y-94158792D01*
X207252420Y-94179647D01*
X207246369Y-94192895D01*
X207245072Y-94207399D01*
X207232147Y-94224036D01*
X207223395Y-94243203D01*
X207211143Y-94251076D01*
X207202210Y-94262577D01*
X207182341Y-94269586D01*
X207164617Y-94280977D01*
X207140034Y-94284511D01*
X207136320Y-94285822D01*
X207129682Y-94286000D01*
X207070318Y-94286000D01*
X207003279Y-94266315D01*
X206957524Y-94213511D01*
X206947580Y-94144353D01*
X206948701Y-94137808D01*
X206950500Y-94128764D01*
X206950500Y-93671235D01*
X206950499Y-93671233D01*
X206939447Y-93615671D01*
X206939447Y-93615670D01*
X206897343Y-93552657D01*
X206897342Y-93552656D01*
X206834329Y-93510552D01*
X206778765Y-93499500D01*
X206778762Y-93499500D01*
X206321238Y-93499500D01*
X206321235Y-93499500D01*
X206265671Y-93510552D01*
X206265670Y-93510552D01*
X206202657Y-93552656D01*
X206202656Y-93552657D01*
X206160552Y-93615670D01*
X206160552Y-93615671D01*
X206149500Y-93671233D01*
X206149500Y-94068207D01*
X206143261Y-94089452D01*
X206141682Y-94111541D01*
X206133609Y-94122324D01*
X206129815Y-94135246D01*
X206113081Y-94149745D01*
X206099810Y-94167474D01*
X206087189Y-94172181D01*
X206077011Y-94181001D01*
X206055093Y-94184152D01*
X206034346Y-94191891D01*
X206021185Y-94189028D01*
X206007853Y-94190945D01*
X205987709Y-94181745D01*
X205966073Y-94177039D01*
X205948347Y-94163770D01*
X205944297Y-94161920D01*
X205937819Y-94155888D01*
X205886819Y-94104888D01*
X205853334Y-94043565D01*
X205850500Y-94017207D01*
X205850500Y-93671235D01*
X205850499Y-93671233D01*
X205839447Y-93615671D01*
X205839447Y-93615670D01*
X205797343Y-93552657D01*
X205797342Y-93552656D01*
X205734329Y-93510552D01*
X205678765Y-93499500D01*
X205678762Y-93499500D01*
X205221238Y-93499500D01*
X205221235Y-93499500D01*
X205165671Y-93510552D01*
X205165670Y-93510552D01*
X205102657Y-93552656D01*
X205102656Y-93552657D01*
X205060552Y-93615670D01*
X205060552Y-93615671D01*
X205049500Y-93671233D01*
X205049500Y-94128766D01*
X205060552Y-94184328D01*
X205060552Y-94184329D01*
X205102656Y-94247342D01*
X205102657Y-94247343D01*
X205165670Y-94289447D01*
X205221233Y-94300499D01*
X205221236Y-94300500D01*
X205221238Y-94300500D01*
X205567207Y-94300500D01*
X205596647Y-94309144D01*
X205626634Y-94315668D01*
X205631649Y-94319422D01*
X205634246Y-94320185D01*
X205654888Y-94336819D01*
X205705888Y-94387819D01*
X205739373Y-94449142D01*
X205734389Y-94518834D01*
X205692517Y-94574767D01*
X205627053Y-94599184D01*
X205618207Y-94599500D01*
X205221235Y-94599500D01*
X205165671Y-94610552D01*
X205165670Y-94610552D01*
X205102657Y-94652656D01*
X205102656Y-94652657D01*
X205060552Y-94715670D01*
X205060552Y-94715671D01*
X205049500Y-94771233D01*
X205049500Y-95228766D01*
X205060552Y-95284328D01*
X205060552Y-95284329D01*
X205102656Y-95347342D01*
X205102657Y-95347343D01*
X205165670Y-95389447D01*
X205221233Y-95400499D01*
X205221236Y-95400500D01*
X205221238Y-95400500D01*
X205678763Y-95400500D01*
X205687808Y-95398701D01*
X205757399Y-95404928D01*
X205812577Y-95447790D01*
X205835822Y-95513680D01*
X205836000Y-95520318D01*
X205836000Y-96012422D01*
X205816315Y-96079461D01*
X205763511Y-96125216D01*
X205694353Y-96135160D01*
X205664558Y-96126987D01*
X205664096Y-96126795D01*
X205602398Y-96110263D01*
X205562227Y-96099500D01*
X205456773Y-96099500D01*
X205354913Y-96126793D01*
X205354910Y-96126794D01*
X205263585Y-96179521D01*
X205189021Y-96254085D01*
X205136294Y-96345410D01*
X205136293Y-96345413D01*
X205109000Y-96447273D01*
X205109000Y-96552727D01*
X205134976Y-96649669D01*
X205136293Y-96654586D01*
X205136294Y-96654589D01*
X205139733Y-96660545D01*
X205180409Y-96730999D01*
X205189021Y-96745914D01*
X205241180Y-96798073D01*
X205258557Y-96819884D01*
X205264080Y-96828693D01*
X205297136Y-96908497D01*
X205342658Y-96954019D01*
X205350114Y-96965910D01*
X205355932Y-96986578D01*
X205366222Y-97005422D01*
X205365212Y-97019540D01*
X205369048Y-97033165D01*
X205362769Y-97053695D01*
X205361238Y-97075114D01*
X205348769Y-97099477D01*
X205348616Y-97099980D01*
X205348433Y-97100134D01*
X205348160Y-97100669D01*
X205333163Y-97123113D01*
X205333162Y-97123115D01*
X205319500Y-97191801D01*
X205319500Y-97191804D01*
X205319500Y-97608196D01*
X205319500Y-97608198D01*
X205319499Y-97608198D01*
X205333162Y-97676884D01*
X205333163Y-97676886D01*
X205333164Y-97676888D01*
X205385214Y-97754786D01*
X205463112Y-97806836D01*
X205463114Y-97806836D01*
X205463115Y-97806837D01*
X205531801Y-97820500D01*
X205531804Y-97820500D01*
X205848198Y-97820500D01*
X205916884Y-97806837D01*
X205916884Y-97806836D01*
X205916888Y-97806836D01*
X205994786Y-97754786D01*
X206046836Y-97676888D01*
X206046837Y-97676884D01*
X206060500Y-97608198D01*
X206060500Y-97281793D01*
X206066738Y-97260547D01*
X206068318Y-97238459D01*
X206076390Y-97227675D01*
X206080185Y-97214754D01*
X206096918Y-97200254D01*
X206110190Y-97182526D01*
X206122810Y-97177818D01*
X206132989Y-97168999D01*
X206154906Y-97165847D01*
X206175654Y-97158109D01*
X206188814Y-97160971D01*
X206202147Y-97159055D01*
X206222290Y-97168254D01*
X206243927Y-97172961D01*
X206261652Y-97186229D01*
X206265703Y-97188080D01*
X206272181Y-97194112D01*
X206303181Y-97225112D01*
X206336666Y-97286435D01*
X206339500Y-97312793D01*
X206339500Y-97608196D01*
X206339500Y-97608198D01*
X206339499Y-97608198D01*
X206353162Y-97676884D01*
X206353163Y-97676886D01*
X206353164Y-97676888D01*
X206405214Y-97754786D01*
X206483112Y-97806836D01*
X206483113Y-97806836D01*
X206490891Y-97812033D01*
X206495981Y-97818124D01*
X206503203Y-97821422D01*
X206518066Y-97844549D01*
X206535696Y-97865645D01*
X206537647Y-97875019D01*
X206540977Y-97880200D01*
X206546000Y-97915135D01*
X206546000Y-98040120D01*
X206526315Y-98107159D01*
X206473511Y-98152914D01*
X206467716Y-98154786D01*
X206467808Y-98155008D01*
X206456523Y-98159682D01*
X206398470Y-98198472D01*
X206389836Y-98207107D01*
X206387396Y-98204667D01*
X206349487Y-98236348D01*
X206280162Y-98245054D01*
X206217135Y-98214897D01*
X206210282Y-98206988D01*
X206210164Y-98207107D01*
X206201529Y-98198472D01*
X206143476Y-98159682D01*
X206143475Y-98159681D01*
X206092288Y-98149500D01*
X206092284Y-98149500D01*
X205707716Y-98149500D01*
X205707711Y-98149500D01*
X205656524Y-98159681D01*
X205656523Y-98159682D01*
X205598470Y-98198472D01*
X205589836Y-98207107D01*
X205587396Y-98204667D01*
X205549487Y-98236348D01*
X205480162Y-98245054D01*
X205417135Y-98214897D01*
X205410282Y-98206988D01*
X205410164Y-98207107D01*
X205401529Y-98198472D01*
X205343476Y-98159682D01*
X205343475Y-98159681D01*
X205292288Y-98149500D01*
X205292284Y-98149500D01*
X204907716Y-98149500D01*
X204907711Y-98149500D01*
X204856524Y-98159681D01*
X204856523Y-98159682D01*
X204798471Y-98198471D01*
X204759682Y-98256523D01*
X204755010Y-98267804D01*
X204752192Y-98266636D01*
X204748709Y-98282650D01*
X204729929Y-98307736D01*
X204729083Y-98309353D01*
X204727558Y-98310904D01*
X204590058Y-98448404D01*
X204573927Y-98460785D01*
X204574239Y-98461191D01*
X204567788Y-98466141D01*
X204266141Y-98767788D01*
X204261191Y-98774239D01*
X204260785Y-98773927D01*
X204248404Y-98790058D01*
X203575783Y-99462681D01*
X203514460Y-99496166D01*
X203488102Y-99499000D01*
X201874419Y-99499000D01*
X201807380Y-99479315D01*
X201804343Y-99477301D01*
X201797767Y-99472796D01*
X201797765Y-99472794D01*
X201797761Y-99472792D01*
X201694992Y-99427415D01*
X201669865Y-99424500D01*
X201030143Y-99424500D01*
X201030117Y-99424502D01*
X201005012Y-99427413D01*
X201005008Y-99427415D01*
X200902239Y-99472791D01*
X200895657Y-99477301D01*
X200829224Y-99498946D01*
X200825581Y-99499000D01*
X197511898Y-99499000D01*
X197444859Y-99479315D01*
X197424217Y-99462681D01*
X196827319Y-98865783D01*
X196793834Y-98804460D01*
X196791000Y-98778102D01*
X196791000Y-96875688D01*
X196810685Y-96808649D01*
X196863489Y-96762894D01*
X196932647Y-96752950D01*
X196996203Y-96781975D01*
X197002681Y-96788007D01*
X197060421Y-96845747D01*
X197164455Y-96894259D01*
X197211861Y-96900500D01*
X197788138Y-96900499D01*
X197835545Y-96894259D01*
X197895749Y-96866185D01*
X197938802Y-96854922D01*
X197947009Y-96854302D01*
X197947021Y-96854300D01*
X197947023Y-96854300D01*
X197950694Y-96853741D01*
X197983845Y-96848704D01*
X197999335Y-96845139D01*
X202375164Y-95483768D01*
X202402540Y-95483330D01*
X202429647Y-95479433D01*
X202436973Y-95482778D01*
X202445024Y-95482650D01*
X202468291Y-95497081D01*
X202493203Y-95508458D01*
X202497556Y-95515232D01*
X202504400Y-95519477D01*
X202516172Y-95544199D01*
X202530977Y-95567236D01*
X202532635Y-95578773D01*
X202534439Y-95582560D01*
X202536000Y-95602171D01*
X202536000Y-95655707D01*
X202516315Y-95722746D01*
X202499681Y-95743388D01*
X201548388Y-96694681D01*
X201487065Y-96728166D01*
X201460707Y-96731000D01*
X200352064Y-96731000D01*
X200352056Y-96730999D01*
X200337622Y-96730999D01*
X200272378Y-96730999D01*
X200272375Y-96730999D01*
X200236373Y-96745913D01*
X200236371Y-96745914D01*
X200225771Y-96750305D01*
X200212103Y-96755966D01*
X200212098Y-96755969D01*
X199960969Y-97007098D01*
X199960965Y-97007105D01*
X199956794Y-97017175D01*
X199956789Y-97017186D01*
X199954395Y-97022964D01*
X199910549Y-97077363D01*
X199844253Y-97099421D01*
X199839839Y-97099500D01*
X199590105Y-97099500D01*
X199590097Y-97099501D01*
X199560787Y-97105330D01*
X199527542Y-97127542D01*
X199505332Y-97160785D01*
X199505329Y-97160791D01*
X199499500Y-97190097D01*
X199499500Y-97282000D01*
X199496949Y-97290685D01*
X199498238Y-97299647D01*
X199487259Y-97323687D01*
X199479815Y-97349039D01*
X199472974Y-97354966D01*
X199469213Y-97363203D01*
X199446978Y-97377492D01*
X199427011Y-97394794D01*
X199416496Y-97397081D01*
X199410435Y-97400977D01*
X199375500Y-97406000D01*
X199308328Y-97406000D01*
X199241289Y-97386315D01*
X199205420Y-97344920D01*
X199203331Y-97346316D01*
X199188211Y-97323687D01*
X199143391Y-97256609D01*
X199063839Y-97203454D01*
X199063837Y-97203453D01*
X199063834Y-97203452D01*
X198993691Y-97189500D01*
X198993688Y-97189500D01*
X198606312Y-97189500D01*
X198606309Y-97189500D01*
X198536165Y-97203452D01*
X198536161Y-97203454D01*
X198456609Y-97256609D01*
X198403454Y-97336161D01*
X198403452Y-97336165D01*
X198389500Y-97406307D01*
X198389500Y-97733692D01*
X198403452Y-97803834D01*
X198403453Y-97803837D01*
X198403454Y-97803839D01*
X198456609Y-97883391D01*
X198536161Y-97936546D01*
X198536164Y-97936546D01*
X198536165Y-97936547D01*
X198606307Y-97950499D01*
X198606310Y-97950500D01*
X198606312Y-97950500D01*
X198993690Y-97950500D01*
X198993691Y-97950499D01*
X199063839Y-97936546D01*
X199143391Y-97883391D01*
X199196546Y-97803839D01*
X199196546Y-97803837D01*
X199203331Y-97793684D01*
X199205947Y-97795432D01*
X199206309Y-97794982D01*
X199214615Y-97776797D01*
X199227784Y-97768333D01*
X199237607Y-97756144D01*
X199256575Y-97749830D01*
X199273393Y-97739023D01*
X199300953Y-97735060D01*
X199303902Y-97734079D01*
X199308328Y-97734000D01*
X199375500Y-97734000D01*
X199442539Y-97753685D01*
X199488294Y-97806489D01*
X199499500Y-97858000D01*
X199499500Y-99009894D01*
X199499501Y-99009902D01*
X199505330Y-99039212D01*
X199527542Y-99072457D01*
X199536985Y-99078766D01*
X199560787Y-99094669D01*
X199560790Y-99094669D01*
X199560791Y-99094670D01*
X199570647Y-99096630D01*
X199590101Y-99100500D01*
X200609898Y-99100499D01*
X200639213Y-99094669D01*
X200672457Y-99072457D01*
X200694669Y-99039213D01*
X200700500Y-99009899D01*
X200700499Y-97190102D01*
X200700499Y-97190101D01*
X200700499Y-97184011D01*
X200703119Y-97184011D01*
X200713991Y-97126554D01*
X200762035Y-97075824D01*
X200824399Y-97059000D01*
X201547376Y-97059000D01*
X201547378Y-97059001D01*
X201612622Y-97059001D01*
X201655243Y-97041345D01*
X201672899Y-97034033D01*
X201719033Y-96987899D01*
X201719033Y-96987898D01*
X201736473Y-96970458D01*
X201736474Y-96970456D01*
X202792897Y-95914033D01*
X202792899Y-95914033D01*
X202839033Y-95867899D01*
X202856424Y-95825913D01*
X202864001Y-95807622D01*
X202864001Y-95742378D01*
X202864001Y-95732389D01*
X202864000Y-95732375D01*
X202864000Y-95520318D01*
X202883685Y-95453279D01*
X202936489Y-95407524D01*
X203005647Y-95397580D01*
X203012192Y-95398701D01*
X203021236Y-95400500D01*
X203482000Y-95400500D01*
X203549039Y-95420185D01*
X203594794Y-95472989D01*
X203606000Y-95524500D01*
X203606000Y-96940600D01*
X203586315Y-97007639D01*
X203550892Y-97043701D01*
X203516609Y-97066608D01*
X203463454Y-97146161D01*
X203463452Y-97146165D01*
X203449500Y-97216307D01*
X203449500Y-97603692D01*
X203463452Y-97673834D01*
X203463453Y-97673837D01*
X203463454Y-97673839D01*
X203506730Y-97738606D01*
X203509739Y-97743109D01*
X203530617Y-97809787D01*
X203512132Y-97877167D01*
X203460153Y-97923857D01*
X203406637Y-97936000D01*
X203324499Y-97936000D01*
X203257460Y-97916315D01*
X203211705Y-97863511D01*
X203200499Y-97812000D01*
X203200499Y-97190105D01*
X203200498Y-97190097D01*
X203194669Y-97160787D01*
X203172457Y-97127542D01*
X203139214Y-97105332D01*
X203139215Y-97105332D01*
X203139213Y-97105331D01*
X203139211Y-97105330D01*
X203139208Y-97105329D01*
X203109901Y-97099500D01*
X202090105Y-97099500D01*
X202090097Y-97099501D01*
X202060787Y-97105330D01*
X202027542Y-97127542D01*
X202005332Y-97160785D01*
X202005329Y-97160791D01*
X201999500Y-97190097D01*
X201999500Y-99009894D01*
X201999501Y-99009902D01*
X202005330Y-99039212D01*
X202027542Y-99072457D01*
X202036985Y-99078766D01*
X202060787Y-99094669D01*
X202060790Y-99094669D01*
X202060791Y-99094670D01*
X202070647Y-99096630D01*
X202090101Y-99100500D01*
X203109898Y-99100499D01*
X203139213Y-99094669D01*
X203172457Y-99072457D01*
X203194669Y-99039213D01*
X203194670Y-99039208D01*
X203200500Y-99009901D01*
X203200500Y-98388000D01*
X203220185Y-98320961D01*
X203272989Y-98275206D01*
X203324500Y-98264000D01*
X203597376Y-98264000D01*
X203597378Y-98264001D01*
X203662622Y-98264001D01*
X203705243Y-98246345D01*
X203722899Y-98239033D01*
X203769033Y-98192899D01*
X203769033Y-98192898D01*
X203786473Y-98175458D01*
X203786474Y-98175456D01*
X203905457Y-98056473D01*
X203905460Y-98056471D01*
X203922898Y-98039033D01*
X203922899Y-98039033D01*
X203969033Y-97992899D01*
X203982259Y-97960967D01*
X203994001Y-97932621D01*
X203994001Y-97903945D01*
X203997292Y-97889948D01*
X204007731Y-97871566D01*
X204013686Y-97851289D01*
X204024638Y-97841798D01*
X204031798Y-97829193D01*
X204050518Y-97819373D01*
X204055079Y-97815420D01*
X204053684Y-97813332D01*
X204095911Y-97785116D01*
X204143391Y-97753391D01*
X204196546Y-97673839D01*
X204210500Y-97603688D01*
X204210500Y-97216312D01*
X204210500Y-97216309D01*
X204210499Y-97216307D01*
X204196547Y-97146165D01*
X204196546Y-97146164D01*
X204196546Y-97146161D01*
X204143391Y-97066609D01*
X204063839Y-97013454D01*
X204063837Y-97013453D01*
X204063835Y-97013452D01*
X204033806Y-97007479D01*
X203971896Y-96975093D01*
X203937323Y-96914376D01*
X203934000Y-96885862D01*
X203934000Y-95514350D01*
X203953685Y-95447311D01*
X204006489Y-95401556D01*
X204075647Y-95391612D01*
X204082177Y-95392730D01*
X204106558Y-95397580D01*
X204121237Y-95400500D01*
X204121238Y-95400500D01*
X204578764Y-95400500D01*
X204578765Y-95400499D01*
X204634329Y-95389447D01*
X204697343Y-95347343D01*
X204739447Y-95284329D01*
X204750500Y-95228762D01*
X204750500Y-94771238D01*
X204750500Y-94771235D01*
X204750499Y-94771233D01*
X204739447Y-94715671D01*
X204739447Y-94715670D01*
X204697343Y-94652657D01*
X204697342Y-94652656D01*
X204634329Y-94610552D01*
X204578765Y-94599500D01*
X204578762Y-94599500D01*
X204121238Y-94599500D01*
X204121233Y-94599500D01*
X204082191Y-94607266D01*
X204061207Y-94605388D01*
X204040353Y-94608387D01*
X204027105Y-94602337D01*
X204012599Y-94601039D01*
X203995961Y-94588113D01*
X203976797Y-94579362D01*
X203968922Y-94567109D01*
X203957422Y-94558175D01*
X203950413Y-94538308D01*
X203939023Y-94520584D01*
X203935488Y-94495998D01*
X203934178Y-94492285D01*
X203934000Y-94485649D01*
X203934000Y-94414350D01*
X203953685Y-94347311D01*
X204006489Y-94301556D01*
X204075647Y-94291612D01*
X204082177Y-94292730D01*
X204106558Y-94297580D01*
X204121237Y-94300500D01*
X204121238Y-94300500D01*
X204578764Y-94300500D01*
X204578765Y-94300499D01*
X204634329Y-94289447D01*
X204697343Y-94247343D01*
X204739447Y-94184329D01*
X204750500Y-94128762D01*
X204750500Y-93671238D01*
X204750500Y-93671235D01*
X204750499Y-93671233D01*
X204739447Y-93615671D01*
X204739447Y-93615670D01*
X204697343Y-93552657D01*
X204697342Y-93552656D01*
X204634329Y-93510552D01*
X204578765Y-93499500D01*
X204578762Y-93499500D01*
X204121238Y-93499500D01*
X204121235Y-93499500D01*
X204065671Y-93510552D01*
X204065670Y-93510552D01*
X204002657Y-93552656D01*
X204002656Y-93552657D01*
X203960552Y-93615670D01*
X203960552Y-93615671D01*
X203949500Y-93671233D01*
X203949500Y-94068207D01*
X203943261Y-94089452D01*
X203941682Y-94111541D01*
X203933609Y-94122324D01*
X203929815Y-94135246D01*
X203913081Y-94149745D01*
X203899810Y-94167474D01*
X203887189Y-94172181D01*
X203877011Y-94181001D01*
X203855093Y-94184152D01*
X203834346Y-94191891D01*
X203821185Y-94189028D01*
X203807853Y-94190945D01*
X203787709Y-94181745D01*
X203766073Y-94177039D01*
X203748347Y-94163770D01*
X203744297Y-94161920D01*
X203737819Y-94155888D01*
X203686819Y-94104888D01*
X203653334Y-94043565D01*
X203650500Y-94017207D01*
X203650500Y-93671235D01*
X203650499Y-93671233D01*
X203639447Y-93615671D01*
X203639447Y-93615670D01*
X203597343Y-93552657D01*
X203597342Y-93552656D01*
X203534329Y-93510552D01*
X203478765Y-93499500D01*
X203478762Y-93499500D01*
X203031793Y-93499500D01*
X203010547Y-93493261D01*
X202988459Y-93491682D01*
X202977675Y-93483609D01*
X202964754Y-93479815D01*
X202950254Y-93463081D01*
X202932526Y-93449810D01*
X202927818Y-93437189D01*
X202918999Y-93427011D01*
X202915847Y-93405093D01*
X202908109Y-93384346D01*
X202910971Y-93371185D01*
X202909055Y-93357853D01*
X202918254Y-93337709D01*
X202922961Y-93316073D01*
X202936229Y-93298347D01*
X202938080Y-93294297D01*
X202944112Y-93287819D01*
X202995112Y-93236819D01*
X203056435Y-93203334D01*
X203082793Y-93200500D01*
X203478764Y-93200500D01*
X203478765Y-93200499D01*
X203534329Y-93189447D01*
X203597343Y-93147343D01*
X203639447Y-93084329D01*
X203650500Y-93028762D01*
X203650500Y-92571238D01*
X203650500Y-92571235D01*
X203650499Y-92571233D01*
X203949500Y-92571233D01*
X203949500Y-93028766D01*
X203960552Y-93084328D01*
X203960552Y-93084329D01*
X204002656Y-93147342D01*
X204002657Y-93147343D01*
X204065670Y-93189447D01*
X204121233Y-93200499D01*
X204121236Y-93200500D01*
X204121238Y-93200500D01*
X204578764Y-93200500D01*
X204578765Y-93200499D01*
X204634329Y-93189447D01*
X204697343Y-93147343D01*
X204739447Y-93084329D01*
X204750500Y-93028762D01*
X204750500Y-92571238D01*
X204750500Y-92571235D01*
X204750499Y-92571233D01*
X205049500Y-92571233D01*
X205049500Y-93028766D01*
X205060552Y-93084328D01*
X205060552Y-93084329D01*
X205102656Y-93147342D01*
X205102657Y-93147343D01*
X205165670Y-93189447D01*
X205221233Y-93200499D01*
X205221236Y-93200500D01*
X205221238Y-93200500D01*
X205678764Y-93200500D01*
X205678765Y-93200499D01*
X205734329Y-93189447D01*
X205797343Y-93147343D01*
X205839447Y-93084329D01*
X205850500Y-93028762D01*
X205850500Y-92571238D01*
X205850500Y-92571235D01*
X205850499Y-92571233D01*
X207249500Y-92571233D01*
X207249500Y-93028766D01*
X207260552Y-93084328D01*
X207260552Y-93084329D01*
X207302656Y-93147342D01*
X207302657Y-93147343D01*
X207365670Y-93189447D01*
X207421233Y-93200499D01*
X207421236Y-93200500D01*
X207421238Y-93200500D01*
X207878764Y-93200500D01*
X207878765Y-93200499D01*
X207934329Y-93189447D01*
X207997343Y-93147343D01*
X208039447Y-93084329D01*
X208050500Y-93028762D01*
X208050500Y-92571238D01*
X208050500Y-92571235D01*
X208050499Y-92571233D01*
X208349500Y-92571233D01*
X208349500Y-93028766D01*
X208360552Y-93084328D01*
X208360552Y-93084329D01*
X208402656Y-93147342D01*
X208402657Y-93147343D01*
X208465670Y-93189447D01*
X208521233Y-93200499D01*
X208521236Y-93200500D01*
X208521238Y-93200500D01*
X208978764Y-93200500D01*
X208978765Y-93200499D01*
X209034329Y-93189447D01*
X209097343Y-93147343D01*
X209139447Y-93084329D01*
X209150500Y-93028762D01*
X209150500Y-92571238D01*
X209150500Y-92571235D01*
X209150499Y-92571233D01*
X209139447Y-92515671D01*
X209139447Y-92515670D01*
X209097343Y-92452657D01*
X209097342Y-92452656D01*
X209034329Y-92410552D01*
X208978765Y-92399500D01*
X208978762Y-92399500D01*
X208521238Y-92399500D01*
X208521235Y-92399500D01*
X208465671Y-92410552D01*
X208465670Y-92410552D01*
X208402657Y-92452656D01*
X208402656Y-92452657D01*
X208360552Y-92515670D01*
X208360552Y-92515671D01*
X208349500Y-92571233D01*
X208050499Y-92571233D01*
X208039447Y-92515671D01*
X208039447Y-92515670D01*
X207997343Y-92452657D01*
X207997342Y-92452656D01*
X207934329Y-92410552D01*
X207878765Y-92399500D01*
X207878762Y-92399500D01*
X207421238Y-92399500D01*
X207421235Y-92399500D01*
X207365671Y-92410552D01*
X207365670Y-92410552D01*
X207302657Y-92452656D01*
X207302656Y-92452657D01*
X207260552Y-92515670D01*
X207260552Y-92515671D01*
X207249500Y-92571233D01*
X205850499Y-92571233D01*
X205839447Y-92515671D01*
X205839447Y-92515670D01*
X205797343Y-92452657D01*
X205797342Y-92452656D01*
X205734329Y-92410552D01*
X205678765Y-92399500D01*
X205678762Y-92399500D01*
X205221238Y-92399500D01*
X205221235Y-92399500D01*
X205165671Y-92410552D01*
X205165670Y-92410552D01*
X205102657Y-92452656D01*
X205102656Y-92452657D01*
X205060552Y-92515670D01*
X205060552Y-92515671D01*
X205049500Y-92571233D01*
X204750499Y-92571233D01*
X204739447Y-92515671D01*
X204739447Y-92515670D01*
X204697343Y-92452657D01*
X204697342Y-92452656D01*
X204634329Y-92410552D01*
X204578765Y-92399500D01*
X204578762Y-92399500D01*
X204121238Y-92399500D01*
X204121235Y-92399500D01*
X204065671Y-92410552D01*
X204065670Y-92410552D01*
X204002657Y-92452656D01*
X204002656Y-92452657D01*
X203960552Y-92515670D01*
X203960552Y-92515671D01*
X203949500Y-92571233D01*
X203650499Y-92571233D01*
X203639447Y-92515671D01*
X203639447Y-92515670D01*
X203597343Y-92452657D01*
X203597342Y-92452656D01*
X203534329Y-92410552D01*
X203478765Y-92399500D01*
X203478762Y-92399500D01*
X203021238Y-92399500D01*
X203021235Y-92399500D01*
X202965671Y-92410552D01*
X202965670Y-92410552D01*
X202902657Y-92452656D01*
X202902656Y-92452657D01*
X202860552Y-92515670D01*
X202860552Y-92515671D01*
X202849500Y-92571233D01*
X202849500Y-92867206D01*
X202829815Y-92934245D01*
X202813181Y-92954887D01*
X202560967Y-93207100D01*
X202557302Y-93215948D01*
X202557301Y-93215950D01*
X202535999Y-93267378D01*
X202535999Y-93332622D01*
X202536000Y-93332624D01*
X202536000Y-93356412D01*
X202536000Y-93379681D01*
X202516315Y-93446720D01*
X202463511Y-93492475D01*
X202394353Y-93502419D01*
X202387816Y-93501300D01*
X202378764Y-93499500D01*
X202378762Y-93499500D01*
X202369641Y-93499500D01*
X202352000Y-93498238D01*
X202326000Y-93494500D01*
X201574500Y-93494500D01*
X201574497Y-93494500D01*
X201552073Y-93496910D01*
X201500561Y-93508117D01*
X201467901Y-93524466D01*
X201399141Y-93536872D01*
X201343506Y-93516685D01*
X201334329Y-93510553D01*
X201334328Y-93510552D01*
X201334327Y-93510552D01*
X201278765Y-93499500D01*
X201278762Y-93499500D01*
X200821238Y-93499500D01*
X200821235Y-93499500D01*
X200765671Y-93510552D01*
X200765670Y-93510552D01*
X200702657Y-93552656D01*
X200702656Y-93552657D01*
X200660552Y-93615670D01*
X200660552Y-93615671D01*
X200649500Y-93671233D01*
X200649500Y-94090649D01*
X200646992Y-94099188D01*
X200648281Y-94107996D01*
X200637299Y-94132197D01*
X200629815Y-94157688D01*
X200622328Y-94165192D01*
X200619411Y-94171623D01*
X200601958Y-94185612D01*
X200592794Y-94194800D01*
X200588538Y-94197549D01*
X200561303Y-94212153D01*
X200552465Y-94220856D01*
X200541794Y-94227752D01*
X200519980Y-94234215D01*
X200499928Y-94244966D01*
X200487121Y-94243951D01*
X200474803Y-94247601D01*
X200452956Y-94241244D01*
X200430277Y-94239447D01*
X200420051Y-94231669D01*
X200407716Y-94228080D01*
X200392774Y-94210922D01*
X200374666Y-94197148D01*
X200370268Y-94185076D01*
X200361832Y-94175388D01*
X200358538Y-94152874D01*
X200350752Y-94131498D01*
X200350500Y-94123601D01*
X200350500Y-93671235D01*
X200350499Y-93671233D01*
X200339447Y-93615671D01*
X200339447Y-93615670D01*
X200297343Y-93552657D01*
X200297342Y-93552656D01*
X200234329Y-93510552D01*
X200178765Y-93499500D01*
X200178762Y-93499500D01*
X199721238Y-93499500D01*
X199721235Y-93499500D01*
X199665671Y-93510552D01*
X199665670Y-93510552D01*
X199602657Y-93552656D01*
X199602656Y-93552657D01*
X199560552Y-93615670D01*
X199560552Y-93615671D01*
X199549500Y-93671233D01*
X199549500Y-94128766D01*
X199560552Y-94184328D01*
X199560552Y-94184329D01*
X199602656Y-94247342D01*
X199602657Y-94247343D01*
X199665670Y-94289447D01*
X199721233Y-94300499D01*
X199721236Y-94300500D01*
X199721238Y-94300500D01*
X200178764Y-94300500D01*
X200178765Y-94300499D01*
X200234329Y-94289447D01*
X200272926Y-94263657D01*
X200295515Y-94256583D01*
X200316381Y-94245396D01*
X200328244Y-94246335D01*
X200339601Y-94242779D01*
X200362429Y-94249041D01*
X200386032Y-94250910D01*
X200395505Y-94258115D01*
X200406981Y-94261263D01*
X200422799Y-94278872D01*
X200441646Y-94293206D01*
X200445720Y-94304388D01*
X200453672Y-94313241D01*
X200457458Y-94336607D01*
X200465564Y-94358854D01*
X200464086Y-94377508D01*
X200464849Y-94382211D01*
X200462778Y-94394038D01*
X200430150Y-94538718D01*
X200396200Y-94599785D01*
X200334623Y-94632802D01*
X200264972Y-94627288D01*
X200240296Y-94614540D01*
X200239488Y-94614000D01*
X200234329Y-94610553D01*
X200234328Y-94610552D01*
X200234327Y-94610552D01*
X200178765Y-94599500D01*
X200178762Y-94599500D01*
X199721238Y-94599500D01*
X199721235Y-94599500D01*
X199665671Y-94610552D01*
X199665670Y-94610552D01*
X199602657Y-94652656D01*
X199602656Y-94652657D01*
X199560552Y-94715670D01*
X199560552Y-94715671D01*
X199549500Y-94771233D01*
X199549500Y-94998435D01*
X199529815Y-95065474D01*
X199477011Y-95111229D01*
X199407853Y-95121173D01*
X199361061Y-95104377D01*
X198639702Y-94665613D01*
X198084513Y-94327921D01*
X198084507Y-94327918D01*
X198084498Y-94327913D01*
X198058158Y-94316471D01*
X198058150Y-94316468D01*
X197993723Y-94298414D01*
X197993718Y-94298413D01*
X197993717Y-94298413D01*
X197965250Y-94294500D01*
X197942541Y-94294500D01*
X197890139Y-94282883D01*
X197885545Y-94280741D01*
X197885542Y-94280740D01*
X197885541Y-94280740D01*
X197838139Y-94274500D01*
X197261868Y-94274500D01*
X197251341Y-94275885D01*
X197214455Y-94280741D01*
X197214453Y-94280742D01*
X197214448Y-94280743D01*
X197177697Y-94297880D01*
X197158144Y-94304359D01*
X197158153Y-94304384D01*
X197150959Y-94306814D01*
X197104916Y-94328950D01*
X197104909Y-94328955D01*
X197051149Y-94373571D01*
X197051148Y-94373573D01*
X197017866Y-94423017D01*
X196964101Y-94467638D01*
X196894747Y-94476109D01*
X196831823Y-94445739D01*
X196795307Y-94386171D01*
X196791000Y-94353774D01*
X196791000Y-92821898D01*
X196810685Y-92754859D01*
X196827319Y-92734217D01*
X196990303Y-92571233D01*
X199549500Y-92571233D01*
X199549500Y-93028766D01*
X199560552Y-93084328D01*
X199560552Y-93084329D01*
X199602656Y-93147342D01*
X199602657Y-93147343D01*
X199665670Y-93189447D01*
X199721233Y-93200499D01*
X199721236Y-93200500D01*
X199721238Y-93200500D01*
X200178764Y-93200500D01*
X200178765Y-93200499D01*
X200234329Y-93189447D01*
X200297343Y-93147343D01*
X200339447Y-93084329D01*
X200350500Y-93028762D01*
X200350500Y-92571238D01*
X200350500Y-92571235D01*
X200350499Y-92571233D01*
X200649500Y-92571233D01*
X200649500Y-93028766D01*
X200660552Y-93084328D01*
X200660552Y-93084329D01*
X200702656Y-93147342D01*
X200702657Y-93147343D01*
X200765670Y-93189447D01*
X200821233Y-93200499D01*
X200821236Y-93200500D01*
X200821238Y-93200500D01*
X201278764Y-93200500D01*
X201278765Y-93200499D01*
X201334329Y-93189447D01*
X201397343Y-93147343D01*
X201439447Y-93084329D01*
X201450500Y-93028762D01*
X201450500Y-92571238D01*
X201450500Y-92571235D01*
X201450499Y-92571233D01*
X201439447Y-92515671D01*
X201439447Y-92515670D01*
X201397343Y-92452657D01*
X201397342Y-92452656D01*
X201334329Y-92410552D01*
X201278765Y-92399500D01*
X201278762Y-92399500D01*
X200821238Y-92399500D01*
X200821235Y-92399500D01*
X200765671Y-92410552D01*
X200765670Y-92410552D01*
X200702657Y-92452656D01*
X200702656Y-92452657D01*
X200660552Y-92515670D01*
X200660552Y-92515671D01*
X200649500Y-92571233D01*
X200350499Y-92571233D01*
X200339447Y-92515671D01*
X200339447Y-92515670D01*
X200297343Y-92452657D01*
X200297342Y-92452656D01*
X200234329Y-92410552D01*
X200178765Y-92399500D01*
X200178762Y-92399500D01*
X199721238Y-92399500D01*
X199721235Y-92399500D01*
X199665671Y-92410552D01*
X199665670Y-92410552D01*
X199602657Y-92452656D01*
X199602656Y-92452657D01*
X199560552Y-92515670D01*
X199560552Y-92515671D01*
X199549500Y-92571233D01*
X196990303Y-92571233D01*
X198090303Y-91471233D01*
X199549500Y-91471233D01*
X199549500Y-91928766D01*
X199560552Y-91984328D01*
X199560552Y-91984329D01*
X199602656Y-92047342D01*
X199602657Y-92047343D01*
X199665670Y-92089447D01*
X199721233Y-92100499D01*
X199721236Y-92100500D01*
X199721238Y-92100500D01*
X200178764Y-92100500D01*
X200178765Y-92100499D01*
X200234329Y-92089447D01*
X200297343Y-92047343D01*
X200339447Y-91984329D01*
X200350500Y-91928762D01*
X200350500Y-91471238D01*
X200350500Y-91471235D01*
X200350499Y-91471233D01*
X200649500Y-91471233D01*
X200649500Y-91928766D01*
X200660552Y-91984328D01*
X200660552Y-91984329D01*
X200702656Y-92047342D01*
X200702657Y-92047343D01*
X200765670Y-92089447D01*
X200821233Y-92100499D01*
X200821236Y-92100500D01*
X200821238Y-92100500D01*
X201278764Y-92100500D01*
X201278765Y-92100499D01*
X201334329Y-92089447D01*
X201397343Y-92047343D01*
X201439447Y-91984329D01*
X201450500Y-91928762D01*
X201450500Y-91471238D01*
X201450500Y-91471235D01*
X201450499Y-91471233D01*
X201749500Y-91471233D01*
X201749500Y-91928766D01*
X201760552Y-91984328D01*
X201760552Y-91984329D01*
X201802656Y-92047342D01*
X201802657Y-92047343D01*
X201865670Y-92089447D01*
X201921233Y-92100499D01*
X201921236Y-92100500D01*
X201921238Y-92100500D01*
X202378764Y-92100500D01*
X202378765Y-92100499D01*
X202434329Y-92089447D01*
X202497343Y-92047343D01*
X202539447Y-91984329D01*
X202550500Y-91928762D01*
X202550500Y-91471238D01*
X202550500Y-91471235D01*
X202550499Y-91471233D01*
X206149500Y-91471233D01*
X206149500Y-91928766D01*
X206160552Y-91984328D01*
X206160552Y-91984329D01*
X206202656Y-92047342D01*
X206202657Y-92047343D01*
X206265670Y-92089447D01*
X206321233Y-92100499D01*
X206321236Y-92100500D01*
X206321238Y-92100500D01*
X206778764Y-92100500D01*
X206778765Y-92100499D01*
X206834329Y-92089447D01*
X206897343Y-92047343D01*
X206939447Y-91984329D01*
X206950500Y-91928762D01*
X206950500Y-91471238D01*
X206950500Y-91471235D01*
X206950499Y-91471233D01*
X207249500Y-91471233D01*
X207249500Y-91928766D01*
X207260552Y-91984328D01*
X207260552Y-91984329D01*
X207302656Y-92047342D01*
X207302657Y-92047343D01*
X207365670Y-92089447D01*
X207421233Y-92100499D01*
X207421236Y-92100500D01*
X207421238Y-92100500D01*
X207878764Y-92100500D01*
X207878765Y-92100499D01*
X207934329Y-92089447D01*
X207997343Y-92047343D01*
X208039447Y-91984329D01*
X208050500Y-91928762D01*
X208050500Y-91471238D01*
X208050500Y-91471235D01*
X208050499Y-91471233D01*
X208349500Y-91471233D01*
X208349500Y-91928766D01*
X208360552Y-91984328D01*
X208360552Y-91984329D01*
X208402656Y-92047342D01*
X208402657Y-92047343D01*
X208465670Y-92089447D01*
X208521233Y-92100499D01*
X208521236Y-92100500D01*
X208521238Y-92100500D01*
X208978764Y-92100500D01*
X208978765Y-92100499D01*
X209034329Y-92089447D01*
X209097343Y-92047343D01*
X209139447Y-91984329D01*
X209150500Y-91928762D01*
X209150500Y-91471238D01*
X209150500Y-91471235D01*
X209150499Y-91471233D01*
X209139447Y-91415671D01*
X209139447Y-91415670D01*
X209097343Y-91352657D01*
X209097342Y-91352656D01*
X209034329Y-91310552D01*
X208978765Y-91299500D01*
X208978762Y-91299500D01*
X208521238Y-91299500D01*
X208521235Y-91299500D01*
X208465671Y-91310552D01*
X208465670Y-91310552D01*
X208402657Y-91352656D01*
X208402656Y-91352657D01*
X208360552Y-91415670D01*
X208360552Y-91415671D01*
X208349500Y-91471233D01*
X208050499Y-91471233D01*
X208039447Y-91415671D01*
X208039447Y-91415670D01*
X207997343Y-91352657D01*
X207997342Y-91352656D01*
X207934329Y-91310552D01*
X207878765Y-91299500D01*
X207878762Y-91299500D01*
X207421238Y-91299500D01*
X207421235Y-91299500D01*
X207365671Y-91310552D01*
X207365670Y-91310552D01*
X207302657Y-91352656D01*
X207302656Y-91352657D01*
X207260552Y-91415670D01*
X207260552Y-91415671D01*
X207249500Y-91471233D01*
X206950499Y-91471233D01*
X206939447Y-91415671D01*
X206939447Y-91415670D01*
X206897343Y-91352657D01*
X206897342Y-91352656D01*
X206834329Y-91310552D01*
X206778765Y-91299500D01*
X206778762Y-91299500D01*
X206321238Y-91299500D01*
X206321235Y-91299500D01*
X206265671Y-91310552D01*
X206265670Y-91310552D01*
X206202657Y-91352656D01*
X206202656Y-91352657D01*
X206160552Y-91415670D01*
X206160552Y-91415671D01*
X206149500Y-91471233D01*
X202550499Y-91471233D01*
X202539447Y-91415671D01*
X202539447Y-91415670D01*
X202497343Y-91352657D01*
X202497342Y-91352656D01*
X202434329Y-91310552D01*
X202378765Y-91299500D01*
X202378762Y-91299500D01*
X201921238Y-91299500D01*
X201921235Y-91299500D01*
X201865671Y-91310552D01*
X201865670Y-91310552D01*
X201802657Y-91352656D01*
X201802656Y-91352657D01*
X201760552Y-91415670D01*
X201760552Y-91415671D01*
X201749500Y-91471233D01*
X201450499Y-91471233D01*
X201439447Y-91415671D01*
X201439447Y-91415670D01*
X201397343Y-91352657D01*
X201397342Y-91352656D01*
X201334329Y-91310552D01*
X201278765Y-91299500D01*
X201278762Y-91299500D01*
X200821238Y-91299500D01*
X200821235Y-91299500D01*
X200765671Y-91310552D01*
X200765670Y-91310552D01*
X200702657Y-91352656D01*
X200702656Y-91352657D01*
X200660552Y-91415670D01*
X200660552Y-91415671D01*
X200649500Y-91471233D01*
X200350499Y-91471233D01*
X200339447Y-91415671D01*
X200339447Y-91415670D01*
X200297343Y-91352657D01*
X200297342Y-91352656D01*
X200234329Y-91310552D01*
X200178765Y-91299500D01*
X200178762Y-91299500D01*
X199721238Y-91299500D01*
X199721235Y-91299500D01*
X199665671Y-91310552D01*
X199665670Y-91310552D01*
X199602657Y-91352656D01*
X199602656Y-91352657D01*
X199560552Y-91415670D01*
X199560552Y-91415671D01*
X199549500Y-91471233D01*
X198090303Y-91471233D01*
X198634217Y-90927319D01*
X198695540Y-90893834D01*
X198721898Y-90891000D01*
X199498731Y-90891000D01*
X199565770Y-90910685D01*
X199601834Y-90946111D01*
X199602657Y-90947343D01*
X199665670Y-90989447D01*
X199721233Y-91000499D01*
X199721236Y-91000500D01*
X199721238Y-91000500D01*
X200178764Y-91000500D01*
X200178765Y-91000499D01*
X200234329Y-90989447D01*
X200297343Y-90947343D01*
X200339447Y-90884329D01*
X200350500Y-90828762D01*
X200350500Y-90371238D01*
X200350500Y-90371235D01*
X200350499Y-90371233D01*
X200649500Y-90371233D01*
X200649500Y-90828766D01*
X200660552Y-90884328D01*
X200660552Y-90884329D01*
X200702656Y-90947342D01*
X200702657Y-90947343D01*
X200765670Y-90989447D01*
X200821233Y-91000499D01*
X200821236Y-91000500D01*
X200821238Y-91000500D01*
X201278764Y-91000500D01*
X201278765Y-91000499D01*
X201334329Y-90989447D01*
X201397343Y-90947343D01*
X201439447Y-90884329D01*
X201450500Y-90828762D01*
X201450500Y-90371238D01*
X201450500Y-90371235D01*
X201450499Y-90371233D01*
X201749500Y-90371233D01*
X201749500Y-90828766D01*
X201760552Y-90884328D01*
X201760552Y-90884329D01*
X201802656Y-90947342D01*
X201802657Y-90947343D01*
X201865670Y-90989447D01*
X201921233Y-91000499D01*
X201921236Y-91000500D01*
X201921238Y-91000500D01*
X202378764Y-91000500D01*
X202378765Y-91000499D01*
X202434329Y-90989447D01*
X202497343Y-90947343D01*
X202539447Y-90884329D01*
X202550500Y-90828762D01*
X202550500Y-90371238D01*
X202550500Y-90371235D01*
X202550499Y-90371233D01*
X203399500Y-90371233D01*
X203399500Y-90828766D01*
X203410552Y-90884328D01*
X203410552Y-90884329D01*
X203452656Y-90947342D01*
X203452657Y-90947343D01*
X203515670Y-90989447D01*
X203571233Y-91000499D01*
X203571236Y-91000500D01*
X203571238Y-91000500D01*
X204028764Y-91000500D01*
X204028765Y-91000499D01*
X204084329Y-90989447D01*
X204147343Y-90947343D01*
X204189447Y-90884329D01*
X204200500Y-90828762D01*
X204200500Y-90371238D01*
X204200500Y-90371235D01*
X204200499Y-90371233D01*
X204499500Y-90371233D01*
X204499500Y-90828766D01*
X204510552Y-90884328D01*
X204510552Y-90884329D01*
X204552656Y-90947342D01*
X204552657Y-90947343D01*
X204615670Y-90989447D01*
X204671233Y-91000499D01*
X204671236Y-91000500D01*
X204671238Y-91000500D01*
X205128764Y-91000500D01*
X205128765Y-91000499D01*
X205184329Y-90989447D01*
X205247343Y-90947343D01*
X205289447Y-90884329D01*
X205300500Y-90828762D01*
X205300500Y-90371238D01*
X205300500Y-90371235D01*
X205300499Y-90371233D01*
X206149500Y-90371233D01*
X206149500Y-90828766D01*
X206160552Y-90884328D01*
X206160552Y-90884329D01*
X206202656Y-90947342D01*
X206202657Y-90947343D01*
X206265670Y-90989447D01*
X206321233Y-91000499D01*
X206321236Y-91000500D01*
X206321238Y-91000500D01*
X206778764Y-91000500D01*
X206778765Y-91000499D01*
X206834329Y-90989447D01*
X206897343Y-90947343D01*
X206939447Y-90884329D01*
X206950500Y-90828762D01*
X206950500Y-90371238D01*
X206950500Y-90371235D01*
X206950499Y-90371233D01*
X207249500Y-90371233D01*
X207249500Y-90828766D01*
X207260552Y-90884328D01*
X207260552Y-90884329D01*
X207302656Y-90947342D01*
X207302657Y-90947343D01*
X207365670Y-90989447D01*
X207421233Y-91000499D01*
X207421236Y-91000500D01*
X207421238Y-91000500D01*
X207878764Y-91000500D01*
X207878765Y-91000499D01*
X207934329Y-90989447D01*
X207997343Y-90947343D01*
X208039447Y-90884329D01*
X208050500Y-90828762D01*
X208050500Y-90371238D01*
X208050500Y-90371235D01*
X208050499Y-90371233D01*
X208349500Y-90371233D01*
X208349500Y-90828766D01*
X208360552Y-90884328D01*
X208360552Y-90884329D01*
X208402656Y-90947342D01*
X208402657Y-90947343D01*
X208465670Y-90989447D01*
X208521233Y-91000499D01*
X208521236Y-91000500D01*
X208521238Y-91000500D01*
X208978764Y-91000500D01*
X208978765Y-91000499D01*
X209034329Y-90989447D01*
X209097343Y-90947343D01*
X209139447Y-90884329D01*
X209150500Y-90828762D01*
X209150500Y-90371238D01*
X209150500Y-90371235D01*
X209150499Y-90371233D01*
X209139447Y-90315671D01*
X209139447Y-90315670D01*
X209097343Y-90252657D01*
X209097342Y-90252656D01*
X209034329Y-90210552D01*
X208978765Y-90199500D01*
X208978762Y-90199500D01*
X208521238Y-90199500D01*
X208521235Y-90199500D01*
X208465671Y-90210552D01*
X208465670Y-90210552D01*
X208402657Y-90252656D01*
X208402656Y-90252657D01*
X208360552Y-90315670D01*
X208360552Y-90315671D01*
X208349500Y-90371233D01*
X208050499Y-90371233D01*
X208039447Y-90315671D01*
X208039447Y-90315670D01*
X207997343Y-90252657D01*
X207997342Y-90252656D01*
X207934329Y-90210552D01*
X207878765Y-90199500D01*
X207878762Y-90199500D01*
X207421238Y-90199500D01*
X207421235Y-90199500D01*
X207365671Y-90210552D01*
X207365670Y-90210552D01*
X207302657Y-90252656D01*
X207302656Y-90252657D01*
X207260552Y-90315670D01*
X207260552Y-90315671D01*
X207249500Y-90371233D01*
X206950499Y-90371233D01*
X206939447Y-90315671D01*
X206939447Y-90315670D01*
X206897343Y-90252657D01*
X206897342Y-90252656D01*
X206834329Y-90210552D01*
X206778765Y-90199500D01*
X206778762Y-90199500D01*
X206321238Y-90199500D01*
X206321235Y-90199500D01*
X206265671Y-90210552D01*
X206265670Y-90210552D01*
X206202657Y-90252656D01*
X206202656Y-90252657D01*
X206160552Y-90315670D01*
X206160552Y-90315671D01*
X206149500Y-90371233D01*
X205300499Y-90371233D01*
X205289447Y-90315671D01*
X205289447Y-90315670D01*
X205247343Y-90252657D01*
X205247342Y-90252656D01*
X205184329Y-90210552D01*
X205128765Y-90199500D01*
X205128762Y-90199500D01*
X204671238Y-90199500D01*
X204671235Y-90199500D01*
X204615671Y-90210552D01*
X204615670Y-90210552D01*
X204552657Y-90252656D01*
X204552656Y-90252657D01*
X204510552Y-90315670D01*
X204510552Y-90315671D01*
X204499500Y-90371233D01*
X204200499Y-90371233D01*
X204189447Y-90315671D01*
X204189447Y-90315670D01*
X204147343Y-90252657D01*
X204147342Y-90252656D01*
X204084329Y-90210552D01*
X204028765Y-90199500D01*
X204028762Y-90199500D01*
X203571238Y-90199500D01*
X203571235Y-90199500D01*
X203515671Y-90210552D01*
X203515670Y-90210552D01*
X203452657Y-90252656D01*
X203452656Y-90252657D01*
X203410552Y-90315670D01*
X203410552Y-90315671D01*
X203399500Y-90371233D01*
X202550499Y-90371233D01*
X202539447Y-90315671D01*
X202539447Y-90315670D01*
X202497343Y-90252657D01*
X202497342Y-90252656D01*
X202434329Y-90210552D01*
X202378765Y-90199500D01*
X202378762Y-90199500D01*
X201921238Y-90199500D01*
X201921235Y-90199500D01*
X201865671Y-90210552D01*
X201865670Y-90210552D01*
X201802657Y-90252656D01*
X201802656Y-90252657D01*
X201760552Y-90315670D01*
X201760552Y-90315671D01*
X201749500Y-90371233D01*
X201450499Y-90371233D01*
X201439447Y-90315671D01*
X201439447Y-90315670D01*
X201397343Y-90252657D01*
X201397342Y-90252656D01*
X201334329Y-90210552D01*
X201278765Y-90199500D01*
X201278762Y-90199500D01*
X200821238Y-90199500D01*
X200821235Y-90199500D01*
X200765671Y-90210552D01*
X200765670Y-90210552D01*
X200702657Y-90252656D01*
X200702656Y-90252657D01*
X200660552Y-90315670D01*
X200660552Y-90315671D01*
X200649500Y-90371233D01*
X200350499Y-90371233D01*
X200339447Y-90315671D01*
X200339447Y-90315670D01*
X200297343Y-90252657D01*
X200297342Y-90252656D01*
X200234329Y-90210552D01*
X200178765Y-90199500D01*
X200178762Y-90199500D01*
X199721238Y-90199500D01*
X199721235Y-90199500D01*
X199665671Y-90210552D01*
X199665670Y-90210552D01*
X199602657Y-90252656D01*
X199601834Y-90253889D01*
X199599343Y-90255970D01*
X199594021Y-90261293D01*
X199593544Y-90260816D01*
X199548222Y-90298695D01*
X199498731Y-90309000D01*
X198511689Y-90309000D01*
X198437677Y-90328831D01*
X198371322Y-90367142D01*
X198371319Y-90367144D01*
X196267144Y-92471319D01*
X196267142Y-92471322D01*
X196228831Y-92537677D01*
X196219839Y-92571238D01*
X196209000Y-92611689D01*
X196209000Y-98911689D01*
X196209000Y-98988311D01*
X196228831Y-99062322D01*
X196267142Y-99128678D01*
X197107142Y-99968678D01*
X197161322Y-100022858D01*
X197227678Y-100061169D01*
X197301689Y-100081000D01*
X200653745Y-100081000D01*
X200720784Y-100100685D01*
X200766539Y-100153489D01*
X200776920Y-100190720D01*
X200777415Y-100194992D01*
X200822793Y-100297764D01*
X200878848Y-100353819D01*
X200912333Y-100415142D01*
X200907349Y-100484834D01*
X200865477Y-100540767D01*
X200800013Y-100565184D01*
X200791167Y-100565500D01*
X200427795Y-100565500D01*
X200360756Y-100545815D01*
X200358904Y-100544602D01*
X200296888Y-100503164D01*
X200296886Y-100503163D01*
X200296884Y-100503162D01*
X200228198Y-100489500D01*
X200228196Y-100489500D01*
X199811804Y-100489500D01*
X199811802Y-100489500D01*
X199743115Y-100503162D01*
X199743112Y-100503164D01*
X199686836Y-100540767D01*
X199675858Y-100548102D01*
X199609180Y-100568980D01*
X199606967Y-100569000D01*
X196231898Y-100569000D01*
X196164859Y-100549315D01*
X196144217Y-100532681D01*
X195227319Y-99615783D01*
X195193834Y-99554460D01*
X195191000Y-99528102D01*
X195191000Y-91771898D01*
X195210685Y-91704859D01*
X195227319Y-91684217D01*
X197084217Y-89827319D01*
X197145540Y-89793834D01*
X197171898Y-89791000D01*
X199498731Y-89791000D01*
X199565770Y-89810685D01*
X199601834Y-89846111D01*
X199602657Y-89847343D01*
X199665670Y-89889447D01*
X199721233Y-89900499D01*
X199721236Y-89900500D01*
X199721238Y-89900500D01*
X200178764Y-89900500D01*
X200178765Y-89900499D01*
X200234329Y-89889447D01*
X200297343Y-89847343D01*
X200339447Y-89784329D01*
X200350500Y-89728762D01*
X200350500Y-89271238D01*
X200350500Y-89271235D01*
X200350499Y-89271233D01*
X200649500Y-89271233D01*
X200649500Y-89728766D01*
X200660552Y-89784328D01*
X200660552Y-89784329D01*
X200702656Y-89847342D01*
X200702657Y-89847343D01*
X200765670Y-89889447D01*
X200821233Y-89900499D01*
X200821236Y-89900500D01*
X200821238Y-89900500D01*
X201278764Y-89900500D01*
X201278765Y-89900499D01*
X201334329Y-89889447D01*
X201397343Y-89847343D01*
X201439447Y-89784329D01*
X201450500Y-89728762D01*
X201450500Y-89271238D01*
X201450500Y-89271235D01*
X201450499Y-89271233D01*
X201749500Y-89271233D01*
X201749500Y-89728766D01*
X201760552Y-89784328D01*
X201760552Y-89784329D01*
X201802656Y-89847342D01*
X201802657Y-89847343D01*
X201865670Y-89889447D01*
X201921233Y-89900499D01*
X201921236Y-89900500D01*
X201921238Y-89900500D01*
X202378764Y-89900500D01*
X202378765Y-89900499D01*
X202434329Y-89889447D01*
X202497343Y-89847343D01*
X202539447Y-89784329D01*
X202550500Y-89728762D01*
X202550500Y-89271238D01*
X202550500Y-89271235D01*
X202550499Y-89271233D01*
X203399500Y-89271233D01*
X203399500Y-89728766D01*
X203410552Y-89784328D01*
X203410552Y-89784329D01*
X203452656Y-89847342D01*
X203452657Y-89847343D01*
X203515670Y-89889447D01*
X203571233Y-89900499D01*
X203571236Y-89900500D01*
X203571238Y-89900500D01*
X204028764Y-89900500D01*
X204028765Y-89900499D01*
X204084329Y-89889447D01*
X204147343Y-89847343D01*
X204189447Y-89784329D01*
X204200500Y-89728762D01*
X204200500Y-89271238D01*
X204200500Y-89271235D01*
X204200499Y-89271233D01*
X204499500Y-89271233D01*
X204499500Y-89728766D01*
X204510552Y-89784328D01*
X204510552Y-89784329D01*
X204552656Y-89847342D01*
X204552657Y-89847343D01*
X204615670Y-89889447D01*
X204671233Y-89900499D01*
X204671236Y-89900500D01*
X204671238Y-89900500D01*
X205128764Y-89900500D01*
X205128765Y-89900499D01*
X205184329Y-89889447D01*
X205247343Y-89847343D01*
X205289447Y-89784329D01*
X205300500Y-89728762D01*
X205300500Y-89271238D01*
X205300500Y-89271235D01*
X205300499Y-89271233D01*
X206149500Y-89271233D01*
X206149500Y-89728766D01*
X206160552Y-89784328D01*
X206160552Y-89784329D01*
X206202656Y-89847342D01*
X206202657Y-89847343D01*
X206265670Y-89889447D01*
X206321233Y-89900499D01*
X206321236Y-89900500D01*
X206321238Y-89900500D01*
X206778764Y-89900500D01*
X206778765Y-89900499D01*
X206834329Y-89889447D01*
X206897343Y-89847343D01*
X206939447Y-89784329D01*
X206950500Y-89728762D01*
X206950500Y-89271238D01*
X206950500Y-89271235D01*
X206950499Y-89271233D01*
X207249500Y-89271233D01*
X207249500Y-89728766D01*
X207260552Y-89784328D01*
X207260552Y-89784329D01*
X207302656Y-89847342D01*
X207302657Y-89847343D01*
X207365670Y-89889447D01*
X207421233Y-89900499D01*
X207421236Y-89900500D01*
X207421238Y-89900500D01*
X207878764Y-89900500D01*
X207878765Y-89900499D01*
X207934329Y-89889447D01*
X207997343Y-89847343D01*
X208039447Y-89784329D01*
X208050500Y-89728762D01*
X208050500Y-89271238D01*
X208050500Y-89271235D01*
X208050499Y-89271233D01*
X208349500Y-89271233D01*
X208349500Y-89728766D01*
X208360552Y-89784328D01*
X208360552Y-89784329D01*
X208402656Y-89847342D01*
X208402657Y-89847343D01*
X208465670Y-89889447D01*
X208521233Y-89900499D01*
X208521236Y-89900500D01*
X208521238Y-89900500D01*
X208978764Y-89900500D01*
X208978765Y-89900499D01*
X209034329Y-89889447D01*
X209097343Y-89847343D01*
X209133096Y-89793834D01*
X209146233Y-89774174D01*
X209147833Y-89775243D01*
X209182159Y-89732646D01*
X209248452Y-89710579D01*
X209252882Y-89710500D01*
X210853023Y-89710500D01*
X210920062Y-89730185D01*
X210965817Y-89782989D01*
X210972796Y-89802401D01*
X210988285Y-89860206D01*
X211049089Y-89965521D01*
X211135077Y-90051509D01*
X211240392Y-90112313D01*
X211357855Y-90143787D01*
X211357857Y-90143787D01*
X211479459Y-90143787D01*
X211479461Y-90143787D01*
X211596924Y-90112313D01*
X211702239Y-90051509D01*
X211788227Y-89965521D01*
X211849031Y-89860206D01*
X211880505Y-89742743D01*
X211880505Y-89621137D01*
X211849031Y-89503674D01*
X211788227Y-89398359D01*
X211702239Y-89312371D01*
X211630990Y-89271235D01*
X211596925Y-89251567D01*
X211538192Y-89235830D01*
X211479461Y-89220093D01*
X211357855Y-89220093D01*
X211240391Y-89251567D01*
X211213412Y-89267144D01*
X211168823Y-89292887D01*
X211106824Y-89309500D01*
X209259875Y-89309500D01*
X209192836Y-89289815D01*
X209147081Y-89237011D01*
X209142812Y-89223795D01*
X209139447Y-89215670D01*
X209097343Y-89152657D01*
X209097342Y-89152656D01*
X209034329Y-89110552D01*
X208978765Y-89099500D01*
X208978762Y-89099500D01*
X208521238Y-89099500D01*
X208521235Y-89099500D01*
X208465671Y-89110552D01*
X208465670Y-89110552D01*
X208402657Y-89152656D01*
X208402656Y-89152657D01*
X208360552Y-89215670D01*
X208360552Y-89215671D01*
X208349500Y-89271233D01*
X208050499Y-89271233D01*
X208039447Y-89215671D01*
X208039447Y-89215670D01*
X207997343Y-89152657D01*
X207997342Y-89152656D01*
X207934329Y-89110552D01*
X207878765Y-89099500D01*
X207878762Y-89099500D01*
X207421238Y-89099500D01*
X207421235Y-89099500D01*
X207365671Y-89110552D01*
X207365670Y-89110552D01*
X207302657Y-89152656D01*
X207302656Y-89152657D01*
X207260552Y-89215670D01*
X207260552Y-89215671D01*
X207249500Y-89271233D01*
X206950499Y-89271233D01*
X206939447Y-89215671D01*
X206939447Y-89215670D01*
X206897343Y-89152657D01*
X206897342Y-89152656D01*
X206834329Y-89110552D01*
X206778765Y-89099500D01*
X206778762Y-89099500D01*
X206321238Y-89099500D01*
X206321235Y-89099500D01*
X206265671Y-89110552D01*
X206265670Y-89110552D01*
X206202657Y-89152656D01*
X206202656Y-89152657D01*
X206160552Y-89215670D01*
X206160552Y-89215671D01*
X206149500Y-89271233D01*
X205300499Y-89271233D01*
X205289447Y-89215671D01*
X205289447Y-89215670D01*
X205247343Y-89152657D01*
X205247342Y-89152656D01*
X205184329Y-89110552D01*
X205128765Y-89099500D01*
X205128762Y-89099500D01*
X204671238Y-89099500D01*
X204671235Y-89099500D01*
X204615671Y-89110552D01*
X204615670Y-89110552D01*
X204552657Y-89152656D01*
X204552656Y-89152657D01*
X204510552Y-89215670D01*
X204510552Y-89215671D01*
X204499500Y-89271233D01*
X204200499Y-89271233D01*
X204189447Y-89215671D01*
X204189447Y-89215670D01*
X204147343Y-89152657D01*
X204147342Y-89152656D01*
X204084329Y-89110552D01*
X204028765Y-89099500D01*
X204028762Y-89099500D01*
X203571238Y-89099500D01*
X203571235Y-89099500D01*
X203515671Y-89110552D01*
X203515670Y-89110552D01*
X203452657Y-89152656D01*
X203452656Y-89152657D01*
X203410552Y-89215670D01*
X203410552Y-89215671D01*
X203399500Y-89271233D01*
X202550499Y-89271233D01*
X202539447Y-89215671D01*
X202539447Y-89215670D01*
X202497343Y-89152657D01*
X202497342Y-89152656D01*
X202434329Y-89110552D01*
X202378765Y-89099500D01*
X202378762Y-89099500D01*
X201921238Y-89099500D01*
X201921235Y-89099500D01*
X201865671Y-89110552D01*
X201865670Y-89110552D01*
X201802657Y-89152656D01*
X201802656Y-89152657D01*
X201760552Y-89215670D01*
X201760552Y-89215671D01*
X201749500Y-89271233D01*
X201450499Y-89271233D01*
X201439447Y-89215671D01*
X201439447Y-89215670D01*
X201397343Y-89152657D01*
X201397342Y-89152656D01*
X201334329Y-89110552D01*
X201278765Y-89099500D01*
X201278762Y-89099500D01*
X200821238Y-89099500D01*
X200821235Y-89099500D01*
X200765671Y-89110552D01*
X200765670Y-89110552D01*
X200702657Y-89152656D01*
X200702656Y-89152657D01*
X200660552Y-89215670D01*
X200660552Y-89215671D01*
X200649500Y-89271233D01*
X200350499Y-89271233D01*
X200339447Y-89215671D01*
X200339447Y-89215670D01*
X200297343Y-89152657D01*
X200297342Y-89152656D01*
X200234329Y-89110552D01*
X200178765Y-89099500D01*
X200178762Y-89099500D01*
X199721238Y-89099500D01*
X199721235Y-89099500D01*
X199665671Y-89110552D01*
X199665670Y-89110552D01*
X199602657Y-89152656D01*
X199601834Y-89153889D01*
X199599343Y-89155970D01*
X199594021Y-89161293D01*
X199593544Y-89160816D01*
X199548222Y-89198695D01*
X199498731Y-89209000D01*
X196961689Y-89209000D01*
X196887677Y-89228831D01*
X196821322Y-89267142D01*
X196821319Y-89267144D01*
X194667144Y-91421319D01*
X194667142Y-91421322D01*
X194628831Y-91487677D01*
X194628831Y-91487678D01*
X194609000Y-91561689D01*
X193900500Y-91561689D01*
X193900500Y-88272273D01*
X195449500Y-88272273D01*
X195449500Y-88377727D01*
X195476793Y-88479587D01*
X195529520Y-88570913D01*
X195604087Y-88645480D01*
X195695413Y-88698207D01*
X195797273Y-88725500D01*
X195797275Y-88725500D01*
X195902726Y-88725500D01*
X195902727Y-88725500D01*
X195914663Y-88722301D01*
X195937765Y-88718402D01*
X195948649Y-88717611D01*
X196123625Y-88669385D01*
X196127982Y-88668082D01*
X196128943Y-88667772D01*
X196133256Y-88666277D01*
X196164637Y-88654632D01*
X196170573Y-88652601D01*
X196269083Y-88621673D01*
X196288322Y-88617281D01*
X196336419Y-88610276D01*
X196349326Y-88609084D01*
X196430368Y-88605863D01*
X196435215Y-88604747D01*
X196439952Y-88603658D01*
X196467757Y-88600500D01*
X196474276Y-88600500D01*
X196541315Y-88620185D01*
X196587070Y-88672989D01*
X196587710Y-88674414D01*
X196590290Y-88680259D01*
X196590293Y-88680263D01*
X196590294Y-88680265D01*
X196669735Y-88759706D01*
X196772509Y-88805085D01*
X196797635Y-88808000D01*
X197437364Y-88807999D01*
X197437379Y-88807997D01*
X197437382Y-88807997D01*
X197462487Y-88805086D01*
X197462488Y-88805085D01*
X197462491Y-88805085D01*
X197565265Y-88759706D01*
X197644706Y-88680265D01*
X197646126Y-88677050D01*
X197647290Y-88674414D01*
X197692376Y-88621037D01*
X197759162Y-88600510D01*
X197760724Y-88600500D01*
X199442976Y-88600500D01*
X199510015Y-88620185D01*
X199555770Y-88672989D01*
X199557538Y-88677050D01*
X199560553Y-88684331D01*
X199602656Y-88747342D01*
X199602657Y-88747343D01*
X199665670Y-88789447D01*
X199721233Y-88800499D01*
X199721236Y-88800500D01*
X199721238Y-88800500D01*
X200178764Y-88800500D01*
X200178765Y-88800499D01*
X200234329Y-88789447D01*
X200297343Y-88747343D01*
X200339447Y-88684329D01*
X200350500Y-88628762D01*
X200350500Y-88171238D01*
X200350500Y-88171236D01*
X200350500Y-88171235D01*
X200350499Y-88171233D01*
X200649500Y-88171233D01*
X200649500Y-88628766D01*
X200660552Y-88684328D01*
X200660552Y-88684329D01*
X200702656Y-88747342D01*
X200702657Y-88747343D01*
X200765670Y-88789447D01*
X200821233Y-88800499D01*
X200821236Y-88800500D01*
X200821238Y-88800500D01*
X201278764Y-88800500D01*
X201278765Y-88800499D01*
X201334329Y-88789447D01*
X201397343Y-88747343D01*
X201439447Y-88684329D01*
X201450500Y-88628762D01*
X201450500Y-88171238D01*
X201450500Y-88171236D01*
X201450500Y-88171235D01*
X201450499Y-88171233D01*
X201749500Y-88171233D01*
X201749500Y-88628766D01*
X201760552Y-88684328D01*
X201760552Y-88684329D01*
X201802656Y-88747342D01*
X201802657Y-88747343D01*
X201865670Y-88789447D01*
X201921233Y-88800499D01*
X201921236Y-88800500D01*
X201921238Y-88800500D01*
X202378764Y-88800500D01*
X202378765Y-88800499D01*
X202434329Y-88789447D01*
X202497343Y-88747343D01*
X202539447Y-88684329D01*
X202550500Y-88628762D01*
X202550500Y-88171238D01*
X202550500Y-88171236D01*
X202550500Y-88171235D01*
X202550499Y-88171233D01*
X203399500Y-88171233D01*
X203399500Y-88628766D01*
X203410552Y-88684328D01*
X203410552Y-88684329D01*
X203452656Y-88747342D01*
X203452657Y-88747343D01*
X203515670Y-88789447D01*
X203571233Y-88800499D01*
X203571236Y-88800500D01*
X203571238Y-88800500D01*
X204028764Y-88800500D01*
X204028765Y-88800499D01*
X204084329Y-88789447D01*
X204147343Y-88747343D01*
X204189447Y-88684329D01*
X204200500Y-88628762D01*
X204200500Y-88171238D01*
X204200500Y-88171236D01*
X204200500Y-88171235D01*
X204200499Y-88171233D01*
X204499500Y-88171233D01*
X204499500Y-88628766D01*
X204510552Y-88684328D01*
X204510552Y-88684329D01*
X204552656Y-88747342D01*
X204552657Y-88747343D01*
X204615670Y-88789447D01*
X204671233Y-88800499D01*
X204671236Y-88800500D01*
X204671238Y-88800500D01*
X205128764Y-88800500D01*
X205128765Y-88800499D01*
X205184329Y-88789447D01*
X205247343Y-88747343D01*
X205289447Y-88684329D01*
X205300500Y-88628762D01*
X205300500Y-88171238D01*
X205300500Y-88171236D01*
X205300500Y-88171235D01*
X205300499Y-88171233D01*
X206149500Y-88171233D01*
X206149500Y-88628766D01*
X206160552Y-88684328D01*
X206160552Y-88684329D01*
X206202656Y-88747342D01*
X206202657Y-88747343D01*
X206265670Y-88789447D01*
X206321233Y-88800499D01*
X206321236Y-88800500D01*
X206321238Y-88800500D01*
X206778764Y-88800500D01*
X206778765Y-88800499D01*
X206834329Y-88789447D01*
X206897343Y-88747343D01*
X206939447Y-88684329D01*
X206950500Y-88628762D01*
X206950500Y-88171238D01*
X206950500Y-88171236D01*
X206950500Y-88171235D01*
X206950499Y-88171233D01*
X206939447Y-88115671D01*
X206939447Y-88115670D01*
X206897343Y-88052657D01*
X206897342Y-88052656D01*
X206834329Y-88010552D01*
X206778765Y-87999500D01*
X206778762Y-87999500D01*
X206321238Y-87999500D01*
X206321235Y-87999500D01*
X206265671Y-88010552D01*
X206265670Y-88010552D01*
X206202657Y-88052656D01*
X206202656Y-88052657D01*
X206160552Y-88115670D01*
X206160552Y-88115671D01*
X206149500Y-88171233D01*
X205300499Y-88171233D01*
X205289447Y-88115671D01*
X205289447Y-88115670D01*
X205247343Y-88052657D01*
X205247342Y-88052656D01*
X205184329Y-88010552D01*
X205128765Y-87999500D01*
X205128762Y-87999500D01*
X204671238Y-87999500D01*
X204671235Y-87999500D01*
X204615671Y-88010552D01*
X204615670Y-88010552D01*
X204552657Y-88052656D01*
X204552656Y-88052657D01*
X204510552Y-88115670D01*
X204510552Y-88115671D01*
X204499500Y-88171233D01*
X204200499Y-88171233D01*
X204189447Y-88115671D01*
X204189447Y-88115670D01*
X204147343Y-88052657D01*
X204147342Y-88052656D01*
X204084329Y-88010552D01*
X204028765Y-87999500D01*
X204028762Y-87999500D01*
X203571238Y-87999500D01*
X203571235Y-87999500D01*
X203515671Y-88010552D01*
X203515670Y-88010552D01*
X203452657Y-88052656D01*
X203452656Y-88052657D01*
X203410552Y-88115670D01*
X203410552Y-88115671D01*
X203399500Y-88171233D01*
X202550499Y-88171233D01*
X202539447Y-88115671D01*
X202539447Y-88115670D01*
X202497343Y-88052657D01*
X202497342Y-88052656D01*
X202434329Y-88010552D01*
X202378765Y-87999500D01*
X202378762Y-87999500D01*
X201921238Y-87999500D01*
X201921235Y-87999500D01*
X201865671Y-88010552D01*
X201865670Y-88010552D01*
X201802657Y-88052656D01*
X201802656Y-88052657D01*
X201760552Y-88115670D01*
X201760552Y-88115671D01*
X201749500Y-88171233D01*
X201450499Y-88171233D01*
X201439447Y-88115671D01*
X201439447Y-88115670D01*
X201397343Y-88052657D01*
X201397342Y-88052656D01*
X201334329Y-88010552D01*
X201278765Y-87999500D01*
X201278762Y-87999500D01*
X200821238Y-87999500D01*
X200821235Y-87999500D01*
X200765671Y-88010552D01*
X200765670Y-88010552D01*
X200702657Y-88052656D01*
X200702656Y-88052657D01*
X200660552Y-88115670D01*
X200660552Y-88115671D01*
X200649500Y-88171233D01*
X200350499Y-88171233D01*
X200339447Y-88115671D01*
X200339447Y-88115670D01*
X200297343Y-88052657D01*
X200297342Y-88052656D01*
X200234329Y-88010552D01*
X200178765Y-87999500D01*
X200178762Y-87999500D01*
X199721238Y-87999500D01*
X199721235Y-87999500D01*
X199665671Y-88010552D01*
X199665670Y-88010552D01*
X199602657Y-88052656D01*
X199602656Y-88052657D01*
X199560553Y-88115668D01*
X199557538Y-88122950D01*
X199513698Y-88177355D01*
X199447404Y-88199421D01*
X199442976Y-88199500D01*
X197816999Y-88199500D01*
X197749960Y-88179815D01*
X197704205Y-88127011D01*
X197692999Y-88075500D01*
X197692999Y-88062643D01*
X197692999Y-88062636D01*
X197692168Y-88055469D01*
X197690086Y-88037512D01*
X197690085Y-88037510D01*
X197690085Y-88037509D01*
X197644706Y-87934735D01*
X197565265Y-87855294D01*
X197506168Y-87829200D01*
X197462492Y-87809915D01*
X197437365Y-87807000D01*
X196797643Y-87807000D01*
X196797617Y-87807002D01*
X196772512Y-87809913D01*
X196772508Y-87809915D01*
X196669735Y-87855293D01*
X196590294Y-87934734D01*
X196544915Y-88037506D01*
X196544915Y-88037508D01*
X196542000Y-88062631D01*
X196542000Y-88068978D01*
X196538433Y-88081123D01*
X196539503Y-88093738D01*
X196528775Y-88114013D01*
X196522315Y-88136017D01*
X196512750Y-88144304D01*
X196506829Y-88155497D01*
X196486841Y-88166754D01*
X196469511Y-88181772D01*
X196455533Y-88184389D01*
X196445952Y-88189786D01*
X196410784Y-88192768D01*
X196378653Y-88190895D01*
X196358664Y-88188083D01*
X196351588Y-88186492D01*
X196346744Y-88185403D01*
X196313385Y-88172626D01*
X196287868Y-88158342D01*
X196282033Y-88155076D01*
X196260422Y-88139731D01*
X196228257Y-88111260D01*
X196199399Y-88085489D01*
X196169109Y-88058438D01*
X196166020Y-88055797D01*
X196165631Y-88055464D01*
X196164872Y-88054843D01*
X196161292Y-88052040D01*
X196161289Y-88052037D01*
X196161274Y-88052026D01*
X196114802Y-88017235D01*
X196089745Y-87998476D01*
X196088930Y-87997882D01*
X196087536Y-87996866D01*
X196087075Y-87996540D01*
X196087076Y-87996540D01*
X196087071Y-87996537D01*
X196087067Y-87996535D01*
X196087065Y-87996534D01*
X196073827Y-87990812D01*
X196061030Y-87984379D01*
X196004591Y-87951795D01*
X196004589Y-87951794D01*
X196004587Y-87951793D01*
X195902727Y-87924500D01*
X195797273Y-87924500D01*
X195695413Y-87951793D01*
X195695410Y-87951794D01*
X195604085Y-88004521D01*
X195529521Y-88079085D01*
X195476794Y-88170410D01*
X195476793Y-88170413D01*
X195449500Y-88272273D01*
X193900500Y-88272273D01*
X193900500Y-86412635D01*
X196542000Y-86412635D01*
X196542000Y-86434428D01*
X196542000Y-86434429D01*
X196542000Y-86902356D01*
X196542002Y-86902382D01*
X196544913Y-86927487D01*
X196544915Y-86927491D01*
X196590293Y-87030264D01*
X196590294Y-87030265D01*
X196669735Y-87109706D01*
X196772509Y-87155085D01*
X196797635Y-87158000D01*
X197051606Y-87157999D01*
X197051608Y-87158000D01*
X197183392Y-87158000D01*
X197183394Y-87157999D01*
X197437364Y-87157999D01*
X197437379Y-87157997D01*
X197437382Y-87157997D01*
X197462487Y-87155086D01*
X197462488Y-87155085D01*
X197462491Y-87155085D01*
X197565265Y-87109706D01*
X197603738Y-87071233D01*
X199549500Y-87071233D01*
X199549500Y-87528766D01*
X199560552Y-87584328D01*
X199560552Y-87584329D01*
X199602656Y-87647342D01*
X199602657Y-87647343D01*
X199665670Y-87689447D01*
X199721233Y-87700499D01*
X199721236Y-87700500D01*
X199721238Y-87700500D01*
X200178764Y-87700500D01*
X200178765Y-87700499D01*
X200234329Y-87689447D01*
X200297343Y-87647343D01*
X200339447Y-87584329D01*
X200350500Y-87528762D01*
X200350500Y-87071238D01*
X200350500Y-87071235D01*
X200350499Y-87071233D01*
X200649500Y-87071233D01*
X200649500Y-87528766D01*
X200660552Y-87584328D01*
X200660552Y-87584329D01*
X200702656Y-87647342D01*
X200702657Y-87647343D01*
X200765670Y-87689447D01*
X200821233Y-87700499D01*
X200821236Y-87700500D01*
X200821238Y-87700500D01*
X201278764Y-87700500D01*
X201278765Y-87700499D01*
X201334329Y-87689447D01*
X201397343Y-87647343D01*
X201439447Y-87584329D01*
X201450500Y-87528762D01*
X201450500Y-87071238D01*
X201450500Y-87071235D01*
X201450499Y-87071233D01*
X201749500Y-87071233D01*
X201749500Y-87528766D01*
X201760552Y-87584328D01*
X201760552Y-87584329D01*
X201802656Y-87647342D01*
X201802657Y-87647343D01*
X201865670Y-87689447D01*
X201921233Y-87700499D01*
X201921236Y-87700500D01*
X201921238Y-87700500D01*
X202378764Y-87700500D01*
X202378765Y-87700499D01*
X202434329Y-87689447D01*
X202497343Y-87647343D01*
X202539447Y-87584329D01*
X202550500Y-87528762D01*
X202550500Y-87071238D01*
X202550500Y-87071235D01*
X202550499Y-87071233D01*
X206149500Y-87071233D01*
X206149500Y-87528766D01*
X206160552Y-87584328D01*
X206160552Y-87584329D01*
X206202656Y-87647342D01*
X206202657Y-87647343D01*
X206265670Y-87689447D01*
X206321233Y-87700499D01*
X206321236Y-87700500D01*
X206321238Y-87700500D01*
X206778764Y-87700500D01*
X206778765Y-87700499D01*
X206834329Y-87689447D01*
X206897343Y-87647343D01*
X206939447Y-87584329D01*
X206950500Y-87528762D01*
X206950500Y-87071238D01*
X206950500Y-87071235D01*
X206950499Y-87071233D01*
X206939447Y-87015671D01*
X206939447Y-87015670D01*
X206897343Y-86952657D01*
X206897342Y-86952656D01*
X206834329Y-86910552D01*
X206778765Y-86899500D01*
X206778762Y-86899500D01*
X206321238Y-86899500D01*
X206321235Y-86899500D01*
X206265671Y-86910552D01*
X206265670Y-86910552D01*
X206202657Y-86952656D01*
X206202656Y-86952657D01*
X206160552Y-87015670D01*
X206160552Y-87015671D01*
X206149500Y-87071233D01*
X202550499Y-87071233D01*
X202539447Y-87015671D01*
X202539447Y-87015670D01*
X202497343Y-86952657D01*
X202497342Y-86952656D01*
X202434329Y-86910552D01*
X202378765Y-86899500D01*
X202378762Y-86899500D01*
X201921238Y-86899500D01*
X201921235Y-86899500D01*
X201865671Y-86910552D01*
X201865670Y-86910552D01*
X201802657Y-86952656D01*
X201802656Y-86952657D01*
X201760552Y-87015670D01*
X201760552Y-87015671D01*
X201749500Y-87071233D01*
X201450499Y-87071233D01*
X201439447Y-87015671D01*
X201439447Y-87015670D01*
X201397343Y-86952657D01*
X201397342Y-86952656D01*
X201334329Y-86910552D01*
X201278765Y-86899500D01*
X201278762Y-86899500D01*
X200821238Y-86899500D01*
X200821235Y-86899500D01*
X200765671Y-86910552D01*
X200765670Y-86910552D01*
X200702657Y-86952656D01*
X200702656Y-86952657D01*
X200660552Y-87015670D01*
X200660552Y-87015671D01*
X200649500Y-87071233D01*
X200350499Y-87071233D01*
X200339447Y-87015671D01*
X200339447Y-87015670D01*
X200297343Y-86952657D01*
X200297342Y-86952656D01*
X200234329Y-86910552D01*
X200178765Y-86899500D01*
X200178762Y-86899500D01*
X199721238Y-86899500D01*
X199721235Y-86899500D01*
X199665671Y-86910552D01*
X199665670Y-86910552D01*
X199602657Y-86952656D01*
X199602656Y-86952657D01*
X199560552Y-87015670D01*
X199560552Y-87015671D01*
X199549500Y-87071233D01*
X197603738Y-87071233D01*
X197644706Y-87030265D01*
X197690085Y-86927491D01*
X197693000Y-86902365D01*
X197692999Y-86412636D01*
X197692308Y-86406675D01*
X197690086Y-86387513D01*
X197690085Y-86387511D01*
X197690085Y-86387509D01*
X197648564Y-86293473D01*
X197638000Y-86243390D01*
X197638000Y-85971233D01*
X199549500Y-85971233D01*
X199549500Y-86428766D01*
X199560552Y-86484328D01*
X199560552Y-86484329D01*
X199602656Y-86547342D01*
X199602657Y-86547343D01*
X199665670Y-86589447D01*
X199721233Y-86600499D01*
X199721236Y-86600500D01*
X199721238Y-86600500D01*
X200178764Y-86600500D01*
X200178765Y-86600499D01*
X200234329Y-86589447D01*
X200297343Y-86547343D01*
X200339447Y-86484329D01*
X200350500Y-86428762D01*
X200350500Y-85971238D01*
X200350500Y-85971235D01*
X200350499Y-85971233D01*
X200649500Y-85971233D01*
X200649500Y-86428766D01*
X200660552Y-86484328D01*
X200660552Y-86484329D01*
X200702656Y-86547342D01*
X200702657Y-86547343D01*
X200765670Y-86589447D01*
X200821233Y-86600499D01*
X200821236Y-86600500D01*
X200821238Y-86600500D01*
X201278764Y-86600500D01*
X201278765Y-86600499D01*
X201334329Y-86589447D01*
X201397343Y-86547343D01*
X201439447Y-86484329D01*
X201450500Y-86428762D01*
X201450500Y-85971238D01*
X201450500Y-85971235D01*
X201450499Y-85971233D01*
X201749500Y-85971233D01*
X201749500Y-86428766D01*
X201760552Y-86484328D01*
X201760552Y-86484329D01*
X201802656Y-86547342D01*
X201802657Y-86547343D01*
X201865670Y-86589447D01*
X201921233Y-86600499D01*
X201921236Y-86600500D01*
X201921238Y-86600500D01*
X202378764Y-86600500D01*
X202378765Y-86600499D01*
X202434329Y-86589447D01*
X202497343Y-86547343D01*
X202539447Y-86484329D01*
X202550500Y-86428762D01*
X202550500Y-85971238D01*
X202550500Y-85971235D01*
X202550499Y-85971233D01*
X203399500Y-85971233D01*
X203399500Y-86428766D01*
X203410552Y-86484328D01*
X203410552Y-86484329D01*
X203452656Y-86547342D01*
X203452657Y-86547343D01*
X203515670Y-86589447D01*
X203571233Y-86600499D01*
X203571236Y-86600500D01*
X203571238Y-86600500D01*
X204028764Y-86600500D01*
X204028765Y-86600499D01*
X204084329Y-86589447D01*
X204147343Y-86547343D01*
X204189447Y-86484329D01*
X204200500Y-86428762D01*
X204200500Y-85971238D01*
X204200500Y-85971235D01*
X204200499Y-85971233D01*
X204499500Y-85971233D01*
X204499500Y-86428766D01*
X204510552Y-86484328D01*
X204510552Y-86484329D01*
X204552656Y-86547342D01*
X204552657Y-86547343D01*
X204615670Y-86589447D01*
X204671233Y-86600499D01*
X204671236Y-86600500D01*
X204671238Y-86600500D01*
X205128764Y-86600500D01*
X205128765Y-86600499D01*
X205184329Y-86589447D01*
X205247343Y-86547343D01*
X205289447Y-86484329D01*
X205300500Y-86428762D01*
X205300500Y-85971238D01*
X205300500Y-85971235D01*
X205300499Y-85971233D01*
X205289447Y-85915671D01*
X205289447Y-85915670D01*
X205247343Y-85852657D01*
X205247342Y-85852656D01*
X205184329Y-85810552D01*
X205128765Y-85799500D01*
X205128762Y-85799500D01*
X204671238Y-85799500D01*
X204671235Y-85799500D01*
X204615671Y-85810552D01*
X204615670Y-85810552D01*
X204552657Y-85852656D01*
X204552656Y-85852657D01*
X204510552Y-85915670D01*
X204510552Y-85915671D01*
X204499500Y-85971233D01*
X204200499Y-85971233D01*
X204189447Y-85915671D01*
X204189447Y-85915670D01*
X204147343Y-85852657D01*
X204147342Y-85852656D01*
X204084329Y-85810552D01*
X204028765Y-85799500D01*
X204028762Y-85799500D01*
X203571238Y-85799500D01*
X203571235Y-85799500D01*
X203515671Y-85810552D01*
X203515670Y-85810552D01*
X203452657Y-85852656D01*
X203452656Y-85852657D01*
X203410552Y-85915670D01*
X203410552Y-85915671D01*
X203399500Y-85971233D01*
X202550499Y-85971233D01*
X202539447Y-85915671D01*
X202539447Y-85915670D01*
X202497343Y-85852657D01*
X202497342Y-85852656D01*
X202434329Y-85810552D01*
X202378765Y-85799500D01*
X202378762Y-85799500D01*
X201921238Y-85799500D01*
X201921235Y-85799500D01*
X201865671Y-85810552D01*
X201865670Y-85810552D01*
X201802657Y-85852656D01*
X201802656Y-85852657D01*
X201760552Y-85915670D01*
X201760552Y-85915671D01*
X201749500Y-85971233D01*
X201450499Y-85971233D01*
X201439447Y-85915671D01*
X201439447Y-85915670D01*
X201397343Y-85852657D01*
X201397342Y-85852656D01*
X201334329Y-85810552D01*
X201278765Y-85799500D01*
X201278762Y-85799500D01*
X200821238Y-85799500D01*
X200821235Y-85799500D01*
X200765671Y-85810552D01*
X200765670Y-85810552D01*
X200702657Y-85852656D01*
X200702656Y-85852657D01*
X200660552Y-85915670D01*
X200660552Y-85915671D01*
X200649500Y-85971233D01*
X200350499Y-85971233D01*
X200339447Y-85915671D01*
X200339447Y-85915670D01*
X200297343Y-85852657D01*
X200297342Y-85852656D01*
X200234329Y-85810552D01*
X200178765Y-85799500D01*
X200178762Y-85799500D01*
X199721238Y-85799500D01*
X199721235Y-85799500D01*
X199665671Y-85810552D01*
X199665670Y-85810552D01*
X199602657Y-85852656D01*
X199602656Y-85852657D01*
X199560552Y-85915670D01*
X199560552Y-85915671D01*
X199549500Y-85971233D01*
X197638000Y-85971233D01*
X197638000Y-85724203D01*
X197655427Y-85664853D01*
X197654714Y-85664521D01*
X197656903Y-85659826D01*
X197657685Y-85657164D01*
X197659192Y-85654917D01*
X197659297Y-85654690D01*
X197659299Y-85654689D01*
X197706879Y-85552653D01*
X197713000Y-85506159D01*
X197712999Y-84993842D01*
X197706879Y-84947347D01*
X197659299Y-84845311D01*
X197579689Y-84765701D01*
X197535971Y-84745315D01*
X197477654Y-84718121D01*
X197477653Y-84718120D01*
X197431159Y-84712000D01*
X196843847Y-84712000D01*
X196829108Y-84713940D01*
X196797347Y-84718121D01*
X196797345Y-84718122D01*
X196797343Y-84718122D01*
X196695310Y-84765701D01*
X196615701Y-84845310D01*
X196568121Y-84947345D01*
X196568120Y-84947346D01*
X196562000Y-84993840D01*
X196562000Y-85506152D01*
X196562001Y-85506158D01*
X196568121Y-85552653D01*
X196605813Y-85633485D01*
X196620286Y-85664521D01*
X196618684Y-85665268D01*
X196636902Y-85719279D01*
X196637000Y-85724203D01*
X196637000Y-86186667D01*
X196634883Y-86193873D01*
X196636136Y-86201280D01*
X196627031Y-86235379D01*
X196617620Y-86257408D01*
X196590294Y-86284735D01*
X196544915Y-86387509D01*
X196542000Y-86412635D01*
X193900500Y-86412635D01*
X193900500Y-82337594D01*
X193902881Y-82313413D01*
X193922587Y-82214343D01*
X193929635Y-82191108D01*
X194013672Y-81988226D01*
X194025119Y-81966811D01*
X194099757Y-81855107D01*
X194153367Y-81810304D01*
X194202857Y-81800000D01*
X201226000Y-81800000D01*
X201293039Y-81819685D01*
G37*
%TD.AperFunction*%
%TD*%
%TA.AperFunction,Conductor*%
%TO.N,/ERROR_OUT*%
G36*
X197035621Y-88113368D02*
G01*
X197037350Y-88115583D01*
X197197550Y-88382583D01*
X197198846Y-88391289D01*
X197193606Y-88398361D01*
X197187689Y-88400000D01*
X196671191Y-88400000D01*
X196663059Y-88396632D01*
X196659691Y-88388500D01*
X196661549Y-88382233D01*
X196835099Y-88115233D01*
X196842355Y-88110250D01*
X196844741Y-88110000D01*
X197027489Y-88110000D01*
X197035621Y-88113368D01*
G37*
%TD.AperFunction*%
%TD*%
%TA.AperFunction,Conductor*%
%TO.N,Net-(Q1-S)*%
G36*
X204612159Y-102886940D02*
G01*
X204658357Y-102939357D01*
X204670000Y-102991816D01*
X204670000Y-103253419D01*
X204669959Y-103256598D01*
X204662212Y-103558691D01*
X204640816Y-103625204D01*
X204586856Y-103669590D01*
X204562062Y-103677205D01*
X204190000Y-103750000D01*
X204167616Y-103754380D01*
X204115265Y-103795563D01*
X204101260Y-103800226D01*
X204099200Y-103800778D01*
X204095412Y-103801793D01*
X204095410Y-103801794D01*
X204004085Y-103854521D01*
X203929521Y-103929085D01*
X203876794Y-104020410D01*
X203876793Y-104020411D01*
X203856569Y-104095892D01*
X203820204Y-104155552D01*
X203820000Y-104155663D01*
X203820000Y-104735669D01*
X203846666Y-104784504D01*
X203849500Y-104810862D01*
X203849500Y-104827727D01*
X203876793Y-104929587D01*
X203929520Y-105020913D01*
X204004087Y-105095480D01*
X204095413Y-105148207D01*
X204151827Y-105163323D01*
X204211487Y-105199686D01*
X204211715Y-105200142D01*
X204230002Y-105199999D01*
X204230000Y-105200000D01*
X204470166Y-105198123D01*
X204569754Y-105197346D01*
X204572843Y-105193426D01*
X204638891Y-105170634D01*
X204644639Y-105170499D01*
X205176001Y-105170499D01*
X205243039Y-105190184D01*
X205288794Y-105242988D01*
X205300000Y-105294499D01*
X205300000Y-106465500D01*
X205280315Y-106532539D01*
X205227511Y-106578294D01*
X205176000Y-106589500D01*
X204991802Y-106589500D01*
X204923115Y-106603162D01*
X204923112Y-106603164D01*
X204845214Y-106655214D01*
X204793164Y-106733112D01*
X204793162Y-106733115D01*
X204779500Y-106801801D01*
X204779500Y-106801804D01*
X204779500Y-107118196D01*
X204779500Y-107118198D01*
X204779499Y-107118198D01*
X204793162Y-107186884D01*
X204797837Y-107198168D01*
X204793758Y-107199857D01*
X204807509Y-107243840D01*
X204788995Y-107311212D01*
X204736996Y-107357880D01*
X204683528Y-107370000D01*
X203999499Y-107370000D01*
X203932460Y-107350315D01*
X203886705Y-107297511D01*
X203875499Y-107246000D01*
X203875499Y-107236867D01*
X203875499Y-107236862D01*
X203869259Y-107189455D01*
X203820747Y-107085421D01*
X203739579Y-107004253D01*
X203635545Y-106955741D01*
X203635543Y-106955740D01*
X203635544Y-106955740D01*
X203588139Y-106949500D01*
X203011867Y-106949500D01*
X202996839Y-106951478D01*
X202964455Y-106955741D01*
X202964453Y-106955742D01*
X202964451Y-106955742D01*
X202860420Y-107004253D01*
X202779253Y-107085420D01*
X202730740Y-107189456D01*
X202724500Y-107236860D01*
X202724500Y-107246000D01*
X202704815Y-107313039D01*
X202652011Y-107358794D01*
X202600500Y-107370000D01*
X201453447Y-107370000D01*
X201386408Y-107350315D01*
X201340653Y-107297511D01*
X201329455Y-107244584D01*
X201365626Y-104076886D01*
X201382429Y-104021991D01*
X201381293Y-104021521D01*
X201385967Y-104010237D01*
X201400499Y-103937177D01*
X201400500Y-103937175D01*
X201400500Y-103017246D01*
X201420185Y-102950207D01*
X201472989Y-102904452D01*
X201523454Y-102893250D01*
X204544956Y-102867820D01*
X204612159Y-102886940D01*
G37*
%TD.AperFunction*%
%TD*%
%TA.AperFunction,Conductor*%
%TO.N,Net-(U1-LX2)*%
G36*
X207043039Y-101139685D02*
G01*
X207088794Y-101192489D01*
X207100000Y-101244000D01*
X207100000Y-102090726D01*
X207086909Y-102146181D01*
X206949814Y-102420369D01*
X206902226Y-102471527D01*
X206897945Y-102473957D01*
X206380799Y-102753959D01*
X206367946Y-102762171D01*
X206367943Y-102762173D01*
X206365292Y-102764150D01*
X206330898Y-102808346D01*
X206330895Y-102808352D01*
X206327529Y-102816478D01*
X206327528Y-102816481D01*
X206319500Y-102856849D01*
X206319500Y-103596000D01*
X206316949Y-103604685D01*
X206318238Y-103613647D01*
X206307259Y-103637687D01*
X206299815Y-103663039D01*
X206292974Y-103668966D01*
X206289213Y-103677203D01*
X206266978Y-103691492D01*
X206247011Y-103708794D01*
X206236496Y-103711081D01*
X206230435Y-103714977D01*
X206195500Y-103720000D01*
X206024000Y-103720000D01*
X205956961Y-103700315D01*
X205911206Y-103647511D01*
X205900000Y-103596000D01*
X205900000Y-102845451D01*
X205910026Y-102796605D01*
X205923936Y-102764150D01*
X206200000Y-102120000D01*
X206200000Y-101244000D01*
X206219685Y-101176961D01*
X206272489Y-101131206D01*
X206324000Y-101120000D01*
X206976000Y-101120000D01*
X207043039Y-101139685D01*
G37*
%TD.AperFunction*%
%TD*%
%TA.AperFunction,Conductor*%
%TO.N,+2V8*%
G36*
X213567211Y-96813368D02*
G01*
X213570564Y-96820906D01*
X213599959Y-97389225D01*
X213599933Y-97390784D01*
X213475093Y-98873889D01*
X213474697Y-98876065D01*
X212902357Y-100891698D01*
X212896895Y-100898601D01*
X212891371Y-100900057D01*
X209909999Y-100920000D01*
X209670001Y-101089998D01*
X209669999Y-101090002D01*
X209660000Y-102094999D01*
X209660000Y-102095000D01*
X209915000Y-102350000D01*
X210635392Y-102350000D01*
X210643332Y-102353181D01*
X210856406Y-102556569D01*
X210859963Y-102564621D01*
X210859966Y-102564966D01*
X210840078Y-105498452D01*
X210836654Y-105506561D01*
X210828500Y-105509874D01*
X210828452Y-105509873D01*
X209021298Y-105490123D01*
X209013204Y-105486666D01*
X209009924Y-105478701D01*
X209000000Y-103995000D01*
X208999999Y-103994999D01*
X207212205Y-103990006D01*
X207207954Y-103989179D01*
X206432217Y-103677895D01*
X206425925Y-103671740D01*
X206425000Y-103667222D01*
X206425000Y-102856850D01*
X206428368Y-102848718D01*
X206431020Y-102846740D01*
X207327438Y-102361386D01*
X207332913Y-102360000D01*
X207859998Y-102360000D01*
X207860000Y-102360000D01*
X208070000Y-102150000D01*
X208050065Y-99917376D01*
X208053361Y-99909217D01*
X208056678Y-99906867D01*
X208494245Y-99701589D01*
X208499129Y-99700500D01*
X209202727Y-99700500D01*
X209304588Y-99673207D01*
X209395913Y-99620480D01*
X209863023Y-99153367D01*
X209871155Y-99150000D01*
X211919998Y-99150000D01*
X211920000Y-99150000D01*
X212160000Y-98910000D01*
X212160000Y-98320107D01*
X212161124Y-98315148D01*
X212312556Y-97998294D01*
X212315704Y-97994311D01*
X212990000Y-97450000D01*
X213029326Y-96820782D01*
X213033195Y-96812877D01*
X213040804Y-96810000D01*
X213559079Y-96810000D01*
X213567211Y-96813368D01*
G37*
%TD.AperFunction*%
%TD*%
%TA.AperFunction,Conductor*%
%TO.N,+2V8*%
G36*
X202393039Y-93619685D02*
G01*
X202438794Y-93672489D01*
X202450000Y-93724000D01*
X202450000Y-95258715D01*
X202430315Y-95325754D01*
X202377511Y-95371509D01*
X202362836Y-95377117D01*
X198680671Y-96522680D01*
X198013274Y-96730315D01*
X197967994Y-96744402D01*
X197931158Y-96750000D01*
X197176666Y-96750000D01*
X197109627Y-96730315D01*
X197063872Y-96677511D01*
X197052694Y-96623362D01*
X197097418Y-94521362D01*
X197118524Y-94454757D01*
X197172290Y-94410135D01*
X197221390Y-94400000D01*
X197965250Y-94400000D01*
X198029688Y-94418057D01*
X199455000Y-95285000D01*
X199455001Y-95285000D01*
X199494722Y-95285000D01*
X199561761Y-95304685D01*
X199597822Y-95340107D01*
X199602657Y-95347343D01*
X199602658Y-95347344D01*
X199665670Y-95389447D01*
X199721233Y-95400499D01*
X199721236Y-95400500D01*
X199721238Y-95400500D01*
X200178764Y-95400500D01*
X200178765Y-95400499D01*
X200234329Y-95389447D01*
X200297343Y-95347343D01*
X200302176Y-95340108D01*
X200355787Y-95295305D01*
X200357579Y-95294931D01*
X200370000Y-95285000D01*
X200577207Y-94366196D01*
X200611157Y-94305131D01*
X200672734Y-94272114D01*
X200742385Y-94277628D01*
X200763620Y-94288598D01*
X200765671Y-94289447D01*
X200821233Y-94300499D01*
X200821236Y-94300500D01*
X200821238Y-94300500D01*
X201278764Y-94300500D01*
X201278765Y-94300499D01*
X201334329Y-94289447D01*
X201397343Y-94247343D01*
X201439447Y-94184329D01*
X201450500Y-94128762D01*
X201450500Y-93724000D01*
X201470185Y-93656961D01*
X201522989Y-93611206D01*
X201574500Y-93600000D01*
X202326000Y-93600000D01*
X202393039Y-93619685D01*
G37*
%TD.AperFunction*%
%TD*%
%TA.AperFunction,Conductor*%
%TO.N,/I2C_SCL*%
G36*
X207877045Y-96153368D02*
G01*
X207880413Y-96161500D01*
X207877045Y-96169632D01*
X207876397Y-96170231D01*
X207668984Y-96348013D01*
X207660618Y-96350748D01*
X207652769Y-96346766D01*
X207650000Y-96339282D01*
X207650000Y-96161500D01*
X207653368Y-96153368D01*
X207661500Y-96150000D01*
X207868913Y-96150000D01*
X207877045Y-96153368D01*
G37*
%TD.AperFunction*%
%TD*%
%TA.AperFunction,Conductor*%
%TO.N,+2V8*%
G36*
X208997576Y-96573368D02*
G01*
X209000944Y-96581500D01*
X209000943Y-96581609D01*
X208990022Y-97737609D01*
X208989028Y-97742180D01*
X208699737Y-98391477D01*
X208545195Y-98738342D01*
X208543039Y-98743180D01*
X208536652Y-98749237D01*
X208532534Y-98750000D01*
X208041659Y-98750000D01*
X208033527Y-98746632D01*
X208030159Y-98738500D01*
X208030160Y-98738342D01*
X208059844Y-96581342D01*
X208063324Y-96573257D01*
X208071343Y-96570000D01*
X208989444Y-96570000D01*
X208997576Y-96573368D01*
G37*
%TD.AperFunction*%
%TD*%
%TA.AperFunction,Conductor*%
%TO.N,Net-(U1-LX1)*%
G36*
X204843039Y-101139685D02*
G01*
X204888794Y-101192489D01*
X204900000Y-101244000D01*
X204900000Y-102120000D01*
X205172077Y-102754845D01*
X205189974Y-102796605D01*
X205200000Y-102845451D01*
X205200000Y-103596000D01*
X205197449Y-103604685D01*
X205198738Y-103613647D01*
X205187759Y-103637687D01*
X205180315Y-103663039D01*
X205173474Y-103668966D01*
X205169713Y-103677203D01*
X205147478Y-103691492D01*
X205127511Y-103708794D01*
X205116996Y-103711081D01*
X205110935Y-103714977D01*
X205076000Y-103720000D01*
X204899500Y-103720000D01*
X204832461Y-103700315D01*
X204786706Y-103647511D01*
X204775500Y-103596000D01*
X204775500Y-102891445D01*
X204766043Y-102843904D01*
X204766042Y-102843902D01*
X204766042Y-102843901D01*
X204730016Y-102789984D01*
X204730015Y-102789983D01*
X204676101Y-102753959D01*
X204676095Y-102753956D01*
X204628554Y-102744500D01*
X204628552Y-102744500D01*
X204471448Y-102744500D01*
X204453500Y-102748070D01*
X204419440Y-102754845D01*
X204349848Y-102748617D01*
X204294671Y-102705753D01*
X204284340Y-102688681D01*
X204013091Y-102146182D01*
X204000000Y-102090728D01*
X204000000Y-101244000D01*
X204019685Y-101176961D01*
X204072489Y-101131206D01*
X204124000Y-101120000D01*
X204776000Y-101120000D01*
X204843039Y-101139685D01*
G37*
%TD.AperFunction*%
%TD*%
%TA.AperFunction,Conductor*%
%TO.N,/I2C_SDA*%
G36*
X206229300Y-94465721D02*
G01*
X206232668Y-94473853D01*
X206229300Y-94481985D01*
X206228652Y-94482584D01*
X206029572Y-94653224D01*
X206021206Y-94655959D01*
X206013357Y-94651977D01*
X206010588Y-94644493D01*
X206010588Y-94473853D01*
X206013956Y-94465721D01*
X206022088Y-94462353D01*
X206221168Y-94462353D01*
X206229300Y-94465721D01*
G37*
%TD.AperFunction*%
%TD*%
%TA.AperFunction,Conductor*%
%TO.N,+2V8*%
G36*
X201739265Y-101220054D02*
G01*
X201785340Y-101272579D01*
X201796823Y-101327855D01*
X201782473Y-101905447D01*
X201761129Y-101971977D01*
X201707205Y-102016406D01*
X201682260Y-102024072D01*
X200579076Y-102239343D01*
X200561446Y-102241487D01*
X198823471Y-102327358D01*
X198755542Y-102311006D01*
X198731413Y-102292897D01*
X198548053Y-102116589D01*
X198513374Y-102055936D01*
X198510000Y-102027208D01*
X198510000Y-101343248D01*
X198529685Y-101276209D01*
X198582489Y-101230454D01*
X198633242Y-101219250D01*
X199709391Y-101212708D01*
X199734328Y-101215089D01*
X199811801Y-101230500D01*
X199811804Y-101230500D01*
X200228197Y-101230500D01*
X200308868Y-101214453D01*
X200309005Y-101215144D01*
X200340018Y-101208875D01*
X201672108Y-101200777D01*
X201739265Y-101220054D01*
G37*
%TD.AperFunction*%
%TD*%
%TA.AperFunction,Conductor*%
%TO.N,+BATT*%
G36*
X210775636Y-106029685D02*
G01*
X210821391Y-106082489D01*
X210832569Y-106131376D01*
X210868464Y-107827442D01*
X210850203Y-107894883D01*
X210807492Y-107936870D01*
X208906943Y-109057932D01*
X208839199Y-109075037D01*
X208772962Y-109052802D01*
X208729261Y-108998287D01*
X208720390Y-108940605D01*
X208960335Y-106123477D01*
X208985638Y-106058350D01*
X209042135Y-106017241D01*
X209083888Y-106010000D01*
X210708597Y-106010000D01*
X210775636Y-106029685D01*
G37*
%TD.AperFunction*%
%TD*%
%TA.AperFunction,Conductor*%
%TO.N,/I2C_SDA*%
G36*
X210688287Y-95311017D02*
G01*
X210723870Y-95327133D01*
X210927467Y-95419342D01*
X210933589Y-95425877D01*
X210933298Y-95434827D01*
X210927467Y-95440658D01*
X210686147Y-95549951D01*
X210677197Y-95550242D01*
X210670662Y-95544120D01*
X210670456Y-95543637D01*
X210660773Y-95519421D01*
X210658572Y-95518239D01*
X210626782Y-95501162D01*
X210560513Y-95494406D01*
X210552630Y-95490157D01*
X210550000Y-95482766D01*
X210550000Y-95377539D01*
X210553427Y-95369266D01*
X210560901Y-95365867D01*
X210611483Y-95362420D01*
X210657925Y-95343195D01*
X210670366Y-95327132D01*
X210672010Y-95319276D01*
X210677058Y-95311884D01*
X210685858Y-95310224D01*
X210688287Y-95311017D01*
G37*
%TD.AperFunction*%
%TD*%
%TA.AperFunction,Conductor*%
%TO.N,/I2C_SCL*%
G36*
X210688577Y-96811149D02*
G01*
X210908665Y-96910826D01*
X210927467Y-96919342D01*
X210933589Y-96925877D01*
X210933298Y-96934827D01*
X210927467Y-96940658D01*
X210687030Y-97049551D01*
X210678080Y-97049842D01*
X210671545Y-97043720D01*
X210671041Y-97042399D01*
X210663824Y-97019423D01*
X210663823Y-97019422D01*
X210650399Y-97010292D01*
X210636977Y-97001163D01*
X210585232Y-96994621D01*
X210577454Y-96990183D01*
X210575000Y-96983013D01*
X210575000Y-96877598D01*
X210578427Y-96869325D01*
X210585994Y-96865920D01*
X210616196Y-96864102D01*
X210658245Y-96846490D01*
X210670406Y-96829538D01*
X210672256Y-96819655D01*
X210677146Y-96812155D01*
X210685909Y-96810309D01*
X210688577Y-96811149D01*
G37*
%TD.AperFunction*%
%TD*%
%TA.AperFunction,Conductor*%
%TO.N,/SWCLK*%
G36*
X211780946Y-85960569D02*
G01*
X212074950Y-86018406D01*
X212148000Y-86032777D01*
X212155456Y-86037736D01*
X212157222Y-86041999D01*
X212229426Y-86409033D01*
X212227660Y-86417812D01*
X212220204Y-86422771D01*
X212219596Y-86422874D01*
X212026147Y-86450433D01*
X212026102Y-86450439D01*
X211907774Y-86466825D01*
X211907771Y-86466825D01*
X211907770Y-86466826D01*
X211853577Y-86482747D01*
X211853567Y-86482751D01*
X211799055Y-86508728D01*
X211729482Y-86557353D01*
X211656731Y-86623788D01*
X211648310Y-86626836D01*
X211640568Y-86623421D01*
X211566438Y-86549291D01*
X211563011Y-86541018D01*
X211565931Y-86533284D01*
X211651624Y-86436000D01*
X211702906Y-86347366D01*
X211727295Y-86261393D01*
X211739567Y-86163853D01*
X211767125Y-85970401D01*
X211771684Y-85962696D01*
X211780358Y-85960470D01*
X211780946Y-85960569D01*
G37*
%TD.AperFunction*%
%TD*%
%TA.AperFunction,Conductor*%
%TO.N,/SWDIO*%
G36*
X211781717Y-87230742D02*
G01*
X212148307Y-87303473D01*
X212155754Y-87308444D01*
X212157510Y-87312695D01*
X212229678Y-87680290D01*
X212227909Y-87689068D01*
X212221102Y-87693878D01*
X212185535Y-87702992D01*
X212133507Y-87716326D01*
X212056393Y-87746333D01*
X212056390Y-87746334D01*
X212056389Y-87746335D01*
X211940733Y-87812278D01*
X211880513Y-87849165D01*
X211878765Y-87850044D01*
X211768838Y-87894225D01*
X211766511Y-87894890D01*
X211694330Y-87907645D01*
X211692890Y-87907809D01*
X211613207Y-87911872D01*
X211604770Y-87908871D01*
X211600926Y-87900783D01*
X211600911Y-87900187D01*
X211600911Y-87798248D01*
X211604338Y-87789975D01*
X211611620Y-87786590D01*
X211663252Y-87782204D01*
X211709058Y-87766877D01*
X211740637Y-87742362D01*
X211756212Y-87716327D01*
X211760295Y-87709502D01*
X211760295Y-87709501D01*
X211760296Y-87709500D01*
X211773087Y-87622108D01*
X211765895Y-87511439D01*
X211757006Y-87372636D01*
X211757022Y-87370922D01*
X211762492Y-87305000D01*
X211767781Y-87241251D01*
X211771880Y-87233290D01*
X211780408Y-87230559D01*
X211781717Y-87230742D01*
G37*
%TD.AperFunction*%
%TD*%
%TA.AperFunction,Conductor*%
%TO.N,/RESET_N*%
G36*
X212926715Y-85445931D02*
G01*
X212927291Y-85446438D01*
X213023999Y-85531624D01*
X213112634Y-85582906D01*
X213112635Y-85582906D01*
X213112637Y-85582907D01*
X213142236Y-85591303D01*
X213198607Y-85607295D01*
X213296077Y-85619558D01*
X213296182Y-85619572D01*
X213489596Y-85647125D01*
X213497303Y-85651684D01*
X213499529Y-85660358D01*
X213499426Y-85660966D01*
X213427222Y-86028000D01*
X213422263Y-86035456D01*
X213418000Y-86037222D01*
X213050966Y-86109426D01*
X213042187Y-86107660D01*
X213037228Y-86100204D01*
X213037125Y-86099596D01*
X213028239Y-86037222D01*
X213009567Y-85906146D01*
X212993173Y-85787770D01*
X212977252Y-85733577D01*
X212951270Y-85679052D01*
X212902647Y-85609483D01*
X212836210Y-85536730D01*
X212833163Y-85528311D01*
X212836577Y-85520569D01*
X212910709Y-85446437D01*
X212918981Y-85443011D01*
X212926715Y-85445931D01*
G37*
%TD.AperFunction*%
%TD*%
%TA.AperFunction,Conductor*%
%TO.N,/RESET_N*%
G36*
X213807669Y-85962367D02*
G01*
X213812628Y-85969823D01*
X213812750Y-85970567D01*
X213829972Y-86102508D01*
X213830067Y-86103774D01*
X213832470Y-86217302D01*
X213839453Y-86347296D01*
X213852643Y-86397782D01*
X213873791Y-86444193D01*
X213876375Y-86449864D01*
X213899168Y-86483433D01*
X213918487Y-86511886D01*
X213973848Y-86573316D01*
X213976841Y-86581756D01*
X213973430Y-86589422D01*
X213899158Y-86663694D01*
X213890885Y-86667121D01*
X213883254Y-86664289D01*
X213790976Y-86584867D01*
X213790974Y-86584866D01*
X213790972Y-86584864D01*
X213702589Y-86534050D01*
X213620823Y-86506770D01*
X213540208Y-86490884D01*
X213540199Y-86490882D01*
X213540192Y-86490881D01*
X213526644Y-86488449D01*
X213499250Y-86483532D01*
X213498159Y-86483282D01*
X213361007Y-86444837D01*
X213359261Y-86444193D01*
X213288130Y-86411351D01*
X213287017Y-86410763D01*
X213216783Y-86368651D01*
X213211450Y-86361458D01*
X213212766Y-86352600D01*
X213213042Y-86352163D01*
X213421593Y-86038354D01*
X213429026Y-86033362D01*
X213429033Y-86033360D01*
X213798892Y-85960601D01*
X213807669Y-85962367D01*
G37*
%TD.AperFunction*%
%TD*%
%TA.AperFunction,Conductor*%
%TO.N,/ERROR_OUT*%
G36*
X196026040Y-88082592D02*
G01*
X196026518Y-88082931D01*
X196098065Y-88136495D01*
X196098824Y-88137116D01*
X196158330Y-88190257D01*
X196208966Y-88235079D01*
X196291006Y-88281005D01*
X196353810Y-88295126D01*
X196426395Y-88299357D01*
X196434454Y-88303259D01*
X196437413Y-88311037D01*
X196437413Y-88488755D01*
X196433986Y-88497028D01*
X196426178Y-88500446D01*
X196333127Y-88504144D01*
X196333117Y-88504145D01*
X196254977Y-88515526D01*
X196133424Y-88553687D01*
X196133399Y-88553695D01*
X196096554Y-88567367D01*
X196095593Y-88567677D01*
X195920617Y-88615903D01*
X195911730Y-88614798D01*
X195906229Y-88607733D01*
X195906040Y-88606944D01*
X195884494Y-88500446D01*
X195849969Y-88329789D01*
X195851688Y-88321001D01*
X196009804Y-88085773D01*
X196017262Y-88080821D01*
X196026040Y-88082592D01*
G37*
%TD.AperFunction*%
%TD*%
M02*
