%TF.GenerationSoftware,KiCad,Pcbnew,9.0.8*%
%TF.CreationDate,2026-03-26T18:30:07+00:00*%
%TF.ProjectId,azss,617a7373-2e6b-4696-9361-645f70636258,rev?*%
%TF.SameCoordinates,Original*%
%TF.FileFunction,Legend,Top*%
%TF.FilePolarity,Positive*%
%FSLAX46Y46*%
G04 Gerber Fmt 4.6, Leading zero omitted, Abs format (unit mm)*
G04 Created by KiCad (PCBNEW 9.0.8) date 2026-03-26 18:30:07*
%MOMM*%
%LPD*%
G01*
G04 APERTURE LIST*
%ADD10C,0.100000*%
%ADD11C,0.172000*%
%ADD12C,0.120000*%
G04 APERTURE END LIST*
G36*
X209740000Y-85432500D02*
G01*
X209980000Y-85432500D01*
X209980000Y-88117500D01*
X209740000Y-88117500D01*
X209740000Y-85432500D01*
G37*
D10*
G36*
X212868366Y-89394543D02*
G01*
X212895449Y-89398558D01*
X212920758Y-89405045D01*
X212944618Y-89413971D01*
X212966818Y-89425177D01*
X212987464Y-89438645D01*
X213023924Y-89472170D01*
X213053686Y-89514463D01*
X213076098Y-89565605D01*
X213090184Y-89625649D01*
X213094756Y-89690121D01*
X213093405Y-89723700D01*
X213089415Y-89755715D01*
X213082953Y-89785791D01*
X213074090Y-89814115D01*
X213063074Y-89840256D01*
X213049901Y-89864480D01*
X213034900Y-89886369D01*
X213017980Y-89906198D01*
X212999511Y-89923628D01*
X212979346Y-89938864D01*
X212957823Y-89951680D01*
X212934804Y-89962167D01*
X212910522Y-89970194D01*
X212884921Y-89975740D01*
X212840909Y-89979231D01*
X212812927Y-89977877D01*
X212786227Y-89973873D01*
X212761095Y-89967372D01*
X212737364Y-89958433D01*
X212715148Y-89947167D01*
X212694465Y-89933638D01*
X212657786Y-89899911D01*
X212627817Y-89857449D01*
X212605338Y-89806375D01*
X212591389Y-89746914D01*
X212587104Y-89686188D01*
X212588456Y-89651558D01*
X212592453Y-89618623D01*
X212598896Y-89587904D01*
X212607735Y-89559040D01*
X212618669Y-89532585D01*
X212631749Y-89508117D01*
X212646586Y-89486134D01*
X212663331Y-89466248D01*
X212681572Y-89448834D01*
X212701506Y-89433622D01*
X212722791Y-89420839D01*
X212745583Y-89410374D01*
X212769695Y-89402343D01*
X212795160Y-89396774D01*
X212839926Y-89393188D01*
X212868366Y-89394543D01*
G37*
G36*
X213263661Y-90137365D02*
G01*
X211934567Y-90137365D01*
X211934567Y-90056851D01*
X212178699Y-90056851D01*
X212232597Y-90056851D01*
X212350029Y-89686188D01*
X212495977Y-89686188D01*
X212497331Y-89723991D01*
X212501342Y-89760243D01*
X212507851Y-89794517D01*
X212516809Y-89827103D01*
X212527996Y-89857575D01*
X212541427Y-89886234D01*
X212556834Y-89912702D01*
X212574289Y-89937244D01*
X212593514Y-89959562D01*
X212614605Y-89979840D01*
X212637322Y-89997881D01*
X212661743Y-90013763D01*
X212687715Y-90027373D01*
X212715244Y-90038691D01*
X212744299Y-90047653D01*
X212774780Y-90054172D01*
X212806781Y-90058187D01*
X212840087Y-90059586D01*
X212840909Y-90059587D01*
X212874687Y-90058228D01*
X212907242Y-90054187D01*
X212938046Y-90047627D01*
X212967455Y-90038562D01*
X212994983Y-90027223D01*
X213020960Y-90013549D01*
X213062400Y-89984146D01*
X213101622Y-89943987D01*
X213135225Y-89894094D01*
X213161543Y-89835533D01*
X213178852Y-89770302D01*
X213183673Y-89736080D01*
X213185788Y-89701195D01*
X213185883Y-89692044D01*
X213184528Y-89653022D01*
X213180509Y-89615685D01*
X213174017Y-89580621D01*
X213165079Y-89547349D01*
X213153966Y-89516433D01*
X213140620Y-89487400D01*
X213125364Y-89460730D01*
X213108071Y-89436028D01*
X213089067Y-89413646D01*
X213068201Y-89393318D01*
X213045735Y-89375257D01*
X213021557Y-89359348D01*
X212995801Y-89345693D01*
X212968461Y-89334310D01*
X212909070Y-89318588D01*
X212843461Y-89312804D01*
X212839926Y-89312790D01*
X212806738Y-89314144D01*
X212774815Y-89318156D01*
X212744398Y-89324702D01*
X212715378Y-89333721D01*
X212687904Y-89345098D01*
X212661962Y-89358779D01*
X212614936Y-89392767D01*
X212574751Y-89435249D01*
X212541985Y-89485874D01*
X212517362Y-89544300D01*
X212501725Y-89610122D01*
X212497555Y-89645731D01*
X212495987Y-89682825D01*
X212495977Y-89686188D01*
X212350029Y-89686188D01*
X212464860Y-89323732D01*
X212410962Y-89323732D01*
X212178699Y-90056851D01*
X211934567Y-90056851D01*
X211934567Y-90037703D01*
X212012345Y-90037703D01*
X212104455Y-90037703D01*
X212104455Y-89323732D01*
X212012345Y-89323732D01*
X212012345Y-90037703D01*
X211934567Y-90037703D01*
X211934567Y-89235012D01*
X213263661Y-89235012D01*
X213263661Y-90137365D01*
G37*
D11*
G36*
X195620049Y-86244501D02*
G01*
X195644655Y-86249285D01*
X195667406Y-86257035D01*
X195687912Y-86267512D01*
X195705721Y-86280328D01*
X195720834Y-86295372D01*
X195732716Y-86311948D01*
X195741576Y-86330232D01*
X195747065Y-86349399D01*
X195749287Y-86369803D01*
X195749326Y-86372930D01*
X195747674Y-86394182D01*
X195742833Y-86413987D01*
X195724297Y-86448629D01*
X195694591Y-86476051D01*
X195654232Y-86494805D01*
X195604047Y-86502815D01*
X195596148Y-86502950D01*
X195568619Y-86501301D01*
X195543081Y-86496480D01*
X195520058Y-86488793D01*
X195499443Y-86478380D01*
X195481906Y-86465795D01*
X195467088Y-86450964D01*
X195455528Y-86434616D01*
X195446916Y-86416471D01*
X195441535Y-86397149D01*
X195439338Y-86376399D01*
X195439294Y-86372930D01*
X195440951Y-86350690D01*
X195445833Y-86330193D01*
X195453594Y-86311945D01*
X195464180Y-86295585D01*
X195493343Y-86268953D01*
X195533392Y-86250879D01*
X195584715Y-86243013D01*
X195593732Y-86242857D01*
X195620049Y-86244501D01*
G37*
G36*
X195585979Y-85591161D02*
G01*
X195636503Y-85597851D01*
X195671256Y-85606533D01*
X195671345Y-85606566D01*
X195692874Y-85616585D01*
X195711089Y-85628869D01*
X195725056Y-85642341D01*
X195735942Y-85657624D01*
X195743453Y-85674023D01*
X195747937Y-85691954D01*
X195749326Y-85710120D01*
X195747654Y-85730278D01*
X195742677Y-85748776D01*
X195734839Y-85764923D01*
X195724052Y-85779440D01*
X195693391Y-85803634D01*
X195683318Y-85808843D01*
X195641609Y-85821192D01*
X195554976Y-85831835D01*
X195444545Y-85835362D01*
X195300371Y-85829142D01*
X195248818Y-85822504D01*
X195213590Y-85813909D01*
X195212966Y-85813675D01*
X195191621Y-85804445D01*
X195173370Y-85792860D01*
X195158946Y-85779758D01*
X195147548Y-85764801D01*
X195139466Y-85748626D01*
X195134430Y-85730963D01*
X195132517Y-85710120D01*
X195134185Y-85690874D01*
X195139137Y-85672934D01*
X195158045Y-85642091D01*
X195189222Y-85617400D01*
X195200941Y-85611398D01*
X195242078Y-85599326D01*
X195329402Y-85588683D01*
X195446960Y-85584931D01*
X195585979Y-85591161D01*
G37*
G36*
X195620049Y-83569318D02*
G01*
X195644655Y-83574102D01*
X195667406Y-83581853D01*
X195687912Y-83592330D01*
X195705721Y-83605146D01*
X195720834Y-83620190D01*
X195732716Y-83636766D01*
X195741576Y-83655050D01*
X195747065Y-83674217D01*
X195749287Y-83694621D01*
X195749326Y-83697748D01*
X195747674Y-83719000D01*
X195742833Y-83738805D01*
X195724297Y-83773447D01*
X195694591Y-83800869D01*
X195654232Y-83819622D01*
X195604047Y-83827633D01*
X195596148Y-83827768D01*
X195568619Y-83826119D01*
X195543081Y-83821298D01*
X195520058Y-83813611D01*
X195499443Y-83803198D01*
X195481906Y-83790612D01*
X195467088Y-83775782D01*
X195455528Y-83759434D01*
X195446916Y-83741289D01*
X195441535Y-83721967D01*
X195439338Y-83701217D01*
X195439294Y-83697748D01*
X195440951Y-83675508D01*
X195445833Y-83655011D01*
X195453594Y-83636763D01*
X195464180Y-83620403D01*
X195493343Y-83593771D01*
X195533392Y-83575697D01*
X195584715Y-83567831D01*
X195593732Y-83567675D01*
X195620049Y-83569318D01*
G37*
G36*
X195989343Y-87435866D02*
G01*
X194900902Y-87435866D01*
X194900902Y-87048919D01*
X194996458Y-87048919D01*
X194998127Y-87086560D01*
X195003088Y-87121772D01*
X195010893Y-87153252D01*
X195021613Y-87182362D01*
X195034706Y-87208219D01*
X195050417Y-87231742D01*
X195068333Y-87252508D01*
X195088667Y-87270916D01*
X195136382Y-87300447D01*
X195194266Y-87320165D01*
X195263367Y-87329082D01*
X195281494Y-87329440D01*
X195311531Y-87329440D01*
X195311531Y-87166914D01*
X195283910Y-87166914D01*
X195253499Y-87165251D01*
X195226210Y-87160328D01*
X195203683Y-87152886D01*
X195184095Y-87142777D01*
X195168476Y-87130932D01*
X195155633Y-87116877D01*
X195145920Y-87101211D01*
X195138980Y-87083594D01*
X195133725Y-87045296D01*
X195135385Y-87022947D01*
X195140283Y-87002591D01*
X195147947Y-86984978D01*
X195158391Y-86969420D01*
X195186824Y-86945094D01*
X195225839Y-86929774D01*
X195270677Y-86924938D01*
X195307276Y-86926976D01*
X195339470Y-86934521D01*
X195359432Y-86943488D01*
X195379345Y-86956351D01*
X195423082Y-86997435D01*
X195487998Y-87078753D01*
X195535023Y-87144019D01*
X195570760Y-87193276D01*
X195605519Y-87234030D01*
X195632721Y-87260349D01*
X195660668Y-87282281D01*
X195687156Y-87298664D01*
X195715179Y-87311968D01*
X195777566Y-87330352D01*
X195858658Y-87339896D01*
X195866901Y-87340310D01*
X195866901Y-86759945D01*
X195716453Y-86759945D01*
X195716453Y-87122384D01*
X195689245Y-87106364D01*
X195662665Y-87083868D01*
X195610589Y-87022585D01*
X195555451Y-86947781D01*
X195510320Y-86889048D01*
X195469098Y-86842737D01*
X195440687Y-86816335D01*
X195412648Y-86795369D01*
X195387773Y-86781086D01*
X195362168Y-86770354D01*
X195307774Y-86758442D01*
X195267106Y-86756374D01*
X195233411Y-86758037D01*
X195201539Y-86762957D01*
X195172090Y-86770863D01*
X195144586Y-86781714D01*
X195119403Y-86795238D01*
X195096300Y-86811448D01*
X195056778Y-86851432D01*
X195026401Y-86901384D01*
X195005994Y-86961281D01*
X194996819Y-87031083D01*
X194996458Y-87048919D01*
X194900902Y-87048919D01*
X194900902Y-86353658D01*
X194996458Y-86353658D01*
X194998127Y-86387639D01*
X195003091Y-86420123D01*
X195011100Y-86450427D01*
X195022155Y-86479055D01*
X195035978Y-86505533D01*
X195052642Y-86530157D01*
X195071960Y-86552687D01*
X195093967Y-86573168D01*
X195128946Y-86598049D01*
X195162615Y-86616569D01*
X195198222Y-86632060D01*
X195274619Y-86653831D01*
X195369471Y-86666137D01*
X195462084Y-86669099D01*
X195534265Y-86667379D01*
X195597275Y-86662060D01*
X195643752Y-86654667D01*
X195685161Y-86644444D01*
X195718734Y-86632660D01*
X195749135Y-86618350D01*
X195767390Y-86607659D01*
X195812982Y-86571593D01*
X195849743Y-86525688D01*
X195876248Y-86471232D01*
X195885203Y-86441285D01*
X195891042Y-86409973D01*
X195893787Y-86368099D01*
X195892126Y-86334932D01*
X195887224Y-86303315D01*
X195879250Y-86273515D01*
X195868304Y-86245461D01*
X195854518Y-86219287D01*
X195837999Y-86195070D01*
X195797031Y-86152770D01*
X195745954Y-86119405D01*
X195685305Y-86096074D01*
X195615754Y-86084079D01*
X195581759Y-86082747D01*
X195546244Y-86084405D01*
X195512536Y-86089286D01*
X195481007Y-86097188D01*
X195451571Y-86108000D01*
X195424672Y-86121419D01*
X195400118Y-86137422D01*
X195378341Y-86155610D01*
X195359132Y-86176060D01*
X195342831Y-86198338D01*
X195329307Y-86222579D01*
X195318780Y-86248413D01*
X195311246Y-86275940D01*
X195305650Y-86330762D01*
X195307396Y-86363666D01*
X195309098Y-86372930D01*
X195312894Y-86393597D01*
X195320903Y-86417511D01*
X195332212Y-86440312D01*
X195365622Y-86484446D01*
X195381530Y-86500534D01*
X195363466Y-86499327D01*
X195284444Y-86494780D01*
X195237212Y-86485058D01*
X195226304Y-86481262D01*
X195201515Y-86470390D01*
X195180519Y-86457326D01*
X195164650Y-86443466D01*
X195151953Y-86427773D01*
X195136489Y-86392559D01*
X195132517Y-86358436D01*
X195134243Y-86334185D01*
X195139601Y-86313402D01*
X195147148Y-86298234D01*
X195157638Y-86284947D01*
X195188135Y-86262922D01*
X195208292Y-86253727D01*
X195208292Y-86097188D01*
X195165976Y-86105452D01*
X195133187Y-86116224D01*
X195094026Y-86138148D01*
X195055699Y-86174088D01*
X195025620Y-86220616D01*
X195005359Y-86276898D01*
X194996667Y-86341487D01*
X194996458Y-86353658D01*
X194900902Y-86353658D01*
X194900902Y-85710120D01*
X194996458Y-85710120D01*
X194998128Y-85742620D01*
X195003095Y-85773822D01*
X195011149Y-85803152D01*
X195022280Y-85830958D01*
X195036258Y-85856833D01*
X195053130Y-85880959D01*
X195072749Y-85903119D01*
X195095121Y-85923290D01*
X195106051Y-85931670D01*
X195155959Y-85960456D01*
X195222630Y-85982668D01*
X195312500Y-85997719D01*
X195434828Y-86003893D01*
X195445753Y-86003926D01*
X195519124Y-86002234D01*
X195584691Y-85997109D01*
X195636103Y-85989693D01*
X195681666Y-85979507D01*
X195717443Y-85968049D01*
X195748718Y-85954315D01*
X195767390Y-85943695D01*
X195792787Y-85926046D01*
X195815474Y-85906208D01*
X195835253Y-85884478D01*
X195852254Y-85860829D01*
X195877722Y-85808206D01*
X195891481Y-85748733D01*
X195893787Y-85710120D01*
X195892113Y-85676808D01*
X195887117Y-85645079D01*
X195879113Y-85615816D01*
X195868043Y-85588175D01*
X195854166Y-85562579D01*
X195837378Y-85538680D01*
X195795095Y-85496115D01*
X195785454Y-85488624D01*
X195734625Y-85459939D01*
X195666153Y-85437425D01*
X195574755Y-85422218D01*
X195450531Y-85416367D01*
X195375080Y-85418059D01*
X195308098Y-85423182D01*
X195256046Y-85430560D01*
X195210050Y-85440680D01*
X195173877Y-85452090D01*
X195142216Y-85465765D01*
X195122907Y-85476546D01*
X195097502Y-85494200D01*
X195074805Y-85514045D01*
X195055016Y-85535782D01*
X195038006Y-85559438D01*
X195012526Y-85612068D01*
X194998763Y-85671533D01*
X194996458Y-85710120D01*
X194900902Y-85710120D01*
X194900902Y-85047364D01*
X194996458Y-85047364D01*
X194998122Y-85084253D01*
X195003048Y-85119172D01*
X195010926Y-85151243D01*
X195021737Y-85181082D01*
X195034970Y-85207787D01*
X195050803Y-85232063D01*
X195068594Y-85253174D01*
X195088680Y-85271699D01*
X195110460Y-85287172D01*
X195134285Y-85299902D01*
X195143335Y-85303781D01*
X195180335Y-85315708D01*
X195220330Y-85322124D01*
X195282545Y-85324261D01*
X195282545Y-85167774D01*
X195234571Y-85164675D01*
X195201618Y-85157724D01*
X195192539Y-85154489D01*
X195164006Y-85135391D01*
X195143656Y-85105848D01*
X195133325Y-85066769D01*
X195132517Y-85050987D01*
X195134180Y-85028492D01*
X195139100Y-85008469D01*
X195146583Y-84992018D01*
X195156753Y-84977902D01*
X195183941Y-84957403D01*
X195221396Y-84946469D01*
X195244158Y-84945018D01*
X195270256Y-84946699D01*
X195293350Y-84951751D01*
X195311652Y-84959222D01*
X195327526Y-84969459D01*
X195351181Y-84996778D01*
X195366374Y-85035472D01*
X195372520Y-85089689D01*
X195372551Y-85094310D01*
X195372551Y-85108751D01*
X195485347Y-85108751D01*
X195486397Y-85046294D01*
X195493749Y-85010028D01*
X195500898Y-84990318D01*
X195510813Y-84972592D01*
X195538279Y-84943603D01*
X195574605Y-84924626D01*
X195595572Y-84919423D01*
X195618027Y-84917370D01*
X195620933Y-84917344D01*
X195643512Y-84918989D01*
X195664444Y-84923783D01*
X195683552Y-84931524D01*
X195700620Y-84941995D01*
X195727869Y-84970312D01*
X195737644Y-84987732D01*
X195744585Y-85007039D01*
X195749326Y-85043741D01*
X195747650Y-85068830D01*
X195742643Y-85091238D01*
X195735111Y-85109485D01*
X195724801Y-85125425D01*
X195697100Y-85149628D01*
X195658136Y-85165335D01*
X195616155Y-85171345D01*
X195616155Y-85335131D01*
X195651666Y-85333215D01*
X195685146Y-85328049D01*
X195715807Y-85319956D01*
X195744348Y-85308943D01*
X195770218Y-85295381D01*
X195793877Y-85279180D01*
X195815048Y-85260613D01*
X195833885Y-85239624D01*
X195864281Y-85190603D01*
X195884505Y-85132050D01*
X195893470Y-85063770D01*
X195893787Y-85047364D01*
X195892125Y-85008966D01*
X195887212Y-84972725D01*
X195879353Y-84939427D01*
X195868585Y-84908423D01*
X195855324Y-84880401D01*
X195839472Y-84854786D01*
X195821474Y-84832073D01*
X195801161Y-84811878D01*
X195778876Y-84794472D01*
X195754503Y-84779723D01*
X195699900Y-84758588D01*
X195637463Y-84749174D01*
X195620933Y-84748779D01*
X195588278Y-84750474D01*
X195558175Y-84755615D01*
X195532677Y-84763435D01*
X195509087Y-84774293D01*
X195468405Y-84804205D01*
X195432879Y-84847360D01*
X195409729Y-84888409D01*
X195388413Y-84857726D01*
X195366188Y-84832250D01*
X195345804Y-84814137D01*
X195324257Y-84799719D01*
X195302702Y-84789407D01*
X195279739Y-84782161D01*
X195228562Y-84776453D01*
X195198469Y-84778116D01*
X195170097Y-84783030D01*
X195143968Y-84790928D01*
X195119675Y-84801762D01*
X195077171Y-84831614D01*
X195042701Y-84872196D01*
X195016894Y-84923592D01*
X195000974Y-84985990D01*
X194996458Y-85047364D01*
X194900902Y-85047364D01*
X194900902Y-84373737D01*
X194996458Y-84373737D01*
X194998127Y-84411378D01*
X195003088Y-84446589D01*
X195010893Y-84478069D01*
X195021613Y-84507180D01*
X195034706Y-84533037D01*
X195050417Y-84556560D01*
X195068333Y-84577326D01*
X195088667Y-84595734D01*
X195136382Y-84625265D01*
X195194266Y-84644983D01*
X195263367Y-84653900D01*
X195281494Y-84654257D01*
X195311531Y-84654257D01*
X195311531Y-84491732D01*
X195283910Y-84491732D01*
X195253499Y-84490069D01*
X195226210Y-84485146D01*
X195203683Y-84477704D01*
X195184095Y-84467595D01*
X195168476Y-84455750D01*
X195155633Y-84441695D01*
X195145920Y-84426028D01*
X195138980Y-84408412D01*
X195133725Y-84370114D01*
X195135385Y-84347765D01*
X195140283Y-84327408D01*
X195147947Y-84309795D01*
X195158391Y-84294238D01*
X195186824Y-84269912D01*
X195225839Y-84254592D01*
X195270677Y-84249756D01*
X195307276Y-84251794D01*
X195339470Y-84259339D01*
X195359432Y-84268306D01*
X195379345Y-84281169D01*
X195423082Y-84322253D01*
X195487998Y-84403571D01*
X195535023Y-84468837D01*
X195570760Y-84518094D01*
X195605519Y-84558848D01*
X195632721Y-84585167D01*
X195660668Y-84607099D01*
X195687156Y-84623482D01*
X195715179Y-84636786D01*
X195777566Y-84655170D01*
X195858658Y-84664714D01*
X195866901Y-84665127D01*
X195866901Y-84084763D01*
X195716453Y-84084763D01*
X195716453Y-84447202D01*
X195689245Y-84431182D01*
X195662665Y-84408686D01*
X195610589Y-84347403D01*
X195555451Y-84272599D01*
X195510320Y-84213866D01*
X195469098Y-84167555D01*
X195440687Y-84141153D01*
X195412648Y-84120186D01*
X195387773Y-84105904D01*
X195362168Y-84095172D01*
X195307774Y-84083260D01*
X195267106Y-84081192D01*
X195233411Y-84082855D01*
X195201539Y-84087775D01*
X195172090Y-84095681D01*
X195144586Y-84106532D01*
X195119403Y-84120056D01*
X195096300Y-84136266D01*
X195056778Y-84176249D01*
X195026401Y-84226202D01*
X195005994Y-84286099D01*
X194996819Y-84355901D01*
X194996458Y-84373737D01*
X194900902Y-84373737D01*
X194900902Y-83678476D01*
X194996458Y-83678476D01*
X194998127Y-83712457D01*
X195003091Y-83744941D01*
X195011100Y-83775245D01*
X195022155Y-83803873D01*
X195035978Y-83830350D01*
X195052642Y-83854975D01*
X195071960Y-83877505D01*
X195093967Y-83897985D01*
X195128946Y-83922867D01*
X195162615Y-83941387D01*
X195198222Y-83956878D01*
X195274619Y-83978648D01*
X195369471Y-83990955D01*
X195462084Y-83993916D01*
X195534265Y-83992196D01*
X195597275Y-83986878D01*
X195643752Y-83979484D01*
X195685161Y-83969262D01*
X195718734Y-83957477D01*
X195749135Y-83943167D01*
X195767390Y-83932477D01*
X195812982Y-83896411D01*
X195849743Y-83850506D01*
X195876248Y-83796050D01*
X195885203Y-83766103D01*
X195891042Y-83734791D01*
X195893787Y-83692916D01*
X195892126Y-83659750D01*
X195887224Y-83628133D01*
X195879250Y-83598333D01*
X195868304Y-83570279D01*
X195854518Y-83544105D01*
X195837999Y-83519887D01*
X195797031Y-83477588D01*
X195745954Y-83444223D01*
X195685305Y-83420892D01*
X195615754Y-83408896D01*
X195581759Y-83407565D01*
X195546244Y-83409223D01*
X195512536Y-83414104D01*
X195481007Y-83422006D01*
X195451571Y-83432818D01*
X195424672Y-83446237D01*
X195400118Y-83462240D01*
X195378341Y-83480427D01*
X195359132Y-83500877D01*
X195342831Y-83523156D01*
X195329307Y-83547397D01*
X195318780Y-83573231D01*
X195311246Y-83600758D01*
X195305650Y-83655580D01*
X195307396Y-83688483D01*
X195309098Y-83697748D01*
X195312894Y-83718415D01*
X195320903Y-83742329D01*
X195332212Y-83765129D01*
X195365622Y-83809264D01*
X195381530Y-83825352D01*
X195363466Y-83824144D01*
X195284444Y-83819597D01*
X195237212Y-83809875D01*
X195226304Y-83806080D01*
X195201515Y-83795208D01*
X195180519Y-83782144D01*
X195164650Y-83768284D01*
X195151953Y-83752591D01*
X195136489Y-83717377D01*
X195132517Y-83683254D01*
X195134243Y-83659003D01*
X195139601Y-83638220D01*
X195147148Y-83623052D01*
X195157638Y-83609764D01*
X195188135Y-83587740D01*
X195208292Y-83578545D01*
X195208292Y-83422006D01*
X195165976Y-83430270D01*
X195133187Y-83441042D01*
X195094026Y-83462965D01*
X195055699Y-83498906D01*
X195025620Y-83545434D01*
X195005359Y-83601716D01*
X194996667Y-83666305D01*
X194996458Y-83678476D01*
X194900902Y-83678476D01*
X194900902Y-83312009D01*
X195989343Y-83312009D01*
X195989343Y-87435866D01*
G37*
D12*
%TO.C,J1*%
X214060000Y-87940000D02*
X213425000Y-87940000D01*
X214060000Y-87305000D02*
X214060000Y-87940000D01*
%TO.C,U1*%
X204541184Y-106872545D02*
X204061184Y-106392545D01*
X204541184Y-106392545D01*
X204541184Y-106872545D01*
G36*
X204541184Y-106872545D02*
G01*
X204061184Y-106392545D01*
X204541184Y-106392545D01*
X204541184Y-106872545D01*
G37*
X206935000Y-105720000D02*
X206935000Y-103220000D01*
X204165000Y-105720000D02*
X204165000Y-103220000D01*
%TO.C,U2*%
D10*
X199000000Y-81375000D02*
X209700000Y-81375000D01*
X209700000Y-95975000D01*
X199000000Y-95975000D01*
X199000000Y-81375000D01*
D12*
%TO.C,U4*%
X210875000Y-94980000D02*
X210595000Y-94980000D01*
X210875000Y-94700000D01*
X210875000Y-94980000D01*
G36*
X210875000Y-94980000D02*
G01*
X210595000Y-94980000D01*
X210875000Y-94700000D01*
X210875000Y-94980000D01*
G37*
X211125000Y-94820000D02*
X213375000Y-94820000D01*
X210875000Y-97540000D02*
X213375000Y-97540000D01*
%TO.C,R6*%
X208303641Y-97020000D02*
X207996359Y-97020000D01*
X208303641Y-97780000D02*
X207996359Y-97780000D01*
%TO.C,R7*%
X206046359Y-97020000D02*
X206353641Y-97020000D01*
X206046359Y-97780000D02*
X206353641Y-97780000D01*
%TO.C,C11*%
X212405580Y-97940000D02*
X212124420Y-97940000D01*
X212405580Y-98960000D02*
X212124420Y-98960000D01*
%TO.C,R4*%
X204820000Y-107316359D02*
X204820000Y-107623641D01*
X205580000Y-107316359D02*
X205580000Y-107623641D01*
%TO.C,C5*%
X197040000Y-94190580D02*
X197040000Y-93909420D01*
X198060000Y-94190580D02*
X198060000Y-93909420D01*
%TO.C,Y1*%
X200675000Y-97225000D02*
X202025000Y-97225000D01*
X200675000Y-98975000D02*
X202025000Y-98975000D01*
%TO.C,C9*%
X209359420Y-101090000D02*
X209640580Y-101090000D01*
X209359420Y-102110000D02*
X209640580Y-102110000D01*
%TO.C,C7*%
X204202164Y-97050000D02*
X204417836Y-97050000D01*
X204202164Y-97770000D02*
X204417836Y-97770000D01*
D10*
%TO.C,SW1*%
X211140000Y-90835000D02*
X211240000Y-90835000D01*
X211140000Y-94085000D02*
X211140000Y-90835000D01*
X211240000Y-94085000D02*
X211140000Y-94085000D01*
X213215000Y-94085000D02*
X213315000Y-94085000D01*
X213315000Y-90835000D02*
X213215000Y-90835000D01*
X213315000Y-94085000D02*
X213315000Y-90835000D01*
D12*
%TO.C,Q1*%
X199439999Y-104262500D02*
X199440000Y-103612500D01*
X199439999Y-104262500D02*
X199440000Y-104912500D01*
X202560001Y-104262500D02*
X202560000Y-103612500D01*
X202560001Y-104262500D02*
X202560000Y-104912500D01*
X199490000Y-105425000D02*
X199160000Y-105665000D01*
X199160001Y-105185000D01*
X199490000Y-105425000D01*
G36*
X199490000Y-105425000D02*
G01*
X199160000Y-105665000D01*
X199160001Y-105185000D01*
X199490000Y-105425000D01*
G37*
%TO.C,C10*%
X209490000Y-99365580D02*
X209490000Y-99084420D01*
X210510000Y-99365580D02*
X210510000Y-99084420D01*
%TO.C,C8*%
X198440000Y-97942164D02*
X198440000Y-98157836D01*
X199160000Y-97942164D02*
X199160000Y-98157836D01*
%TO.C,R9*%
X199640000Y-101523641D02*
X199640000Y-101216359D01*
X200400000Y-101523641D02*
X200400000Y-101216359D01*
%TO.C,C4*%
X207330000Y-104064420D02*
X207330000Y-104345580D01*
X208350000Y-104064420D02*
X208350000Y-104345580D01*
%TO.C,L1*%
X205949622Y-101160000D02*
X205150378Y-101160000D01*
X205949622Y-102280000D02*
X205150378Y-102280000D01*
%TO.C,R8*%
X196595000Y-87245242D02*
X196595000Y-87719758D01*
X197640000Y-87245242D02*
X197640000Y-87719758D01*
%TO.C,C2*%
X202890000Y-102937836D02*
X202890000Y-102722164D01*
X203610000Y-102937836D02*
X203610000Y-102722164D01*
%TO.C,R10*%
X200827500Y-100987258D02*
X200827500Y-100512742D01*
X201872500Y-100987258D02*
X201872500Y-100512742D01*
D10*
%TO.C,U3*%
X209200000Y-100400000D02*
X209200000Y-100700000D01*
X209200000Y-100700000D02*
X208900000Y-100700000D01*
X209000000Y-100500000D02*
X204600000Y-100500000D01*
X204600000Y-98100000D01*
X209000000Y-98100000D01*
X209000000Y-100500000D01*
D12*
%TO.C,R5*%
X205820000Y-107326359D02*
X205820000Y-107633641D01*
X206580000Y-107326359D02*
X206580000Y-107633641D01*
%TO.C,D4*%
X196402500Y-82977500D02*
X196402500Y-85262500D01*
X197872500Y-82977500D02*
X196402500Y-82977500D01*
X197872500Y-85262500D02*
X197872500Y-82977500D01*
%TO.C,C3*%
X202790000Y-106584420D02*
X202790000Y-106865580D01*
X203810000Y-106584420D02*
X203810000Y-106865580D01*
%TO.C,C6*%
X196990000Y-96984420D02*
X196990000Y-97265580D01*
X198010000Y-96984420D02*
X198010000Y-97265580D01*
%TO.C,R2*%
X200767742Y-106517499D02*
X201242258Y-106517499D01*
X200767742Y-107562499D02*
X201242258Y-107562499D01*
%TO.C,C1*%
X198765580Y-108180000D02*
X198484420Y-108180000D01*
X198765580Y-109200000D02*
X198484420Y-109200000D01*
%TO.C,R11*%
X196920000Y-106264564D02*
X196920000Y-104810436D01*
X198740000Y-106264564D02*
X198740000Y-104810436D01*
%TD*%
G36*
X210218639Y-89296895D02*
G01*
X210227227Y-89298047D01*
X210271486Y-89307196D01*
X210280823Y-89309912D01*
X210317401Y-89323769D01*
X210326907Y-89328337D01*
X210357541Y-89346444D01*
X210366445Y-89352842D01*
X210392770Y-89375577D01*
X210400267Y-89383295D01*
X210422353Y-89410425D01*
X210428304Y-89419177D01*
X210446099Y-89450918D01*
X210450302Y-89460115D01*
X210463949Y-89497927D01*
X210466434Y-89506883D01*
X210475422Y-89552370D01*
X210476478Y-89560591D01*
X210479889Y-89617163D01*
X210480000Y-89620864D01*
X210480000Y-89674448D01*
X210461987Y-89717935D01*
X210418500Y-89735948D01*
X209919365Y-89735948D01*
X209875878Y-89717935D01*
X209857865Y-89674448D01*
X209857865Y-89615421D01*
X209857981Y-89611648D01*
X209862102Y-89544607D01*
X209863264Y-89535910D01*
X209873838Y-89484845D01*
X209876762Y-89474971D01*
X209892131Y-89435559D01*
X209897387Y-89425132D01*
X209916538Y-89394719D01*
X209924303Y-89384807D01*
X209947360Y-89360889D01*
X209957128Y-89352667D01*
X209985515Y-89333423D01*
X209996191Y-89327634D01*
X210032209Y-89312493D01*
X210042621Y-89309169D01*
X210088895Y-89298821D01*
X210098231Y-89297475D01*
X210157238Y-89293547D01*
X210165185Y-89293532D01*
X210218639Y-89296895D01*
G37*
G36*
X210844749Y-85434749D02*
G01*
X210981137Y-85571136D01*
X210984505Y-85579268D01*
X210984505Y-87971753D01*
X210981137Y-87979885D01*
X210845445Y-88115577D01*
X210837313Y-88118945D01*
X209986291Y-88118945D01*
X209978159Y-88115577D01*
X209974791Y-88107445D01*
X209974791Y-87711249D01*
X210074791Y-87711249D01*
X210078205Y-87772530D01*
X210088176Y-87829321D01*
X210105609Y-87882408D01*
X210105612Y-87882415D01*
X210129938Y-87927399D01*
X210129943Y-87927406D01*
X210162267Y-87965368D01*
X210162270Y-87965371D01*
X210202281Y-87994371D01*
X210202283Y-87994372D01*
X210232512Y-88007694D01*
X210267250Y-88016020D01*
X210267255Y-88016021D01*
X210307410Y-88018944D01*
X210307413Y-88018944D01*
X210357830Y-88013736D01*
X210401767Y-87998684D01*
X210401772Y-87998682D01*
X210440619Y-87973857D01*
X210440620Y-87973856D01*
X210473664Y-87940833D01*
X210473672Y-87940823D01*
X210504846Y-87896013D01*
X210504853Y-87896002D01*
X210533962Y-87836946D01*
X210562724Y-87770257D01*
X210563196Y-87769291D01*
X210591925Y-87716787D01*
X210592988Y-87715179D01*
X210608172Y-87695954D01*
X210609556Y-87694487D01*
X210624611Y-87681103D01*
X210627005Y-87679465D01*
X210643216Y-87671152D01*
X210646735Y-87670016D01*
X210665068Y-87667229D01*
X210668216Y-87667186D01*
X210681726Y-87668867D01*
X210684598Y-87669610D01*
X210697090Y-87674635D01*
X210699691Y-87676099D01*
X210710792Y-87684411D01*
X210712814Y-87686351D01*
X210723239Y-87699143D01*
X210724534Y-87701116D01*
X210732890Y-87717237D01*
X210733627Y-87719007D01*
X210740638Y-87740800D01*
X210741027Y-87742387D01*
X210745210Y-87766887D01*
X210745359Y-87768244D01*
X210746906Y-87799008D01*
X210746875Y-87800609D01*
X210742011Y-87855053D01*
X210741655Y-87857043D01*
X210726892Y-87911425D01*
X210726192Y-87913325D01*
X210701863Y-87964820D01*
X210700814Y-87966604D01*
X210665663Y-88015672D01*
X210840735Y-88015672D01*
X210859435Y-87970513D01*
X210873564Y-87914845D01*
X210873565Y-87914837D01*
X210881709Y-87855720D01*
X210881711Y-87855698D01*
X210884504Y-87792146D01*
X210881438Y-87730230D01*
X210881438Y-87730228D01*
X210872489Y-87672715D01*
X210872488Y-87672710D01*
X210856263Y-87618825D01*
X210856263Y-87618823D01*
X210832922Y-87573546D01*
X210801110Y-87535358D01*
X210801108Y-87535356D01*
X210760819Y-87506033D01*
X210730193Y-87492670D01*
X210730188Y-87492668D01*
X210693907Y-87484189D01*
X210650813Y-87481171D01*
X210650802Y-87481171D01*
X210605162Y-87484915D01*
X210605152Y-87484917D01*
X210567579Y-87495384D01*
X210533768Y-87512734D01*
X210533760Y-87512739D01*
X210503927Y-87536369D01*
X210477885Y-87565348D01*
X210454002Y-87600605D01*
X210453993Y-87600620D01*
X210432934Y-87639537D01*
X210432926Y-87639552D01*
X210412220Y-87685053D01*
X210384897Y-87746226D01*
X210384311Y-87747363D01*
X210357839Y-87792399D01*
X210356686Y-87794022D01*
X210343216Y-87809863D01*
X210341780Y-87811278D01*
X210328997Y-87821841D01*
X210326556Y-87823387D01*
X210312957Y-87829767D01*
X210309666Y-87830745D01*
X210294216Y-87832906D01*
X210291090Y-87832914D01*
X210276838Y-87830997D01*
X210273664Y-87830093D01*
X210261118Y-87824465D01*
X210258551Y-87822879D01*
X210247318Y-87813705D01*
X210245486Y-87811821D01*
X210235206Y-87798492D01*
X210234027Y-87796614D01*
X210225825Y-87780218D01*
X210225129Y-87778489D01*
X210218390Y-87756828D01*
X210218032Y-87755331D01*
X210213977Y-87731376D01*
X210213831Y-87730052D01*
X210212383Y-87702124D01*
X210212396Y-87700728D01*
X210215520Y-87656006D01*
X210215717Y-87654543D01*
X210225233Y-87607153D01*
X210225655Y-87605615D01*
X210241838Y-87559425D01*
X210242588Y-87557733D01*
X210265496Y-87515610D01*
X210104442Y-87515610D01*
X210091461Y-87556742D01*
X210082070Y-87602797D01*
X210082068Y-87602810D01*
X210076731Y-87651761D01*
X210076730Y-87651763D01*
X210074791Y-87711249D01*
X209974791Y-87711249D01*
X209974791Y-86504883D01*
X210087296Y-86504883D01*
X210610990Y-86613080D01*
X210623784Y-86615267D01*
X210631232Y-86619957D01*
X210633183Y-86628540D01*
X210628493Y-86635988D01*
X210623548Y-86637976D01*
X210614285Y-86639361D01*
X210614268Y-86639365D01*
X210087296Y-86767787D01*
X210087296Y-86956880D01*
X210607678Y-87098979D01*
X210607700Y-87098984D01*
X210626912Y-87103279D01*
X210634113Y-87108340D01*
X210635626Y-87117011D01*
X210630565Y-87124212D01*
X210626228Y-87125856D01*
X210609904Y-87128480D01*
X210609865Y-87128487D01*
X210087296Y-87238883D01*
X210087296Y-87431786D01*
X210872000Y-87225741D01*
X210872000Y-87021897D01*
X210368564Y-86888540D01*
X210368552Y-86888538D01*
X210352912Y-86885230D01*
X210345654Y-86880252D01*
X210344041Y-86871599D01*
X210349019Y-86864341D01*
X210353021Y-86862706D01*
X210368535Y-86859579D01*
X210368541Y-86859578D01*
X210872000Y-86729537D01*
X210872000Y-86533850D01*
X210087296Y-86326733D01*
X210087296Y-86504883D01*
X209974791Y-86504883D01*
X209974791Y-85948874D01*
X210087296Y-85948874D01*
X210087296Y-86226495D01*
X210087297Y-86226496D01*
X210871999Y-86226496D01*
X210872000Y-86226495D01*
X210872000Y-85948891D01*
X210871999Y-85948871D01*
X210867179Y-85872629D01*
X210867178Y-85872622D01*
X210853374Y-85805304D01*
X210831260Y-85745663D01*
X210801070Y-85692617D01*
X210762576Y-85645341D01*
X210716702Y-85604955D01*
X210665389Y-85573502D01*
X210607879Y-85550594D01*
X210543105Y-85536347D01*
X210469784Y-85531381D01*
X210392870Y-85536087D01*
X210327675Y-85549312D01*
X210272340Y-85570078D01*
X210225409Y-85597877D01*
X210225405Y-85597880D01*
X210185685Y-85632780D01*
X210152487Y-85675317D01*
X210152485Y-85675320D01*
X210125554Y-85726562D01*
X210125550Y-85726571D01*
X210105150Y-85787969D01*
X210105147Y-85787983D01*
X210092005Y-85861381D01*
X210092003Y-85861392D01*
X210087296Y-85948874D01*
X209974791Y-85948874D01*
X209974791Y-85442881D01*
X209978159Y-85434749D01*
X209986291Y-85431381D01*
X210836617Y-85431381D01*
X210844749Y-85434749D01*
G37*
G36*
X210179326Y-93534773D02*
G01*
X210180932Y-93534988D01*
X210225876Y-93544279D01*
X210227622Y-93544787D01*
X210266163Y-93559387D01*
X210267941Y-93560241D01*
X210301148Y-93579870D01*
X210302813Y-93581066D01*
X210331527Y-93605864D01*
X210332928Y-93607308D01*
X210356901Y-93636756D01*
X210358014Y-93638392D01*
X210377082Y-93672401D01*
X210377868Y-93674121D01*
X210392079Y-93713499D01*
X210392544Y-93715174D01*
X210401587Y-93760940D01*
X210401784Y-93762477D01*
X210405017Y-93816083D01*
X210405038Y-93816775D01*
X210405038Y-93907257D01*
X210401670Y-93915389D01*
X210393538Y-93918757D01*
X209872170Y-93918757D01*
X209864038Y-93915389D01*
X209860670Y-93907257D01*
X209860670Y-93811993D01*
X209860692Y-93811288D01*
X209864562Y-93748317D01*
X209864779Y-93746690D01*
X209875366Y-93695560D01*
X209875913Y-93693714D01*
X209892119Y-93652156D01*
X209893102Y-93650206D01*
X209914329Y-93616497D01*
X209915781Y-93614644D01*
X209942042Y-93587403D01*
X209943868Y-93585865D01*
X209975837Y-93564192D01*
X209977833Y-93563110D01*
X210016700Y-93546771D01*
X210018647Y-93546149D01*
X210065993Y-93535562D01*
X210067739Y-93535310D01*
X210125362Y-93531474D01*
X210126848Y-93531472D01*
X210179326Y-93534773D01*
G37*
G36*
X210204137Y-92983189D02*
G01*
X210210108Y-92989656D01*
X210210816Y-92993630D01*
X210210816Y-93198348D01*
X210207448Y-93206480D01*
X210199316Y-93209848D01*
X210195373Y-93209151D01*
X209918671Y-93108146D01*
X209916418Y-93107607D01*
X209909295Y-93102437D01*
X209907913Y-93093744D01*
X209913083Y-93086621D01*
X209916532Y-93085213D01*
X209918657Y-93084726D01*
X209918660Y-93084725D01*
X210195342Y-92982838D01*
X210204137Y-92983189D01*
G37*
G36*
X211935230Y-89244183D02*
G01*
X211939853Y-89251673D01*
X211940000Y-89253508D01*
X211940000Y-90116805D01*
X211936632Y-90124937D01*
X211928500Y-90128305D01*
X211926929Y-90128197D01*
X211726265Y-90100518D01*
X211718669Y-90096070D01*
X211716444Y-90087555D01*
X211720892Y-90079959D01*
X211722092Y-90079163D01*
X211723039Y-90078616D01*
X211815335Y-89986320D01*
X211880595Y-89873286D01*
X211880599Y-89873276D01*
X211914380Y-89747202D01*
X211914380Y-89616677D01*
X211880599Y-89490603D01*
X211880595Y-89490593D01*
X211815335Y-89377559D01*
X211730163Y-89292387D01*
X211726795Y-89284255D01*
X211730163Y-89276123D01*
X211736460Y-89272902D01*
X211926665Y-89242155D01*
X211935230Y-89244183D01*
G37*
G36*
X210583368Y-89114146D02*
G01*
X210639311Y-89170089D01*
X210642679Y-89178221D01*
X210642679Y-91664301D01*
X210639311Y-91672433D01*
X210489533Y-91822211D01*
X210481401Y-91825579D01*
X210473269Y-91822211D01*
X210464380Y-91813322D01*
X210351346Y-91748062D01*
X210351336Y-91748058D01*
X210225263Y-91714278D01*
X210094737Y-91714278D01*
X209968663Y-91748058D01*
X209968653Y-91748062D01*
X209855619Y-91813322D01*
X209816371Y-91852571D01*
X209808239Y-91855939D01*
X209686687Y-91855939D01*
X209678555Y-91852571D01*
X209675187Y-91844439D01*
X209675187Y-91080483D01*
X209764076Y-91080483D01*
X209769006Y-91150447D01*
X209783294Y-91213631D01*
X209806537Y-91271077D01*
X209806539Y-91271080D01*
X209838829Y-91323671D01*
X209838831Y-91323673D01*
X209880721Y-91372006D01*
X209880722Y-91372007D01*
X209929516Y-91413082D01*
X209929517Y-91413083D01*
X209982996Y-91444905D01*
X210041809Y-91467924D01*
X210041812Y-91467925D01*
X210106884Y-91482131D01*
X210106890Y-91482132D01*
X210179342Y-91487049D01*
X210250891Y-91482505D01*
X210314205Y-91469476D01*
X210314222Y-91469471D01*
X210370493Y-91448571D01*
X210370494Y-91448570D01*
X210420721Y-91419983D01*
X210465636Y-91383493D01*
X210465639Y-91383490D01*
X210504215Y-91339979D01*
X210504221Y-91339971D01*
X210534102Y-91291863D01*
X210534102Y-91291862D01*
X210555751Y-91238493D01*
X210569142Y-91178971D01*
X210569142Y-91178967D01*
X210573789Y-91112192D01*
X210573790Y-91112182D01*
X210569567Y-91040561D01*
X210569565Y-91040544D01*
X210557166Y-90973375D01*
X210536789Y-90909993D01*
X210508381Y-90849869D01*
X210151739Y-90849869D01*
X210151738Y-90849870D01*
X210151738Y-91113260D01*
X210151739Y-91113261D01*
X210233021Y-91113261D01*
X210233022Y-91113260D01*
X210233022Y-90953156D01*
X210236390Y-90945024D01*
X210244522Y-90941656D01*
X210448350Y-90941656D01*
X210456482Y-90945024D01*
X210458912Y-90948608D01*
X210475381Y-90986855D01*
X210476013Y-90988767D01*
X210487959Y-91039499D01*
X210488235Y-91041310D01*
X210492440Y-91099790D01*
X210492426Y-91101618D01*
X210486844Y-91165367D01*
X210486427Y-91167587D01*
X210470701Y-91221443D01*
X210469753Y-91223736D01*
X210444558Y-91269826D01*
X210443097Y-91271911D01*
X210407976Y-91311789D01*
X210406182Y-91313436D01*
X210363479Y-91345004D01*
X210361447Y-91346204D01*
X210310669Y-91369553D01*
X210308607Y-91370273D01*
X210247949Y-91385166D01*
X210246049Y-91385467D01*
X210173374Y-91390802D01*
X210171624Y-91390797D01*
X210101896Y-91385272D01*
X210099902Y-91384936D01*
X210039774Y-91369253D01*
X210037697Y-91368491D01*
X209985363Y-91343355D01*
X209983406Y-91342162D01*
X209937330Y-91307320D01*
X209935813Y-91305944D01*
X209904315Y-91271794D01*
X209903124Y-91270262D01*
X209878976Y-91233088D01*
X209878040Y-91231331D01*
X209860701Y-91190638D01*
X209860092Y-91188786D01*
X209849410Y-91143782D01*
X209849130Y-91141972D01*
X209845417Y-91091615D01*
X209845408Y-91090059D01*
X209849318Y-91026829D01*
X209849515Y-91025307D01*
X209860793Y-90968314D01*
X209861228Y-90966723D01*
X209879424Y-90915103D01*
X209880115Y-90913528D01*
X209905540Y-90865696D01*
X209805108Y-90865696D01*
X209783184Y-90925027D01*
X209783183Y-90925030D01*
X209769112Y-90995906D01*
X209764076Y-91080483D01*
X209675187Y-91080483D01*
X209675187Y-90035662D01*
X209776581Y-90035662D01*
X209776581Y-90127447D01*
X209776582Y-90127448D01*
X210329265Y-90127448D01*
X210400427Y-90125888D01*
X210408631Y-90129077D01*
X210412176Y-90137133D01*
X210408987Y-90145337D01*
X210406623Y-90147230D01*
X210392221Y-90155925D01*
X209776581Y-90548278D01*
X209776581Y-90667419D01*
X209776582Y-90667420D01*
X210561284Y-90667420D01*
X210561285Y-90667419D01*
X210561285Y-90575585D01*
X210561284Y-90575584D01*
X209994351Y-90575584D01*
X209934570Y-90576715D01*
X209926376Y-90573501D01*
X209922854Y-90565435D01*
X209926068Y-90557241D01*
X209929121Y-90554976D01*
X209935821Y-90551553D01*
X209935825Y-90551551D01*
X210561285Y-90148257D01*
X210561285Y-90035662D01*
X210561284Y-90035661D01*
X209776582Y-90035661D01*
X209776581Y-90035662D01*
X209675187Y-90035662D01*
X209675187Y-89613939D01*
X209776581Y-89613939D01*
X209776581Y-89830350D01*
X209776582Y-89830351D01*
X210561284Y-89830351D01*
X210561285Y-89830350D01*
X210561285Y-89622702D01*
X210561283Y-89622666D01*
X210556412Y-89545014D01*
X210542469Y-89476576D01*
X210542468Y-89476572D01*
X210520162Y-89416075D01*
X210489754Y-89362408D01*
X210451028Y-89314701D01*
X210404765Y-89273803D01*
X210404764Y-89273802D01*
X210353310Y-89242037D01*
X210353303Y-89242034D01*
X210295919Y-89218962D01*
X210295906Y-89218958D01*
X210231587Y-89204646D01*
X210159065Y-89199667D01*
X210082016Y-89204354D01*
X210016720Y-89217528D01*
X210016715Y-89217529D01*
X209961349Y-89238195D01*
X209914404Y-89265859D01*
X209914401Y-89265861D01*
X209874728Y-89300538D01*
X209874723Y-89300542D01*
X209841578Y-89342790D01*
X209814711Y-89393639D01*
X209794369Y-89454533D01*
X209781270Y-89527284D01*
X209781270Y-89527287D01*
X209776581Y-89613939D01*
X209675187Y-89613939D01*
X209675187Y-89122278D01*
X209678555Y-89114146D01*
X209686687Y-89110778D01*
X210575236Y-89110778D01*
X210583368Y-89114146D01*
G37*
G36*
X210529723Y-85721596D02*
G01*
X210531692Y-85721920D01*
X210579572Y-85734161D01*
X210581682Y-85734926D01*
X210622036Y-85754206D01*
X210624073Y-85755455D01*
X210658333Y-85781711D01*
X210660109Y-85783401D01*
X210687934Y-85816212D01*
X210689349Y-85818311D01*
X210709539Y-85856833D01*
X210710430Y-85859083D01*
X210723172Y-85904784D01*
X210723555Y-85906919D01*
X210728149Y-85962086D01*
X210728189Y-85963040D01*
X210728189Y-86038506D01*
X210724821Y-86046638D01*
X210716689Y-86050006D01*
X210242606Y-86050006D01*
X210234474Y-86046638D01*
X210231106Y-86038506D01*
X210231106Y-85964087D01*
X210231140Y-85963201D01*
X210235526Y-85906433D01*
X210235862Y-85904426D01*
X210247945Y-85857931D01*
X210248749Y-85855763D01*
X210267650Y-85817202D01*
X210268979Y-85815100D01*
X210294615Y-85782898D01*
X210296359Y-85781136D01*
X210328388Y-85755107D01*
X210330466Y-85753762D01*
X210368179Y-85734757D01*
X210370370Y-85733921D01*
X210415159Y-85721887D01*
X210417222Y-85721530D01*
X210470836Y-85717224D01*
X210472636Y-85717221D01*
X210529723Y-85721596D01*
G37*
G36*
X213896074Y-93363005D02*
G01*
X213899087Y-93363806D01*
X213937642Y-93379915D01*
X213940367Y-93381525D01*
X213974603Y-93408751D01*
X213976718Y-93410951D01*
X214002139Y-93445610D01*
X214003636Y-93448379D01*
X214019390Y-93490458D01*
X214020053Y-93493248D01*
X214025787Y-93546040D01*
X214025854Y-93547282D01*
X214025854Y-93649902D01*
X214022486Y-93658034D01*
X214014354Y-93661402D01*
X213704402Y-93661402D01*
X213696270Y-93658034D01*
X213692902Y-93649902D01*
X213692902Y-93542274D01*
X213692965Y-93541073D01*
X213700309Y-93471112D01*
X213701064Y-93468053D01*
X213719640Y-93421472D01*
X213721752Y-93418063D01*
X213749184Y-93387408D01*
X213752611Y-93384791D01*
X213790703Y-93365744D01*
X213794328Y-93364631D01*
X213848309Y-93357441D01*
X213851247Y-93357428D01*
X213896074Y-93363005D01*
G37*
G36*
X209712592Y-94587590D02*
G01*
X210553648Y-94607039D01*
X210561700Y-94610594D01*
X210564882Y-94618536D01*
X210564882Y-94629477D01*
X210563571Y-94634810D01*
X210470259Y-94813081D01*
X210463503Y-94818723D01*
X210454737Y-94817937D01*
X210451938Y-94815880D01*
X210429380Y-94793322D01*
X210316346Y-94728062D01*
X210316336Y-94728058D01*
X210190263Y-94694278D01*
X210059737Y-94694278D01*
X209933663Y-94728058D01*
X209933653Y-94728062D01*
X209820619Y-94793322D01*
X209727790Y-94886152D01*
X209727604Y-94885966D01*
X209720796Y-94889901D01*
X209719290Y-94890000D01*
X209711500Y-94890000D01*
X209703368Y-94886632D01*
X209700000Y-94878500D01*
X209700000Y-94617973D01*
X209700826Y-94615978D01*
X209700826Y-94599087D01*
X209704194Y-94590955D01*
X209712326Y-94587587D01*
X209712592Y-94587590D01*
G37*
G36*
X210505854Y-92717802D02*
G01*
X210561514Y-92773462D01*
X210564882Y-92781594D01*
X210564882Y-94629477D01*
X210563571Y-94634810D01*
X210555025Y-94651139D01*
X210548270Y-94656781D01*
X210544836Y-94657306D01*
X209711500Y-94657306D01*
X209703368Y-94653938D01*
X209700000Y-94645806D01*
X209700000Y-94617973D01*
X209700826Y-94615978D01*
X209700826Y-94315468D01*
X209778604Y-94315468D01*
X209781364Y-94359539D01*
X209781364Y-94359543D01*
X209789630Y-94402747D01*
X209789634Y-94402760D01*
X209803675Y-94443624D01*
X209823099Y-94479002D01*
X209848593Y-94509241D01*
X209848597Y-94509244D01*
X209880203Y-94533028D01*
X209880208Y-94533031D01*
X209904080Y-94544242D01*
X209904089Y-94544245D01*
X209931045Y-94551175D01*
X209961717Y-94553587D01*
X209961725Y-94553587D01*
X209998346Y-94550142D01*
X209998356Y-94550140D01*
X210028436Y-94540464D01*
X210028437Y-94540464D01*
X210055293Y-94524910D01*
X210079341Y-94504346D01*
X210100519Y-94479783D01*
X210100532Y-94479766D01*
X210120457Y-94450322D01*
X210157268Y-94383328D01*
X210189865Y-94320260D01*
X210190134Y-94319768D01*
X210206032Y-94292371D01*
X210206599Y-94291490D01*
X210222037Y-94269724D01*
X210223009Y-94268531D01*
X210239940Y-94250387D01*
X210241532Y-94248971D01*
X210258885Y-94236200D01*
X210261308Y-94234834D01*
X210280463Y-94226917D01*
X210283485Y-94226127D01*
X210306877Y-94223318D01*
X210309742Y-94223333D01*
X210339502Y-94227232D01*
X210342872Y-94228214D01*
X210365621Y-94238832D01*
X210368730Y-94240965D01*
X210386995Y-94258536D01*
X210389078Y-94261245D01*
X210401957Y-94284458D01*
X210403004Y-94287041D01*
X210412042Y-94320529D01*
X210412407Y-94322667D01*
X210415907Y-94369470D01*
X210415890Y-94371394D01*
X210411699Y-94416432D01*
X210411414Y-94418117D01*
X210399389Y-94466918D01*
X210398849Y-94468564D01*
X210379704Y-94514833D01*
X210378976Y-94516291D01*
X210367070Y-94536419D01*
X210366239Y-94537638D01*
X210353063Y-94554528D01*
X210447866Y-94554528D01*
X210456111Y-94539814D01*
X210456113Y-94539810D01*
X210464363Y-94518927D01*
X210464365Y-94518919D01*
X210476802Y-94471820D01*
X210484452Y-94423061D01*
X210484454Y-94423043D01*
X210487103Y-94382877D01*
X210487103Y-94382859D01*
X210484599Y-94334869D01*
X210484597Y-94334849D01*
X210477272Y-94290122D01*
X210477271Y-94290118D01*
X210464217Y-94248142D01*
X210464215Y-94248138D01*
X210445516Y-94212420D01*
X210445516Y-94212419D01*
X210420262Y-94182174D01*
X210388416Y-94158865D01*
X210388408Y-94158860D01*
X210364200Y-94148138D01*
X210364195Y-94148136D01*
X210335871Y-94141378D01*
X210335855Y-94141375D01*
X210302589Y-94138986D01*
X210302583Y-94138986D01*
X210265865Y-94142764D01*
X210234710Y-94153560D01*
X210206542Y-94170586D01*
X210180684Y-94193011D01*
X210180680Y-94193015D01*
X210157650Y-94219549D01*
X210136229Y-94250885D01*
X210136228Y-94250887D01*
X210097961Y-94320710D01*
X210065609Y-94383755D01*
X210065261Y-94384385D01*
X210050198Y-94409703D01*
X210049584Y-94410630D01*
X210035351Y-94430013D01*
X210034245Y-94431307D01*
X210018761Y-94446909D01*
X210016947Y-94448397D01*
X210001143Y-94458861D01*
X209998636Y-94460111D01*
X209980909Y-94466394D01*
X209978241Y-94466995D01*
X209955835Y-94469294D01*
X209953232Y-94469265D01*
X209929188Y-94466254D01*
X209925957Y-94465357D01*
X209907439Y-94457149D01*
X209904813Y-94455532D01*
X209888969Y-94442557D01*
X209887163Y-94440702D01*
X209874197Y-94423962D01*
X209872981Y-94422019D01*
X209863205Y-94402257D01*
X209862485Y-94400419D01*
X209855539Y-94376926D01*
X209855210Y-94375476D01*
X209851213Y-94350407D01*
X209851086Y-94349205D01*
X209849762Y-94324258D01*
X209849769Y-94322920D01*
X209852704Y-94276733D01*
X209852923Y-94275116D01*
X209861164Y-94235561D01*
X209861676Y-94233810D01*
X209874651Y-94199777D01*
X209875509Y-94198003D01*
X209893496Y-94167709D01*
X209803010Y-94167709D01*
X209790729Y-94199874D01*
X209782002Y-94247462D01*
X209782001Y-94247473D01*
X209778604Y-94315468D01*
X209700826Y-94315468D01*
X209700826Y-93812720D01*
X209789546Y-93812720D01*
X209789546Y-94002080D01*
X209789547Y-94002081D01*
X210476161Y-94002081D01*
X210476162Y-94002080D01*
X210476162Y-93820390D01*
X210476160Y-93820354D01*
X210471898Y-93752413D01*
X210459698Y-93692528D01*
X210459697Y-93692525D01*
X210440177Y-93639585D01*
X210413577Y-93592640D01*
X210413568Y-93592627D01*
X210379694Y-93550894D01*
X210379693Y-93550893D01*
X210339214Y-93515107D01*
X210294176Y-93487303D01*
X210243967Y-93467116D01*
X210243966Y-93467115D01*
X210187669Y-93454590D01*
X210124220Y-93450233D01*
X210056802Y-93454334D01*
X209999668Y-93465861D01*
X209999663Y-93465862D01*
X209951218Y-93483945D01*
X209910141Y-93508151D01*
X209910138Y-93508153D01*
X209875425Y-93538495D01*
X209846417Y-93575468D01*
X209822910Y-93619959D01*
X209805108Y-93673247D01*
X209805107Y-93673248D01*
X209793650Y-93736893D01*
X209793649Y-93736906D01*
X209789546Y-93812720D01*
X209700826Y-93812720D01*
X209700826Y-93056146D01*
X209789546Y-93056146D01*
X209789546Y-93139367D01*
X210476161Y-93402361D01*
X210476162Y-93402361D01*
X210476162Y-93312944D01*
X210476161Y-93312943D01*
X210289621Y-93247260D01*
X210283069Y-93241382D01*
X210281940Y-93236413D01*
X210281940Y-92961798D01*
X210285308Y-92953666D01*
X210289410Y-92951027D01*
X210476162Y-92881158D01*
X210476162Y-92792212D01*
X210476161Y-92792211D01*
X209789546Y-93056146D01*
X209700826Y-93056146D01*
X209700826Y-92725934D01*
X209704194Y-92717802D01*
X209712326Y-92714434D01*
X210497722Y-92714434D01*
X210505854Y-92717802D01*
G37*
G36*
X209739571Y-95943032D02*
G01*
X209742939Y-95951088D01*
X209743606Y-96051480D01*
X209740292Y-96059634D01*
X209709045Y-96090881D01*
X209643784Y-96203916D01*
X209643780Y-96203926D01*
X209610000Y-96330000D01*
X209610000Y-96460525D01*
X209643780Y-96586599D01*
X209643784Y-96586609D01*
X209709044Y-96699643D01*
X209744842Y-96735441D01*
X209748210Y-96743496D01*
X209748265Y-96751728D01*
X209744951Y-96759882D01*
X209740496Y-96762683D01*
X209621814Y-96803384D01*
X209618081Y-96804006D01*
X208858463Y-96803862D01*
X208850332Y-96800492D01*
X208847840Y-96796763D01*
X208836292Y-96768884D01*
X208781130Y-96713722D01*
X208779036Y-96708668D01*
X208777350Y-96709861D01*
X208770407Y-96709271D01*
X208709016Y-96683843D01*
X208630984Y-96683843D01*
X208558884Y-96713707D01*
X208503706Y-96768885D01*
X208492186Y-96796693D01*
X208485962Y-96802916D01*
X208481560Y-96803791D01*
X208103950Y-96803720D01*
X208095820Y-96800352D01*
X208036542Y-96741074D01*
X208033174Y-96732942D01*
X208033174Y-96591900D01*
X208110952Y-96591900D01*
X208110952Y-96686703D01*
X208125665Y-96694949D01*
X208125669Y-96694951D01*
X208146552Y-96703201D01*
X208146560Y-96703203D01*
X208193659Y-96715640D01*
X208242418Y-96723290D01*
X208242436Y-96723292D01*
X208282602Y-96725941D01*
X208282620Y-96725941D01*
X208330610Y-96723437D01*
X208330630Y-96723435D01*
X208375357Y-96716110D01*
X208375361Y-96716109D01*
X208417337Y-96703055D01*
X208417341Y-96703053D01*
X208453059Y-96684354D01*
X208453060Y-96684354D01*
X208483305Y-96659100D01*
X208506614Y-96627254D01*
X208506619Y-96627246D01*
X208517341Y-96603038D01*
X208517343Y-96603033D01*
X208524101Y-96574709D01*
X208524104Y-96574693D01*
X208526493Y-96541427D01*
X208526493Y-96541421D01*
X208522715Y-96504703D01*
X208511919Y-96473548D01*
X208494893Y-96445380D01*
X208472468Y-96419522D01*
X208472464Y-96419518D01*
X208445930Y-96396488D01*
X208428538Y-96384599D01*
X208618476Y-96384599D01*
X208622328Y-96446053D01*
X208633390Y-96500613D01*
X208651149Y-96549232D01*
X208651155Y-96549245D01*
X208675438Y-96592743D01*
X208675441Y-96592748D01*
X208706441Y-96631782D01*
X208743468Y-96665294D01*
X208743475Y-96665299D01*
X208780941Y-96688918D01*
X208785655Y-96695583D01*
X208789262Y-96694090D01*
X208793623Y-96694949D01*
X208830754Y-96710166D01*
X208882420Y-96721868D01*
X208882426Y-96721869D01*
X208940757Y-96725941D01*
X208940760Y-96725941D01*
X209015465Y-96721020D01*
X209077901Y-96707256D01*
X209130104Y-96685721D01*
X209130104Y-96607629D01*
X209130103Y-96607629D01*
X209092286Y-96627471D01*
X209090723Y-96628149D01*
X209050033Y-96642312D01*
X209048459Y-96642737D01*
X209003489Y-96651526D01*
X209001984Y-96651719D01*
X208952137Y-96654764D01*
X208950397Y-96654738D01*
X208897942Y-96649980D01*
X208895679Y-96649543D01*
X208850665Y-96636049D01*
X208848380Y-96635085D01*
X208809033Y-96613217D01*
X208807001Y-96611779D01*
X208772129Y-96580935D01*
X208770528Y-96579195D01*
X208742772Y-96541965D01*
X208741575Y-96539962D01*
X208721226Y-96496444D01*
X208720490Y-96494376D01*
X208707606Y-96443118D01*
X208707292Y-96441182D01*
X208702702Y-96380466D01*
X208702703Y-96378721D01*
X208707601Y-96314772D01*
X208707922Y-96312816D01*
X208721696Y-96258656D01*
X208722444Y-96256576D01*
X208744262Y-96210412D01*
X208745470Y-96208411D01*
X208775389Y-96168655D01*
X208776807Y-96167093D01*
X208806286Y-96140067D01*
X208807843Y-96138868D01*
X208840280Y-96118036D01*
X208842045Y-96117107D01*
X208877903Y-96102063D01*
X208879744Y-96101468D01*
X208919779Y-96092147D01*
X208921560Y-96091877D01*
X208966630Y-96088628D01*
X208968389Y-96088636D01*
X209024713Y-96093218D01*
X209026655Y-96093545D01*
X209078625Y-96106959D01*
X209080530Y-96107634D01*
X209130103Y-96130282D01*
X209130104Y-96130281D01*
X209130104Y-96045396D01*
X209086474Y-96030573D01*
X209074392Y-96028385D01*
X209270000Y-96028385D01*
X209270000Y-96714999D01*
X209270001Y-96715000D01*
X209625788Y-96715000D01*
X209625789Y-96714999D01*
X209625789Y-96643877D01*
X209625788Y-96643876D01*
X209361856Y-96643876D01*
X209353724Y-96640508D01*
X209350356Y-96632376D01*
X209350356Y-96028385D01*
X209350355Y-96028384D01*
X209270001Y-96028384D01*
X209270000Y-96028385D01*
X209074392Y-96028385D01*
X209033227Y-96020930D01*
X209033212Y-96020928D01*
X208968506Y-96017441D01*
X208968486Y-96017442D01*
X208908244Y-96021719D01*
X208853847Y-96034118D01*
X208853842Y-96034120D01*
X208804365Y-96054304D01*
X208804359Y-96054307D01*
X208759066Y-96082359D01*
X208717427Y-96118781D01*
X208682389Y-96161005D01*
X208655062Y-96207920D01*
X208655060Y-96207924D01*
X208635150Y-96260205D01*
X208622780Y-96318742D01*
X208618476Y-96384599D01*
X208428538Y-96384599D01*
X208414594Y-96375067D01*
X208414592Y-96375066D01*
X208344769Y-96336799D01*
X208281724Y-96304447D01*
X208281094Y-96304099D01*
X208255776Y-96289036D01*
X208254849Y-96288422D01*
X208235466Y-96274189D01*
X208234172Y-96273083D01*
X208218570Y-96257599D01*
X208217082Y-96255785D01*
X208206618Y-96239981D01*
X208205368Y-96237474D01*
X208199085Y-96219747D01*
X208198484Y-96217079D01*
X208196185Y-96194673D01*
X208196214Y-96192070D01*
X208199225Y-96168026D01*
X208200122Y-96164795D01*
X208208330Y-96146277D01*
X208209947Y-96143651D01*
X208222922Y-96127807D01*
X208224777Y-96126001D01*
X208241517Y-96113035D01*
X208243460Y-96111819D01*
X208263222Y-96102043D01*
X208265060Y-96101323D01*
X208288553Y-96094377D01*
X208290003Y-96094048D01*
X208315072Y-96090051D01*
X208316274Y-96089924D01*
X208341221Y-96088600D01*
X208342559Y-96088607D01*
X208388746Y-96091542D01*
X208390363Y-96091761D01*
X208429918Y-96100002D01*
X208431669Y-96100514D01*
X208465702Y-96113489D01*
X208467476Y-96114347D01*
X208497770Y-96132334D01*
X208497771Y-96132334D01*
X208497771Y-96041848D01*
X208465605Y-96029567D01*
X208418017Y-96020840D01*
X208418006Y-96020839D01*
X208350011Y-96017442D01*
X208305940Y-96020202D01*
X208305936Y-96020202D01*
X208262732Y-96028468D01*
X208262719Y-96028472D01*
X208221855Y-96042513D01*
X208186477Y-96061937D01*
X208156238Y-96087431D01*
X208156235Y-96087435D01*
X208132451Y-96119041D01*
X208132448Y-96119046D01*
X208121237Y-96142918D01*
X208121234Y-96142927D01*
X208114304Y-96169883D01*
X208111892Y-96200555D01*
X208111892Y-96200563D01*
X208115337Y-96237184D01*
X208115339Y-96237194D01*
X208125015Y-96267274D01*
X208125015Y-96267275D01*
X208140569Y-96294131D01*
X208161133Y-96318179D01*
X208185696Y-96339357D01*
X208185713Y-96339370D01*
X208215157Y-96359295D01*
X208282152Y-96396106D01*
X208345219Y-96428703D01*
X208345711Y-96428972D01*
X208373108Y-96444870D01*
X208373989Y-96445437D01*
X208395755Y-96460875D01*
X208396948Y-96461847D01*
X208415092Y-96478778D01*
X208416508Y-96480370D01*
X208429279Y-96497723D01*
X208430645Y-96500146D01*
X208438562Y-96519301D01*
X208439352Y-96522323D01*
X208442161Y-96545715D01*
X208442146Y-96548580D01*
X208438247Y-96578340D01*
X208437265Y-96581710D01*
X208426647Y-96604459D01*
X208424514Y-96607568D01*
X208406943Y-96625833D01*
X208404234Y-96627916D01*
X208381021Y-96640795D01*
X208378438Y-96641842D01*
X208344950Y-96650880D01*
X208342812Y-96651245D01*
X208296009Y-96654745D01*
X208294085Y-96654728D01*
X208249047Y-96650537D01*
X208247362Y-96650252D01*
X208198561Y-96638227D01*
X208196915Y-96637687D01*
X208150646Y-96618542D01*
X208149188Y-96617814D01*
X208129060Y-96605908D01*
X208127841Y-96605077D01*
X208110952Y-96591900D01*
X208033174Y-96591900D01*
X208033174Y-95951164D01*
X208036542Y-95943032D01*
X208044674Y-95939664D01*
X209731439Y-95939664D01*
X209739571Y-95943032D01*
G37*
G36*
X214376970Y-93436365D02*
G01*
X214378619Y-93444508D01*
X214376021Y-93459660D01*
X214375516Y-93483448D01*
X214376021Y-93507235D01*
X214384062Y-93554131D01*
X214399911Y-93598986D01*
X214423116Y-93640524D01*
X214424855Y-93642678D01*
X214427342Y-93651120D01*
X214423131Y-93658850D01*
X214415907Y-93661402D01*
X214234311Y-93661402D01*
X214226179Y-93658034D01*
X214222811Y-93649902D01*
X214222811Y-93590731D01*
X214222879Y-93589485D01*
X214225266Y-93567592D01*
X214225856Y-93565005D01*
X214232502Y-93546207D01*
X214234074Y-93543235D01*
X214261745Y-93505539D01*
X214263708Y-93503463D01*
X214308377Y-93466711D01*
X214309484Y-93465906D01*
X214361084Y-93432879D01*
X214369749Y-93431332D01*
X214376970Y-93436365D01*
G37*
G36*
X214728718Y-90933108D02*
G01*
X214821722Y-91026112D01*
X214825090Y-91034244D01*
X214825090Y-91681658D01*
X214821722Y-91689790D01*
X214813590Y-91693158D01*
X214807606Y-91691207D01*
X214807489Y-91691398D01*
X214807074Y-91691143D01*
X214764588Y-91669722D01*
X214719095Y-91655789D01*
X214683039Y-91651172D01*
X214675401Y-91646798D01*
X214673000Y-91639765D01*
X214673000Y-91398371D01*
X214672999Y-91398370D01*
X213723160Y-91398370D01*
X213715028Y-91395002D01*
X213711660Y-91386870D01*
X213711660Y-91063074D01*
X213711659Y-91063073D01*
X213495945Y-91063073D01*
X213495944Y-91063074D01*
X213495944Y-91997594D01*
X213495945Y-91997595D01*
X213711659Y-91997595D01*
X213711660Y-91997594D01*
X213711660Y-91675484D01*
X213715028Y-91667352D01*
X213723160Y-91663984D01*
X214518350Y-91663984D01*
X214526482Y-91667352D01*
X214529850Y-91675484D01*
X214526482Y-91683616D01*
X214524380Y-91685276D01*
X214493206Y-91704471D01*
X214457482Y-91735911D01*
X214427599Y-91772923D01*
X214404394Y-91814461D01*
X214388545Y-91859316D01*
X214380504Y-91906212D01*
X214379999Y-91930000D01*
X214380504Y-91953787D01*
X214388545Y-92000683D01*
X214404394Y-92045538D01*
X214418050Y-92069983D01*
X214419075Y-92078725D01*
X214413619Y-92085632D01*
X214406300Y-92086964D01*
X214405863Y-92086898D01*
X214341220Y-92082372D01*
X214341209Y-92082372D01*
X214272740Y-92087989D01*
X214272730Y-92087991D01*
X214216367Y-92103692D01*
X214165652Y-92129717D01*
X214165651Y-92129717D01*
X214120890Y-92165169D01*
X214081827Y-92208637D01*
X214046011Y-92261513D01*
X214045995Y-92261538D01*
X214014400Y-92319921D01*
X214014392Y-92319936D01*
X213983338Y-92388176D01*
X213942218Y-92480242D01*
X213941632Y-92481380D01*
X213901503Y-92549650D01*
X213900350Y-92551272D01*
X213879498Y-92575794D01*
X213878063Y-92577209D01*
X213857936Y-92593841D01*
X213855494Y-92595387D01*
X213833650Y-92605635D01*
X213830359Y-92606613D01*
X213805544Y-92610084D01*
X213802418Y-92610092D01*
X213779430Y-92607000D01*
X213776256Y-92606096D01*
X213755987Y-92597004D01*
X213753419Y-92595418D01*
X213735463Y-92580752D01*
X213733632Y-92578869D01*
X213717469Y-92557915D01*
X213716290Y-92556036D01*
X213703529Y-92530525D01*
X213702833Y-92528796D01*
X213692471Y-92495489D01*
X213692113Y-92493992D01*
X213685911Y-92457350D01*
X213685765Y-92456026D01*
X213683558Y-92413453D01*
X213683571Y-92412057D01*
X213688307Y-92344254D01*
X213688504Y-92342791D01*
X213702930Y-92270951D01*
X213703352Y-92269413D01*
X213727910Y-92199315D01*
X213728660Y-92197623D01*
X213763244Y-92134029D01*
X213521663Y-92134029D01*
X213502193Y-92195726D01*
X213488105Y-92264814D01*
X213488103Y-92264827D01*
X213480097Y-92338258D01*
X213480096Y-92338260D01*
X213477187Y-92427488D01*
X213482308Y-92519412D01*
X213497264Y-92604594D01*
X213523415Y-92684229D01*
X213523418Y-92684236D01*
X213559909Y-92751716D01*
X213559911Y-92751718D01*
X213608405Y-92808670D01*
X213668424Y-92852174D01*
X213668426Y-92852175D01*
X213713764Y-92872155D01*
X213713765Y-92872156D01*
X213765877Y-92884645D01*
X213765882Y-92884646D01*
X213826114Y-92889032D01*
X213826117Y-92889032D01*
X213901745Y-92881218D01*
X213967652Y-92858641D01*
X213967653Y-92858641D01*
X214025930Y-92821399D01*
X214075499Y-92771862D01*
X214075507Y-92771852D01*
X214122272Y-92704630D01*
X214122279Y-92704619D01*
X214165946Y-92616028D01*
X214209191Y-92515756D01*
X214209663Y-92514790D01*
X214253121Y-92435370D01*
X214254184Y-92433762D01*
X214277572Y-92404150D01*
X214278956Y-92402684D01*
X214302464Y-92381784D01*
X214304858Y-92380145D01*
X214330658Y-92366917D01*
X214334176Y-92365781D01*
X214363387Y-92361340D01*
X214366536Y-92361297D01*
X214388331Y-92364008D01*
X214391203Y-92364751D01*
X214411335Y-92372849D01*
X214413936Y-92374312D01*
X214431754Y-92387653D01*
X214433776Y-92389594D01*
X214450234Y-92409789D01*
X214451529Y-92411762D01*
X214464556Y-92436897D01*
X214465293Y-92438667D01*
X214476083Y-92472207D01*
X214476472Y-92473793D01*
X214482873Y-92511280D01*
X214483022Y-92512638D01*
X214485380Y-92559528D01*
X214485349Y-92561129D01*
X214477972Y-92643700D01*
X214477616Y-92645690D01*
X214455205Y-92728243D01*
X214454505Y-92730142D01*
X214417573Y-92808315D01*
X214416524Y-92810100D01*
X214363495Y-92884124D01*
X214626104Y-92884124D01*
X214654154Y-92816383D01*
X214675345Y-92732884D01*
X214675346Y-92732879D01*
X214687566Y-92644182D01*
X214687567Y-92644163D01*
X214691756Y-92548831D01*
X214687157Y-92455962D01*
X214687157Y-92455960D01*
X214673732Y-92369677D01*
X214649398Y-92288858D01*
X214616537Y-92225115D01*
X214615805Y-92216343D01*
X214621489Y-92209623D01*
X214627247Y-92208355D01*
X214671908Y-92210252D01*
X214719095Y-92204210D01*
X214764588Y-92190277D01*
X214807066Y-92168861D01*
X214807481Y-92168606D01*
X214807502Y-92168641D01*
X214807508Y-92168639D01*
X214807537Y-92168698D01*
X214807645Y-92168873D01*
X214815292Y-92166968D01*
X214822835Y-92171502D01*
X214825090Y-92178341D01*
X214825090Y-93238422D01*
X214821722Y-93246554D01*
X214813590Y-93249922D01*
X214806752Y-93247668D01*
X214802590Y-93244590D01*
X214760105Y-93223170D01*
X214714612Y-93209237D01*
X214683039Y-93205194D01*
X214675401Y-93200820D01*
X214673000Y-93193787D01*
X214673000Y-92940030D01*
X214672999Y-92940030D01*
X214325246Y-93162120D01*
X214269854Y-93200294D01*
X214216948Y-93244114D01*
X214173939Y-93291664D01*
X214173936Y-93291668D01*
X214157852Y-93317043D01*
X214156885Y-93319372D01*
X214150654Y-93325588D01*
X214141852Y-93325577D01*
X214135636Y-93319346D01*
X214135446Y-93318855D01*
X214123217Y-93284903D01*
X214123215Y-93284900D01*
X214096343Y-93233930D01*
X214062816Y-93188420D01*
X214024095Y-93150690D01*
X214024093Y-93150688D01*
X213979753Y-93120230D01*
X213979736Y-93120220D01*
X213930015Y-93097422D01*
X213930002Y-93097417D01*
X213876229Y-93083364D01*
X213876222Y-93083363D01*
X213816293Y-93078516D01*
X213741156Y-93085213D01*
X213678949Y-93104030D01*
X213627092Y-93134025D01*
X213627090Y-93134026D01*
X213583812Y-93175583D01*
X213583807Y-93175589D01*
X213548297Y-93230385D01*
X213520809Y-93301209D01*
X213502626Y-93391757D01*
X213495944Y-93506442D01*
X213495944Y-93926136D01*
X213495945Y-93926137D01*
X214672999Y-93926137D01*
X214673000Y-93926136D01*
X214673000Y-93773107D01*
X214676368Y-93764975D01*
X214683040Y-93761700D01*
X214714611Y-93757658D01*
X214760105Y-93743725D01*
X214802583Y-93722309D01*
X214806751Y-93719227D01*
X214815292Y-93717100D01*
X214822836Y-93721634D01*
X214825090Y-93728473D01*
X214825090Y-93962668D01*
X214821722Y-93970800D01*
X214736420Y-94056102D01*
X214728288Y-94059470D01*
X213355354Y-94059470D01*
X213347222Y-94056102D01*
X213343854Y-94047970D01*
X213343854Y-90941240D01*
X213347222Y-90933108D01*
X213355354Y-90929740D01*
X214720586Y-90929740D01*
X214728718Y-90933108D01*
G37*
M02*
