%TF.GenerationSoftware,KiCad,Pcbnew,9.0.8*%
%TF.CreationDate,2026-03-26T18:30:07+00:00*%
%TF.ProjectId,azss,617a7373-2e6b-4696-9361-645f70636258,rev?*%
%TF.SameCoordinates,Original*%
%TF.FileFunction,Legend,Bot*%
%TF.FilePolarity,Positive*%
%FSLAX46Y46*%
G04 Gerber Fmt 4.6, Leading zero omitted, Abs format (unit mm)*
G04 Created by KiCad (PCBNEW 9.0.8) date 2026-03-26 18:30:07*
%MOMM*%
%LPD*%
G01*
G04 APERTURE LIST*
%ADD10C,0.125000*%
%ADD11C,0.100000*%
%ADD12C,0.200000*%
%ADD13C,0.160000*%
%ADD14C,0.120000*%
G04 APERTURE END LIST*
D10*
G36*
X212651158Y-87697256D02*
G01*
X212575789Y-87621887D01*
X212076876Y-87850273D01*
X212305297Y-87351395D01*
X212229928Y-87276027D01*
X211958953Y-87871620D01*
X212055564Y-87968231D01*
X212651158Y-87697256D01*
G37*
G36*
X211740929Y-87520958D02*
G01*
X211613403Y-87393432D01*
X212053319Y-86953516D01*
X212163333Y-87121006D01*
X212234073Y-87050266D01*
X212124854Y-86883570D01*
X212046791Y-86805507D01*
X211536135Y-87316163D01*
X211408609Y-87188638D01*
X211342290Y-87254957D01*
X211674610Y-87587277D01*
X211740929Y-87520958D01*
G37*
G36*
X211281946Y-87000077D02*
G01*
X211200395Y-86918526D01*
X211103127Y-87015794D01*
X211184678Y-87097345D01*
X211281946Y-87000077D01*
G37*
G36*
X210985998Y-86766027D02*
G01*
X210858472Y-86638501D01*
X211298388Y-86198584D01*
X211408401Y-86366074D01*
X211479142Y-86295334D01*
X211369923Y-86128639D01*
X211291860Y-86050576D01*
X210781203Y-86561232D01*
X210653677Y-86433706D01*
X210587358Y-86500025D01*
X210919679Y-86832346D01*
X210985998Y-86766027D01*
G37*
G36*
X210723014Y-85515132D02*
G01*
X210767141Y-85528969D01*
X210809540Y-85552673D01*
X210850838Y-85587448D01*
X210885612Y-85628745D01*
X210909321Y-85671147D01*
X210923165Y-85715281D01*
X210927595Y-85762028D01*
X210922269Y-85812449D01*
X210904267Y-85871925D01*
X210871670Y-85936616D01*
X210821614Y-86007785D01*
X210750496Y-86086602D01*
X210671919Y-86157489D01*
X210600884Y-86207427D01*
X210536234Y-86239983D01*
X210476723Y-86257995D01*
X210426318Y-86263308D01*
X210379582Y-86258870D01*
X210335454Y-86245020D01*
X210293054Y-86221307D01*
X210251756Y-86186530D01*
X210216979Y-86145230D01*
X210193270Y-86102834D01*
X210179428Y-86058713D01*
X210175660Y-86018952D01*
X210272990Y-86018952D01*
X210275629Y-86057711D01*
X210288921Y-86092473D01*
X210313654Y-86124632D01*
X210345602Y-86149175D01*
X210380233Y-86162368D01*
X210418944Y-86164964D01*
X210463632Y-86155926D01*
X210504932Y-86138588D01*
X210552623Y-86110006D01*
X210607917Y-86067551D01*
X210672053Y-86008159D01*
X210731679Y-85943782D01*
X210774253Y-85888358D01*
X210802874Y-85840627D01*
X210820200Y-85799358D01*
X210829254Y-85754650D01*
X210826667Y-85715928D01*
X210813480Y-85681293D01*
X210788940Y-85649346D01*
X210756782Y-85624616D01*
X210722016Y-85611330D01*
X210683246Y-85608700D01*
X210638583Y-85617740D01*
X210597298Y-85635054D01*
X210549555Y-85663665D01*
X210494124Y-85706232D01*
X210429747Y-85765853D01*
X210370359Y-85829990D01*
X210327912Y-85885290D01*
X210299340Y-85932992D01*
X210282014Y-85974309D01*
X210272990Y-86018952D01*
X210175660Y-86018952D01*
X210175000Y-86011988D01*
X210180325Y-85961598D01*
X210198324Y-85902069D01*
X210230871Y-85837408D01*
X210280801Y-85766367D01*
X210351684Y-85687790D01*
X210430501Y-85616676D01*
X210501675Y-85566628D01*
X210566378Y-85534041D01*
X210625872Y-85516051D01*
X210676278Y-85510713D01*
X210723014Y-85515132D01*
G37*
D11*
X193560000Y-81805000D02*
X201350000Y-81800000D01*
D12*
X198880000Y-85200000D02*
X195510000Y-85220000D01*
D11*
X200250000Y-82400000D02*
X201350000Y-82400000D01*
X200250000Y-84800000D02*
X200250000Y-82400000D01*
X201350000Y-82400000D02*
X201350000Y-81800000D01*
X207350000Y-81800000D02*
X215380000Y-81805000D01*
X207350000Y-82400000D02*
X207350000Y-81800000D01*
X207350000Y-82400000D02*
X208450000Y-82400000D01*
X208450000Y-82400000D02*
X208450000Y-84800000D01*
X208450000Y-84800000D02*
X200250000Y-84800000D01*
D10*
G36*
X209545301Y-109031267D02*
G01*
X209602126Y-109044615D01*
X209652802Y-109066180D01*
X209698256Y-109095986D01*
X209739129Y-109134566D01*
X209772797Y-109178948D01*
X209799427Y-109229153D01*
X209819068Y-109286007D01*
X209831393Y-109350559D01*
X209835712Y-109424040D01*
X209831391Y-109497509D01*
X209819063Y-109562023D01*
X209799420Y-109618818D01*
X209772791Y-109668947D01*
X209739129Y-109713239D01*
X209698271Y-109751709D01*
X209652824Y-109781439D01*
X209602149Y-109802954D01*
X209545316Y-109816273D01*
X209481163Y-109820904D01*
X209417243Y-109816266D01*
X209360602Y-109802926D01*
X209310079Y-109781366D01*
X209264748Y-109751559D01*
X209223975Y-109712964D01*
X209190393Y-109668586D01*
X209163835Y-109618430D01*
X209144253Y-109561675D01*
X209131970Y-109497285D01*
X209127667Y-109424040D01*
X209236798Y-109424040D01*
X209241472Y-109496576D01*
X209254577Y-109557571D01*
X209275117Y-109608886D01*
X209302652Y-109652056D01*
X209338569Y-109688807D01*
X209379524Y-109714634D01*
X209426528Y-109730411D01*
X209481163Y-109735908D01*
X209535820Y-109730419D01*
X209582941Y-109714649D01*
X209624091Y-109688821D01*
X209660269Y-109652056D01*
X209688010Y-109608857D01*
X209708690Y-109557531D01*
X209721878Y-109496546D01*
X209726581Y-109424040D01*
X209721871Y-109351230D01*
X209708672Y-109290068D01*
X209687990Y-109238667D01*
X209660269Y-109195474D01*
X209624091Y-109158709D01*
X209582941Y-109132881D01*
X209535820Y-109117112D01*
X209481163Y-109111623D01*
X209426528Y-109117119D01*
X209379524Y-109132897D01*
X209338569Y-109158723D01*
X209302652Y-109195474D01*
X209275136Y-109238638D01*
X209254594Y-109290028D01*
X209241479Y-109351201D01*
X209236798Y-109424040D01*
X209127667Y-109424040D01*
X209131975Y-109350544D01*
X209144269Y-109285984D01*
X209163858Y-109229130D01*
X209190412Y-109178934D01*
X209223975Y-109134566D01*
X209264748Y-109095972D01*
X209310079Y-109066164D01*
X209360602Y-109044605D01*
X209417243Y-109031264D01*
X209481163Y-109026626D01*
X209545301Y-109031267D01*
G37*
G36*
X208965871Y-109041281D02*
G01*
X208862373Y-109041281D01*
X208862373Y-109354889D01*
X208486346Y-109354889D01*
X208486346Y-109041281D01*
X208382848Y-109041281D01*
X208382848Y-109806250D01*
X208486346Y-109806250D01*
X208486346Y-109442816D01*
X208862373Y-109442816D01*
X208862373Y-109806250D01*
X208965871Y-109806250D01*
X208965871Y-109041281D01*
G37*
G36*
X208176723Y-109041281D02*
G01*
X208073225Y-109041281D01*
X208073225Y-109718322D01*
X207700770Y-109718322D01*
X207700770Y-109806250D01*
X208176723Y-109806250D01*
X208176723Y-109041281D01*
G37*
G36*
X210343088Y-108158781D02*
G01*
X209695997Y-108158781D01*
X209695997Y-108246708D01*
X209967564Y-108246708D01*
X209967564Y-108923750D01*
X210071566Y-108923750D01*
X210071566Y-108246708D01*
X210343088Y-108246708D01*
X210343088Y-108158781D01*
G37*
G36*
X209772017Y-108923750D02*
G01*
X209662887Y-108923750D01*
X209593232Y-108727378D01*
X209248391Y-108727378D01*
X209178736Y-108923750D01*
X209071117Y-108923750D01*
X209178348Y-108642382D01*
X209280677Y-108642382D01*
X209561953Y-108642382D01*
X209421590Y-108260951D01*
X209280677Y-108642382D01*
X209178348Y-108642382D01*
X209362651Y-108158781D01*
X209479979Y-108158781D01*
X209772017Y-108923750D01*
G37*
G36*
X208959147Y-108923750D02*
G01*
X208855649Y-108923750D01*
X208855649Y-108616004D01*
X208725544Y-108616004D01*
X208660451Y-108611755D01*
X208607761Y-108600041D01*
X208565259Y-108582000D01*
X208531142Y-108558164D01*
X208503291Y-108527146D01*
X208482884Y-108489336D01*
X208469930Y-108443309D01*
X208465288Y-108387117D01*
X208574373Y-108387117D01*
X208579193Y-108431567D01*
X208592550Y-108466332D01*
X208613848Y-108493638D01*
X208642307Y-108513657D01*
X208678769Y-108526384D01*
X208725544Y-108531007D01*
X208855649Y-108531007D01*
X208855649Y-108243777D01*
X208725544Y-108243777D01*
X208678769Y-108248401D01*
X208642307Y-108261128D01*
X208613848Y-108281147D01*
X208592525Y-108308440D01*
X208579180Y-108343040D01*
X208574373Y-108387117D01*
X208465288Y-108387117D01*
X208469909Y-108331509D01*
X208482832Y-108285772D01*
X208503237Y-108248026D01*
X208531142Y-108216895D01*
X208565278Y-108192935D01*
X208607787Y-108174811D01*
X208660471Y-108163047D01*
X208725544Y-108158781D01*
X208959147Y-108158781D01*
X208959147Y-108923750D01*
G37*
G36*
X208326069Y-108923750D02*
G01*
X208222571Y-108923750D01*
X208222571Y-108601349D01*
X208109869Y-108601349D01*
X208069545Y-108604497D01*
X208037778Y-108613117D01*
X208012828Y-108626399D01*
X207991664Y-108645585D01*
X207967329Y-108677939D01*
X207939280Y-108728065D01*
X207841415Y-108923750D01*
X207730224Y-108923750D01*
X207835279Y-108715288D01*
X207868641Y-108655186D01*
X207898568Y-108614126D01*
X207931871Y-108582705D01*
X207963369Y-108566041D01*
X207923117Y-108549951D01*
X207891014Y-108527906D01*
X207865778Y-108499774D01*
X207847625Y-108466421D01*
X207836245Y-108426848D01*
X207832210Y-108379607D01*
X207832214Y-108379561D01*
X207941295Y-108379561D01*
X207946005Y-108422847D01*
X207958959Y-108456084D01*
X207979489Y-108481639D01*
X208006995Y-108499984D01*
X208043727Y-108511931D01*
X208092466Y-108516352D01*
X208222571Y-108516352D01*
X208222571Y-108243777D01*
X208092466Y-108243777D01*
X208043683Y-108248143D01*
X208006953Y-108259928D01*
X207979489Y-108277987D01*
X207958978Y-108303238D01*
X207946017Y-108336287D01*
X207941295Y-108379561D01*
X207832214Y-108379561D01*
X207836790Y-108324495D01*
X207849528Y-108279733D01*
X207869532Y-108243302D01*
X207896782Y-108213736D01*
X207930064Y-108191323D01*
X207972351Y-108174158D01*
X208025668Y-108162897D01*
X208092466Y-108158781D01*
X208326069Y-108158781D01*
X208326069Y-108923750D01*
G37*
G36*
X212472710Y-91631638D02*
G01*
X212472710Y-91523515D01*
X212343750Y-91523515D01*
X212343750Y-91631638D01*
X212472710Y-91631638D01*
G37*
G36*
X212701991Y-90830832D02*
G01*
X212761376Y-90844747D01*
X212811109Y-90866605D01*
X212852767Y-90896071D01*
X212887309Y-90933760D01*
X212912074Y-90977607D01*
X212927452Y-91028836D01*
X212932863Y-91089190D01*
X212927439Y-91149845D01*
X212912042Y-91201207D01*
X212887276Y-91245054D01*
X212852767Y-91282631D01*
X212811126Y-91311971D01*
X212761400Y-91333745D01*
X212702009Y-91347611D01*
X212630979Y-91352560D01*
X212560235Y-91347622D01*
X212500954Y-91333772D01*
X212451198Y-91311999D01*
X212409420Y-91282631D01*
X212374802Y-91245039D01*
X212349967Y-91201187D01*
X212334532Y-91149830D01*
X212329095Y-91089190D01*
X212408230Y-91089190D01*
X212412104Y-91126025D01*
X212423241Y-91157661D01*
X212441546Y-91185212D01*
X212467764Y-91209358D01*
X212498232Y-91227532D01*
X212534788Y-91241209D01*
X212578581Y-91249992D01*
X212630979Y-91253138D01*
X212683361Y-91249974D01*
X212727140Y-91241139D01*
X212763686Y-91227378D01*
X212794149Y-91209083D01*
X212820425Y-91184824D01*
X212838741Y-91157268D01*
X212849865Y-91125753D01*
X212853729Y-91089190D01*
X212849851Y-91052952D01*
X212838666Y-91021627D01*
X212820203Y-90994140D01*
X212793645Y-90969847D01*
X212762923Y-90951501D01*
X212726331Y-90937743D01*
X212682782Y-90928937D01*
X212630979Y-90925792D01*
X212578888Y-90928946D01*
X212535219Y-90937766D01*
X212498642Y-90951526D01*
X212468039Y-90969847D01*
X212441617Y-90994123D01*
X212423236Y-91021604D01*
X212412094Y-91052935D01*
X212408230Y-91089190D01*
X212329095Y-91089190D01*
X212334519Y-91028851D01*
X212349935Y-90977628D01*
X212374768Y-90933774D01*
X212409420Y-90896071D01*
X212451216Y-90866577D01*
X212500978Y-90844720D01*
X212560253Y-90830821D01*
X212630979Y-90825866D01*
X212701991Y-90830832D01*
G37*
G36*
X212830281Y-90337182D02*
G01*
X212843562Y-90371758D01*
X212847867Y-90413019D01*
X212844318Y-90452295D01*
X212834305Y-90485051D01*
X212818284Y-90512561D01*
X212796026Y-90535706D01*
X212769316Y-90553377D01*
X212736491Y-90566726D01*
X212696292Y-90575361D01*
X212647191Y-90578479D01*
X212343750Y-90578479D01*
X212343750Y-90673275D01*
X212918209Y-90673275D01*
X212918209Y-90578479D01*
X212830281Y-90578479D01*
X212862604Y-90556184D01*
X212888116Y-90530482D01*
X212907584Y-90501130D01*
X212921207Y-90468422D01*
X212929816Y-90430186D01*
X212932863Y-90385359D01*
X212931398Y-90363835D01*
X212927001Y-90337686D01*
X212830281Y-90337182D01*
G37*
G36*
X212918209Y-89879593D02*
G01*
X212833212Y-89879593D01*
X212864384Y-89901382D01*
X212889103Y-89926256D01*
X212908088Y-89954423D01*
X212921500Y-89985707D01*
X212929906Y-90021763D01*
X212932863Y-90063508D01*
X212927650Y-90114536D01*
X212912587Y-90159062D01*
X212887758Y-90198470D01*
X212852217Y-90233638D01*
X212810562Y-90260840D01*
X212761886Y-90280944D01*
X212704904Y-90293660D01*
X212638032Y-90298164D01*
X212571461Y-90293667D01*
X212514656Y-90280963D01*
X212466057Y-90260860D01*
X212424395Y-90233638D01*
X212388854Y-90198470D01*
X212364026Y-90159062D01*
X212348963Y-90114536D01*
X212343750Y-90063508D01*
X212345381Y-90040473D01*
X212422884Y-90040473D01*
X212426614Y-90077218D01*
X212437273Y-90108449D01*
X212454655Y-90135314D01*
X212479350Y-90158534D01*
X212508246Y-90175976D01*
X212543456Y-90189186D01*
X212586225Y-90197726D01*
X212638032Y-90200803D01*
X212690147Y-90197719D01*
X212733083Y-90189168D01*
X212768350Y-90175957D01*
X212797217Y-90158534D01*
X212821934Y-90135311D01*
X212839330Y-90108445D01*
X212849996Y-90077215D01*
X212853729Y-90040473D01*
X212849986Y-90003436D01*
X212839303Y-89972028D01*
X212821904Y-89945082D01*
X212797217Y-89921862D01*
X212768350Y-89904439D01*
X212733083Y-89891228D01*
X212690147Y-89882677D01*
X212638032Y-89879593D01*
X212586225Y-89882670D01*
X212543456Y-89891210D01*
X212508246Y-89904419D01*
X212479350Y-89921862D01*
X212454685Y-89945079D01*
X212437300Y-89972024D01*
X212426625Y-90003433D01*
X212422884Y-90040473D01*
X212345381Y-90040473D01*
X212346706Y-90021763D01*
X212355113Y-89985707D01*
X212368525Y-89954423D01*
X212387510Y-89926256D01*
X212412229Y-89901382D01*
X212443401Y-89879593D01*
X212398200Y-89879593D01*
X212349425Y-89882978D01*
X212310226Y-89892298D01*
X212278824Y-89906659D01*
X212253807Y-89925709D01*
X212233889Y-89950092D01*
X212219028Y-89980426D01*
X212209458Y-90018007D01*
X212205997Y-90064515D01*
X212208689Y-90106144D01*
X212216758Y-90146993D01*
X212230170Y-90187117D01*
X212249960Y-90228967D01*
X212159102Y-90228967D01*
X212144830Y-90186852D01*
X212134784Y-90143421D01*
X212128895Y-90098573D01*
X212126862Y-90049678D01*
X212132021Y-89982429D01*
X212146265Y-89928391D01*
X212168378Y-89885018D01*
X212198074Y-89850375D01*
X212235080Y-89823706D01*
X212282019Y-89803409D01*
X212341133Y-89790142D01*
X212415191Y-89785300D01*
X212918209Y-89785300D01*
X212918209Y-89879593D01*
G37*
G36*
X213964840Y-91654910D02*
G01*
X213800709Y-91654910D01*
X213800709Y-91460737D01*
X213727436Y-91460737D01*
X213727436Y-91654910D01*
X213415660Y-91654910D01*
X213368424Y-91651980D01*
X213340507Y-91644949D01*
X213325397Y-91635722D01*
X213315473Y-91621228D01*
X213308288Y-91596687D01*
X213305384Y-91557549D01*
X213305384Y-91460737D01*
X213226250Y-91460737D01*
X213226250Y-91557549D01*
X213229546Y-91614123D01*
X213238264Y-91656066D01*
X213251023Y-91686550D01*
X213267053Y-91708170D01*
X213288418Y-91724516D01*
X213318507Y-91737480D01*
X213359875Y-91746320D01*
X213415660Y-91749661D01*
X213727436Y-91749661D01*
X213727436Y-91818858D01*
X213800709Y-91818858D01*
X213800709Y-91749661D01*
X213964840Y-91749661D01*
X213964840Y-91654910D01*
G37*
G36*
X213621359Y-90892825D02*
G01*
X213674538Y-90905283D01*
X213717033Y-90924444D01*
X213750792Y-90949796D01*
X213777690Y-90982343D01*
X213797756Y-91022925D01*
X213810684Y-91073305D01*
X213815363Y-91135772D01*
X213813025Y-91182066D01*
X213805838Y-91230523D01*
X213794122Y-91279296D01*
X213777261Y-91330953D01*
X213689334Y-91330953D01*
X213709891Y-91286907D01*
X213724505Y-91241285D01*
X213733282Y-91194155D01*
X213736229Y-91145481D01*
X213731739Y-91095043D01*
X213719450Y-91055798D01*
X213700371Y-91025313D01*
X213673806Y-91001948D01*
X213640697Y-90987634D01*
X213599025Y-90982540D01*
X213589683Y-90982540D01*
X213589683Y-91114706D01*
X213585971Y-91180467D01*
X213575815Y-91233158D01*
X213560379Y-91275071D01*
X213540361Y-91308146D01*
X213513365Y-91335978D01*
X213480813Y-91355976D01*
X213441572Y-91368494D01*
X213393953Y-91372947D01*
X213352997Y-91369441D01*
X213317878Y-91359450D01*
X213287520Y-91343355D01*
X213261146Y-91320969D01*
X213240032Y-91293623D01*
X213224648Y-91261774D01*
X213215001Y-91224556D01*
X213211595Y-91180835D01*
X213213255Y-91155693D01*
X213290730Y-91155693D01*
X213294345Y-91192522D01*
X213304399Y-91221973D01*
X213320359Y-91245636D01*
X213342044Y-91263747D01*
X213368284Y-91274769D01*
X213400456Y-91278654D01*
X213431461Y-91275556D01*
X213455861Y-91266990D01*
X213475115Y-91253449D01*
X213490123Y-91234599D01*
X213503049Y-91203522D01*
X213512585Y-91153236D01*
X213516410Y-91076284D01*
X213516410Y-90982540D01*
X213495298Y-90982540D01*
X213449015Y-90985826D01*
X213409518Y-90995121D01*
X213375691Y-91009871D01*
X213346646Y-91029939D01*
X213322205Y-91055543D01*
X213304955Y-91084526D01*
X213294401Y-91117568D01*
X213290730Y-91155693D01*
X213213255Y-91155693D01*
X213214628Y-91134900D01*
X213223162Y-91096001D01*
X213236599Y-91063003D01*
X213255910Y-91033182D01*
X213281500Y-91006431D01*
X213314177Y-90982540D01*
X213226250Y-90982540D01*
X213226250Y-90888293D01*
X213555061Y-90888293D01*
X213621359Y-90892825D01*
G37*
G36*
X213581329Y-90188502D02*
G01*
X213639419Y-90201356D01*
X213689290Y-90221719D01*
X213732199Y-90249308D01*
X213769062Y-90284989D01*
X213794637Y-90324545D01*
X213810053Y-90368806D01*
X213815363Y-90419118D01*
X213812436Y-90460534D01*
X213804109Y-90496351D01*
X213790817Y-90527470D01*
X213771999Y-90555454D01*
X213747226Y-90580412D01*
X213715712Y-90602529D01*
X213800709Y-90602529D01*
X213800709Y-90697326D01*
X213009362Y-90697326D01*
X213009362Y-90602529D01*
X213311246Y-90602529D01*
X213279729Y-90580414D01*
X213254940Y-90555456D01*
X213236096Y-90527470D01*
X213222829Y-90496353D01*
X213214517Y-90460536D01*
X213213220Y-90442153D01*
X213290730Y-90442153D01*
X213294576Y-90478201D01*
X213305638Y-90509154D01*
X213323848Y-90536120D01*
X213349989Y-90559756D01*
X213380251Y-90577455D01*
X213416758Y-90590824D01*
X213460699Y-90599437D01*
X213513479Y-90602529D01*
X213566261Y-90599436D01*
X213610193Y-90590822D01*
X213646683Y-90577453D01*
X213676923Y-90559756D01*
X213703087Y-90536117D01*
X213721310Y-90509150D01*
X213732380Y-90478198D01*
X213736229Y-90442153D01*
X213732381Y-90406132D01*
X213721313Y-90375195D01*
X213703090Y-90348235D01*
X213676923Y-90324596D01*
X213646683Y-90306898D01*
X213610193Y-90293529D01*
X213566261Y-90284916D01*
X213513479Y-90281823D01*
X213460699Y-90284915D01*
X213416758Y-90293528D01*
X213380251Y-90306897D01*
X213349989Y-90324596D01*
X213323846Y-90348232D01*
X213305636Y-90375191D01*
X213294575Y-90406130D01*
X213290730Y-90442153D01*
X213213220Y-90442153D01*
X213211595Y-90419118D01*
X213216905Y-90368806D01*
X213232321Y-90324545D01*
X213257896Y-90284989D01*
X213294760Y-90249308D01*
X213337668Y-90221719D01*
X213387539Y-90201356D01*
X213445629Y-90188502D01*
X213513479Y-90183958D01*
X213581329Y-90188502D01*
G37*
G36*
X213712781Y-89695182D02*
G01*
X213726062Y-89729758D01*
X213730367Y-89771019D01*
X213726818Y-89810295D01*
X213716805Y-89843051D01*
X213700784Y-89870561D01*
X213678526Y-89893706D01*
X213651816Y-89911377D01*
X213618991Y-89924726D01*
X213578792Y-89933361D01*
X213529691Y-89936479D01*
X213226250Y-89936479D01*
X213226250Y-90031275D01*
X213800709Y-90031275D01*
X213800709Y-89936479D01*
X213712781Y-89936479D01*
X213745104Y-89914184D01*
X213770616Y-89888482D01*
X213790084Y-89859130D01*
X213803707Y-89826423D01*
X213812316Y-89788186D01*
X213815363Y-89743359D01*
X213813898Y-89721835D01*
X213809501Y-89695686D01*
X213712781Y-89695182D01*
G37*
D13*
G36*
X212848595Y-86149530D02*
G01*
X212901130Y-86171624D01*
X212956619Y-86207437D01*
X213015885Y-86259601D01*
X213262820Y-86506536D01*
X212685845Y-87083512D01*
X212537076Y-86934743D01*
X212738244Y-86733575D01*
X212640078Y-86635409D01*
X212587909Y-86576143D01*
X212552089Y-86520659D01*
X212529985Y-86468136D01*
X212527385Y-86455312D01*
X212718210Y-86455312D01*
X212724015Y-86483272D01*
X212738711Y-86512200D01*
X212764253Y-86542943D01*
X212846565Y-86625254D01*
X213005730Y-86466088D01*
X212923419Y-86383777D01*
X212892681Y-86358202D01*
X212863809Y-86343451D01*
X212835960Y-86337561D01*
X212807958Y-86339937D01*
X212780845Y-86351182D01*
X212753614Y-86372724D01*
X212732040Y-86399979D01*
X212720706Y-86427177D01*
X212718210Y-86455312D01*
X212527385Y-86455312D01*
X212519736Y-86417593D01*
X212520801Y-86365895D01*
X212533881Y-86316394D01*
X212559696Y-86267834D01*
X212600183Y-86219292D01*
X212648494Y-86179023D01*
X212696903Y-86153337D01*
X212746332Y-86140326D01*
X212798034Y-86139295D01*
X212848595Y-86149530D01*
G37*
G36*
X211680075Y-86013634D02*
G01*
X211703213Y-86074267D01*
X211733269Y-86131281D01*
X211770227Y-86184488D01*
X211815097Y-86234870D01*
X211876880Y-86289467D01*
X211938122Y-86330205D01*
X211999293Y-86358672D01*
X212061029Y-86375963D01*
X212124102Y-86382637D01*
X212187609Y-86378619D01*
X212248881Y-86363813D01*
X212308778Y-86337868D01*
X212368002Y-86299825D01*
X212427062Y-86248168D01*
X212478903Y-86188915D01*
X212517060Y-86129557D01*
X212543067Y-86069586D01*
X212557896Y-86008296D01*
X212561911Y-85944828D01*
X212555249Y-85881740D01*
X212537966Y-85819993D01*
X212509505Y-85758816D01*
X212468773Y-85697571D01*
X212414178Y-85635788D01*
X212363797Y-85590918D01*
X212310590Y-85553960D01*
X212253576Y-85523904D01*
X212192942Y-85500767D01*
X212072463Y-85621246D01*
X212139645Y-85637955D01*
X212195947Y-85660865D01*
X212246895Y-85691891D01*
X212293872Y-85732123D01*
X212329558Y-85774711D01*
X212352980Y-85817734D01*
X212365646Y-85861923D01*
X212368135Y-85908283D01*
X212360765Y-85954042D01*
X212343377Y-85999804D01*
X212314822Y-86046370D01*
X212273251Y-86094357D01*
X212225497Y-86135706D01*
X212179074Y-86164136D01*
X212133370Y-86181468D01*
X212087592Y-86188827D01*
X212041231Y-86186338D01*
X211997043Y-86173671D01*
X211954020Y-86150249D01*
X211911432Y-86114563D01*
X211871200Y-86067586D01*
X211840174Y-86016639D01*
X211817264Y-85960336D01*
X211800555Y-85893154D01*
X211680075Y-86013634D01*
G37*
G36*
X211667917Y-84984307D02*
G01*
X211709214Y-84997057D01*
X211757020Y-85022018D01*
X211812869Y-85062372D01*
X211878307Y-85122023D01*
X212101685Y-85345401D01*
X211524709Y-85922376D01*
X211277774Y-85675441D01*
X211221693Y-85613096D01*
X211183280Y-85557654D01*
X211159281Y-85507998D01*
X211156671Y-85498314D01*
X211341676Y-85498314D01*
X211347962Y-85524334D01*
X211363336Y-85552755D01*
X211390275Y-85584564D01*
X211477630Y-85671918D01*
X211627953Y-85521595D01*
X211540598Y-85434241D01*
X211508519Y-85407015D01*
X211480102Y-85391550D01*
X211454314Y-85385261D01*
X211428312Y-85387079D01*
X211402549Y-85397692D01*
X211375975Y-85418766D01*
X211354411Y-85445902D01*
X211343562Y-85472061D01*
X211341676Y-85498314D01*
X211156671Y-85498314D01*
X211147140Y-85462944D01*
X211145489Y-85416120D01*
X211155591Y-85371212D01*
X211178115Y-85326871D01*
X211215117Y-85282087D01*
X211230851Y-85268892D01*
X211609370Y-85268892D01*
X211614269Y-85289986D01*
X211626312Y-85312641D01*
X211647330Y-85337594D01*
X211729642Y-85419906D01*
X211851227Y-85298321D01*
X211768915Y-85216010D01*
X211743957Y-85195032D01*
X211721234Y-85183055D01*
X211700006Y-85178256D01*
X211678623Y-85179947D01*
X211657762Y-85188569D01*
X211636623Y-85205302D01*
X211619652Y-85226707D01*
X211610991Y-85247629D01*
X211609370Y-85268892D01*
X211230851Y-85268892D01*
X211253723Y-85249711D01*
X211292919Y-85228256D01*
X211333351Y-85216424D01*
X211375213Y-85213957D01*
X211416729Y-85221348D01*
X211458943Y-85239221D01*
X211446973Y-85204172D01*
X211442720Y-85170744D01*
X211445644Y-85138188D01*
X211455449Y-85106917D01*
X211472462Y-85076592D01*
X211497629Y-85046758D01*
X211540658Y-85011265D01*
X211582621Y-84990268D01*
X211624579Y-84981532D01*
X211667917Y-84984307D01*
G37*
D14*
%TO.C,BT1*%
X200645000Y-86220000D02*
X196695000Y-87660000D01*
X200645000Y-107780000D02*
X196695000Y-106340000D01*
X201275000Y-86220000D02*
X200645000Y-86220000D01*
X201275000Y-107780000D02*
X200645000Y-107780000D01*
X209735000Y-86220000D02*
X207275000Y-86220000D01*
X209735000Y-107780000D02*
X207275000Y-107780000D01*
X211815000Y-88300000D02*
X209735000Y-86220000D01*
X211815000Y-88300000D02*
X211815000Y-91800000D01*
X211815000Y-102200000D02*
X211815000Y-105700000D01*
X211815000Y-105700000D02*
X209735000Y-107780000D01*
X195735273Y-90992084D02*
G75*
G02*
X195375000Y-89100000I1689727J1302084D01*
G01*
X196695000Y-106340000D02*
G75*
G02*
X195708470Y-103003354I730001J2030000D01*
G01*
%TD*%
G36*
X206446723Y-83258905D02*
G01*
X206450091Y-83267037D01*
X206450091Y-84162000D01*
X206446723Y-84170132D01*
X206438591Y-84173500D01*
X205870169Y-84173500D01*
X205862037Y-84170132D01*
X205858669Y-84162000D01*
X205858669Y-84079487D01*
X205862037Y-84071355D01*
X205870169Y-84067987D01*
X206325892Y-84067987D01*
X206325893Y-84067986D01*
X206325893Y-83737380D01*
X206325892Y-83737379D01*
X205900284Y-83737379D01*
X205892152Y-83734011D01*
X205888784Y-83725879D01*
X205888784Y-83643367D01*
X205892152Y-83635235D01*
X205900284Y-83631867D01*
X206325892Y-83631867D01*
X206325893Y-83631866D01*
X206325893Y-83361051D01*
X206325892Y-83361050D01*
X205881215Y-83361050D01*
X205873083Y-83357682D01*
X205869715Y-83349550D01*
X205869715Y-83267037D01*
X205873083Y-83258905D01*
X205881215Y-83255537D01*
X206438591Y-83255537D01*
X206446723Y-83258905D01*
G37*
G36*
X203611943Y-83258905D02*
G01*
X203615311Y-83267037D01*
X203615311Y-84162000D01*
X203611943Y-84170132D01*
X203603811Y-84173500D01*
X203055667Y-84173500D01*
X203047535Y-84170132D01*
X203044167Y-84162000D01*
X203044167Y-84079487D01*
X203047535Y-84071355D01*
X203055667Y-84067987D01*
X203491112Y-84067987D01*
X203491113Y-84067986D01*
X203491113Y-83267037D01*
X203494481Y-83258905D01*
X203502613Y-83255537D01*
X203603811Y-83255537D01*
X203611943Y-83258905D01*
G37*
G36*
X204182025Y-83243521D02*
G01*
X204183720Y-83243763D01*
X204255151Y-83259454D01*
X204256953Y-83260008D01*
X204319522Y-83285024D01*
X204321307Y-83285924D01*
X204376454Y-83320069D01*
X204378076Y-83321283D01*
X204426865Y-83365012D01*
X204428203Y-83366434D01*
X204468724Y-83417575D01*
X204469787Y-83419176D01*
X204501892Y-83477557D01*
X204502649Y-83479240D01*
X204526439Y-83546042D01*
X204526890Y-83547689D01*
X204541915Y-83624374D01*
X204542109Y-83625896D01*
X204547409Y-83714157D01*
X204547409Y-83715537D01*
X204542116Y-83803492D01*
X204541922Y-83805016D01*
X204526910Y-83881513D01*
X204526457Y-83883160D01*
X204502679Y-83949850D01*
X204501922Y-83951532D01*
X204469815Y-84009879D01*
X204468754Y-84011477D01*
X204428202Y-84062658D01*
X204426862Y-84064081D01*
X204378081Y-84107785D01*
X204376459Y-84108999D01*
X204321315Y-84143128D01*
X204319531Y-84144028D01*
X204256953Y-84169038D01*
X204255151Y-84169591D01*
X204183724Y-84185275D01*
X204182030Y-84185517D01*
X204100085Y-84191031D01*
X204098509Y-84191029D01*
X204020457Y-84185562D01*
X204018782Y-84185320D01*
X203946164Y-84169291D01*
X203944493Y-84168786D01*
X203875446Y-84142067D01*
X203873879Y-84141320D01*
X203813050Y-84106471D01*
X203807669Y-84099507D01*
X203807267Y-84096493D01*
X203807267Y-83997554D01*
X203810635Y-83989422D01*
X203818767Y-83986054D01*
X203826123Y-83988714D01*
X203850842Y-84009283D01*
X203850846Y-84009286D01*
X203895335Y-84038163D01*
X203940974Y-84060238D01*
X203989026Y-84076196D01*
X204039183Y-84085830D01*
X204091878Y-84089089D01*
X204091885Y-84089088D01*
X204155232Y-84084768D01*
X204155247Y-84084766D01*
X204209760Y-84072512D01*
X204209765Y-84072511D01*
X204256859Y-84053028D01*
X204297627Y-84026547D01*
X204297632Y-84026543D01*
X204332908Y-83992752D01*
X204367552Y-83942813D01*
X204367553Y-83942811D01*
X204393609Y-83881523D01*
X204393609Y-83881522D01*
X204410428Y-83806489D01*
X204416494Y-83714847D01*
X204410420Y-83622846D01*
X204410419Y-83622838D01*
X204393591Y-83547606D01*
X204393589Y-83547598D01*
X204367529Y-83486217D01*
X204332910Y-83436285D01*
X204297632Y-83402493D01*
X204297627Y-83402489D01*
X204256859Y-83376007D01*
X204209765Y-83356525D01*
X204209760Y-83356524D01*
X204155247Y-83344270D01*
X204155232Y-83344268D01*
X204091885Y-83339948D01*
X204091878Y-83339947D01*
X204039183Y-83343205D01*
X203989026Y-83352840D01*
X203940974Y-83368798D01*
X203895335Y-83390873D01*
X203850846Y-83419750D01*
X203850842Y-83419753D01*
X203826123Y-83440322D01*
X203817717Y-83442934D01*
X203809927Y-83438838D01*
X203807267Y-83431482D01*
X203807267Y-83332495D01*
X203810635Y-83324363D01*
X203812988Y-83322553D01*
X203872797Y-83287787D01*
X203874408Y-83287011D01*
X203943216Y-83260257D01*
X203944914Y-83259743D01*
X204017725Y-83243733D01*
X204019399Y-83243493D01*
X204098509Y-83238006D01*
X204100077Y-83238004D01*
X204182025Y-83243521D01*
G37*
G36*
X203275576Y-81732883D02*
G01*
X203277283Y-81735062D01*
X203311535Y-81791669D01*
X203311543Y-81791680D01*
X203361569Y-81853287D01*
X203361574Y-81853293D01*
X203422058Y-81911255D01*
X203425598Y-81919313D01*
X203425601Y-81919558D01*
X203425601Y-81944746D01*
X203422233Y-81952878D01*
X203414101Y-81956246D01*
X203408655Y-81954875D01*
X203343910Y-81920061D01*
X203342673Y-81919291D01*
X203291024Y-81882411D01*
X203291024Y-82546486D01*
X203287656Y-82554618D01*
X203279524Y-82557986D01*
X203243783Y-82557986D01*
X203235651Y-82554618D01*
X203232283Y-82546486D01*
X203232283Y-81882411D01*
X203180632Y-81919291D01*
X203179395Y-81920061D01*
X203114651Y-81954875D01*
X203105894Y-81955759D01*
X203099076Y-81950192D01*
X203097705Y-81944746D01*
X203097705Y-81919558D01*
X203101073Y-81911426D01*
X203101248Y-81911255D01*
X203161733Y-81853292D01*
X203161743Y-81853281D01*
X203211763Y-81791680D01*
X203211771Y-81791669D01*
X203246024Y-81735062D01*
X203253116Y-81729848D01*
X203255863Y-81729515D01*
X203267444Y-81729515D01*
X203275576Y-81732883D01*
G37*
G36*
X207538712Y-83258666D02*
G01*
X207947274Y-83643516D01*
X207947275Y-83643516D01*
X207947275Y-83267037D01*
X207950643Y-83258905D01*
X207958775Y-83255537D01*
X208059973Y-83255537D01*
X208068105Y-83258905D01*
X208071473Y-83267037D01*
X208071473Y-84162000D01*
X208068105Y-84170132D01*
X208059973Y-84173500D01*
X207958775Y-84173500D01*
X207950643Y-84170132D01*
X207947275Y-84162000D01*
X207947275Y-83731444D01*
X207947274Y-83731443D01*
X207509854Y-84170120D01*
X207501727Y-84173500D01*
X207370627Y-84173500D01*
X207362495Y-84170132D01*
X207359127Y-84162000D01*
X207362480Y-84153884D01*
X207831101Y-83683468D01*
X207396693Y-83275419D01*
X207393072Y-83267397D01*
X207396184Y-83259164D01*
X207404206Y-83255543D01*
X207404566Y-83255537D01*
X207530827Y-83255537D01*
X207538712Y-83258666D01*
G37*
G36*
X201252850Y-83258905D02*
G01*
X201256218Y-83267037D01*
X201256218Y-84162000D01*
X201252850Y-84170132D01*
X201244718Y-84173500D01*
X201143520Y-84173500D01*
X201135388Y-84170132D01*
X201132020Y-84162000D01*
X201132020Y-83786620D01*
X201132019Y-83786619D01*
X200996761Y-83786619D01*
X200948386Y-83790397D01*
X200910271Y-83800739D01*
X200910268Y-83800740D01*
X200880330Y-83816677D01*
X200880325Y-83816680D01*
X200854934Y-83839698D01*
X200825725Y-83878533D01*
X200825721Y-83878539D01*
X200792083Y-83938656D01*
X200792052Y-83938714D01*
X200677812Y-84167144D01*
X200671163Y-84172910D01*
X200667527Y-84173500D01*
X200559876Y-84173500D01*
X200551744Y-84170132D01*
X200548376Y-84162000D01*
X200549606Y-84156825D01*
X200667166Y-83923548D01*
X200667381Y-83923142D01*
X200706959Y-83851844D01*
X200707720Y-83850651D01*
X200742587Y-83802812D01*
X200743989Y-83801221D01*
X200782046Y-83765316D01*
X200784560Y-83763516D01*
X200820976Y-83744249D01*
X200820976Y-83744248D01*
X200773862Y-83725415D01*
X200771621Y-83724217D01*
X200735284Y-83699265D01*
X200733233Y-83697464D01*
X200704766Y-83665729D01*
X200703226Y-83663548D01*
X200682686Y-83625810D01*
X200681735Y-83623490D01*
X200668738Y-83578295D01*
X200668332Y-83576095D01*
X200663669Y-83521489D01*
X200663668Y-83520470D01*
X200794489Y-83520470D01*
X200800141Y-83572416D01*
X200815684Y-83612300D01*
X200815686Y-83612304D01*
X200840317Y-83642964D01*
X200840324Y-83642969D01*
X200873324Y-83664978D01*
X200873328Y-83664980D01*
X200917406Y-83679316D01*
X200917410Y-83679317D01*
X200975894Y-83684622D01*
X200975904Y-83684623D01*
X201132019Y-83684623D01*
X201132020Y-83684622D01*
X201132020Y-83357534D01*
X201132019Y-83357533D01*
X200975893Y-83357533D01*
X200917350Y-83362772D01*
X200873281Y-83376911D01*
X200873279Y-83376912D01*
X200840321Y-83398584D01*
X200840319Y-83398585D01*
X200815706Y-83428886D01*
X200800155Y-83468542D01*
X200794489Y-83520470D01*
X200663668Y-83520470D01*
X200663667Y-83519559D01*
X200668989Y-83455516D01*
X200669388Y-83453320D01*
X200684014Y-83401926D01*
X200684995Y-83399539D01*
X200707698Y-83358192D01*
X200709322Y-83355933D01*
X200740159Y-83322474D01*
X200742191Y-83320729D01*
X200780018Y-83295256D01*
X200782117Y-83294139D01*
X200830808Y-83274374D01*
X200832756Y-83273778D01*
X200894913Y-83260649D01*
X200896583Y-83260423D01*
X200975537Y-83255559D01*
X200976244Y-83255537D01*
X201244718Y-83255537D01*
X201252850Y-83258905D01*
G37*
G36*
X207242466Y-83258905D02*
G01*
X207245834Y-83267037D01*
X207245834Y-84162000D01*
X207242466Y-84170132D01*
X207234334Y-84173500D01*
X206665912Y-84173500D01*
X206657780Y-84170132D01*
X206654412Y-84162000D01*
X206654412Y-84079487D01*
X206657780Y-84071355D01*
X206665912Y-84067987D01*
X207121636Y-84067987D01*
X207121637Y-84067986D01*
X207121637Y-83737380D01*
X207121636Y-83737379D01*
X206696027Y-83737379D01*
X206687895Y-83734011D01*
X206684527Y-83725879D01*
X206684527Y-83643367D01*
X206687895Y-83635235D01*
X206696027Y-83631867D01*
X207121636Y-83631867D01*
X207121637Y-83631866D01*
X207121637Y-83361051D01*
X207121636Y-83361050D01*
X206676958Y-83361050D01*
X206668826Y-83357682D01*
X206665458Y-83349550D01*
X206665458Y-83267037D01*
X206668826Y-83258905D01*
X206676958Y-83255537D01*
X207234334Y-83255537D01*
X207242466Y-83258905D01*
G37*
G36*
X206540614Y-81732883D02*
G01*
X206542321Y-81735062D01*
X206576573Y-81791669D01*
X206576581Y-81791680D01*
X206626601Y-81853281D01*
X206626611Y-81853292D01*
X206687097Y-81911255D01*
X206690637Y-81919313D01*
X206690640Y-81919558D01*
X206690640Y-81944746D01*
X206687272Y-81952878D01*
X206679140Y-81956246D01*
X206673694Y-81954875D01*
X206608949Y-81920061D01*
X206607712Y-81919291D01*
X206556062Y-81882411D01*
X206556062Y-82546486D01*
X206552694Y-82554618D01*
X206544562Y-82557986D01*
X206508822Y-82557986D01*
X206500690Y-82554618D01*
X206497322Y-82546486D01*
X206497322Y-81882411D01*
X206445671Y-81919291D01*
X206444434Y-81920061D01*
X206379690Y-81954875D01*
X206370933Y-81955759D01*
X206364115Y-81950192D01*
X206362744Y-81944746D01*
X206362744Y-81919558D01*
X206366112Y-81911426D01*
X206366287Y-81911255D01*
X206426770Y-81853293D01*
X206426775Y-81853287D01*
X206476801Y-81791680D01*
X206476805Y-81791675D01*
X206511063Y-81735061D01*
X206518155Y-81729848D01*
X206520902Y-81729515D01*
X206532482Y-81729515D01*
X206540614Y-81732883D01*
G37*
G36*
X204363922Y-81732883D02*
G01*
X204365629Y-81735062D01*
X204399881Y-81791669D01*
X204399889Y-81791680D01*
X204449909Y-81853281D01*
X204449919Y-81853292D01*
X204510405Y-81911255D01*
X204513945Y-81919313D01*
X204513948Y-81919558D01*
X204513948Y-81944746D01*
X204510580Y-81952878D01*
X204502448Y-81956246D01*
X204497002Y-81954875D01*
X204432257Y-81920061D01*
X204431020Y-81919291D01*
X204379370Y-81882411D01*
X204379370Y-82546486D01*
X204376002Y-82554618D01*
X204367870Y-82557986D01*
X204332129Y-82557986D01*
X204323997Y-82554618D01*
X204320629Y-82546486D01*
X204320629Y-81882411D01*
X204268978Y-81919291D01*
X204267741Y-81920061D01*
X204202997Y-81954875D01*
X204194240Y-81955759D01*
X204187422Y-81950192D01*
X204186051Y-81944746D01*
X204186051Y-81919558D01*
X204189419Y-81911426D01*
X204189594Y-81911255D01*
X204250079Y-81853292D01*
X204250089Y-81853281D01*
X204300109Y-81791680D01*
X204300117Y-81791669D01*
X204334370Y-81735062D01*
X204341462Y-81729848D01*
X204344209Y-81729515D01*
X204355790Y-81729515D01*
X204363922Y-81732883D01*
G37*
G36*
X205650980Y-83258905D02*
G01*
X205654348Y-83267037D01*
X205654348Y-84162000D01*
X205650980Y-84170132D01*
X205642848Y-84173500D01*
X205541650Y-84173500D01*
X205533518Y-84170132D01*
X205530150Y-84162000D01*
X205530150Y-83804205D01*
X205530149Y-83804204D01*
X205374405Y-83804204D01*
X205373656Y-83804180D01*
X205296794Y-83799163D01*
X205295047Y-83798913D01*
X205233712Y-83785277D01*
X205231715Y-83784637D01*
X205182788Y-83763869D01*
X205180695Y-83762710D01*
X205141828Y-83735556D01*
X205139857Y-83733812D01*
X205108234Y-83698592D01*
X205106671Y-83696371D01*
X205083437Y-83653325D01*
X205082487Y-83650979D01*
X205067586Y-83598035D01*
X205067195Y-83595866D01*
X205061795Y-83530487D01*
X205061796Y-83529537D01*
X205192619Y-83529537D01*
X205192619Y-83529538D01*
X205198403Y-83582879D01*
X205214428Y-83624591D01*
X205214432Y-83624597D01*
X205239990Y-83657366D01*
X205274138Y-83681387D01*
X205317895Y-83696660D01*
X205374019Y-83702208D01*
X205374026Y-83702209D01*
X205530149Y-83702209D01*
X205530150Y-83702208D01*
X205530150Y-83357534D01*
X205530149Y-83357533D01*
X205374019Y-83357533D01*
X205317895Y-83363080D01*
X205274140Y-83378352D01*
X205239987Y-83402378D01*
X205214401Y-83435127D01*
X205214400Y-83435129D01*
X205198389Y-83476646D01*
X205198387Y-83476654D01*
X205192619Y-83529537D01*
X205061796Y-83529537D01*
X205061796Y-83528588D01*
X205067170Y-83463920D01*
X205067563Y-83461745D01*
X205082423Y-83409151D01*
X205083374Y-83406809D01*
X205106611Y-83363823D01*
X205108164Y-83361616D01*
X205139861Y-83326256D01*
X205141817Y-83324519D01*
X205180718Y-83297214D01*
X205182815Y-83296048D01*
X205231743Y-83275187D01*
X205233747Y-83274542D01*
X205295074Y-83260848D01*
X205296828Y-83260597D01*
X205373643Y-83255562D01*
X205374395Y-83255537D01*
X205642848Y-83255537D01*
X205650980Y-83258905D01*
G37*
G36*
X202910282Y-83258905D02*
G01*
X202913650Y-83267037D01*
X202913650Y-84162000D01*
X202910282Y-84170132D01*
X202902150Y-84173500D01*
X202333728Y-84173500D01*
X202325596Y-84170132D01*
X202322228Y-84162000D01*
X202322228Y-84079487D01*
X202325596Y-84071355D01*
X202333728Y-84067987D01*
X202789451Y-84067987D01*
X202789452Y-84067986D01*
X202789452Y-83737380D01*
X202789451Y-83737379D01*
X202363843Y-83737379D01*
X202355711Y-83734011D01*
X202352343Y-83725879D01*
X202352343Y-83643367D01*
X202355711Y-83635235D01*
X202363843Y-83631867D01*
X202789451Y-83631867D01*
X202789452Y-83631866D01*
X202789452Y-83361051D01*
X202789451Y-83361050D01*
X202344774Y-83361050D01*
X202336642Y-83357682D01*
X202333274Y-83349550D01*
X202333274Y-83267037D01*
X202336642Y-83258905D01*
X202344774Y-83255537D01*
X202902150Y-83255537D01*
X202910282Y-83258905D01*
G37*
G36*
X205452268Y-81732883D02*
G01*
X205453975Y-81735062D01*
X205488227Y-81791669D01*
X205488235Y-81791680D01*
X205538255Y-81853281D01*
X205538265Y-81853292D01*
X205598751Y-81911255D01*
X205602291Y-81919313D01*
X205602294Y-81919558D01*
X205602294Y-81944746D01*
X205598926Y-81952878D01*
X205590794Y-81956246D01*
X205585348Y-81954875D01*
X205520603Y-81920061D01*
X205519366Y-81919291D01*
X205467716Y-81882411D01*
X205467716Y-82546486D01*
X205464348Y-82554618D01*
X205456216Y-82557986D01*
X205420475Y-82557986D01*
X205412343Y-82554618D01*
X205408975Y-82546486D01*
X205408975Y-81882411D01*
X205357324Y-81919291D01*
X205356087Y-81920061D01*
X205291344Y-81954875D01*
X205282587Y-81955759D01*
X205275769Y-81950192D01*
X205274398Y-81944746D01*
X205274398Y-81919558D01*
X205277766Y-81911426D01*
X205277941Y-81911255D01*
X205338424Y-81853293D01*
X205338429Y-81853287D01*
X205388455Y-81791680D01*
X205388463Y-81791669D01*
X205422716Y-81735062D01*
X205429808Y-81729848D01*
X205432555Y-81729515D01*
X205444136Y-81729515D01*
X205452268Y-81732883D01*
G37*
G36*
X198918890Y-85621727D02*
G01*
X198921089Y-85621948D01*
X198935712Y-85624857D01*
X198941600Y-85628004D01*
X198963727Y-85650131D01*
X198966874Y-85656019D01*
X198969779Y-85670620D01*
X198970000Y-85672864D01*
X198970000Y-86791916D01*
X198966632Y-86800048D01*
X198962393Y-86802737D01*
X196830000Y-87569999D01*
X196684184Y-87724927D01*
X196676158Y-87728540D01*
X196675905Y-87728545D01*
X196511323Y-87729906D01*
X196503164Y-87726605D01*
X196499731Y-87718679D01*
X196493644Y-87462145D01*
X196496819Y-87453935D01*
X196498382Y-87452568D01*
X196589389Y-87386449D01*
X196711449Y-87264389D01*
X196812900Y-87124752D01*
X196891268Y-86970948D01*
X196944607Y-86806787D01*
X196971609Y-86636307D01*
X196971609Y-86619999D01*
X197158418Y-86619999D01*
X197158419Y-86620000D01*
X197254032Y-86620000D01*
X197368645Y-86427358D01*
X197368965Y-86426851D01*
X197398982Y-86381909D01*
X197399891Y-86380722D01*
X197414342Y-86364211D01*
X197415348Y-86363197D01*
X197429117Y-86350935D01*
X197430542Y-86349852D01*
X197445122Y-86340471D01*
X197446973Y-86339505D01*
X197462326Y-86333195D01*
X197464237Y-86332598D01*
X197481004Y-86328925D01*
X197482706Y-86328684D01*
X197503271Y-86327324D01*
X197504030Y-86327299D01*
X197558144Y-86327299D01*
X197566276Y-86330667D01*
X197569644Y-86338799D01*
X197569644Y-86619999D01*
X197569645Y-86620000D01*
X197649999Y-86620000D01*
X197650000Y-86619999D01*
X197744503Y-86619999D01*
X197744504Y-86620000D01*
X197840117Y-86620000D01*
X197954730Y-86427358D01*
X197955050Y-86426851D01*
X197985067Y-86381909D01*
X197985976Y-86380722D01*
X198000423Y-86364216D01*
X198001429Y-86363202D01*
X198015207Y-86350933D01*
X198016631Y-86349851D01*
X198031206Y-86340471D01*
X198033059Y-86339504D01*
X198048412Y-86333195D01*
X198050322Y-86332598D01*
X198067089Y-86328925D01*
X198068791Y-86328684D01*
X198089357Y-86327324D01*
X198090116Y-86327299D01*
X198144229Y-86327299D01*
X198152361Y-86330667D01*
X198155729Y-86338799D01*
X198155729Y-86619999D01*
X198155730Y-86620000D01*
X198236084Y-86620000D01*
X198236085Y-86619999D01*
X198236085Y-86548877D01*
X198367775Y-86548877D01*
X198367775Y-86619999D01*
X198367776Y-86620000D01*
X198731213Y-86620000D01*
X198731214Y-86619999D01*
X198731214Y-85933385D01*
X198731213Y-85933384D01*
X198383077Y-85933384D01*
X198383076Y-85933385D01*
X198383076Y-86004507D01*
X198383077Y-86004508D01*
X198639358Y-86004508D01*
X198647490Y-86007876D01*
X198650858Y-86016008D01*
X198650858Y-86222791D01*
X198647490Y-86230923D01*
X198639358Y-86234291D01*
X198403166Y-86234291D01*
X198403165Y-86234292D01*
X198403165Y-86305414D01*
X198403166Y-86305415D01*
X198639358Y-86305415D01*
X198647490Y-86308783D01*
X198650858Y-86316915D01*
X198650858Y-86537376D01*
X198647490Y-86545508D01*
X198639358Y-86548876D01*
X198367776Y-86548876D01*
X198367775Y-86548877D01*
X198236085Y-86548877D01*
X198236085Y-85933385D01*
X198236084Y-85933384D01*
X198031441Y-85933384D01*
X197987566Y-85936282D01*
X197948471Y-85944625D01*
X197912583Y-85958996D01*
X197882476Y-85978862D01*
X197857642Y-86004528D01*
X197838707Y-86036095D01*
X197827080Y-86072226D01*
X197827078Y-86072235D01*
X197822936Y-86116269D01*
X197822936Y-86116279D01*
X197823439Y-86122606D01*
X197825710Y-86151180D01*
X197833707Y-86182101D01*
X197833708Y-86182104D01*
X197846783Y-86210514D01*
X197864310Y-86235486D01*
X197886014Y-86257078D01*
X197912092Y-86275449D01*
X197912097Y-86275452D01*
X197941374Y-86289931D01*
X197941392Y-86289938D01*
X197952919Y-86293754D01*
X197959580Y-86299507D01*
X197960222Y-86308285D01*
X197955113Y-86314596D01*
X197945099Y-86320456D01*
X197945086Y-86320465D01*
X197920942Y-86343713D01*
X197898210Y-86374094D01*
X197898198Y-86374111D01*
X197873142Y-86413554D01*
X197744503Y-86619999D01*
X197650000Y-86619999D01*
X197650000Y-85933385D01*
X197649999Y-85933384D01*
X197445356Y-85933384D01*
X197401481Y-85936282D01*
X197362386Y-85944625D01*
X197326498Y-85958996D01*
X197296391Y-85978862D01*
X197271557Y-86004528D01*
X197252622Y-86036095D01*
X197240995Y-86072226D01*
X197240993Y-86072235D01*
X197236851Y-86116269D01*
X197236851Y-86116279D01*
X197237354Y-86122606D01*
X197239625Y-86151180D01*
X197247622Y-86182101D01*
X197247623Y-86182104D01*
X197260698Y-86210514D01*
X197278227Y-86235489D01*
X197299925Y-86257074D01*
X197326014Y-86275453D01*
X197355289Y-86289931D01*
X197355307Y-86289938D01*
X197366834Y-86293754D01*
X197373495Y-86299507D01*
X197374137Y-86308285D01*
X197369028Y-86314596D01*
X197359014Y-86320456D01*
X197359001Y-86320465D01*
X197334857Y-86343713D01*
X197312125Y-86374094D01*
X197312121Y-86374100D01*
X197287003Y-86413639D01*
X197158418Y-86619999D01*
X196971609Y-86619999D01*
X196971609Y-86463692D01*
X196944607Y-86293212D01*
X196891268Y-86129051D01*
X196812900Y-85975247D01*
X196711449Y-85835610D01*
X196589392Y-85713553D01*
X196478572Y-85633038D01*
X196473974Y-85625533D01*
X196476028Y-85616974D01*
X196483533Y-85612376D01*
X196485377Y-85612234D01*
X198918890Y-85621727D01*
G37*
G36*
X198152361Y-86007876D02*
G01*
X198155729Y-86016008D01*
X198155729Y-86244675D01*
X198152361Y-86252807D01*
X198144229Y-86256175D01*
X198047154Y-86256175D01*
X198046233Y-86256138D01*
X198018387Y-86253900D01*
X198016420Y-86253569D01*
X197992074Y-86247253D01*
X197990071Y-86246529D01*
X197968043Y-86236178D01*
X197966055Y-86234985D01*
X197947787Y-86221348D01*
X197945998Y-86219690D01*
X197931101Y-86202602D01*
X197929681Y-86200566D01*
X197918189Y-86179569D01*
X197917263Y-86177355D01*
X197910148Y-86153660D01*
X197909709Y-86151393D01*
X197907205Y-86123810D01*
X197907239Y-86121405D01*
X197911147Y-86088715D01*
X197911965Y-86085623D01*
X197922592Y-86060343D01*
X197924421Y-86057364D01*
X197941647Y-86037044D01*
X197944162Y-86034831D01*
X197966991Y-86020027D01*
X197969744Y-86018723D01*
X198000626Y-86008845D01*
X198003100Y-86008344D01*
X198045242Y-86004554D01*
X198046272Y-86004508D01*
X198144229Y-86004508D01*
X198152361Y-86007876D01*
G37*
G36*
X197566276Y-86007876D02*
G01*
X197569644Y-86016008D01*
X197569644Y-86244675D01*
X197566276Y-86252807D01*
X197558144Y-86256175D01*
X197461069Y-86256175D01*
X197460148Y-86256138D01*
X197432302Y-86253900D01*
X197430335Y-86253569D01*
X197405989Y-86247253D01*
X197403986Y-86246529D01*
X197381958Y-86236178D01*
X197379970Y-86234985D01*
X197361702Y-86221348D01*
X197359913Y-86219690D01*
X197345017Y-86202603D01*
X197343597Y-86200567D01*
X197332103Y-86179567D01*
X197331177Y-86177353D01*
X197324063Y-86153660D01*
X197323624Y-86151393D01*
X197321120Y-86123810D01*
X197321154Y-86121405D01*
X197325062Y-86088715D01*
X197325880Y-86085623D01*
X197336507Y-86060343D01*
X197338336Y-86057364D01*
X197355562Y-86037044D01*
X197358077Y-86034831D01*
X197380906Y-86020027D01*
X197383659Y-86018723D01*
X197414541Y-86008845D01*
X197417015Y-86008344D01*
X197459156Y-86004554D01*
X197460186Y-86004508D01*
X197558144Y-86004508D01*
X197566276Y-86007876D01*
G37*
G36*
X202187229Y-81732883D02*
G01*
X202188936Y-81735061D01*
X202223192Y-81791673D01*
X202273229Y-81853295D01*
X202333712Y-81911255D01*
X202337252Y-81919313D01*
X202337255Y-81919558D01*
X202337255Y-81944746D01*
X202333887Y-81952878D01*
X202325755Y-81956246D01*
X202320309Y-81954875D01*
X202255564Y-81920061D01*
X202254327Y-81919291D01*
X202202677Y-81882411D01*
X202202677Y-82546486D01*
X202199309Y-82554618D01*
X202191177Y-82557986D01*
X202155437Y-82557986D01*
X202147305Y-82554618D01*
X202143937Y-82546486D01*
X202143937Y-81882411D01*
X202092286Y-81919291D01*
X202091049Y-81920061D01*
X202026305Y-81954875D01*
X202017548Y-81955759D01*
X202010730Y-81950192D01*
X202009359Y-81944746D01*
X202009359Y-81919558D01*
X202012727Y-81911426D01*
X202012902Y-81911255D01*
X202073387Y-81853292D01*
X202073397Y-81853281D01*
X202123417Y-81791680D01*
X202123425Y-81791669D01*
X202157678Y-81735062D01*
X202164770Y-81729848D01*
X202167517Y-81729515D01*
X202179097Y-81729515D01*
X202187229Y-81732883D01*
G37*
G36*
X196833065Y-82704290D02*
G01*
X196836041Y-82709446D01*
X196842835Y-82734803D01*
X196881993Y-82802627D01*
X196937372Y-82858006D01*
X197005190Y-82897161D01*
X197005200Y-82897165D01*
X197080842Y-82917433D01*
X197159158Y-82917433D01*
X197234799Y-82897165D01*
X197234809Y-82897161D01*
X197302627Y-82858006D01*
X197358006Y-82802627D01*
X197397164Y-82734803D01*
X197403959Y-82709446D01*
X197409317Y-82702463D01*
X197415067Y-82700922D01*
X198898867Y-82700922D01*
X198901110Y-82701143D01*
X198915711Y-82704047D01*
X198921600Y-82707194D01*
X198943727Y-82729321D01*
X198946874Y-82735209D01*
X198949779Y-82749810D01*
X198950000Y-82752054D01*
X198950000Y-84738057D01*
X198949779Y-84740301D01*
X198946874Y-84754902D01*
X198943727Y-84760790D01*
X198921600Y-84782917D01*
X198915712Y-84786064D01*
X198901111Y-84788969D01*
X198898867Y-84789190D01*
X196433659Y-84789190D01*
X196425527Y-84785822D01*
X196422159Y-84777690D01*
X196425527Y-84769558D01*
X196428438Y-84767443D01*
X196500874Y-84730534D01*
X196646864Y-84624466D01*
X196774466Y-84496864D01*
X196880534Y-84350874D01*
X196962462Y-84190082D01*
X197018225Y-84018459D01*
X197046455Y-83840230D01*
X197046455Y-83681675D01*
X197133363Y-83681675D01*
X197133363Y-83681683D01*
X197133475Y-83683561D01*
X197133475Y-83683564D01*
X197137098Y-83745135D01*
X197137098Y-83745140D01*
X197147830Y-83801414D01*
X197147836Y-83801436D01*
X197165138Y-83851636D01*
X197188968Y-83896671D01*
X197219637Y-83937148D01*
X197219641Y-83937153D01*
X197255415Y-83971030D01*
X197255417Y-83971032D01*
X197295670Y-83997642D01*
X197295677Y-83997645D01*
X197341040Y-84017159D01*
X197341045Y-84017161D01*
X197392363Y-84029358D01*
X197392371Y-84029359D01*
X197450614Y-84033623D01*
X197450639Y-84033624D01*
X197606376Y-84033624D01*
X197606377Y-84033623D01*
X197606377Y-83347009D01*
X197760359Y-83347009D01*
X197760359Y-84033623D01*
X197760360Y-84033624D01*
X197844806Y-84033624D01*
X197844806Y-84033623D01*
X198144390Y-83491570D01*
X198151271Y-83486082D01*
X198160018Y-83487068D01*
X198165506Y-83493949D01*
X198165953Y-83497319D01*
X198165302Y-83537523D01*
X198165302Y-84033623D01*
X198165303Y-84033624D01*
X198234177Y-84033624D01*
X198234178Y-84033623D01*
X198234178Y-83675271D01*
X198371015Y-83675271D01*
X198371015Y-83987333D01*
X198416106Y-84012189D01*
X198416117Y-84012194D01*
X198463638Y-84030018D01*
X198463640Y-84030019D01*
X198514028Y-84040870D01*
X198514037Y-84040871D01*
X198567753Y-84044565D01*
X198567760Y-84044565D01*
X198617851Y-84040498D01*
X198662483Y-84028782D01*
X198702510Y-84009840D01*
X198738592Y-83983692D01*
X198738598Y-83983686D01*
X198771232Y-83949933D01*
X198798598Y-83910634D01*
X198798601Y-83910628D01*
X198820041Y-83866680D01*
X198835718Y-83817443D01*
X198835720Y-83817434D01*
X198845491Y-83762034D01*
X198845493Y-83762019D01*
X198848900Y-83699430D01*
X198845211Y-83636025D01*
X198834556Y-83579083D01*
X198817288Y-83527608D01*
X198793430Y-83480834D01*
X198793425Y-83480827D01*
X198762618Y-83438131D01*
X198726372Y-83401480D01*
X198726366Y-83401475D01*
X198686924Y-83373222D01*
X198686923Y-83373221D01*
X198643830Y-83352879D01*
X198596450Y-83340378D01*
X198596453Y-83340378D01*
X198543980Y-83336066D01*
X198543964Y-83336065D01*
X198480554Y-83340470D01*
X198480539Y-83340473D01*
X198427389Y-83352783D01*
X198382886Y-83371969D01*
X198382886Y-83459846D01*
X198418518Y-83437750D01*
X198420205Y-83436887D01*
X198458371Y-83421191D01*
X198460158Y-83420622D01*
X198502292Y-83410895D01*
X198504051Y-83410630D01*
X198550832Y-83407254D01*
X198552646Y-83407266D01*
X198589721Y-83410457D01*
X198591804Y-83410832D01*
X198624855Y-83419984D01*
X198626905Y-83420769D01*
X198656834Y-83435647D01*
X198658661Y-83436780D01*
X198686126Y-83457594D01*
X198687604Y-83458931D01*
X198712956Y-83486212D01*
X198714182Y-83487785D01*
X198740176Y-83527889D01*
X198741160Y-83529766D01*
X198759969Y-83575453D01*
X198760558Y-83577322D01*
X198772316Y-83629914D01*
X198772567Y-83631644D01*
X198776713Y-83692691D01*
X198776716Y-83694192D01*
X198772713Y-83757797D01*
X198772490Y-83759443D01*
X198761322Y-83812517D01*
X198760767Y-83814366D01*
X198743293Y-83858696D01*
X198742308Y-83860634D01*
X198718786Y-83897760D01*
X198717313Y-83899626D01*
X198687757Y-83929993D01*
X198685700Y-83931668D01*
X198651762Y-83953313D01*
X198649286Y-83954503D01*
X198609723Y-83967980D01*
X198607184Y-83968534D01*
X198560210Y-83973332D01*
X198558080Y-83973352D01*
X198514964Y-83969735D01*
X198512879Y-83969364D01*
X198475554Y-83959112D01*
X198473437Y-83958299D01*
X198446192Y-83944611D01*
X198440438Y-83937951D01*
X198439855Y-83934335D01*
X198439855Y-83757894D01*
X198443223Y-83749762D01*
X198451355Y-83746394D01*
X198568558Y-83746394D01*
X198568559Y-83746393D01*
X198568559Y-83675271D01*
X198568558Y-83675270D01*
X198371016Y-83675270D01*
X198371015Y-83675271D01*
X198234178Y-83675271D01*
X198234178Y-83347009D01*
X198234177Y-83347008D01*
X198144822Y-83347008D01*
X197850563Y-83885681D01*
X197849955Y-83886856D01*
X197843224Y-83892527D01*
X197834454Y-83891777D01*
X197828783Y-83885046D01*
X197828246Y-83881350D01*
X197829199Y-83830595D01*
X197829199Y-83347009D01*
X197829198Y-83347008D01*
X197760360Y-83347008D01*
X197760359Y-83347009D01*
X197606377Y-83347009D01*
X197606376Y-83347008D01*
X197444057Y-83347008D01*
X197379069Y-83351112D01*
X197324522Y-83362569D01*
X197324515Y-83362571D01*
X197278843Y-83380372D01*
X197278842Y-83380373D01*
X197240707Y-83403879D01*
X197240703Y-83403882D01*
X197209021Y-83432880D01*
X197183007Y-83467604D01*
X197183003Y-83467611D01*
X197162263Y-83508674D01*
X197162262Y-83508677D01*
X197146760Y-83557125D01*
X197146758Y-83557133D01*
X197136878Y-83614275D01*
X197133363Y-83681675D01*
X197046455Y-83681675D01*
X197046455Y-83659769D01*
X197018225Y-83481540D01*
X196962462Y-83309917D01*
X196880534Y-83149125D01*
X196774466Y-83003135D01*
X196646864Y-82875533D01*
X196500874Y-82769465D01*
X196409032Y-82722669D01*
X196403316Y-82715976D01*
X196404006Y-82707201D01*
X196410699Y-82701485D01*
X196414253Y-82700922D01*
X196824933Y-82700922D01*
X196833065Y-82704290D01*
G37*
G36*
X197534132Y-83421500D02*
G01*
X197537500Y-83429632D01*
X197537500Y-83951000D01*
X197534132Y-83959132D01*
X197526000Y-83962500D01*
X197450201Y-83962500D01*
X197449394Y-83962472D01*
X197403774Y-83959262D01*
X197401998Y-83958996D01*
X197363236Y-83950061D01*
X197361356Y-83949454D01*
X197328006Y-83935411D01*
X197326174Y-83934436D01*
X197297317Y-83915561D01*
X197295693Y-83914276D01*
X197270597Y-83890442D01*
X197269273Y-83888945D01*
X197248050Y-83860274D01*
X197247034Y-83858629D01*
X197230174Y-83825351D01*
X197229495Y-83823706D01*
X197216923Y-83784989D01*
X197216537Y-83783443D01*
X197208536Y-83738285D01*
X197208377Y-83736898D01*
X197205535Y-83684198D01*
X197205537Y-83682924D01*
X197208837Y-83625080D01*
X197209024Y-83623570D01*
X197218144Y-83575997D01*
X197218619Y-83574264D01*
X197232685Y-83535223D01*
X197233561Y-83533343D01*
X197252160Y-83501337D01*
X197253509Y-83499474D01*
X197276753Y-83473331D01*
X197278538Y-83471704D01*
X197307148Y-83450685D01*
X197309195Y-83449485D01*
X197344385Y-83433475D01*
X197346447Y-83432764D01*
X197389771Y-83422299D01*
X197391649Y-83422007D01*
X197445286Y-83418161D01*
X197446108Y-83418132D01*
X197526000Y-83418132D01*
X197534132Y-83421500D01*
G37*
G36*
X201881429Y-83258905D02*
G01*
X201884041Y-83262935D01*
X202225707Y-84157898D01*
X202225460Y-84166697D01*
X202219065Y-84172744D01*
X202214963Y-84173500D01*
X202108828Y-84173500D01*
X202100696Y-84170132D01*
X202097990Y-84165844D01*
X202017121Y-83937854D01*
X201603309Y-83937854D01*
X201522441Y-84165844D01*
X201516548Y-84172382D01*
X201511603Y-84173500D01*
X201407271Y-84173500D01*
X201399139Y-84170132D01*
X201395771Y-84162000D01*
X201396525Y-84157905D01*
X201519259Y-83835858D01*
X201519259Y-83835857D01*
X201642053Y-83835857D01*
X201642054Y-83835858D01*
X201979585Y-83835858D01*
X201979585Y-83835857D01*
X201811150Y-83378140D01*
X201811149Y-83378140D01*
X201642053Y-83835857D01*
X201519259Y-83835857D01*
X201737601Y-83262942D01*
X201743644Y-83256543D01*
X201748347Y-83255537D01*
X201873297Y-83255537D01*
X201881429Y-83258905D01*
G37*
M02*
